<?xml version="1.0" encoding="utf-8"?>
<!-- Generator: Adobe Illustrator 16.0.4, SVG Export Plug-In . SVG Version: 6.00 Build 0)  -->
<!DOCTYPE svg PUBLIC "-//W3C//DTD SVG 1.1//EN" "http://www.w3.org/Graphics/SVG/1.1/DTD/svg11.dtd">
<svg version="1.1" id="Layer_1" xmlns="http://www.w3.org/2000/svg" xmlns:xlink="http://www.w3.org/1999/xlink" x="0px" y="0px"
	 width="267.667px" height="271.803px" viewBox="0 0 267.667 271.803" enable-background="new 0 0 267.667 271.803"
	 xml:space="preserve">
<g enable-background="new    ">
	<path d="M146.539,22.448h-1.244l-0.757-3.052l-0.176-0.892h-0.009l-0.16,0.892l-0.698,3.052h-1.244
		c-0.562-1.892-0.958-3.59-1.361-5.675h1.219c0.235,1.387,0.538,2.64,0.866,4.245h0.009l0.134-0.756l0.808-3.489h1.102l0.84,3.472
		l0.152,0.773h0.008c0.303-1.479,0.572-2.824,0.799-4.245h1.06C147.49,18.824,147.07,20.615,146.539,22.448z"/>
	<path d="M148.635,22.448v-5.675h1.136v5.675H148.635z"/>
	<path d="M154.047,22.448l-2.093-4.044v4.044h-0.942v-5.675h1.396l1.884,3.514v-3.514h0.941v5.675H154.047z"/>
	<path d="M157.792,22.532c-0.647,0-1.228-0.235-1.689-0.563l0.285-0.588c0.454,0.21,0.899,0.319,1.202,0.319
		c0.589,0,0.958-0.27,0.958-0.731c0-1.11-2.37-0.892-2.37-2.674c0-0.976,0.757-1.605,1.815-1.605c0.53,0,1.043,0.143,1.521,0.462
		l-0.269,0.589c-0.361-0.144-0.731-0.228-1.067-0.228c-0.538,0-0.799,0.27-0.799,0.647c0,1.11,2.43,0.925,2.43,2.674
		C159.81,21.792,159.087,22.532,157.792,22.532z"/>
	<path d="M164.185,22.464c-0.463,0-1-0.017-1.53-0.017v-5.675h1.866c1.203,0,1.725,0.546,1.725,1.337
		c0,0.622-0.303,1.009-0.749,1.219c0.597,0.109,1.042,0.622,1.042,1.312C166.538,21.641,165.841,22.464,164.185,22.464z
		 M164.311,17.563h-0.546v1.521h0.428c0.674,0,0.908-0.395,0.908-0.807S164.866,17.563,164.311,17.563z M164.286,19.858h-0.521
		v1.766c0.125,0.018,0.387,0.034,0.58,0.034c0.715,0,1-0.379,1-0.934C165.345,20.245,165.068,19.858,164.286,19.858z"/>
	<path d="M169.275,20.077v2.371h-1.135v-2.371c-0.588-0.983-1.067-2.001-1.529-3.304h1.244c0.285,0.832,0.58,1.547,0.941,2.262
		c0.361-0.682,0.647-1.497,0.883-2.262h1.127C170.351,18.042,169.865,19.161,169.275,20.077z"/>
	<path d="M174.718,22.532c-0.647,0-1.228-0.235-1.689-0.563l0.285-0.588c0.454,0.21,0.899,0.319,1.202,0.319
		c0.589,0,0.958-0.27,0.958-0.731c0-1.11-2.37-0.892-2.37-2.674c0-0.976,0.757-1.605,1.815-1.605c0.53,0,1.043,0.143,1.521,0.462
		l-0.269,0.589c-0.361-0.144-0.731-0.228-1.067-0.228c-0.538,0-0.799,0.27-0.799,0.647c0,1.11,2.43,0.925,2.43,2.674
		C176.736,21.792,176.013,22.532,174.718,22.532z"/>
	<path d="M177.564,22.448v-5.675h2.943v0.865h-1.808v1.497h1.497v0.832h-1.497v1.606h1.841v0.874H177.564z"/>
	<path d="M184.421,22.448c-0.066-0.319-0.159-0.79-0.244-1.118h-1.874c-0.075,0.319-0.169,0.731-0.235,1.118h-1.085
		c0.421-1.892,0.976-3.851,1.572-5.675h1.488c0.655,1.941,1.151,3.767,1.606,5.675H184.421z M183.21,17.773
		c-0.234,0.808-0.521,1.85-0.73,2.707h1.513C183.757,19.606,183.488,18.648,183.21,17.773z"/>
	<path d="M187.662,22.532c-0.647,0-1.228-0.235-1.69-0.563l0.286-0.588c0.454,0.21,0.899,0.319,1.202,0.319
		c0.589,0,0.959-0.27,0.959-0.731c0-1.11-2.371-0.892-2.371-2.674c0-0.976,0.756-1.605,1.816-1.605c0.529,0,1.042,0.143,1.521,0.462
		l-0.27,0.589c-0.361-0.144-0.731-0.228-1.067-0.228c-0.538,0-0.799,0.27-0.799,0.647c0,1.11,2.43,0.925,2.43,2.674
		C189.68,21.792,188.956,22.532,187.662,22.532z"/>
	<path d="M192.493,22.541c-1.447,0-2.279-0.731-2.279-2.834c0-2.11,0.976-3.026,2.413-3.026c1.479,0,2.287,0.782,2.287,2.816
		C194.914,21.624,193.939,22.541,192.493,22.541z M192.534,17.546c-0.664,0-1.126,0.454-1.126,1.967
		c0,1.656,0.421,2.161,1.177,2.161c0.664,0,1.135-0.463,1.135-1.992C193.72,18.05,193.292,17.546,192.534,17.546z"/>
	<path d="M198.886,22.448l-2.094-4.044v4.044h-0.941v-5.675h1.396l1.884,3.514v-3.514h0.941v5.675H198.886z"/>
</g>
<rect x="10.256" y="105.383" fill="none" width="8.75" height="17.25"/>
<g enable-background="new    ">
	<path d="M11.04,122.02h-0.547v-1.278H6.03l0.454,1.144l-0.412,0.168l-0.706-1.471v-0.555h5.128v-1.144h0.547V122.02z"/>
	<path d="M11.108,116.684c0,0.37-0.067,0.757-0.277,1.329l-0.412-0.067c0.109-0.454,0.168-0.832,0.168-1.202
		c0-0.791-0.655-1.32-2.304-1.337c0.261,0.454,0.403,0.807,0.403,1.261c0,0.883-0.562,1.371-1.521,1.371
		c-1.151,0-1.866-0.647-1.866-1.64c0-1.084,0.546-1.673,2.716-1.673C10.519,114.726,11.108,115.642,11.108,116.684z M7.77,115.415
		c-1.37,0-1.959,0.328-1.959,1.026c0,0.622,0.462,0.925,1.236,0.925c0.731,0,1.109-0.277,1.109-0.941
		c0-0.286-0.101-0.58-0.354-1.009H7.77z"/>
	<path d="M11.108,112.484c0,0.37-0.067,0.757-0.277,1.329l-0.412-0.067c0.109-0.454,0.168-0.832,0.168-1.202
		c0-0.791-0.655-1.32-2.304-1.337c0.261,0.454,0.403,0.807,0.403,1.261c0,0.883-0.562,1.371-1.521,1.371
		c-1.151,0-1.866-0.647-1.866-1.64c0-1.084,0.546-1.673,2.716-1.673C10.519,110.525,11.108,111.441,11.108,112.484z M7.77,111.214
		c-1.37,0-1.959,0.328-1.959,1.026c0,0.622,0.462,0.925,1.236,0.925c0.731,0,1.109-0.277,1.109-0.941
		c0-0.286-0.101-0.58-0.354-1.009H7.77z"/>
	<path d="M11.108,108.2c0,0.404-0.093,0.917-0.312,1.539l-0.403-0.059c0.109-0.563,0.185-1.051,0.185-1.438
		c0-0.79-0.319-1.16-1.193-1.16c-0.766,0-1.244,0.353-1.244,1.236c0,0.378,0.042,0.731,0.126,1.161l-2.9-0.177v-2.556h0.588v2.01
		l1.698,0.109c-0.042-0.177-0.059-0.496-0.059-0.782c0-1.143,0.664-1.732,1.707-1.732C10.519,106.35,11.108,106.947,11.108,108.2z"
		/>
</g>
<g>
	<circle fill="#999967" cx="7.921" cy="96.658" r="3.6"/>
	<circle fill="#999967" cx="7.921" cy="87.161" r="3.6"/>
</g>
<g>
	<circle fill="#BC6771" cx="7.921" cy="141.221" r="3.6"/>
	<circle fill="#BC6771" cx="7.921" cy="131.353" r="3.6"/>
	<circle fill="#BC6771" cx="7.921" cy="151.089" r="3.6"/>
</g>
<rect x="22.7" y="105.383" fill="none" width="8.75" height="17.25"/>
<g enable-background="new    ">
	<path d="M23.485,122.02h-0.547v-1.278h-4.464l0.454,1.144l-0.412,0.168l-0.706-1.471v-0.555h5.128v-1.144h0.547V122.02z"/>
	<path d="M23.552,116.684c0,0.37-0.067,0.757-0.277,1.329l-0.412-0.067c0.109-0.454,0.168-0.832,0.168-1.202
		c0-0.791-0.655-1.32-2.304-1.337c0.261,0.454,0.403,0.807,0.403,1.261c0,0.883-0.562,1.371-1.521,1.371
		c-1.151,0-1.866-0.647-1.866-1.64c0-1.084,0.546-1.673,2.716-1.673C22.963,114.726,23.552,115.642,23.552,116.684z M20.214,115.415
		c-1.37,0-1.959,0.328-1.959,1.026c0,0.622,0.462,0.925,1.236,0.925c0.731,0,1.109-0.277,1.109-0.941
		c0-0.286-0.101-0.58-0.354-1.009H20.214z"/>
	<path d="M23.552,112.484c0,0.37-0.067,0.757-0.277,1.329l-0.412-0.067c0.109-0.454,0.168-0.832,0.168-1.202
		c0-0.791-0.655-1.32-2.304-1.337c0.261,0.454,0.403,0.807,0.403,1.261c0,0.883-0.562,1.371-1.521,1.371
		c-1.151,0-1.866-0.647-1.866-1.64c0-1.084,0.546-1.673,2.716-1.673C22.963,110.525,23.552,111.441,23.552,112.484z M20.214,111.214
		c-1.37,0-1.959,0.328-1.959,1.026c0,0.622,0.462,0.925,1.236,0.925c0.731,0,1.109-0.277,1.109-0.941
		c0-0.286-0.101-0.58-0.354-1.009H20.214z"/>
	<path d="M23.552,107.864c0,1.084-0.538,1.665-2.707,1.665c-2.472,0-3.103-0.875-3.103-1.909c0-0.378,0.075-0.756,0.269-1.261
		l0.412,0.076c-0.093,0.362-0.159,0.749-0.159,1.118c0,0.799,0.714,1.287,2.312,1.303c-0.261-0.454-0.403-0.815-0.403-1.261
		c0-0.883,0.563-1.379,1.521-1.379C22.846,106.216,23.552,106.872,23.552,107.864z M20.701,107.83c0,0.294,0.102,0.58,0.354,1.017
		h0.033c1.379,0,1.951-0.328,1.951-1.026c0-0.622-0.446-0.925-1.228-0.925C21.08,106.896,20.701,107.174,20.701,107.83z"/>
</g>
<circle fill="#999967" cx="20.324" cy="96.658" r="3.6"/>
<circle fill="#BC6771" cx="20.324" cy="131.353" r="3.6"/>
<rect x="35.144" y="105.383" fill="none" width="8.75" height="17.25"/>
<g enable-background="new    ">
	<path d="M35.929,122.02h-0.547v-1.278h-4.464l0.454,1.144l-0.412,0.168l-0.706-1.471v-0.555h5.128v-1.144h0.547V122.02z"/>
	<path d="M35.996,116.684c0,0.37-0.067,0.757-0.277,1.329l-0.412-0.067c0.109-0.454,0.168-0.832,0.168-1.202
		c0-0.791-0.655-1.32-2.304-1.337c0.261,0.454,0.403,0.807,0.403,1.261c0,0.883-0.562,1.371-1.521,1.371
		c-1.151,0-1.866-0.647-1.866-1.64c0-1.084,0.546-1.673,2.716-1.673C35.407,114.726,35.996,115.642,35.996,116.684z M32.658,115.415
		c-1.37,0-1.959,0.328-1.959,1.026c0,0.622,0.462,0.925,1.236,0.925c0.731,0,1.109-0.277,1.109-0.941
		c0-0.286-0.101-0.58-0.354-1.009H32.658z"/>
	<path d="M35.996,112.484c0,0.37-0.067,0.757-0.277,1.329l-0.412-0.067c0.109-0.454,0.168-0.832,0.168-1.202
		c0-0.791-0.655-1.32-2.304-1.337c0.261,0.454,0.403,0.807,0.403,1.261c0,0.883-0.562,1.371-1.521,1.371
		c-1.151,0-1.866-0.647-1.866-1.64c0-1.084,0.546-1.673,2.716-1.673C35.407,110.525,35.996,111.441,35.996,112.484z M32.658,111.214
		c-1.37,0-1.959,0.328-1.959,1.026c0,0.622,0.462,0.925,1.236,0.925c0.731,0,1.109-0.277,1.109-0.941
		c0-0.286-0.101-0.58-0.354-1.009H32.658z"/>
	<path d="M33.331,107.359c0.874,0.404,1.934,0.976,2.665,1.404l-0.168,0.454l-4.986-2.262v2.707h-0.588v-3.514h0.513L33.331,107.359
		z"/>
</g>
<g>
	<circle fill="#999967" cx="32.728" cy="96.658" r="3.6"/>
	<circle fill="#999967" cx="32.728" cy="87.161" r="3.6"/>
	<circle fill="#999967" cx="32.728" cy="77.417" r="3.6"/>
	<circle fill="#999967" cx="32.728" cy="67.593" r="3.6"/>
	<circle fill="#999967" cx="32.728" cy="57.876" r="3.6"/>
	<circle fill="#999967" cx="32.728" cy="48.441" r="3.6"/>
</g>
<g>
	<circle fill="#BC6771" cx="32.727" cy="181.562" r="3.6"/>
	<circle fill="#BC6771" cx="32.727" cy="171.155" r="3.6"/>
	<circle fill="#BC6771" cx="32.727" cy="161.29" r="3.6"/>
	<circle fill="#BC6771" cx="32.727" cy="151.089" r="3.6"/>
	<circle fill="#BC6771" cx="32.727" cy="141.221" r="3.6"/>
	<circle fill="#BC6771" cx="32.727" cy="131.353" r="3.6"/>
	<circle fill="#BC6771" cx="32.727" cy="240.795" r="3.6"/>
	<circle fill="#BC6771" cx="32.727" cy="230.928" r="3.6"/>
	<circle fill="#BC6771" cx="32.727" cy="221.061" r="3.6"/>
	<circle fill="#BC6771" cx="32.727" cy="211.191" r="3.6"/>
	<circle fill="#BC6771" cx="32.727" cy="201.326" r="3.6"/>
	<circle fill="#BC6771" cx="32.727" cy="191.457" r="3.6"/>
</g>
<rect x="47.589" y="105.383" fill="none" width="8.75" height="17.25"/>
<g enable-background="new    ">
	<path d="M48.372,122.02h-0.547v-1.278h-4.464l0.454,1.144l-0.412,0.168l-0.706-1.471v-0.555h5.128v-1.144h0.547V122.02z"/>
	<path d="M48.44,116.684c0,0.37-0.067,0.757-0.277,1.329l-0.412-0.067c0.109-0.454,0.168-0.832,0.168-1.202
		c0-0.791-0.655-1.32-2.304-1.337c0.261,0.454,0.403,0.807,0.403,1.261c0,0.883-0.562,1.371-1.521,1.371
		c-1.151,0-1.866-0.647-1.866-1.64c0-1.084,0.546-1.673,2.716-1.673C47.851,114.726,48.44,115.642,48.44,116.684z M45.102,115.415
		c-1.37,0-1.959,0.328-1.959,1.026c0,0.622,0.462,0.925,1.236,0.925c0.731,0,1.109-0.277,1.109-0.941
		c0-0.286-0.101-0.58-0.354-1.009H45.102z"/>
	<path d="M48.44,112.484c0,0.37-0.067,0.757-0.277,1.329l-0.412-0.067c0.109-0.454,0.168-0.832,0.168-1.202
		c0-0.791-0.655-1.32-2.304-1.337c0.261,0.454,0.403,0.807,0.403,1.261c0,0.883-0.562,1.371-1.521,1.371
		c-1.151,0-1.866-0.647-1.866-1.64c0-1.084,0.546-1.673,2.716-1.673C47.851,110.525,48.44,111.441,48.44,112.484z M45.102,111.214
		c-1.37,0-1.959,0.328-1.959,1.026c0,0.622,0.462,0.925,1.236,0.925c0.731,0,1.109-0.277,1.109-0.941
		c0-0.286-0.101-0.58-0.354-1.009H45.102z"/>
	<path d="M48.44,107.998c0,1.16-0.563,1.665-1.379,1.665c-0.723,0-1.177-0.471-1.563-1.126c-0.37,0.656-0.833,1.009-1.463,1.009
		c-0.816,0-1.404-0.588-1.404-1.665c0-1.168,0.58-1.555,1.312-1.555c0.631,0,1.034,0.37,1.446,1.109
		c0.437-0.824,0.841-1.236,1.58-1.236C47.792,106.199,48.44,106.754,48.44,107.998z M43.117,107.973c0,0.555,0.337,0.9,0.832,0.9
		c0.505,0,0.841-0.277,1.186-0.925c-0.369-0.665-0.664-0.958-1.093-0.958C43.437,106.989,43.117,107.275,43.117,107.973z
		 M45.757,108.048c0.388,0.647,0.732,0.942,1.211,0.942c0.614,0,0.976-0.37,0.976-1.102c0-0.605-0.361-1.017-0.883-1.017
		C46.481,106.872,46.145,107.283,45.757,108.048z"/>
</g>
<g>
	<circle fill="#999967" cx="45.131" cy="96.658" r="3.6"/>
	<circle fill="#999967" cx="45.131" cy="87.161" r="3.6"/>
	<circle fill="#999967" cx="45.131" cy="77.417" r="3.6"/>
	<circle fill="#999967" cx="45.131" cy="67.593" r="3.6"/>
	<circle fill="#999967" cx="45.131" cy="57.876" r="3.6"/>
	<circle fill="#999967" cx="45.131" cy="48.442" r="3.6"/>
	<circle fill="#999967" cx="45.131" cy="38.268" r="3.6"/>
</g>
<g>
	<circle fill="#BC6771" cx="45.131" cy="181.562" r="3.6"/>
	<circle fill="#BC6771" cx="45.131" cy="171.155" r="3.6"/>
	<circle fill="#BC6771" cx="45.131" cy="161.29" r="3.6"/>
	<circle fill="#BC6771" cx="45.131" cy="151.089" r="3.6"/>
	<circle fill="#BC6771" cx="45.131" cy="141.221" r="3.6"/>
	<circle fill="#BC6771" cx="45.131" cy="131.353" r="3.6"/>
	<circle fill="#BC6771" cx="45.131" cy="240.795" r="3.6"/>
	<circle fill="#BC6771" cx="45.131" cy="230.928" r="3.6"/>
	<circle fill="#BC6771" cx="45.131" cy="221.061" r="3.6"/>
	<circle fill="#BC6771" cx="45.131" cy="211.191" r="3.6"/>
	<circle fill="#BC6771" cx="45.131" cy="201.326" r="3.6"/>
	<circle fill="#BC6771" cx="45.131" cy="191.457" r="3.6"/>
	<circle fill="#BC6771" cx="45.131" cy="260.531" r="3.6"/>
	<circle fill="#BC6771" cx="45.131" cy="250.664" r="3.6"/>
</g>
<rect x="60.033" y="105.383" fill="none" width="8.75" height="17.25"/>
<g enable-background="new    ">
	<path d="M60.818,122.02h-0.547v-1.278h-4.464l0.454,1.144l-0.412,0.168l-0.706-1.471v-0.555h5.128v-1.144h0.547V122.02z"/>
	<path d="M60.885,116.684c0,0.37-0.067,0.757-0.277,1.329l-0.412-0.067c0.109-0.454,0.168-0.832,0.168-1.202
		c0-0.791-0.655-1.32-2.304-1.337c0.261,0.454,0.403,0.807,0.403,1.261c0,0.883-0.562,1.371-1.521,1.371
		c-1.151,0-1.866-0.647-1.866-1.64c0-1.084,0.546-1.673,2.716-1.673C60.296,114.726,60.885,115.642,60.885,116.684z M57.547,115.415
		c-1.37,0-1.959,0.328-1.959,1.026c0,0.622,0.462,0.925,1.236,0.925c0.731,0,1.109-0.277,1.109-0.941
		c0-0.286-0.101-0.58-0.354-1.009H57.547z"/>
	<path d="M60.885,112.484c0,0.37-0.067,0.757-0.277,1.329l-0.412-0.067c0.109-0.454,0.168-0.832,0.168-1.202
		c0-0.791-0.655-1.32-2.304-1.337c0.261,0.454,0.403,0.807,0.403,1.261c0,0.883-0.562,1.371-1.521,1.371
		c-1.151,0-1.866-0.647-1.866-1.64c0-1.084,0.546-1.673,2.716-1.673C60.296,110.525,60.885,111.441,60.885,112.484z M57.547,111.214
		c-1.37,0-1.959,0.328-1.959,1.026c0,0.622,0.462,0.925,1.236,0.925c0.731,0,1.109-0.277,1.109-0.941
		c0-0.286-0.101-0.58-0.354-1.009H57.547z"/>
	<path d="M60.885,108.284c0,0.37-0.067,0.757-0.277,1.329l-0.412-0.067c0.109-0.454,0.168-0.832,0.168-1.202
		c0-0.791-0.655-1.32-2.304-1.337c0.261,0.454,0.403,0.807,0.403,1.261c0,0.883-0.562,1.371-1.521,1.371
		c-1.151,0-1.866-0.647-1.866-1.64c0-1.084,0.546-1.673,2.716-1.673C60.296,106.325,60.885,107.241,60.885,108.284z M57.547,107.014
		c-1.37,0-1.959,0.328-1.959,1.026c0,0.622,0.462,0.925,1.236,0.925c0.731,0,1.109-0.277,1.109-0.941
		c0-0.286-0.101-0.58-0.354-1.009H57.547z"/>
</g>
<g>
	<circle fill="#999967" cx="57.534" cy="57.876" r="3.6"/>
	<circle fill="#999967" cx="57.534" cy="48.442" r="3.6"/>
	<circle fill="#999967" cx="57.534" cy="38.268" r="3.6"/>
	<circle fill="#999967" cx="57.534" cy="28.804" r="3.6"/>
	<circle fill="#999967" cx="57.534" cy="18.848" r="3.6"/>
	<circle fill="#999967" cx="57.534" cy="8.6" r="3.6"/>
	<circle fill="#999967" cx="57.534" cy="96.658" r="3.6"/>
	<circle fill="#999967" cx="57.534" cy="87.161" r="3.6"/>
	<circle fill="#999967" cx="57.534" cy="77.417" r="3.6"/>
	<circle fill="#999967" cx="57.534" cy="67.593" r="3.6"/>
</g>
<g>
	<circle fill="#BC6771" cx="57.533" cy="181.562" r="3.6"/>
	<circle fill="#BC6771" cx="57.533" cy="171.155" r="3.6"/>
	<circle fill="#BC6771" cx="57.533" cy="161.29" r="3.6"/>
	<circle fill="#BC6771" cx="57.533" cy="151.089" r="3.6"/>
	<circle fill="#BC6771" cx="57.533" cy="141.221" r="3.6"/>
	<circle fill="#BC6771" cx="57.533" cy="131.353" r="3.6"/>
	<circle fill="#BC6771" cx="57.533" cy="240.795" r="3.6"/>
	<circle fill="#BC6771" cx="57.533" cy="230.928" r="3.6"/>
	<circle fill="#BC6771" cx="57.533" cy="221.061" r="3.6"/>
	<circle fill="#BC6771" cx="57.533" cy="211.191" r="3.6"/>
	<circle fill="#BC6771" cx="57.533" cy="201.326" r="3.6"/>
	<circle fill="#BC6771" cx="57.533" cy="191.457" r="3.6"/>
	<circle fill="#BC6771" cx="57.533" cy="260.531" r="3.6"/>
	<circle fill="#BC6771" cx="57.533" cy="250.664" r="3.6"/>
</g>
<rect x="72.477" y="105.383" fill="none" width="8.75" height="17.25"/>
<g enable-background="new    ">
	<path d="M73.261,122.23h-0.547c-1.917-1.858-2.808-2.363-3.564-2.363c-0.832,0-1.06,0.462-1.06,0.992
		c0,0.361,0.102,0.706,0.261,1.16l-0.462,0.118c-0.228-0.53-0.37-0.917-0.37-1.564c0-0.756,0.378-1.488,1.53-1.488
		c0.958,0,1.866,0.563,3.615,2.346v-2.497h0.597V122.23z"/>
	<path d="M73.328,116.382c0,1.084-0.597,1.648-2.842,1.648c-2.262,0-2.968-0.581-2.968-1.741c0-1.068,0.58-1.639,2.816-1.639
		C72.639,114.65,73.328,115.255,73.328,116.382z M68.031,116.34c0,0.698,0.555,1,2.337,1c1.917,0,2.438-0.294,2.438-1
		c0-0.698-0.563-1.009-2.354-1.009C68.553,115.331,68.031,115.633,68.031,116.34z"/>
	<path d="M73.328,112.182c0,1.084-0.597,1.648-2.842,1.648c-2.262,0-2.968-0.581-2.968-1.741c0-1.068,0.58-1.639,2.816-1.639
		C72.639,110.45,73.328,111.055,73.328,112.182z M68.031,112.14c0,0.698,0.555,1,2.337,1c1.917,0,2.438-0.294,2.438-1
		c0-0.698-0.563-1.009-2.354-1.009C68.553,111.13,68.031,111.433,68.031,112.14z"/>
	<path d="M73.328,107.981c0,1.084-0.597,1.648-2.842,1.648c-2.262,0-2.968-0.581-2.968-1.741c0-1.068,0.58-1.639,2.816-1.639
		C72.639,106.25,73.328,106.854,73.328,107.981z M68.031,107.939c0,0.698,0.555,1,2.337,1c1.917,0,2.438-0.294,2.438-1
		c0-0.698-0.563-1.009-2.354-1.009C68.553,106.93,68.031,107.233,68.031,107.939z"/>
</g>
<g>
	<circle fill="#999967" cx="69.937" cy="96.658" r="3.6"/>
	<circle fill="#999967" cx="69.937" cy="87.161" r="3.6"/>
</g>
<g>
	<circle fill="#BC6771" cx="69.937" cy="171.155" r="3.6"/>
	<circle fill="#BC6771" cx="69.937" cy="161.29" r="3.6"/>
	<circle fill="#BC6771" cx="69.937" cy="151.089" r="3.6"/>
	<circle fill="#BC6771" cx="69.937" cy="141.221" r="3.6"/>
	<circle fill="#BC6771" cx="69.937" cy="131.353" r="3.6"/>
</g>
<rect x="84.921" y="105.383" fill="none" width="8.75" height="17.25"/>
<g enable-background="new    ">
	<path d="M85.706,122.23h-0.547c-1.917-1.858-2.808-2.363-3.564-2.363c-0.832,0-1.06,0.462-1.06,0.992
		c0,0.361,0.102,0.706,0.261,1.16l-0.462,0.118c-0.228-0.53-0.37-0.917-0.37-1.564c0-0.756,0.378-1.488,1.53-1.488
		c0.958,0,1.866,0.563,3.615,2.346v-2.497h0.597V122.23z"/>
	<path d="M85.774,116.382c0,1.084-0.597,1.648-2.842,1.648c-2.262,0-2.968-0.581-2.968-1.741c0-1.068,0.58-1.639,2.816-1.639
		C85.084,114.65,85.774,115.255,85.774,116.382z M80.477,116.34c0,0.698,0.555,1,2.337,1c1.917,0,2.438-0.294,2.438-1
		c0-0.698-0.563-1.009-2.354-1.009C80.998,115.331,80.477,115.633,80.477,116.34z"/>
	<path d="M85.774,112.182c0,1.084-0.597,1.648-2.842,1.648c-2.262,0-2.968-0.581-2.968-1.741c0-1.068,0.58-1.639,2.816-1.639
		C85.084,110.45,85.774,111.055,85.774,112.182z M80.477,112.14c0,0.698,0.555,1,2.337,1c1.917,0,2.438-0.294,2.438-1
		c0-0.698-0.563-1.009-2.354-1.009C80.998,111.13,80.477,111.433,80.477,112.14z"/>
	<path d="M85.706,109.419h-0.547v-1.278h-4.464l0.454,1.144l-0.412,0.168l-0.706-1.471v-0.555h5.128v-1.144h0.547V109.419z"/>
</g>
<circle fill="#999967" cx="82.34" cy="96.658" r="3.6"/>
<g>
	<circle fill="#BC6771" cx="82.34" cy="171.155" r="3.6"/>
	<circle fill="#BC6771" cx="82.34" cy="161.29" r="3.6"/>
	<circle fill="#BC6771" cx="82.34" cy="151.089" r="3.6"/>
	<circle fill="#BC6771" cx="82.34" cy="141.221" r="3.6"/>
	<circle fill="#BC6771" cx="82.34" cy="131.353" r="3.6"/>
</g>
<rect x="97.365" y="105.383" fill="none" width="8.75" height="17.25"/>
<g enable-background="new    ">
	<path d="M98.15,122.23h-0.547c-1.917-1.858-2.808-2.363-3.564-2.363c-0.832,0-1.06,0.462-1.06,0.992
		c0,0.361,0.102,0.706,0.261,1.16l-0.462,0.118c-0.228-0.53-0.37-0.917-0.37-1.564c0-0.756,0.378-1.488,1.53-1.488
		c0.958,0,1.866,0.563,3.615,2.346v-2.497h0.597V122.23z"/>
	<path d="M98.217,116.382c0,1.084-0.597,1.648-2.842,1.648c-2.262,0-2.968-0.581-2.968-1.741c0-1.068,0.58-1.639,2.816-1.639
		C97.528,114.65,98.217,115.255,98.217,116.382z M92.92,116.34c0,0.698,0.555,1,2.337,1c1.917,0,2.438-0.294,2.438-1
		c0-0.698-0.563-1.009-2.354-1.009C93.442,115.331,92.92,115.633,92.92,116.34z"/>
	<path d="M98.217,112.182c0,1.084-0.597,1.648-2.842,1.648c-2.262,0-2.968-0.581-2.968-1.741c0-1.068,0.58-1.639,2.816-1.639
		C97.528,110.45,98.217,111.055,98.217,112.182z M92.92,112.14c0,0.698,0.555,1,2.337,1c1.917,0,2.438-0.294,2.438-1
		c0-0.698-0.563-1.009-2.354-1.009C93.442,111.13,92.92,111.433,92.92,112.14z"/>
	<path d="M98.15,109.629h-0.547c-1.917-1.858-2.808-2.363-3.564-2.363c-0.832,0-1.06,0.462-1.06,0.992
		c0,0.361,0.102,0.706,0.261,1.16l-0.462,0.118c-0.228-0.53-0.37-0.917-0.37-1.564c0-0.756,0.378-1.488,1.53-1.488
		c0.958,0,1.866,0.563,3.615,2.346v-2.497h0.597V109.629z"/>
</g>
<g>
	<circle fill="#999967" cx="94.743" cy="57.876" r="3.6"/>
	<circle fill="#999967" cx="94.743" cy="48.442" r="3.6"/>
	<circle fill="#999967" cx="94.743" cy="96.658" r="3.6"/>
	<circle fill="#999967" cx="94.743" cy="87.161" r="3.6"/>
	<circle fill="#999967" cx="94.743" cy="77.417" r="3.6"/>
	<circle fill="#999967" cx="94.743" cy="67.593" r="3.6"/>
</g>
<rect x="109.81" y="105.383" fill="none" width="8.75" height="17.25"/>
<g enable-background="new    ">
	<path d="M110.594,122.23h-0.547c-1.917-1.858-2.808-2.363-3.564-2.363c-0.832,0-1.06,0.462-1.06,0.992
		c0,0.361,0.102,0.706,0.261,1.16l-0.462,0.118c-0.228-0.53-0.37-0.917-0.37-1.564c0-0.756,0.378-1.488,1.53-1.488
		c0.958,0,1.866,0.563,3.615,2.346v-2.497h0.597V122.23z"/>
	<path d="M110.661,116.382c0,1.084-0.597,1.648-2.842,1.648c-2.262,0-2.968-0.581-2.968-1.741c0-1.068,0.58-1.639,2.816-1.639
		C109.972,114.65,110.661,115.255,110.661,116.382z M105.365,116.34c0,0.698,0.555,1,2.337,1c1.917,0,2.438-0.294,2.438-1
		c0-0.698-0.563-1.009-2.354-1.009C105.886,115.331,105.365,115.633,105.365,116.34z"/>
	<path d="M110.661,112.182c0,1.084-0.597,1.648-2.842,1.648c-2.262,0-2.968-0.581-2.968-1.741c0-1.068,0.58-1.639,2.816-1.639
		C109.972,110.45,110.661,111.055,110.661,112.182z M105.365,112.14c0,0.698,0.555,1,2.337,1c1.917,0,2.438-0.294,2.438-1
		c0-0.698-0.563-1.009-2.354-1.009C105.886,111.13,105.365,111.433,105.365,112.14z"/>
	<path d="M110.661,108.175c0,0.412-0.101,0.925-0.328,1.563l-0.412-0.067c0.126-0.58,0.193-1.034,0.193-1.396
		c0-0.866-0.378-1.152-1.144-1.152c-0.697,0-1.126,0.303-1.126,1.169v0.647h-0.521v-0.623c0-0.698-0.345-1.034-1.034-1.034
		c-0.555,0-0.892,0.236-0.892,0.976c0,0.336,0.085,0.866,0.202,1.186l-0.454,0.101c-0.143-0.345-0.294-0.883-0.294-1.53
		c0-1.018,0.605-1.472,1.354-1.472c0.757,0,1.193,0.378,1.32,0.875c0.042-0.698,0.706-1.06,1.37-1.06
		C110.107,106.358,110.661,106.964,110.661,108.175z"/>
</g>
<g>
	<circle fill="#999967" cx="107.146" cy="57.876" r="3.6"/>
	<circle fill="#999967" cx="107.146" cy="48.442" r="3.6"/>
	<circle fill="#999967" cx="107.146" cy="38.268" r="3.6"/>
	<circle fill="#999967" cx="107.146" cy="28.804" r="3.6"/>
	<circle fill="#999967" cx="107.146" cy="18.848" r="3.6"/>
	<circle fill="#999967" cx="107.146" cy="96.658" r="3.6"/>
	<circle fill="#999967" cx="107.146" cy="87.161" r="3.6"/>
	<circle fill="#999967" cx="107.146" cy="77.417" r="3.6"/>
	<circle fill="#999967" cx="107.146" cy="67.593" r="3.6"/>
</g>
<g>
	<circle fill="#BC6771" cx="107.146" cy="151.089" r="3.6"/>
	<circle fill="#BC6771" cx="107.146" cy="141.221" r="3.6"/>
	<circle fill="#BC6771" cx="107.146" cy="131.353" r="3.6"/>
</g>
<rect x="122.254" y="105.383" fill="none" width="8.75" height="17.25"/>
<g enable-background="new    ">
	<path d="M123.038,122.23h-0.547c-1.917-1.858-2.808-2.363-3.564-2.363c-0.832,0-1.06,0.462-1.06,0.992
		c0,0.361,0.102,0.706,0.261,1.16l-0.462,0.118c-0.228-0.53-0.37-0.917-0.37-1.564c0-0.756,0.378-1.488,1.53-1.488
		c0.958,0,1.866,0.563,3.615,2.346v-2.497h0.597V122.23z"/>
	<path d="M123.106,116.382c0,1.084-0.597,1.648-2.842,1.648c-2.262,0-2.968-0.581-2.968-1.741c0-1.068,0.58-1.639,2.816-1.639
		C122.416,114.65,123.106,115.255,123.106,116.382z M117.809,116.34c0,0.698,0.555,1,2.337,1c1.917,0,2.438-0.294,2.438-1
		c0-0.698-0.563-1.009-2.354-1.009C118.33,115.331,117.809,115.633,117.809,116.34z"/>
	<path d="M123.106,112.182c0,1.084-0.597,1.648-2.842,1.648c-2.262,0-2.968-0.581-2.968-1.741c0-1.068,0.58-1.639,2.816-1.639
		C122.416,110.45,123.106,111.055,123.106,112.182z M117.809,112.14c0,0.698,0.555,1,2.337,1c1.917,0,2.438-0.294,2.438-1
		c0-0.698-0.563-1.009-2.354-1.009C118.33,111.13,117.809,111.433,117.809,112.14z"/>
	<path d="M121.718,106.779h1.32v0.673h-1.32v2.354h-0.521c-1.312-0.639-2.725-1.404-3.834-2.085v-0.942h3.758v-0.681h0.597V106.779z
		 M117.935,107.452c0.866,0.513,2.035,1.194,3.187,1.749v-1.749H117.935z"/>
</g>
<g>
	<circle fill="#999967" cx="119.549" cy="57.876" r="3.6"/>
	<circle fill="#999967" cx="119.549" cy="96.658" r="3.6"/>
	<circle fill="#999967" cx="119.549" cy="87.161" r="3.6"/>
	<circle fill="#999967" cx="119.549" cy="77.417" r="3.6"/>
	<circle fill="#999967" cx="119.549" cy="67.593" r="3.6"/>
</g>
<g>
	<circle fill="#BC6771" cx="119.549" cy="161.29" r="3.6"/>
	<circle fill="#BC6771" cx="119.549" cy="151.089" r="3.6"/>
	<circle fill="#BC6771" cx="119.549" cy="141.221" r="3.6"/>
	<circle fill="#BC6771" cx="119.549" cy="131.353" r="3.6"/>
</g>
<rect x="134.698" y="100.672" fill="none" width="8.75" height="21.961"/>
<g enable-background="new    ">
	<path d="M135.482,122.23h-0.547c-1.917-1.858-2.808-2.363-3.564-2.363c-0.832,0-1.06,0.462-1.06,0.992
		c0,0.361,0.102,0.706,0.261,1.16l-0.462,0.118c-0.228-0.53-0.37-0.917-0.37-1.564c0-0.756,0.378-1.488,1.53-1.488
		c0.958,0,1.866,0.563,3.615,2.346v-2.497h0.597V122.23z"/>
	<path d="M135.549,116.382c0,1.084-0.597,1.648-2.842,1.648c-2.262,0-2.968-0.581-2.968-1.741c0-1.068,0.58-1.639,2.816-1.639
		C134.86,114.65,135.549,115.255,135.549,116.382z M130.252,116.34c0,0.698,0.555,1,2.337,1c1.917,0,2.438-0.294,2.438-1
		c0-0.698-0.563-1.009-2.354-1.009C130.774,115.331,130.252,115.633,130.252,116.34z"/>
	<path d="M135.549,112.182c0,1.084-0.597,1.648-2.842,1.648c-2.262,0-2.968-0.581-2.968-1.741c0-1.068,0.58-1.639,2.816-1.639
		C134.86,110.45,135.549,111.055,135.549,112.182z M130.252,112.14c0,0.698,0.555,1,2.337,1c1.917,0,2.438-0.294,2.438-1
		c0-0.698-0.563-1.009-2.354-1.009C130.774,111.13,130.252,111.433,130.252,112.14z"/>
	<path d="M135.549,108.2c0,0.404-0.093,0.917-0.312,1.539l-0.403-0.059c0.109-0.563,0.185-1.051,0.185-1.438
		c0-0.79-0.319-1.16-1.193-1.16c-0.766,0-1.244,0.353-1.244,1.236c0,0.378,0.042,0.731,0.126,1.161l-2.9-0.177v-2.556h0.588v2.01
		l1.698,0.109c-0.042-0.177-0.059-0.496-0.059-0.782c0-1.143,0.664-1.732,1.707-1.732C134.96,106.35,135.549,106.947,135.549,108.2z
		"/>
</g>
<g>
	<circle fill="#BC6771" cx="131.951" cy="161.29" r="3.6"/>
	<circle fill="#BC6771" cx="131.951" cy="151.089" r="3.6"/>
	<circle fill="#BC6771" cx="131.951" cy="141.221" r="3.6"/>
	<circle fill="#BC6771" cx="131.951" cy="131.353" r="3.6"/>
	<circle fill="#BC6771" cx="131.951" cy="201.326" r="3.6"/>
	<circle fill="#BC6771" cx="131.951" cy="191.457" r="3.6"/>
	<circle fill="#BC6771" cx="131.951" cy="181.562" r="3.6"/>
	<circle fill="#BC6771" cx="131.951" cy="171.155" r="3.6"/>
</g>
<g>
	<circle fill="#999967" cx="131.952" cy="96.657" r="3.6"/>
	<circle fill="#999967" cx="131.952" cy="87.161" r="3.6"/>
</g>
<rect x="147.143" y="100.672" fill="none" width="8.75" height="21.961"/>
<g enable-background="new    ">
	<path d="M147.927,122.23h-0.547c-1.917-1.858-2.808-2.363-3.564-2.363c-0.832,0-1.06,0.462-1.06,0.992
		c0,0.361,0.102,0.706,0.261,1.16l-0.462,0.118c-0.228-0.53-0.37-0.917-0.37-1.564c0-0.756,0.378-1.488,1.53-1.488
		c0.958,0,1.866,0.563,3.615,2.346v-2.497h0.597V122.23z"/>
	<path d="M147.994,116.382c0,1.084-0.597,1.648-2.842,1.648c-2.262,0-2.968-0.581-2.968-1.741c0-1.068,0.58-1.639,2.816-1.639
		C147.305,114.65,147.994,115.255,147.994,116.382z M142.698,116.34c0,0.698,0.555,1,2.337,1c1.917,0,2.438-0.294,2.438-1
		c0-0.698-0.563-1.009-2.354-1.009C143.219,115.331,142.698,115.633,142.698,116.34z"/>
	<path d="M147.994,112.182c0,1.084-0.597,1.648-2.842,1.648c-2.262,0-2.968-0.581-2.968-1.741c0-1.068,0.58-1.639,2.816-1.639
		C147.305,110.45,147.994,111.055,147.994,112.182z M142.698,112.14c0,0.698,0.555,1,2.337,1c1.917,0,2.438-0.294,2.438-1
		c0-0.698-0.563-1.009-2.354-1.009C143.219,111.13,142.698,111.433,142.698,112.14z"/>
	<path d="M147.994,107.864c0,1.084-0.538,1.665-2.707,1.665c-2.472,0-3.103-0.875-3.103-1.909c0-0.378,0.075-0.756,0.269-1.261
		l0.412,0.076c-0.093,0.362-0.159,0.749-0.159,1.118c0,0.799,0.714,1.287,2.312,1.303c-0.261-0.454-0.403-0.815-0.403-1.261
		c0-0.883,0.563-1.379,1.521-1.379C147.288,106.216,147.994,106.872,147.994,107.864z M145.144,107.83
		c0,0.294,0.102,0.58,0.354,1.017h0.033c1.379,0,1.951-0.328,1.951-1.026c0-0.622-0.446-0.925-1.228-0.925
		C145.523,106.896,145.144,107.174,145.144,107.83z"/>
</g>
<g>
	<circle fill="#999967" cx="144.355" cy="96.658" r="3.6"/>
	<circle fill="#999967" cx="144.355" cy="87.162" r="3.6"/>
	<circle fill="#999967" cx="144.355" cy="77.418" r="3.6"/>
</g>
<g>
	<circle fill="#BC6771" cx="144.356" cy="141.221" r="3.6"/>
	<circle fill="#BC6771" cx="144.356" cy="131.353" r="3.6"/>
</g>
<rect x="159.586" y="100.672" fill="none" width="8.75" height="21.961"/>
<g enable-background="new    ">
	<path d="M160.37,122.23h-0.547c-1.917-1.858-2.808-2.363-3.564-2.363c-0.832,0-1.06,0.462-1.06,0.992
		c0,0.361,0.102,0.706,0.261,1.16l-0.462,0.118c-0.228-0.53-0.37-0.917-0.37-1.564c0-0.756,0.378-1.488,1.53-1.488
		c0.958,0,1.866,0.563,3.615,2.346v-2.497h0.597V122.23z"/>
	<path d="M160.438,116.382c0,1.084-0.597,1.648-2.842,1.648c-2.262,0-2.968-0.581-2.968-1.741c0-1.068,0.58-1.639,2.816-1.639
		C159.748,114.65,160.438,115.255,160.438,116.382z M155.141,116.34c0,0.698,0.555,1,2.337,1c1.917,0,2.438-0.294,2.438-1
		c0-0.698-0.563-1.009-2.354-1.009C155.662,115.331,155.141,115.633,155.141,116.34z"/>
	<path d="M160.438,112.182c0,1.084-0.597,1.648-2.842,1.648c-2.262,0-2.968-0.581-2.968-1.741c0-1.068,0.58-1.639,2.816-1.639
		C159.748,110.45,160.438,111.055,160.438,112.182z M155.141,112.14c0,0.698,0.555,1,2.337,1c1.917,0,2.438-0.294,2.438-1
		c0-0.698-0.563-1.009-2.354-1.009C155.662,111.13,155.141,111.433,155.141,112.14z"/>
	<path d="M157.773,107.359c0.874,0.404,1.934,0.976,2.665,1.404l-0.168,0.454l-4.986-2.262v2.707h-0.588v-3.514h0.513
		L157.773,107.359z"/>
</g>
<g>
	<circle fill="#999967" cx="156.757" cy="96.658" r="3.6"/>
	<circle fill="#999967" cx="156.757" cy="87.162" r="3.6"/>
</g>
<g>
	<circle fill="#BC6771" cx="156.758" cy="171.155" r="3.6"/>
	<circle fill="#BC6771" cx="156.758" cy="161.29" r="3.6"/>
	<circle fill="#BC6771" cx="156.758" cy="151.089" r="3.6"/>
	<circle fill="#BC6771" cx="156.758" cy="141.221" r="3.6"/>
	<circle fill="#BC6771" cx="156.758" cy="131.353" r="3.6"/>
</g>
<rect x="172.031" y="93.633" fill="none" width="8.75" height="29"/>
<g enable-background="new    ">
	<path d="M172.816,122.23h-0.547c-1.917-1.858-2.808-2.363-3.564-2.363c-0.832,0-1.06,0.462-1.06,0.992
		c0,0.361,0.102,0.706,0.261,1.16l-0.462,0.118c-0.228-0.53-0.37-0.917-0.37-1.564c0-0.756,0.378-1.488,1.53-1.488
		c0.958,0,1.866,0.563,3.615,2.346v-2.497h0.597V122.23z"/>
	<path d="M172.883,116.382c0,1.084-0.597,1.648-2.842,1.648c-2.262,0-2.968-0.581-2.968-1.741c0-1.068,0.58-1.639,2.816-1.639
		C172.194,114.65,172.883,115.255,172.883,116.382z M167.586,116.34c0,0.698,0.555,1,2.337,1c1.917,0,2.438-0.294,2.438-1
		c0-0.698-0.563-1.009-2.354-1.009C168.108,115.331,167.586,115.633,167.586,116.34z"/>
	<path d="M172.883,112.182c0,1.084-0.597,1.648-2.842,1.648c-2.262,0-2.968-0.581-2.968-1.741c0-1.068,0.58-1.639,2.816-1.639
		C172.194,110.45,172.883,111.055,172.883,112.182z M167.586,112.14c0,0.698,0.555,1,2.337,1c1.917,0,2.438-0.294,2.438-1
		c0-0.698-0.563-1.009-2.354-1.009C168.108,111.13,167.586,111.433,167.586,112.14z"/>
	<path d="M172.883,107.998c0,1.16-0.563,1.665-1.379,1.665c-0.723,0-1.177-0.471-1.563-1.126c-0.37,0.656-0.833,1.009-1.463,1.009
		c-0.816,0-1.404-0.588-1.404-1.665c0-1.168,0.58-1.555,1.312-1.555c0.631,0,1.034,0.37,1.446,1.109
		c0.437-0.824,0.841-1.236,1.58-1.236C172.236,106.199,172.883,106.754,172.883,107.998z M167.561,107.973
		c0,0.555,0.337,0.9,0.832,0.9c0.505,0,0.841-0.277,1.186-0.925c-0.369-0.665-0.664-0.958-1.093-0.958
		C167.88,106.989,167.561,107.275,167.561,107.973z M170.2,108.048c0.388,0.647,0.732,0.942,1.211,0.942
		c0.614,0,0.976-0.37,0.976-1.102c0-0.605-0.361-1.017-0.883-1.017C170.924,106.872,170.588,107.283,170.2,108.048z"/>
</g>
<g>
	<circle fill="#999967" cx="169.161" cy="96.658" r="3.6"/>
	<circle fill="#999967" cx="169.161" cy="87.161" r="3.6"/>
	<circle fill="#999967" cx="169.161" cy="77.417" r="3.6"/>
</g>
<circle fill="#BC6771" cx="169.161" cy="131.353" r="3.6"/>
<rect x="184.477" y="100.672" fill="none" width="8.75" height="21.961"/>
<g enable-background="new    ">
	<path d="M185.261,122.23h-0.547c-1.917-1.858-2.808-2.363-3.564-2.363c-0.832,0-1.06,0.462-1.06,0.992
		c0,0.361,0.102,0.706,0.261,1.16l-0.462,0.118c-0.228-0.53-0.37-0.917-0.37-1.564c0-0.756,0.378-1.488,1.53-1.488
		c0.958,0,1.866,0.563,3.615,2.346v-2.497h0.597V122.23z"/>
	<path d="M185.328,116.382c0,1.084-0.597,1.648-2.842,1.648c-2.262,0-2.968-0.581-2.968-1.741c0-1.068,0.58-1.639,2.816-1.639
		C184.639,114.65,185.328,115.255,185.328,116.382z M180.031,116.34c0,0.698,0.555,1,2.337,1c1.917,0,2.438-0.294,2.438-1
		c0-0.698-0.563-1.009-2.354-1.009C180.553,115.331,180.031,115.633,180.031,116.34z"/>
	<path d="M185.328,112.182c0,1.084-0.597,1.648-2.842,1.648c-2.262,0-2.968-0.581-2.968-1.741c0-1.068,0.58-1.639,2.816-1.639
		C184.639,110.45,185.328,111.055,185.328,112.182z M180.031,112.14c0,0.698,0.555,1,2.337,1c1.917,0,2.438-0.294,2.438-1
		c0-0.698-0.563-1.009-2.354-1.009C180.553,111.13,180.031,111.433,180.031,112.14z"/>
	<path d="M185.328,108.284c0,0.37-0.067,0.757-0.277,1.329l-0.412-0.067c0.109-0.454,0.168-0.832,0.168-1.202
		c0-0.791-0.655-1.32-2.304-1.337c0.261,0.454,0.403,0.807,0.403,1.261c0,0.883-0.562,1.371-1.521,1.371
		c-1.151,0-1.866-0.647-1.866-1.64c0-1.084,0.546-1.673,2.716-1.673C184.74,106.325,185.328,107.241,185.328,108.284z
		 M181.99,107.014c-1.37,0-1.959,0.328-1.959,1.026c0,0.622,0.462,0.925,1.236,0.925c0.731,0,1.109-0.277,1.109-0.941
		c0-0.286-0.101-0.58-0.354-1.009H181.99z"/>
</g>
<circle fill="#999967" cx="181.564" cy="96.658" r="3.6"/>
<g>
	<circle fill="#BC6771" cx="181.564" cy="161.29" r="3.6"/>
	<circle fill="#BC6771" cx="181.564" cy="151.089" r="3.6"/>
	<circle fill="#BC6771" cx="181.564" cy="141.221" r="3.6"/>
	<circle fill="#BC6771" cx="181.564" cy="131.353" r="3.6"/>
</g>
<rect x="196.922" y="100.672" fill="none" width="8.75" height="21.961"/>
<g enable-background="new    ">
	<path d="M197.705,122.23h-0.547c-1.917-1.858-2.808-2.363-3.564-2.363c-0.832,0-1.06,0.462-1.06,0.992
		c0,0.361,0.102,0.706,0.261,1.16l-0.462,0.118c-0.228-0.53-0.37-0.917-0.37-1.564c0-0.756,0.378-1.488,1.53-1.488
		c0.958,0,1.866,0.563,3.615,2.346v-2.497h0.597V122.23z"/>
	<path d="M197.773,116.382c0,1.084-0.597,1.648-2.842,1.648c-2.262,0-2.968-0.581-2.968-1.741c0-1.068,0.58-1.639,2.816-1.639
		C197.083,114.65,197.773,115.255,197.773,116.382z M192.476,116.34c0,0.698,0.555,1,2.337,1c1.917,0,2.438-0.294,2.438-1
		c0-0.698-0.563-1.009-2.354-1.009C192.997,115.331,192.476,115.633,192.476,116.34z"/>
	<path d="M197.705,113.619h-0.547v-1.278h-4.464l0.454,1.144l-0.412,0.168l-0.706-1.471v-0.555h5.128v-1.144h0.547V113.619z"/>
	<path d="M197.773,107.981c0,1.084-0.597,1.648-2.842,1.648c-2.262,0-2.968-0.581-2.968-1.741c0-1.068,0.58-1.639,2.816-1.639
		C197.083,106.25,197.773,106.854,197.773,107.981z M192.476,107.939c0,0.698,0.555,1,2.337,1c1.917,0,2.438-0.294,2.438-1
		c0-0.698-0.563-1.009-2.354-1.009C192.997,106.93,192.476,107.233,192.476,107.939z"/>
</g>
<g>
	<circle fill="#BC6771" cx="193.966" cy="151.089" r="3.6"/>
	<circle fill="#BC6771" cx="193.966" cy="141.221" r="3.6"/>
	<circle fill="#BC6771" cx="193.966" cy="131.353" r="3.6"/>
</g>
<rect x="209.365" y="100.672" fill="none" width="8.75" height="21.961"/>
<g enable-background="new    ">
	<path d="M210.15,122.23h-0.547c-1.917-1.858-2.808-2.363-3.564-2.363c-0.832,0-1.06,0.462-1.06,0.992
		c0,0.361,0.102,0.706,0.261,1.16l-0.462,0.118c-0.228-0.53-0.37-0.917-0.37-1.564c0-0.756,0.378-1.488,1.53-1.488
		c0.958,0,1.866,0.563,3.615,2.346v-2.497h0.597V122.23z"/>
	<path d="M210.217,116.382c0,1.084-0.597,1.648-2.842,1.648c-2.262,0-2.968-0.581-2.968-1.741c0-1.068,0.58-1.639,2.816-1.639
		C209.528,114.65,210.217,115.255,210.217,116.382z M204.92,116.34c0,0.698,0.555,1,2.337,1c1.917,0,2.438-0.294,2.438-1
		c0-0.698-0.563-1.009-2.354-1.009C205.442,115.331,204.92,115.633,204.92,116.34z"/>
	<path d="M210.15,113.619h-0.547v-1.278h-4.464l0.454,1.144l-0.412,0.168l-0.706-1.471v-0.555h5.128v-1.144h0.547V113.619z"/>
	<path d="M210.15,109.419h-0.547v-1.278h-4.464l0.454,1.144l-0.412,0.168l-0.706-1.471v-0.555h5.128v-1.144h0.547V109.419z"/>
</g>
<g>
	<circle fill="#999967" cx="206.37" cy="96.658" r="3.6"/>
	<circle fill="#999967" cx="206.37" cy="87.162" r="3.6"/>
	<circle fill="#999967" cx="206.37" cy="77.418" r="3.6"/>
</g>
<circle fill="#BC6771" cx="206.368" cy="131.353" r="3.6"/>
<rect x="221.811" y="100.672" fill="none" width="8.75" height="21.961"/>
<g enable-background="new    ">
	<path d="M222.595,122.23h-0.547c-1.917-1.858-2.808-2.363-3.564-2.363c-0.832,0-1.06,0.462-1.06,0.992
		c0,0.361,0.102,0.706,0.261,1.16l-0.462,0.118c-0.228-0.53-0.37-0.917-0.37-1.564c0-0.756,0.378-1.488,1.53-1.488
		c0.958,0,1.866,0.563,3.615,2.346v-2.497h0.597V122.23z"/>
	<path d="M222.662,116.382c0,1.084-0.597,1.648-2.842,1.648c-2.262,0-2.968-0.581-2.968-1.741c0-1.068,0.58-1.639,2.816-1.639
		C221.973,114.65,222.662,115.255,222.662,116.382z M217.365,116.34c0,0.698,0.555,1,2.337,1c1.917,0,2.438-0.294,2.438-1
		c0-0.698-0.563-1.009-2.354-1.009C217.887,115.331,217.365,115.633,217.365,116.34z"/>
	<path d="M222.595,113.619h-0.547v-1.278h-4.464l0.454,1.144l-0.412,0.168l-0.706-1.471v-0.555h5.128v-1.144h0.547V113.619z"/>
	<path d="M222.595,109.629h-0.547c-1.917-1.858-2.808-2.363-3.564-2.363c-0.832,0-1.06,0.462-1.06,0.992
		c0,0.361,0.102,0.706,0.261,1.16l-0.462,0.118c-0.228-0.53-0.37-0.917-0.37-1.564c0-0.756,0.378-1.488,1.53-1.488
		c0.958,0,1.866,0.563,3.615,2.346v-2.497h0.597V109.629z"/>
</g>
<g>
	<circle fill="#999967" cx="218.774" cy="96.658" r="3.6"/>
	<circle fill="#999967" cx="218.774" cy="87.161" r="3.6"/>
</g>
<g>
	<circle fill="#BC6771" cx="218.774" cy="151.089" r="3.6"/>
	<circle fill="#BC6771" cx="218.774" cy="141.221" r="3.6"/>
	<circle fill="#BC6771" cx="218.774" cy="131.353" r="3.6"/>
</g>
<rect x="234.255" y="100.672" fill="none" width="8.75" height="21.961"/>
<g enable-background="new    ">
	<path d="M235.039,122.23h-0.547c-1.917-1.858-2.808-2.363-3.564-2.363c-0.832,0-1.06,0.462-1.06,0.992
		c0,0.361,0.102,0.706,0.261,1.16l-0.462,0.118c-0.228-0.53-0.37-0.917-0.37-1.564c0-0.756,0.378-1.488,1.53-1.488
		c0.958,0,1.866,0.563,3.615,2.346v-2.497h0.597V122.23z"/>
	<path d="M235.107,116.382c0,1.084-0.597,1.648-2.842,1.648c-2.262,0-2.968-0.581-2.968-1.741c0-1.068,0.58-1.639,2.816-1.639
		C234.417,114.65,235.107,115.255,235.107,116.382z M229.81,116.34c0,0.698,0.555,1,2.337,1c1.917,0,2.438-0.294,2.438-1
		c0-0.698-0.563-1.009-2.354-1.009C230.331,115.331,229.81,115.633,229.81,116.34z"/>
	<path d="M235.039,113.619h-0.547v-1.278h-4.464l0.454,1.144l-0.412,0.168l-0.706-1.471v-0.555h5.128v-1.144h0.547V113.619z"/>
	<path d="M235.107,108.175c0,0.412-0.101,0.925-0.328,1.563l-0.412-0.067c0.126-0.58,0.193-1.034,0.193-1.396
		c0-0.866-0.378-1.152-1.144-1.152c-0.697,0-1.126,0.303-1.126,1.169v0.647h-0.521v-0.623c0-0.698-0.345-1.034-1.034-1.034
		c-0.555,0-0.892,0.236-0.892,0.976c0,0.336,0.085,0.866,0.202,1.186l-0.454,0.101c-0.143-0.345-0.294-0.883-0.294-1.53
		c0-1.018,0.605-1.472,1.354-1.472c0.757,0,1.193,0.378,1.32,0.875c0.042-0.698,0.706-1.06,1.37-1.06
		C234.552,106.358,235.107,106.964,235.107,108.175z"/>
</g>
<g>
	<circle fill="#999967" cx="231.176" cy="96.658" r="3.6"/>
	<circle fill="#999967" cx="231.176" cy="87.162" r="3.6"/>
	<circle fill="#999967" cx="231.176" cy="77.418" r="3.6"/>
</g>
<g>
	<circle fill="#BC6771" cx="231.176" cy="141.221" r="3.6"/>
	<circle fill="#BC6771" cx="231.176" cy="131.353" r="3.6"/>
</g>
<rect x="246.698" y="100.672" fill="none" width="8.75" height="21.961"/>
<g enable-background="new    ">
	<path d="M247.484,122.23h-0.547c-1.918-1.858-2.809-2.363-3.564-2.363c-0.832,0-1.061,0.462-1.061,0.992
		c0,0.361,0.102,0.706,0.262,1.16l-0.463,0.118c-0.227-0.53-0.369-0.917-0.369-1.564c0-0.756,0.377-1.488,1.529-1.488
		c0.959,0,1.867,0.563,3.615,2.346v-2.497h0.598V122.23z"/>
	<path d="M247.55,116.382c0,1.084-0.596,1.648-2.842,1.648c-2.262,0-2.967-0.581-2.967-1.741c0-1.068,0.58-1.639,2.816-1.639
		C246.861,114.65,247.55,115.255,247.55,116.382z M242.253,116.34c0,0.698,0.555,1,2.338,1c1.916,0,2.438-0.294,2.438-1
		c0-0.698-0.562-1.009-2.354-1.009C242.775,115.331,242.253,115.633,242.253,116.34z"/>
	<path d="M247.484,113.619h-0.547v-1.278h-4.465l0.455,1.144l-0.412,0.168l-0.707-1.471v-0.555h5.129v-1.144h0.547V113.619z"/>
	<path d="M246.163,106.779h1.32v0.673h-1.32v2.354h-0.521c-1.312-0.639-2.725-1.404-3.834-2.085v-0.942h3.758v-0.681h0.598V106.779z
		 M242.38,107.452c0.865,0.513,2.035,1.194,3.186,1.749v-1.749H242.38z"/>
</g>
<g>
	<circle fill="#999967" cx="243.579" cy="96.658" r="3.6"/>
	<circle fill="#999967" cx="243.579" cy="87.162" r="3.6"/>
	<circle fill="#999967" cx="243.579" cy="77.418" r="3.6"/>
	<circle fill="#999967" cx="243.579" cy="67.593" r="3.6"/>
</g>
<g>
	<circle fill="#BC6771" cx="243.579" cy="151.089" r="3.6"/>
	<circle fill="#BC6771" cx="243.579" cy="141.221" r="3.6"/>
	<circle fill="#BC6771" cx="243.579" cy="131.353" r="3.6"/>
</g>
<g enable-background="new    ">
	<path d="M259.927,122.23h-0.547c-1.917-1.858-2.808-2.363-3.564-2.363c-0.832,0-1.06,0.462-1.06,0.992
		c0,0.361,0.102,0.706,0.261,1.16l-0.462,0.118c-0.228-0.53-0.37-0.917-0.37-1.564c0-0.756,0.378-1.488,1.53-1.488
		c0.958,0,1.866,0.563,3.615,2.346v-2.497h0.597V122.23z"/>
	<path d="M259.994,116.382c0,1.084-0.597,1.648-2.842,1.648c-2.262,0-2.968-0.581-2.968-1.741c0-1.068,0.58-1.639,2.816-1.639
		C259.305,114.65,259.994,115.255,259.994,116.382z M254.698,116.34c0,0.698,0.555,1,2.337,1c1.917,0,2.438-0.294,2.438-1
		c0-0.698-0.563-1.009-2.354-1.009C255.219,115.331,254.698,115.633,254.698,116.34z"/>
	<path d="M259.927,113.619h-0.547v-1.278h-4.464l0.454,1.144l-0.412,0.168l-0.706-1.471v-0.555h5.128v-1.144h0.547V113.619z"/>
	<path d="M259.994,108.2c0,0.404-0.093,0.917-0.312,1.539l-0.403-0.059c0.109-0.563,0.185-1.051,0.185-1.438
		c0-0.79-0.319-1.16-1.193-1.16c-0.766,0-1.244,0.353-1.244,1.236c0,0.378,0.042,0.731,0.126,1.161l-2.9-0.177v-2.556h0.588v2.01
		l1.698,0.109c-0.042-0.177-0.059-0.496-0.059-0.782c0-1.143,0.664-1.732,1.707-1.732C259.406,106.35,259.994,106.947,259.994,108.2
		z"/>
</g>
<g>
	<circle fill="#999967" cx="255.984" cy="96.658" r="3.6"/>
</g>
<circle fill="#BC6771" cx="255.984" cy="131.353" r="3.6"/>
<rect x="4" y="367.518" fill="none" width="105" height="6.75"/>
<g enable-background="new    ">
	<path d="M141.377,244.395v-5.675h1.136v4.817h1.647v0.857H141.377z"/>
	<path d="M146.797,244.488c-1.446,0-2.278-0.731-2.278-2.834c0-2.11,0.975-3.026,2.412-3.026c1.48,0,2.287,0.782,2.287,2.816
		C149.218,243.571,148.243,244.488,146.797,244.488z M146.839,239.494c-0.664,0-1.127,0.454-1.127,1.967
		c0,1.656,0.421,2.161,1.178,2.161c0.664,0,1.135-0.463,1.135-1.992C148.025,239.998,147.596,239.494,146.839,239.494z"/>
	<path d="M151.476,244.479c-0.648,0-1.229-0.235-1.69-0.563l0.286-0.588c0.453,0.21,0.898,0.319,1.201,0.319
		c0.59,0,0.959-0.27,0.959-0.731c0-1.11-2.371-0.892-2.371-2.674c0-0.976,0.757-1.605,1.816-1.605c0.529,0,1.043,0.143,1.521,0.462
		l-0.27,0.589c-0.361-0.144-0.73-0.228-1.066-0.228c-0.539,0-0.799,0.27-0.799,0.647c0,1.11,2.43,0.925,2.43,2.674
		C153.493,243.739,152.77,244.479,151.476,244.479z"/>
	<path d="M155.642,244.479c-0.647,0-1.228-0.235-1.689-0.563l0.285-0.588c0.454,0.21,0.899,0.319,1.202,0.319
		c0.589,0,0.958-0.27,0.958-0.731c0-1.11-2.37-0.892-2.37-2.674c0-0.976,0.757-1.605,1.815-1.605c0.53,0,1.043,0.143,1.521,0.462
		l-0.269,0.589c-0.361-0.144-0.731-0.228-1.067-0.228c-0.538,0-0.799,0.27-0.799,0.647c0,1.11,2.43,0.925,2.43,2.674
		C157.659,243.739,156.937,244.479,155.642,244.479z"/>
	<path d="M158.488,244.395v-5.675h2.943v0.865h-1.808v1.497h1.497v0.832h-1.497v1.606h1.841v0.874H158.488z"/>
	<path d="M163.765,244.479c-0.647,0-1.228-0.235-1.689-0.563l0.285-0.588c0.454,0.21,0.899,0.319,1.202,0.319
		c0.589,0,0.958-0.27,0.958-0.731c0-1.11-2.37-0.892-2.37-2.674c0-0.976,0.757-1.605,1.815-1.605c0.53,0,1.043,0.143,1.521,0.462
		l-0.269,0.589c-0.361-0.144-0.731-0.228-1.067-0.228c-0.538,0-0.799,0.27-0.799,0.647c0,1.11,2.43,0.925,2.43,2.674
		C165.782,243.739,165.06,244.479,163.765,244.479z"/>
	<path d="M170.157,244.412c-0.463,0-1-0.017-1.53-0.017v-5.675h1.866c1.203,0,1.725,0.546,1.725,1.337
		c0,0.622-0.303,1.009-0.749,1.219c0.597,0.109,1.042,0.622,1.042,1.312C172.511,243.588,171.814,244.412,170.157,244.412z
		 M170.283,239.51h-0.546v1.521h0.428c0.674,0,0.908-0.395,0.908-0.807S170.839,239.51,170.283,239.51z M170.259,241.805h-0.521
		v1.766c0.125,0.018,0.387,0.034,0.58,0.034c0.715,0,1-0.379,1-0.934C171.318,242.192,171.04,241.805,170.259,241.805z"/>
	<path d="M175.247,242.024v2.371h-1.135v-2.371c-0.588-0.983-1.067-2.001-1.529-3.304h1.244c0.285,0.832,0.58,1.547,0.941,2.262
		c0.361-0.682,0.647-1.497,0.883-2.262h1.127C176.323,239.99,175.837,241.108,175.247,242.024z"/>
	<path d="M180.691,244.479c-0.647,0-1.228-0.235-1.689-0.563l0.285-0.588c0.454,0.21,0.899,0.319,1.202,0.319
		c0.589,0,0.958-0.27,0.958-0.731c0-1.11-2.37-0.892-2.37-2.674c0-0.976,0.757-1.605,1.815-1.605c0.53,0,1.043,0.143,1.521,0.462
		l-0.269,0.589c-0.361-0.144-0.731-0.228-1.067-0.228c-0.538,0-0.799,0.27-0.799,0.647c0,1.11,2.43,0.925,2.43,2.674
		C182.708,243.739,181.986,244.479,180.691,244.479z"/>
	<path d="M183.536,244.395v-5.675h2.943v0.865h-1.808v1.497h1.497v0.832h-1.497v1.606h1.841v0.874H183.536z"/>
	<path d="M190.394,244.395c-0.066-0.319-0.159-0.79-0.244-1.118h-1.874c-0.075,0.319-0.169,0.731-0.235,1.118h-1.085
		c0.421-1.892,0.976-3.851,1.572-5.675h1.488c0.655,1.941,1.151,3.767,1.606,5.675H190.394z M189.183,239.72
		c-0.234,0.808-0.521,1.85-0.73,2.707h1.513C189.73,241.553,189.46,240.595,189.183,239.72z"/>
	<path d="M193.635,244.479c-0.647,0-1.228-0.235-1.69-0.563l0.286-0.588c0.454,0.21,0.899,0.319,1.202,0.319
		c0.589,0,0.959-0.27,0.959-0.731c0-1.11-2.371-0.892-2.371-2.674c0-0.976,0.756-1.605,1.816-1.605c0.529,0,1.042,0.143,1.521,0.462
		l-0.27,0.589c-0.361-0.144-0.731-0.228-1.067-0.228c-0.538,0-0.799,0.27-0.799,0.647c0,1.11,2.43,0.925,2.43,2.674
		C195.653,243.739,194.929,244.479,193.635,244.479z"/>
	<path d="M198.466,244.488c-1.447,0-2.279-0.731-2.279-2.834c0-2.11,0.976-3.026,2.413-3.026c1.479,0,2.287,0.782,2.287,2.816
		C200.887,243.571,199.911,244.488,198.466,244.488z M198.507,239.494c-0.664,0-1.126,0.454-1.126,1.967
		c0,1.656,0.421,2.161,1.177,2.161c0.664,0,1.135-0.463,1.135-1.992C199.693,239.998,199.265,239.494,198.507,239.494z"/>
	<path d="M204.859,244.395l-2.094-4.044v4.044h-0.941v-5.675h1.396l1.884,3.514v-3.514h0.941v5.675H204.859z"/>
</g>
</svg>
