<?xml version="1.0" encoding="utf-8"?>
<!-- Generator: Adobe Illustrator 16.0.4, SVG Export Plug-In . SVG Version: 6.00 Build 0)  -->
<!DOCTYPE svg PUBLIC "-//W3C//DTD SVG 1.1//EN" "http://www.w3.org/Graphics/SVG/1.1/DTD/svg11.dtd">
<svg version="1.1" id="Layer_1" xmlns="http://www.w3.org/2000/svg" xmlns:xlink="http://www.w3.org/1999/xlink" x="0px" y="0px"
	 width="267.667px" height="271.803px" viewBox="0 0 267.667 271.803" enable-background="new 0 0 267.667 271.803"
	 xml:space="preserve">
<g enable-background="new    ">
	<path d="M15.147,245.498c-1.084,0-1.648-0.597-1.648-2.842c0-2.262,0.581-2.968,1.741-2.968c1.068,0,1.639,0.58,1.639,2.816
		C16.879,244.808,16.274,245.498,15.147,245.498z M15.189,240.201c-0.698,0-1,0.555-1,2.337c0,1.917,0.294,2.438,1,2.438
		c0.698,0,1.009-0.563,1.009-2.354C16.198,240.722,15.896,240.201,15.189,240.201z"/>
</g>
<g enable-background="new    ">
	<path d="M10.225,220.456c-0.404,0-0.917-0.093-1.539-0.312l0.059-0.403c0.563,0.109,1.051,0.185,1.438,0.185
		c0.79,0,1.16-0.319,1.16-1.193c0-0.766-0.353-1.244-1.236-1.244c-0.378,0-0.731,0.042-1.161,0.126l0.177-2.9h2.556v0.588h-2.01
		L9.56,217c0.177-0.042,0.496-0.059,0.782-0.059c1.143,0,1.732,0.664,1.732,1.707C12.074,219.867,11.477,220.456,10.225,220.456z"/>
	<path d="M14.643,220.456c-1.084,0-1.648-0.597-1.648-2.842c0-2.262,0.581-2.968,1.741-2.968c1.068,0,1.639,0.58,1.639,2.816
		C16.375,219.766,15.77,220.456,14.643,220.456z M14.685,215.159c-0.698,0-1,0.555-1,2.337c0,1.917,0.294,2.438,1,2.438
		c0.698,0,1.009-0.563,1.009-2.354C15.694,215.68,15.392,215.159,14.685,215.159z"/>
</g>
<g enable-background="new    ">
	<path d="M4.301,195.347V194.8h1.278v-4.464l-1.144,0.454l-0.168-0.412l1.471-0.706h0.555v5.128h1.144v0.547H4.301z"/>
	<path d="M9.939,195.415c-1.084,0-1.648-0.597-1.648-2.842c0-2.262,0.581-2.968,1.741-2.968c1.068,0,1.639,0.58,1.639,2.816
		C11.671,194.725,11.066,195.415,9.939,195.415z M9.981,190.118c-0.698,0-1,0.555-1,2.337c0,1.917,0.294,2.438,1,2.438
		c0.698,0,1.009-0.563,1.009-2.354C10.99,190.639,10.688,190.118,9.981,190.118z"/>
	<path d="M14.139,195.415c-1.084,0-1.647-0.597-1.647-2.842c0-2.262,0.58-2.968,1.74-2.968c1.068,0,1.639,0.58,1.639,2.816
		C15.871,194.725,15.266,195.415,14.139,195.415z M14.181,190.118c-0.698,0-1,0.555-1,2.337c0,1.917,0.294,2.438,1,2.438
		c0.698,0,1.009-0.563,1.009-2.354C15.19,190.639,14.887,190.118,14.181,190.118z"/>
</g>
<g enable-background="new    ">
	<path d="M4.301,170.305v-0.547h1.278v-4.464l-1.144,0.454l-0.168-0.412l1.471-0.706h0.555v5.128h1.144v0.547H4.301z"/>
	<path d="M9.721,170.373c-0.404,0-0.917-0.093-1.539-0.312l0.059-0.403c0.563,0.109,1.051,0.185,1.438,0.185
		c0.79,0,1.16-0.319,1.16-1.193c0-0.766-0.353-1.244-1.236-1.244c-0.378,0-0.731,0.042-1.161,0.126l0.177-2.9h2.556v0.588h-2.01
		l-0.109,1.698c0.177-0.042,0.496-0.059,0.782-0.059c1.143,0,1.732,0.664,1.732,1.707C11.57,169.784,10.973,170.373,9.721,170.373z"
		/>
	<path d="M14.139,170.373c-1.084,0-1.647-0.597-1.647-2.842c0-2.262,0.58-2.968,1.74-2.968c1.068,0,1.639,0.58,1.639,2.816
		C15.871,169.683,15.266,170.373,14.139,170.373z M14.181,165.076c-0.698,0-1,0.555-1,2.337c0,1.917,0.294,2.438,1,2.438
		c0.698,0,1.009-0.563,1.009-2.354C15.19,165.597,14.887,165.076,14.181,165.076z"/>
</g>
<g enable-background="new    ">
	<path d="M4.091,145.264v-0.547c1.858-1.917,2.363-2.808,2.363-3.564c0-0.832-0.462-1.06-0.992-1.06
		c-0.361,0-0.706,0.102-1.16,0.261l-0.118-0.462c0.53-0.228,0.917-0.37,1.564-0.37c0.756,0,1.488,0.378,1.488,1.53
		c0,0.958-0.563,1.866-2.346,3.615h2.497v0.597H4.091z"/>
	<path d="M9.939,145.332c-1.084,0-1.648-0.597-1.648-2.842c0-2.262,0.581-2.968,1.741-2.968c1.068,0,1.639,0.58,1.639,2.816
		C11.671,144.642,11.066,145.332,9.939,145.332z M9.981,140.035c-0.698,0-1,0.555-1,2.337c0,1.917,0.294,2.438,1,2.438
		c0.698,0,1.009-0.563,1.009-2.354C10.99,140.556,10.688,140.035,9.981,140.035z"/>
	<path d="M14.139,145.332c-1.084,0-1.647-0.597-1.647-2.842c0-2.262,0.58-2.968,1.74-2.968c1.068,0,1.639,0.58,1.639,2.816
		C15.871,144.642,15.266,145.332,14.139,145.332z M14.181,140.035c-0.698,0-1,0.555-1,2.337c0,1.917,0.294,2.438,1,2.438
		c0.698,0,1.009-0.563,1.009-2.354C15.19,140.556,14.887,140.035,14.181,140.035z"/>
</g>
<rect x="3.688" y="2.366" fill="none" width="158.886" height="6.75"/>
<g enable-background="new    ">
	<path d="M146.757,18.406c-0.648,0-1.229-0.235-1.69-0.563l0.286-0.588c0.453,0.21,0.898,0.319,1.201,0.319
		c0.59,0,0.959-0.27,0.959-0.731c0-1.11-2.371-0.892-2.371-2.674c0-0.976,0.757-1.605,1.816-1.605c0.529,0,1.043,0.143,1.521,0.462
		l-0.27,0.589c-0.361-0.144-0.73-0.228-1.066-0.228c-0.539,0-0.799,0.27-0.799,0.647c0,1.11,2.43,0.925,2.43,2.674
		C148.775,17.666,148.051,18.406,146.757,18.406z"/>
	<path d="M152.503,18.322c-0.066-0.319-0.16-0.79-0.244-1.118h-1.874c-0.075,0.319-0.169,0.731-0.235,1.118h-1.085
		c0.421-1.892,0.976-3.851,1.572-5.675h1.488c0.655,1.941,1.151,3.767,1.606,5.675H152.503z M151.292,13.647
		c-0.234,0.808-0.521,1.85-0.73,2.707h1.514C151.839,15.48,151.57,14.522,151.292,13.647z"/>
	<path d="M156.568,18.322h-1.379c-0.672-1.917-1.177-3.733-1.572-5.675h1.244c0.244,1.396,0.656,2.951,1.102,4.531
		c0.43-1.446,0.748-2.977,0.976-4.531h1.11C157.711,14.572,157.25,16.439,156.568,18.322z"/>
	<path d="M158.758,18.322v-5.675h2.942v0.865h-1.807v1.497h1.496v0.832h-1.496v1.606h1.841v0.874H158.758z"/>
	<path d="M164.035,18.406c-0.646,0-1.227-0.235-1.689-0.563l0.285-0.588c0.455,0.21,0.9,0.319,1.203,0.319
		c0.588,0,0.958-0.27,0.958-0.731c0-1.11-2.37-0.892-2.37-2.674c0-0.976,0.756-1.605,1.815-1.605c0.53,0,1.042,0.143,1.521,0.462
		l-0.269,0.589c-0.361-0.144-0.732-0.228-1.068-0.228c-0.537,0-0.799,0.27-0.799,0.647c0,1.11,2.43,0.925,2.43,2.674
		C166.052,17.666,165.33,18.406,164.035,18.406z"/>
	<path d="M170.427,18.338c-0.463,0-1-0.017-1.53-0.017v-5.675h1.866c1.203,0,1.725,0.546,1.725,1.337
		c0,0.622-0.303,1.009-0.749,1.219c0.597,0.109,1.042,0.622,1.042,1.312C172.781,17.515,172.083,18.338,170.427,18.338z
		 M170.553,13.437h-0.546v1.521h0.428c0.674,0,0.908-0.395,0.908-0.807S171.109,13.437,170.553,13.437z M170.529,15.732h-0.521
		v1.766c0.125,0.018,0.387,0.034,0.58,0.034c0.715,0,1-0.379,1-0.934C171.587,16.119,171.31,15.732,170.529,15.732z"/>
	<path d="M175.517,15.951v2.371h-1.135v-2.371c-0.588-0.983-1.067-2.001-1.529-3.304h1.244c0.285,0.832,0.58,1.547,0.941,2.262
		c0.361-0.682,0.647-1.497,0.883-2.262h1.127C176.593,13.917,176.107,15.035,175.517,15.951z"/>
	<path d="M180.96,18.406c-0.648,0-1.229-0.235-1.69-0.563l0.286-0.588c0.453,0.21,0.898,0.319,1.201,0.319
		c0.59,0,0.959-0.27,0.959-0.731c0-1.11-2.371-0.892-2.371-2.674c0-0.976,0.757-1.605,1.816-1.605c0.529,0,1.043,0.143,1.521,0.462
		l-0.27,0.589c-0.361-0.144-0.73-0.228-1.066-0.228c-0.539,0-0.799,0.27-0.799,0.647c0,1.11,2.43,0.925,2.43,2.674
		C182.978,17.666,182.254,18.406,180.96,18.406z"/>
	<path d="M183.806,18.322v-5.675h2.943v0.865h-1.809v1.497h1.497v0.832h-1.497v1.606h1.842v0.874H183.806z"/>
	<path d="M190.664,18.322c-0.067-0.319-0.16-0.79-0.244-1.118h-1.875c-0.075,0.319-0.168,0.731-0.235,1.118h-1.085
		c0.421-1.892,0.977-3.851,1.572-5.675h1.488c0.656,1.941,1.152,3.767,1.606,5.675H190.664z M189.453,13.647
		c-0.235,0.808-0.521,1.85-0.731,2.707h1.513C190,15.48,189.73,14.522,189.453,13.647z"/>
	<path d="M193.904,18.406c-0.646,0-1.227-0.235-1.689-0.563l0.285-0.588c0.455,0.21,0.9,0.319,1.203,0.319
		c0.588,0,0.958-0.27,0.958-0.731c0-1.11-2.37-0.892-2.37-2.674c0-0.976,0.756-1.605,1.815-1.605c0.53,0,1.042,0.143,1.521,0.462
		l-0.269,0.589c-0.361-0.144-0.732-0.228-1.068-0.228c-0.537,0-0.799,0.27-0.799,0.647c0,1.11,2.43,0.925,2.43,2.674
		C195.921,17.666,195.199,18.406,193.904,18.406z"/>
	<path d="M198.735,18.415c-1.446,0-2.278-0.731-2.278-2.834c0-2.11,0.975-3.026,2.412-3.026c1.48,0,2.287,0.782,2.287,2.816
		C201.156,17.498,200.181,18.415,198.735,18.415z M198.777,13.42c-0.664,0-1.127,0.454-1.127,1.967c0,1.656,0.421,2.161,1.178,2.161
		c0.664,0,1.135-0.463,1.135-1.992C199.962,13.924,199.534,13.42,198.777,13.42z"/>
	<path d="M205.128,18.322l-2.094-4.044v4.044h-0.941v-5.675h1.395l1.885,3.514v-3.514h0.941v5.675H205.128z"/>
</g>
<rect x="27.442" y="113.436" fill="none" width="8.75" height="17.25"/>
<g enable-background="new    ">
	<path d="M28.598,130.071h-0.547v-1.278h-4.464l0.454,1.144l-0.412,0.168l-0.706-1.471v-0.555h5.128v-1.144h0.547V130.071z"/>
	<path d="M28.665,124.736c0,0.37-0.067,0.757-0.277,1.329l-0.412-0.067c0.109-0.454,0.168-0.832,0.168-1.202
		c0-0.791-0.655-1.32-2.304-1.337c0.261,0.454,0.403,0.807,0.403,1.261c0,0.883-0.562,1.371-1.521,1.371
		c-1.151,0-1.866-0.647-1.866-1.64c0-1.084,0.546-1.673,2.716-1.673C28.076,122.777,28.665,123.693,28.665,124.736z M25.327,123.466
		c-1.37,0-1.959,0.328-1.959,1.026c0,0.622,0.462,0.925,1.236,0.925c0.731,0,1.109-0.277,1.109-0.941
		c0-0.286-0.101-0.58-0.354-1.009H25.327z"/>
	<path d="M28.665,120.537c0,0.37-0.067,0.756-0.277,1.328l-0.412-0.067c0.109-0.454,0.168-0.832,0.168-1.202
		c0-0.791-0.655-1.32-2.304-1.337c0.261,0.454,0.403,0.807,0.403,1.261c0,0.883-0.562,1.371-1.521,1.371
		c-1.151,0-1.866-0.647-1.866-1.64c0-1.084,0.546-1.673,2.716-1.673C28.076,118.578,28.665,119.494,28.665,120.537z M25.327,119.267
		c-1.37,0-1.959,0.328-1.959,1.026c0,0.622,0.462,0.925,1.236,0.925c0.731,0,1.109-0.277,1.109-0.941
		c0-0.286-0.101-0.58-0.354-1.009H25.327z"/>
	<path d="M28.665,116.252c0,0.404-0.093,0.917-0.312,1.539l-0.403-0.059c0.109-0.563,0.185-1.051,0.185-1.438
		c0-0.79-0.319-1.16-1.193-1.16c-0.766,0-1.244,0.353-1.244,1.236c0,0.378,0.042,0.731,0.126,1.161l-2.9-0.177v-2.556h0.588v2.01
		l1.698,0.109c-0.042-0.177-0.059-0.496-0.059-0.782c0-1.144,0.664-1.732,1.707-1.732C28.076,114.402,28.665,115,28.665,116.252z"/>
</g>
<rect x="39.145" y="113.436" fill="none" width="8.75" height="17.25"/>
<g enable-background="new    ">
	<path d="M40.3,130.071h-0.547v-1.278H35.29l0.454,1.144l-0.412,0.168l-0.706-1.471v-0.555h5.128v-1.144H40.3V130.071z"/>
	<path d="M40.368,124.736c0,0.37-0.067,0.757-0.277,1.329l-0.412-0.067c0.109-0.454,0.168-0.832,0.168-1.202
		c0-0.791-0.655-1.32-2.304-1.337c0.261,0.454,0.403,0.807,0.403,1.261c0,0.883-0.562,1.371-1.521,1.371
		c-1.151,0-1.866-0.647-1.866-1.64c0-1.084,0.546-1.673,2.716-1.673C39.779,122.777,40.368,123.693,40.368,124.736z M37.03,123.466
		c-1.37,0-1.959,0.328-1.959,1.026c0,0.622,0.462,0.925,1.236,0.925c0.731,0,1.109-0.277,1.109-0.941
		c0-0.286-0.101-0.58-0.354-1.009H37.03z"/>
	<path d="M40.368,120.537c0,0.37-0.067,0.756-0.277,1.328l-0.412-0.067c0.109-0.454,0.168-0.832,0.168-1.202
		c0-0.791-0.655-1.32-2.304-1.337c0.261,0.454,0.403,0.807,0.403,1.261c0,0.883-0.562,1.371-1.521,1.371
		c-1.151,0-1.866-0.647-1.866-1.64c0-1.084,0.546-1.673,2.716-1.673C39.779,118.578,40.368,119.494,40.368,120.537z M37.03,119.267
		c-1.37,0-1.959,0.328-1.959,1.026c0,0.622,0.462,0.925,1.236,0.925c0.731,0,1.109-0.277,1.109-0.941
		c0-0.286-0.101-0.58-0.354-1.009H37.03z"/>
	<path d="M40.368,115.916c0,1.084-0.538,1.665-2.707,1.665c-2.472,0-3.103-0.875-3.103-1.909c0-0.378,0.075-0.756,0.269-1.261
		l0.412,0.076c-0.093,0.362-0.159,0.749-0.159,1.118c0,0.799,0.714,1.287,2.312,1.303c-0.261-0.454-0.403-0.815-0.403-1.261
		c0-0.883,0.563-1.379,1.521-1.379C39.662,114.268,40.368,114.924,40.368,115.916z M37.517,115.882c0,0.294,0.102,0.58,0.354,1.017
		h0.033c1.379,0,1.951-0.328,1.951-1.026c0-0.622-0.446-0.925-1.228-0.925C37.896,114.949,37.517,115.227,37.517,115.882z"/>
</g>
<rect x="50.848" y="113.436" fill="none" width="8.75" height="17.25"/>
<g enable-background="new    ">
	<path d="M52.002,130.071h-0.547v-1.278h-4.464l0.454,1.144l-0.412,0.168l-0.706-1.471v-0.555h5.128v-1.144h0.547V130.071z"/>
	<path d="M52.07,124.736c0,0.37-0.067,0.757-0.277,1.329l-0.412-0.067c0.109-0.454,0.168-0.832,0.168-1.202
		c0-0.791-0.655-1.32-2.304-1.337c0.261,0.454,0.403,0.807,0.403,1.261c0,0.883-0.562,1.371-1.521,1.371
		c-1.151,0-1.866-0.647-1.866-1.64c0-1.084,0.546-1.673,2.716-1.673C51.481,122.777,52.07,123.693,52.07,124.736z M48.732,123.466
		c-1.37,0-1.959,0.328-1.959,1.026c0,0.622,0.462,0.925,1.236,0.925c0.731,0,1.109-0.277,1.109-0.941
		c0-0.286-0.101-0.58-0.354-1.009H48.732z"/>
	<path d="M52.07,120.537c0,0.37-0.067,0.756-0.277,1.328l-0.412-0.067c0.109-0.454,0.168-0.832,0.168-1.202
		c0-0.791-0.655-1.32-2.304-1.337c0.261,0.454,0.403,0.807,0.403,1.261c0,0.883-0.562,1.371-1.521,1.371
		c-1.151,0-1.866-0.647-1.866-1.64c0-1.084,0.546-1.673,2.716-1.673C51.481,118.578,52.07,119.494,52.07,120.537z M48.732,119.267
		c-1.37,0-1.959,0.328-1.959,1.026c0,0.622,0.462,0.925,1.236,0.925c0.731,0,1.109-0.277,1.109-0.941
		c0-0.286-0.101-0.58-0.354-1.009H48.732z"/>
	<path d="M49.405,115.411c0.874,0.404,1.934,0.976,2.665,1.404l-0.168,0.454l-4.986-2.262v2.707h-0.588v-3.514h0.513L49.405,115.411
		z"/>
</g>
<rect x="62.55" y="113.436" fill="none" width="8.75" height="17.25"/>
<g enable-background="new    ">
	<path d="M63.705,130.071h-0.547v-1.278h-4.464l0.454,1.144l-0.412,0.168l-0.706-1.471v-0.555h5.128v-1.144h0.547V130.071z"/>
	<path d="M63.772,124.736c0,0.37-0.067,0.757-0.277,1.329l-0.412-0.067c0.109-0.454,0.168-0.832,0.168-1.202
		c0-0.791-0.655-1.32-2.304-1.337c0.261,0.454,0.403,0.807,0.403,1.261c0,0.883-0.562,1.371-1.521,1.371
		c-1.151,0-1.866-0.647-1.866-1.64c0-1.084,0.546-1.673,2.716-1.673C63.184,122.777,63.772,123.693,63.772,124.736z M60.435,123.466
		c-1.37,0-1.959,0.328-1.959,1.026c0,0.622,0.462,0.925,1.236,0.925c0.731,0,1.109-0.277,1.109-0.941
		c0-0.286-0.101-0.58-0.354-1.009H60.435z"/>
	<path d="M63.772,120.537c0,0.37-0.067,0.756-0.277,1.328l-0.412-0.067c0.109-0.454,0.168-0.832,0.168-1.202
		c0-0.791-0.655-1.32-2.304-1.337c0.261,0.454,0.403,0.807,0.403,1.261c0,0.883-0.562,1.371-1.521,1.371
		c-1.151,0-1.866-0.647-1.866-1.64c0-1.084,0.546-1.673,2.716-1.673C63.184,118.578,63.772,119.494,63.772,120.537z M60.435,119.267
		c-1.37,0-1.959,0.328-1.959,1.026c0,0.622,0.462,0.925,1.236,0.925c0.731,0,1.109-0.277,1.109-0.941
		c0-0.286-0.101-0.58-0.354-1.009H60.435z"/>
	<path d="M63.772,116.05c0,1.16-0.563,1.665-1.379,1.665c-0.723,0-1.177-0.471-1.563-1.126c-0.37,0.656-0.833,1.009-1.463,1.009
		c-0.816,0-1.404-0.588-1.404-1.665c0-1.168,0.58-1.555,1.312-1.555c0.631,0,1.034,0.37,1.446,1.109
		c0.437-0.824,0.841-1.236,1.58-1.236C63.125,114.251,63.772,114.806,63.772,116.05z M58.45,116.025c0,0.555,0.337,0.9,0.832,0.9
		c0.505,0,0.841-0.277,1.186-0.925c-0.369-0.665-0.664-0.958-1.093-0.958C58.77,115.042,58.45,115.327,58.45,116.025z
		 M61.09,116.101c0.388,0.647,0.732,0.942,1.211,0.942c0.614,0,0.976-0.37,0.976-1.102c0-0.605-0.361-1.017-0.883-1.017
		C61.813,114.924,61.478,115.335,61.09,116.101z"/>
</g>
<rect x="74.252" y="113.436" fill="none" width="8.75" height="17.25"/>
<g enable-background="new    ">
	<path d="M75.408,130.071h-0.547v-1.278h-4.464l0.454,1.144l-0.412,0.168l-0.706-1.471v-0.555h5.128v-1.144h0.547V130.071z"/>
	<path d="M75.475,124.736c0,0.37-0.067,0.757-0.277,1.329l-0.412-0.067c0.109-0.454,0.168-0.832,0.168-1.202
		c0-0.791-0.655-1.32-2.304-1.337c0.261,0.454,0.403,0.807,0.403,1.261c0,0.883-0.562,1.371-1.521,1.371
		c-1.151,0-1.866-0.647-1.866-1.64c0-1.084,0.546-1.673,2.716-1.673C74.886,122.777,75.475,123.693,75.475,124.736z M72.137,123.466
		c-1.37,0-1.959,0.328-1.959,1.026c0,0.622,0.462,0.925,1.236,0.925c0.731,0,1.109-0.277,1.109-0.941
		c0-0.286-0.101-0.58-0.354-1.009H72.137z"/>
	<path d="M75.475,120.537c0,0.37-0.067,0.756-0.277,1.328l-0.412-0.067c0.109-0.454,0.168-0.832,0.168-1.202
		c0-0.791-0.655-1.32-2.304-1.337c0.261,0.454,0.403,0.807,0.403,1.261c0,0.883-0.562,1.371-1.521,1.371
		c-1.151,0-1.866-0.647-1.866-1.64c0-1.084,0.546-1.673,2.716-1.673C74.886,118.578,75.475,119.494,75.475,120.537z M72.137,119.267
		c-1.37,0-1.959,0.328-1.959,1.026c0,0.622,0.462,0.925,1.236,0.925c0.731,0,1.109-0.277,1.109-0.941
		c0-0.286-0.101-0.58-0.354-1.009H72.137z"/>
	<path d="M75.475,116.336c0,0.37-0.067,0.756-0.277,1.328l-0.412-0.067c0.109-0.454,0.168-0.832,0.168-1.202
		c0-0.791-0.655-1.32-2.304-1.337c0.261,0.454,0.403,0.807,0.403,1.261c0,0.883-0.562,1.371-1.521,1.371
		c-1.151,0-1.866-0.647-1.866-1.64c0-1.084,0.546-1.673,2.716-1.673C74.886,114.377,75.475,115.293,75.475,116.336z M72.137,115.066
		c-1.37,0-1.959,0.328-1.959,1.026c0,0.622,0.462,0.925,1.236,0.925c0.731,0,1.109-0.277,1.109-0.941
		c0-0.286-0.101-0.58-0.354-1.009H72.137z"/>
</g>
<rect x="85.955" y="113.436" fill="none" width="8.75" height="17.25"/>
<g enable-background="new    ">
	<path d="M87.11,130.282h-0.547c-1.917-1.858-2.808-2.363-3.564-2.363c-0.832,0-1.06,0.462-1.06,0.992
		c0,0.361,0.102,0.706,0.261,1.16l-0.462,0.118c-0.228-0.53-0.37-0.917-0.37-1.564c0-0.756,0.378-1.488,1.53-1.488
		c0.958,0,1.866,0.563,3.615,2.346v-2.497h0.597V130.282z"/>
	<path d="M87.177,124.434c0,1.084-0.597,1.648-2.842,1.648c-2.262,0-2.968-0.581-2.968-1.741c0-1.068,0.58-1.639,2.816-1.639
		C86.488,122.702,87.177,123.307,87.177,124.434z M81.88,124.392c0,0.698,0.555,1,2.337,1c1.917,0,2.438-0.294,2.438-1
		c0-0.698-0.563-1.009-2.354-1.009C82.402,123.382,81.88,123.685,81.88,124.392z"/>
	<path d="M87.177,120.234c0,1.084-0.597,1.647-2.842,1.647c-2.262,0-2.968-0.58-2.968-1.74c0-1.068,0.58-1.639,2.816-1.639
		C86.488,118.502,87.177,119.107,87.177,120.234z M81.88,120.192c0,0.698,0.555,1,2.337,1c1.917,0,2.438-0.294,2.438-1
		c0-0.698-0.563-1.009-2.354-1.009C82.402,119.183,81.88,119.485,81.88,120.192z"/>
	<path d="M87.177,116.034c0,1.084-0.597,1.647-2.842,1.647c-2.262,0-2.968-0.58-2.968-1.74c0-1.068,0.58-1.639,2.816-1.639
		C86.488,114.302,87.177,114.907,87.177,116.034z M81.88,115.992c0,0.698,0.555,1,2.337,1c1.917,0,2.438-0.294,2.438-1
		c0-0.698-0.563-1.009-2.354-1.009C82.402,114.982,81.88,115.285,81.88,115.992z"/>
</g>
<rect x="97.657" y="113.436" fill="none" width="8.75" height="17.25"/>
<g enable-background="new    ">
	<path d="M98.812,130.282h-0.547c-1.917-1.858-2.808-2.363-3.564-2.363c-0.832,0-1.06,0.462-1.06,0.992
		c0,0.361,0.102,0.706,0.261,1.16l-0.462,0.118c-0.228-0.53-0.37-0.917-0.37-1.564c0-0.756,0.378-1.488,1.53-1.488
		c0.958,0,1.866,0.563,3.615,2.346v-2.497h0.597V130.282z"/>
	<path d="M98.88,124.434c0,1.084-0.597,1.648-2.842,1.648c-2.262,0-2.968-0.581-2.968-1.741c0-1.068,0.58-1.639,2.816-1.639
		C98.19,122.702,98.88,123.307,98.88,124.434z M93.583,124.392c0,0.698,0.555,1,2.337,1c1.917,0,2.438-0.294,2.438-1
		c0-0.698-0.563-1.009-2.354-1.009C94.104,123.382,93.583,123.685,93.583,124.392z"/>
	<path d="M98.88,120.234c0,1.084-0.597,1.647-2.842,1.647c-2.262,0-2.968-0.58-2.968-1.74c0-1.068,0.58-1.639,2.816-1.639
		C98.19,118.502,98.88,119.107,98.88,120.234z M93.583,120.192c0,0.698,0.555,1,2.337,1c1.917,0,2.438-0.294,2.438-1
		c0-0.698-0.563-1.009-2.354-1.009C94.104,119.183,93.583,119.485,93.583,120.192z"/>
	<path d="M98.812,117.471h-0.547v-1.278h-4.464l0.454,1.144l-0.412,0.168l-0.706-1.471v-0.555h5.128v-1.144h0.547V117.471z"/>
</g>
<rect x="109.36" y="113.436" fill="none" width="8.75" height="17.25"/>
<g enable-background="new    ">
	<path d="M110.515,130.282h-0.547c-1.917-1.858-2.808-2.363-3.564-2.363c-0.832,0-1.06,0.462-1.06,0.992
		c0,0.361,0.102,0.706,0.261,1.16l-0.462,0.118c-0.228-0.53-0.37-0.917-0.37-1.564c0-0.756,0.378-1.488,1.53-1.488
		c0.958,0,1.866,0.563,3.615,2.346v-2.497h0.597V130.282z"/>
	<path d="M110.582,124.434c0,1.084-0.597,1.648-2.842,1.648c-2.262,0-2.968-0.581-2.968-1.741c0-1.068,0.58-1.639,2.816-1.639
		C109.893,122.702,110.582,123.307,110.582,124.434z M105.285,124.392c0,0.698,0.555,1,2.337,1c1.917,0,2.438-0.294,2.438-1
		c0-0.698-0.563-1.009-2.354-1.009C105.807,123.382,105.285,123.685,105.285,124.392z"/>
	<path d="M110.582,120.234c0,1.084-0.597,1.647-2.842,1.647c-2.262,0-2.968-0.58-2.968-1.74c0-1.068,0.58-1.639,2.816-1.639
		C109.893,118.502,110.582,119.107,110.582,120.234z M105.285,120.192c0,0.698,0.555,1,2.337,1c1.917,0,2.438-0.294,2.438-1
		c0-0.698-0.563-1.009-2.354-1.009C105.807,119.183,105.285,119.485,105.285,120.192z"/>
	<path d="M110.515,117.681h-0.547c-1.917-1.858-2.808-2.362-3.564-2.362c-0.832,0-1.06,0.462-1.06,0.992
		c0,0.361,0.102,0.706,0.261,1.16l-0.462,0.118c-0.228-0.53-0.37-0.917-0.37-1.564c0-0.756,0.378-1.488,1.53-1.488
		c0.958,0,1.866,0.563,3.615,2.346v-2.497h0.597V117.681z"/>
</g>
<rect x="121.062" y="113.436" fill="none" width="8.75" height="17.25"/>
<g enable-background="new    ">
	<path d="M122.217,130.282h-0.547c-1.917-1.858-2.808-2.363-3.564-2.363c-0.832,0-1.06,0.462-1.06,0.992
		c0,0.361,0.102,0.706,0.261,1.16l-0.462,0.118c-0.228-0.53-0.37-0.917-0.37-1.564c0-0.756,0.378-1.488,1.53-1.488
		c0.958,0,1.866,0.563,3.615,2.346v-2.497h0.597V130.282z"/>
	<path d="M122.285,124.434c0,1.084-0.597,1.648-2.842,1.648c-2.262,0-2.968-0.581-2.968-1.741c0-1.068,0.58-1.639,2.816-1.639
		C121.595,122.702,122.285,123.307,122.285,124.434z M116.988,124.392c0,0.698,0.555,1,2.337,1c1.917,0,2.438-0.294,2.438-1
		c0-0.698-0.563-1.009-2.354-1.009C117.509,123.382,116.988,123.685,116.988,124.392z"/>
	<path d="M122.285,120.234c0,1.084-0.597,1.647-2.842,1.647c-2.262,0-2.968-0.58-2.968-1.74c0-1.068,0.58-1.639,2.816-1.639
		C121.595,118.502,122.285,119.107,122.285,120.234z M116.988,120.192c0,0.698,0.555,1,2.337,1c1.917,0,2.438-0.294,2.438-1
		c0-0.698-0.563-1.009-2.354-1.009C117.509,119.183,116.988,119.485,116.988,120.192z"/>
	<path d="M122.285,116.227c0,0.412-0.101,0.925-0.328,1.563l-0.412-0.067c0.126-0.581,0.193-1.034,0.193-1.396
		c0-0.866-0.378-1.152-1.144-1.152c-0.697,0-1.126,0.303-1.126,1.169v0.647h-0.521v-0.623c0-0.698-0.345-1.034-1.034-1.034
		c-0.555,0-0.892,0.236-0.892,0.976c0,0.336,0.085,0.866,0.202,1.186l-0.454,0.101c-0.143-0.345-0.294-0.883-0.294-1.53
		c0-1.017,0.605-1.471,1.354-1.471c0.757,0,1.193,0.378,1.32,0.875c0.042-0.698,0.706-1.06,1.37-1.06
		C121.73,114.411,122.285,115.016,122.285,116.227z"/>
</g>
<rect x="132.765" y="113.436" fill="none" width="8.75" height="17.25"/>
<g enable-background="new    ">
	<path d="M133.92,130.282h-0.547c-1.917-1.858-2.808-2.363-3.564-2.363c-0.832,0-1.06,0.462-1.06,0.992
		c0,0.361,0.102,0.706,0.261,1.16l-0.462,0.118c-0.228-0.53-0.37-0.917-0.37-1.564c0-0.756,0.378-1.488,1.53-1.488
		c0.958,0,1.866,0.563,3.615,2.346v-2.497h0.597V130.282z"/>
	<path d="M133.987,124.434c0,1.084-0.597,1.648-2.842,1.648c-2.262,0-2.968-0.581-2.968-1.741c0-1.068,0.58-1.639,2.816-1.639
		C133.298,122.702,133.987,123.307,133.987,124.434z M128.69,124.392c0,0.698,0.555,1,2.337,1c1.917,0,2.438-0.294,2.438-1
		c0-0.698-0.563-1.009-2.354-1.009C129.212,123.382,128.69,123.685,128.69,124.392z"/>
	<path d="M133.987,120.234c0,1.084-0.597,1.647-2.842,1.647c-2.262,0-2.968-0.58-2.968-1.74c0-1.068,0.58-1.639,2.816-1.639
		C133.298,118.502,133.987,119.107,133.987,120.234z M128.69,120.192c0,0.698,0.555,1,2.337,1c1.917,0,2.438-0.294,2.438-1
		c0-0.698-0.563-1.009-2.354-1.009C129.212,119.183,128.69,119.485,128.69,120.192z"/>
	<path d="M132.6,114.831h1.32v0.673h-1.32v2.354h-0.521c-1.312-0.639-2.725-1.404-3.834-2.085v-0.942h3.758v-0.681h0.597V114.831z
		 M128.816,115.504c0.866,0.513,2.035,1.194,3.187,1.749v-1.749H128.816z"/>
</g>
<rect x="144.467" y="108.725" fill="none" width="8.75" height="21.961"/>
<g enable-background="new    ">
	<path d="M145.623,130.282h-0.547c-1.918-1.858-2.809-2.363-3.564-2.363c-0.832,0-1.061,0.462-1.061,0.992
		c0,0.361,0.102,0.706,0.262,1.16l-0.463,0.118c-0.227-0.53-0.369-0.917-0.369-1.564c0-0.756,0.377-1.488,1.529-1.488
		c0.959,0,1.867,0.563,3.615,2.346v-2.497h0.598V130.282z"/>
	<path d="M145.689,124.434c0,1.084-0.596,1.648-2.842,1.648c-2.262,0-2.967-0.581-2.967-1.741c0-1.068,0.58-1.639,2.816-1.639
		C145,122.702,145.689,123.307,145.689,124.434z M140.392,124.392c0,0.698,0.555,1,2.338,1c1.916,0,2.438-0.294,2.438-1
		c0-0.698-0.562-1.009-2.354-1.009C140.914,123.382,140.392,123.685,140.392,124.392z"/>
	<path d="M145.689,120.234c0,1.084-0.596,1.647-2.842,1.647c-2.262,0-2.967-0.58-2.967-1.74c0-1.068,0.58-1.639,2.816-1.639
		C145,118.502,145.689,119.107,145.689,120.234z M140.392,120.192c0,0.698,0.555,1,2.338,1c1.916,0,2.438-0.294,2.438-1
		c0-0.698-0.562-1.009-2.354-1.009C140.914,119.183,140.392,119.485,140.392,120.192z"/>
	<path d="M145.689,116.252c0,0.404-0.092,0.917-0.311,1.539l-0.404-0.059c0.109-0.563,0.186-1.051,0.186-1.438
		c0-0.79-0.32-1.16-1.193-1.16c-0.766,0-1.244,0.353-1.244,1.236c0,0.378,0.041,0.731,0.125,1.161l-2.9-0.177v-2.556h0.588v2.01
		l1.699,0.109c-0.043-0.177-0.059-0.496-0.059-0.782c0-1.144,0.664-1.732,1.707-1.732C145.101,114.402,145.689,115,145.689,116.252z
		"/>
</g>
<rect x="156.169" y="108.725" fill="none" width="8.75" height="21.961"/>
<g enable-background="new    ">
	<path d="M157.325,130.282h-0.547c-1.917-1.858-2.808-2.363-3.564-2.363c-0.832,0-1.06,0.462-1.06,0.992
		c0,0.361,0.102,0.706,0.261,1.16l-0.462,0.118c-0.228-0.53-0.37-0.917-0.37-1.564c0-0.756,0.378-1.488,1.53-1.488
		c0.958,0,1.866,0.563,3.615,2.346v-2.497h0.597V130.282z"/>
	<path d="M157.392,124.434c0,1.084-0.597,1.648-2.842,1.648c-2.262,0-2.968-0.581-2.968-1.741c0-1.068,0.58-1.639,2.816-1.639
		C156.703,122.702,157.392,123.307,157.392,124.434z M152.095,124.392c0,0.698,0.555,1,2.337,1c1.917,0,2.438-0.294,2.438-1
		c0-0.698-0.563-1.009-2.354-1.009C152.617,123.382,152.095,123.685,152.095,124.392z"/>
	<path d="M157.392,120.234c0,1.084-0.597,1.647-2.842,1.647c-2.262,0-2.968-0.58-2.968-1.74c0-1.068,0.58-1.639,2.816-1.639
		C156.703,118.502,157.392,119.107,157.392,120.234z M152.095,120.192c0,0.698,0.555,1,2.337,1c1.917,0,2.438-0.294,2.438-1
		c0-0.698-0.563-1.009-2.354-1.009C152.617,119.183,152.095,119.485,152.095,120.192z"/>
	<path d="M157.392,115.916c0,1.084-0.538,1.665-2.707,1.665c-2.472,0-3.103-0.875-3.103-1.909c0-0.378,0.075-0.756,0.269-1.261
		l0.412,0.076c-0.093,0.362-0.159,0.749-0.159,1.118c0,0.799,0.714,1.287,2.312,1.303c-0.261-0.454-0.403-0.815-0.403-1.261
		c0-0.883,0.563-1.379,1.521-1.379C156.686,114.268,157.392,114.924,157.392,115.916z M154.542,115.882
		c0,0.294,0.102,0.58,0.354,1.017h0.033c1.379,0,1.951-0.328,1.951-1.026c0-0.622-0.446-0.925-1.228-0.925
		C154.92,114.949,154.542,115.227,154.542,115.882z"/>
</g>
<rect x="167.871" y="108.725" fill="none" width="8.75" height="21.961"/>
<g enable-background="new    ">
	<path d="M169.027,130.282h-0.547c-1.917-1.858-2.808-2.363-3.564-2.363c-0.832,0-1.06,0.462-1.06,0.992
		c0,0.361,0.102,0.706,0.261,1.16l-0.462,0.118c-0.228-0.53-0.37-0.917-0.37-1.564c0-0.756,0.378-1.488,1.53-1.488
		c0.958,0,1.866,0.563,3.615,2.346v-2.497h0.597V130.282z"/>
	<path d="M169.094,124.434c0,1.084-0.597,1.648-2.842,1.648c-2.262,0-2.968-0.581-2.968-1.741c0-1.068,0.58-1.639,2.816-1.639
		C168.405,122.702,169.094,123.307,169.094,124.434z M163.797,124.392c0,0.698,0.555,1,2.337,1c1.917,0,2.438-0.294,2.438-1
		c0-0.698-0.563-1.009-2.354-1.009C164.319,123.382,163.797,123.685,163.797,124.392z"/>
	<path d="M169.094,120.234c0,1.084-0.597,1.647-2.842,1.647c-2.262,0-2.968-0.58-2.968-1.74c0-1.068,0.58-1.639,2.816-1.639
		C168.405,118.502,169.094,119.107,169.094,120.234z M163.797,120.192c0,0.698,0.555,1,2.337,1c1.917,0,2.438-0.294,2.438-1
		c0-0.698-0.563-1.009-2.354-1.009C164.319,119.183,163.797,119.485,163.797,120.192z"/>
	<path d="M166.429,115.411c0.874,0.404,1.934,0.976,2.665,1.404l-0.168,0.454l-4.986-2.262v2.707h-0.588v-3.514h0.513
		L166.429,115.411z"/>
</g>
<g enable-background="new    ">
	<path d="M180.728,130.282h-0.547c-1.917-1.858-2.808-2.363-3.564-2.363c-0.832,0-1.06,0.462-1.06,0.992
		c0,0.361,0.102,0.706,0.261,1.16l-0.462,0.118c-0.228-0.53-0.37-0.917-0.37-1.564c0-0.756,0.378-1.488,1.53-1.488
		c0.958,0,1.866,0.563,3.615,2.346v-2.497h0.597V130.282z"/>
	<path d="M180.795,124.434c0,1.084-0.597,1.648-2.842,1.648c-2.262,0-2.968-0.581-2.968-1.741c0-1.068,0.58-1.639,2.816-1.639
		C180.106,122.702,180.795,123.307,180.795,124.434z M175.499,124.392c0,0.698,0.555,1,2.337,1c1.917,0,2.438-0.294,2.438-1
		c0-0.698-0.563-1.009-2.354-1.009C176.02,123.382,175.499,123.685,175.499,124.392z"/>
	<path d="M180.795,120.234c0,1.084-0.597,1.647-2.842,1.647c-2.262,0-2.968-0.58-2.968-1.74c0-1.068,0.58-1.639,2.816-1.639
		C180.106,118.502,180.795,119.107,180.795,120.234z M175.499,120.192c0,0.698,0.555,1,2.337,1c1.917,0,2.438-0.294,2.438-1
		c0-0.698-0.563-1.009-2.354-1.009C176.02,119.183,175.499,119.485,175.499,120.192z"/>
	<path d="M180.795,116.05c0,1.16-0.563,1.665-1.379,1.665c-0.723,0-1.177-0.471-1.563-1.126c-0.37,0.656-0.833,1.009-1.463,1.009
		c-0.816,0-1.404-0.588-1.404-1.665c0-1.168,0.58-1.555,1.312-1.555c0.631,0,1.034,0.37,1.446,1.109
		c0.437-0.824,0.841-1.236,1.58-1.236C180.148,114.251,180.795,114.806,180.795,116.05z M175.473,116.025
		c0,0.555,0.337,0.9,0.832,0.9c0.505,0,0.841-0.277,1.186-0.925c-0.369-0.665-0.664-0.958-1.093-0.958
		C175.792,115.042,175.473,115.327,175.473,116.025z M178.113,116.101c0.388,0.647,0.732,0.942,1.211,0.942
		c0.614,0,0.976-0.37,0.976-1.102c0-0.605-0.361-1.017-0.883-1.017C178.836,114.924,178.5,115.335,178.113,116.101z"/>
</g>
<rect x="191.275" y="108.725" fill="none" width="8.75" height="21.961"/>
<g enable-background="new    ">
	<path d="M192.43,130.282h-0.547c-1.917-1.858-2.808-2.363-3.564-2.363c-0.832,0-1.06,0.462-1.06,0.992
		c0,0.361,0.102,0.706,0.261,1.16l-0.462,0.118c-0.228-0.53-0.37-0.917-0.37-1.564c0-0.756,0.378-1.488,1.53-1.488
		c0.958,0,1.866,0.563,3.615,2.346v-2.497h0.597V130.282z"/>
	<path d="M192.498,124.434c0,1.084-0.597,1.648-2.842,1.648c-2.262,0-2.968-0.581-2.968-1.741c0-1.068,0.58-1.639,2.816-1.639
		C191.808,122.702,192.498,123.307,192.498,124.434z M187.201,124.392c0,0.698,0.555,1,2.337,1c1.917,0,2.438-0.294,2.438-1
		c0-0.698-0.563-1.009-2.354-1.009C187.722,123.382,187.201,123.685,187.201,124.392z"/>
	<path d="M192.498,120.234c0,1.084-0.597,1.647-2.842,1.647c-2.262,0-2.968-0.58-2.968-1.74c0-1.068,0.58-1.639,2.816-1.639
		C191.808,118.502,192.498,119.107,192.498,120.234z M187.201,120.192c0,0.698,0.555,1,2.337,1c1.917,0,2.438-0.294,2.438-1
		c0-0.698-0.563-1.009-2.354-1.009C187.722,119.183,187.201,119.485,187.201,120.192z"/>
	<path d="M192.498,116.336c0,0.37-0.067,0.756-0.277,1.328l-0.412-0.067c0.109-0.454,0.168-0.832,0.168-1.202
		c0-0.791-0.655-1.32-2.304-1.337c0.261,0.454,0.403,0.807,0.403,1.261c0,0.883-0.562,1.371-1.521,1.371
		c-1.151,0-1.866-0.647-1.866-1.64c0-1.084,0.546-1.673,2.716-1.673C191.909,114.377,192.498,115.293,192.498,116.336z
		 M189.16,115.066c-1.37,0-1.959,0.328-1.959,1.026c0,0.622,0.462,0.925,1.236,0.925c0.731,0,1.109-0.277,1.109-0.941
		c0-0.286-0.101-0.58-0.354-1.009H189.16z"/>
</g>
<rect x="202.976" y="108.725" fill="none" width="8.75" height="21.961"/>
<g enable-background="new    ">
	<path d="M204.132,130.282h-0.547c-1.918-1.858-2.809-2.363-3.564-2.363c-0.832,0-1.061,0.462-1.061,0.992
		c0,0.361,0.102,0.706,0.262,1.16l-0.463,0.118c-0.227-0.53-0.369-0.917-0.369-1.564c0-0.756,0.377-1.488,1.529-1.488
		c0.959,0,1.867,0.563,3.615,2.346v-2.497h0.598V130.282z"/>
	<path d="M204.199,124.434c0,1.084-0.596,1.648-2.842,1.648c-2.262,0-2.967-0.581-2.967-1.741c0-1.068,0.58-1.639,2.816-1.639
		C203.509,122.702,204.199,123.307,204.199,124.434z M198.902,124.392c0,0.698,0.555,1,2.338,1c1.916,0,2.438-0.294,2.438-1
		c0-0.698-0.562-1.009-2.354-1.009C199.423,123.382,198.902,123.685,198.902,124.392z"/>
	<path d="M204.132,121.671h-0.547v-1.278h-4.465l0.455,1.144l-0.412,0.168l-0.707-1.471v-0.555h5.129v-1.144h0.547V121.671z"/>
	<path d="M204.199,116.034c0,1.084-0.596,1.647-2.842,1.647c-2.262,0-2.967-0.58-2.967-1.74c0-1.068,0.58-1.639,2.816-1.639
		C203.509,114.302,204.199,114.907,204.199,116.034z M198.902,115.992c0,0.698,0.555,1,2.338,1c1.916,0,2.438-0.294,2.438-1
		c0-0.698-0.562-1.009-2.354-1.009C199.423,114.982,198.902,115.285,198.902,115.992z"/>
</g>
<rect x="214.678" y="108.725" fill="none" width="8.75" height="21.961"/>
<g enable-background="new    ">
	<path d="M215.833,130.282h-0.547c-1.917-1.858-2.808-2.363-3.564-2.363c-0.832,0-1.06,0.462-1.06,0.992
		c0,0.361,0.102,0.706,0.261,1.16l-0.462,0.118c-0.228-0.53-0.37-0.917-0.37-1.564c0-0.756,0.378-1.488,1.53-1.488
		c0.958,0,1.866,0.563,3.615,2.346v-2.497h0.597V130.282z"/>
	<path d="M215.901,124.434c0,1.084-0.597,1.648-2.842,1.648c-2.262,0-2.968-0.581-2.968-1.741c0-1.068,0.58-1.639,2.816-1.639
		C215.211,122.702,215.901,123.307,215.901,124.434z M210.604,124.392c0,0.698,0.555,1,2.337,1c1.917,0,2.438-0.294,2.438-1
		c0-0.698-0.563-1.009-2.354-1.009C211.125,123.382,210.604,123.685,210.604,124.392z"/>
	<path d="M215.833,121.671h-0.547v-1.278h-4.464l0.454,1.144l-0.412,0.168l-0.706-1.471v-0.555h5.128v-1.144h0.547V121.671z"/>
	<path d="M215.833,117.471h-0.547v-1.278h-4.464l0.454,1.144l-0.412,0.168l-0.706-1.471v-0.555h5.128v-1.144h0.547V117.471z"/>
</g>
<rect x="226.38" y="108.725" fill="none" width="8.75" height="21.961"/>
<g enable-background="new    ">
	<path d="M227.536,130.282h-0.547c-1.917-1.858-2.808-2.363-3.564-2.363c-0.832,0-1.06,0.462-1.06,0.992
		c0,0.361,0.102,0.706,0.261,1.16l-0.462,0.118c-0.228-0.53-0.37-0.917-0.37-1.564c0-0.756,0.378-1.488,1.53-1.488
		c0.958,0,1.866,0.563,3.615,2.346v-2.497h0.597V130.282z"/>
	<path d="M227.603,124.434c0,1.084-0.597,1.648-2.842,1.648c-2.262,0-2.968-0.581-2.968-1.741c0-1.068,0.58-1.639,2.816-1.639
		C226.914,122.702,227.603,123.307,227.603,124.434z M222.306,124.392c0,0.698,0.555,1,2.337,1c1.917,0,2.438-0.294,2.438-1
		c0-0.698-0.563-1.009-2.354-1.009C222.828,123.382,222.306,123.685,222.306,124.392z"/>
	<path d="M227.536,121.671h-0.547v-1.278h-4.464l0.454,1.144l-0.412,0.168l-0.706-1.471v-0.555h5.128v-1.144h0.547V121.671z"/>
	<path d="M227.536,117.681h-0.547c-1.917-1.858-2.808-2.362-3.564-2.362c-0.832,0-1.06,0.462-1.06,0.992
		c0,0.361,0.102,0.706,0.261,1.16l-0.462,0.118c-0.228-0.53-0.37-0.917-0.37-1.564c0-0.756,0.378-1.488,1.53-1.488
		c0.958,0,1.866,0.563,3.615,2.346v-2.497h0.597V117.681z"/>
</g>
<rect x="238.083" y="108.725" fill="none" width="8.75" height="21.961"/>
<g enable-background="new    ">
	<path d="M239.238,130.282h-0.547c-1.916-1.858-2.807-2.363-3.564-2.363c-0.832,0-1.059,0.462-1.059,0.992
		c0,0.361,0.102,0.706,0.26,1.16l-0.461,0.118c-0.229-0.53-0.371-0.917-0.371-1.564c0-0.756,0.379-1.488,1.531-1.488
		c0.957,0,1.865,0.563,3.615,2.346v-2.497h0.596V130.282z"/>
	<path d="M239.306,124.434c0,1.084-0.598,1.648-2.842,1.648c-2.262,0-2.969-0.581-2.969-1.741c0-1.068,0.58-1.639,2.816-1.639
		C238.617,122.702,239.306,123.307,239.306,124.434z M234.009,124.392c0,0.698,0.555,1,2.336,1c1.918,0,2.439-0.294,2.439-1
		c0-0.698-0.564-1.009-2.355-1.009C234.531,123.382,234.009,123.685,234.009,124.392z"/>
	<path d="M239.238,121.671h-0.547v-1.278h-4.463l0.453,1.144l-0.412,0.168l-0.705-1.471v-0.555h5.127v-1.144h0.547V121.671z"/>
	<path d="M239.306,116.227c0,0.412-0.102,0.925-0.328,1.563l-0.412-0.067c0.125-0.581,0.193-1.034,0.193-1.396
		c0-0.866-0.379-1.152-1.145-1.152c-0.697,0-1.125,0.303-1.125,1.169v0.647h-0.521v-0.623c0-0.698-0.346-1.034-1.035-1.034
		c-0.555,0-0.891,0.236-0.891,0.976c0,0.336,0.084,0.866,0.201,1.186l-0.453,0.101c-0.143-0.345-0.295-0.883-0.295-1.53
		c0-1.017,0.605-1.471,1.354-1.471c0.758,0,1.193,0.378,1.32,0.875c0.043-0.698,0.707-1.06,1.371-1.06
		C238.751,114.411,239.306,115.016,239.306,116.227z"/>
</g>
<rect x="249.788" y="108.725" fill="none" width="8.75" height="21.961"/>
<g enable-background="new    ">
	<path d="M250.942,130.282h-0.547c-1.917-1.858-2.808-2.363-3.564-2.363c-0.832,0-1.06,0.462-1.06,0.992
		c0,0.361,0.102,0.706,0.261,1.16l-0.462,0.118c-0.228-0.53-0.37-0.917-0.37-1.564c0-0.756,0.378-1.488,1.53-1.488
		c0.958,0,1.866,0.563,3.615,2.346v-2.497h0.597V130.282z"/>
	<path d="M251.009,124.434c0,1.084-0.597,1.648-2.842,1.648c-2.262,0-2.968-0.581-2.968-1.741c0-1.068,0.58-1.639,2.816-1.639
		C250.32,122.702,251.009,123.307,251.009,124.434z M245.712,124.392c0,0.698,0.555,1,2.337,1c1.917,0,2.438-0.294,2.438-1
		c0-0.698-0.563-1.009-2.354-1.009C246.234,123.382,245.712,123.685,245.712,124.392z"/>
	<path d="M250.942,121.671h-0.547v-1.278h-4.464l0.454,1.144l-0.412,0.168l-0.706-1.471v-0.555h5.128v-1.144h0.547V121.671z"/>
	<path d="M249.622,114.831h1.32v0.673h-1.32v2.354h-0.521c-1.312-0.639-2.725-1.404-3.834-2.085v-0.942h3.758v-0.681h0.597V114.831z
		 M245.838,115.504c0.866,0.513,2.035,1.194,3.187,1.749v-1.749H245.838z"/>
</g>
<g enable-background="new    ">
	<path d="M262.645,130.282h-0.547c-1.917-1.858-2.808-2.363-3.564-2.363c-0.832,0-1.06,0.462-1.06,0.992
		c0,0.361,0.102,0.706,0.261,1.16l-0.462,0.118c-0.228-0.53-0.37-0.917-0.37-1.564c0-0.756,0.378-1.488,1.53-1.488
		c0.958,0,1.866,0.563,3.615,2.346v-2.497h0.597V130.282z"/>
	<path d="M262.712,124.434c0,1.084-0.597,1.648-2.842,1.648c-2.262,0-2.968-0.581-2.968-1.741c0-1.068,0.58-1.639,2.816-1.639
		C262.023,122.702,262.712,123.307,262.712,124.434z M257.416,124.392c0,0.698,0.555,1,2.337,1c1.917,0,2.438-0.294,2.438-1
		c0-0.698-0.563-1.009-2.354-1.009C257.937,123.382,257.416,123.685,257.416,124.392z"/>
	<path d="M262.645,121.671h-0.547v-1.278h-4.464l0.454,1.144l-0.412,0.168l-0.706-1.471v-0.555h5.128v-1.144h0.547V121.671z"/>
	<path d="M262.712,116.252c0,0.404-0.093,0.917-0.312,1.539l-0.403-0.059c0.109-0.563,0.185-1.051,0.185-1.438
		c0-0.79-0.319-1.16-1.193-1.16c-0.766,0-1.244,0.353-1.244,1.236c0,0.378,0.042,0.731,0.126,1.161l-2.9-0.177v-2.556h0.588v2.01
		l1.698,0.109c-0.042-0.177-0.059-0.496-0.059-0.782c0-1.144,0.664-1.732,1.707-1.732C262.124,114.402,262.712,115,262.712,116.252z
		"/>
</g>
<g enable-background="new    ">
	<path d="M145.436,166.819v-5.675h1.136v5.675H145.436z"/>
	<path d="M150.848,166.819l-2.093-4.044v4.044h-0.942v-5.675h1.396l1.884,3.514v-3.514h0.941v5.675H150.848z"/>
	<path d="M156.308,166.819l-2.094-4.044v4.044h-0.941v-5.675h1.396l1.884,3.514v-3.514h0.941v5.675H156.308z"/>
	<path d="M158.733,166.819v-5.675h1.136v5.675H158.733z"/>
	<path d="M164.145,166.819l-2.093-4.044v4.044h-0.942v-5.675h1.396l1.884,3.514v-3.514h0.941v5.675H164.145z"/>
	<path d="M168.328,166.912c-1.329,0-2.052-0.925-2.052-2.816c0-2.026,0.967-3.044,2.329-3.044c0.706,0,1.27,0.354,1.613,0.85
		l-0.496,0.471c-0.353-0.27-0.672-0.421-1.059-0.421c-0.748,0-1.211,0.605-1.211,1.959c0,1.539,0.412,2.094,1.06,2.094
		c0.286,0,0.505-0.093,0.63-0.186v-1.429h-0.672v-0.832h1.782v2.682C169.791,166.635,169.16,166.912,168.328,166.912z"/>
	<path d="M172.712,166.903c-0.648,0-1.229-0.235-1.69-0.563l0.286-0.588c0.453,0.21,0.898,0.319,1.201,0.319
		c0.59,0,0.959-0.27,0.959-0.731c0-1.11-2.371-0.892-2.371-2.674c0-0.976,0.757-1.605,1.816-1.605c0.529,0,1.043,0.143,1.521,0.462
		l-0.27,0.589c-0.361-0.144-0.73-0.228-1.066-0.228c-0.539,0-0.799,0.27-0.799,0.647c0,1.11,2.43,0.925,2.43,2.674
		C174.73,166.163,174.006,166.903,172.712,166.903z"/>
	<path d="M178.927,164.911h-0.219v1.908h-1.135v-5.675c0.529,0,1.068-0.018,1.648-0.018c1.538,0,2.102,0.698,2.102,1.783
		C181.324,164.045,180.702,164.911,178.927,164.911z M179.044,161.96h-0.336v2.118h0.346c0.748,0,1.084-0.395,1.084-1.067
		C180.138,162.33,179.835,161.96,179.044,161.96z"/>
	<path d="M182.119,166.819v-5.675h1.135v5.675H182.119z"/>
	<path d="M186.396,162.019v4.801h-1.136v-4.801h-1.27v-0.874h3.683v0.874H186.396z"/>
	<path d="M190.116,166.912c-1.429,0-2.144-0.934-2.144-2.825c0-1.984,0.824-3.035,2.244-3.035c0.555,0,1.152,0.244,1.514,0.925
		l-0.521,0.505c-0.234-0.345-0.521-0.521-0.865-0.521c-0.724,0-1.186,0.697-1.186,1.967c0,1.505,0.42,2.068,1.16,2.068
		c0.395,0,0.715-0.177,1.043-0.538l0.486,0.547C191.46,166.584,190.822,166.912,190.116,166.912z"/>
	<path d="M195.787,166.819v-2.522h-2.018v2.522h-1.135v-5.675h1.135v2.202h2.018v-2.202h1.135v5.675H195.787z"/>
	<path d="M198.162,166.819v-5.675h2.942v0.865h-1.808v1.497h1.496v0.832h-1.496v1.606h1.842v0.874H198.162z"/>
	<path d="M203.462,166.845c-0.445,0-0.916-0.017-1.345-0.025v-5.675c0.571,0,1.076-0.018,1.598-0.018c1.8,0,2.446,1.178,2.446,2.699
		C206.162,165.727,205.322,166.845,203.462,166.845z M203.64,161.977c-0.127,0-0.262,0-0.387,0.009v3.977
		c0.134,0.008,0.269,0.017,0.395,0.017c0.899,0,1.32-0.715,1.32-2.026C204.968,162.666,204.573,161.977,203.64,161.977z"/>
	<path d="M210.644,166.836c-0.462,0-1-0.017-1.529-0.017v-5.675h1.866c1.202,0,1.724,0.546,1.724,1.337
		c0,0.622-0.303,1.009-0.748,1.219c0.597,0.109,1.042,0.622,1.042,1.312C212.999,166.013,212.3,166.836,210.644,166.836z
		 M210.771,161.935h-0.547v1.521h0.429c0.673,0,0.908-0.395,0.908-0.807S211.326,161.935,210.771,161.935z M210.746,164.229h-0.521
		v1.766c0.126,0.018,0.387,0.034,0.58,0.034c0.715,0,1-0.379,1-0.934C211.804,164.616,211.527,164.229,210.746,164.229z"/>
	<path d="M215.735,164.448v2.371H214.6v-2.371c-0.589-0.983-1.067-2.001-1.53-3.304h1.244c0.286,0.832,0.58,1.547,0.941,2.262
		c0.361-0.682,0.648-1.497,0.883-2.262h1.127C216.811,162.414,216.324,163.532,215.735,164.448z"/>
	<path d="M221.177,166.903c-0.646,0-1.227-0.235-1.689-0.563l0.285-0.588c0.455,0.21,0.9,0.319,1.203,0.319
		c0.588,0,0.958-0.27,0.958-0.731c0-1.11-2.37-0.892-2.37-2.674c0-0.976,0.756-1.605,1.815-1.605c0.53,0,1.042,0.143,1.521,0.462
		l-0.269,0.589c-0.361-0.144-0.732-0.228-1.068-0.228c-0.537,0-0.799,0.27-0.799,0.647c0,1.11,2.43,0.925,2.43,2.674
		C223.195,166.163,222.472,166.903,221.177,166.903z"/>
	<path d="M224.024,166.819v-5.675h2.942v0.865h-1.807v1.497h1.496v0.832h-1.496v1.606H227v0.874H224.024z"/>
	<path d="M230.88,166.819c-0.066-0.319-0.159-0.79-0.244-1.118h-1.874c-0.075,0.319-0.169,0.731-0.235,1.118h-1.085
		c0.421-1.892,0.976-3.851,1.572-5.675h1.488c0.655,1.941,1.151,3.767,1.606,5.675H230.88z M229.669,162.145
		c-0.234,0.808-0.521,1.85-0.73,2.707h1.513C230.216,163.978,229.947,163.02,229.669,162.145z"/>
	<path d="M234.123,166.903c-0.648,0-1.229-0.235-1.69-0.563l0.286-0.588c0.453,0.21,0.898,0.319,1.201,0.319
		c0.59,0,0.959-0.27,0.959-0.731c0-1.11-2.371-0.892-2.371-2.674c0-0.976,0.757-1.605,1.816-1.605c0.529,0,1.043,0.143,1.521,0.462
		l-0.27,0.589c-0.361-0.144-0.73-0.228-1.066-0.228c-0.539,0-0.799,0.27-0.799,0.647c0,1.11,2.43,0.925,2.43,2.674
		C236.14,166.163,235.417,166.903,234.123,166.903z"/>
	<path d="M238.953,166.912c-1.447,0-2.279-0.731-2.279-2.834c0-2.11,0.976-3.026,2.413-3.026c1.479,0,2.287,0.782,2.287,2.816
		C241.374,165.995,240.398,166.912,238.953,166.912z M238.994,161.918c-0.664,0-1.126,0.454-1.126,1.967
		c0,1.656,0.421,2.161,1.177,2.161c0.664,0,1.135-0.463,1.135-1.992C240.179,162.422,239.751,161.918,238.994,161.918z"/>
	<path d="M245.345,166.819l-2.094-4.044v4.044h-0.941v-5.675h1.396l1.884,3.514v-3.514h0.941v5.675H245.345z"/>
</g>
<rect x="27.17" y="249.59" fill="none" width="8.75" height="17.25"/>
<g enable-background="new    ">
	<path d="M28.354,266.227h-0.547v-1.278h-4.464l0.454,1.144l-0.412,0.168l-0.706-1.471v-0.556h5.128v-1.144h0.547V266.227z"/>
	<path d="M28.421,260.891c0,0.37-0.067,0.757-0.277,1.328l-0.412-0.066c0.109-0.454,0.168-0.832,0.168-1.203
		c0-0.79-0.655-1.319-2.304-1.336c0.261,0.453,0.403,0.807,0.403,1.261c0,0.883-0.562,1.37-1.521,1.37
		c-1.151,0-1.866-0.646-1.866-1.639c0-1.085,0.546-1.674,2.716-1.674C27.832,258.932,28.421,259.848,28.421,260.891z
		 M25.083,259.622c-1.37,0-1.959,0.328-1.959,1.025c0,0.623,0.462,0.926,1.236,0.926c0.731,0,1.109-0.277,1.109-0.941
		c0-0.287-0.101-0.58-0.354-1.01H25.083z"/>
	<path d="M28.421,256.692c0,0.369-0.067,0.756-0.277,1.328l-0.412-0.067c0.109-0.454,0.168-0.832,0.168-1.202
		c0-0.791-0.655-1.32-2.304-1.337c0.261,0.454,0.403,0.808,0.403,1.261c0,0.883-0.562,1.371-1.521,1.371
		c-1.151,0-1.866-0.647-1.866-1.64c0-1.085,0.546-1.673,2.716-1.673C27.832,254.733,28.421,255.649,28.421,256.692z M25.083,255.422
		c-1.37,0-1.959,0.328-1.959,1.025c0,0.622,0.462,0.925,1.236,0.925c0.731,0,1.109-0.277,1.109-0.941
		c0-0.286-0.101-0.58-0.354-1.009H25.083z"/>
	<path d="M28.421,252.407c0,0.404-0.093,0.917-0.312,1.539l-0.403-0.059c0.109-0.563,0.185-1.051,0.185-1.438
		c0-0.791-0.319-1.16-1.193-1.16c-0.766,0-1.244,0.353-1.244,1.235c0,0.378,0.042,0.731,0.126,1.161l-2.9-0.178v-2.556h0.588v2.01
		l1.698,0.109c-0.042-0.177-0.059-0.496-0.059-0.782c0-1.144,0.664-1.732,1.707-1.732C27.832,250.557,28.421,251.155,28.421,252.407
		z"/>
</g>
<rect x="38.816" y="249.59" fill="none" width="8.75" height="17.25"/>
<g enable-background="new    ">
	<path d="M40,266.227h-0.547v-1.278h-4.464l0.454,1.144l-0.412,0.168l-0.706-1.471v-0.556h5.128v-1.144H40V266.227z"/>
	<path d="M40.067,260.891c0,0.37-0.067,0.757-0.277,1.328l-0.412-0.066c0.109-0.454,0.168-0.832,0.168-1.203
		c0-0.79-0.655-1.319-2.304-1.336c0.261,0.453,0.403,0.807,0.403,1.261c0,0.883-0.562,1.37-1.521,1.37
		c-1.151,0-1.866-0.646-1.866-1.639c0-1.085,0.546-1.674,2.716-1.674C39.478,258.932,40.067,259.848,40.067,260.891z
		 M36.729,259.622c-1.37,0-1.959,0.328-1.959,1.025c0,0.623,0.462,0.926,1.236,0.926c0.731,0,1.109-0.277,1.109-0.941
		c0-0.287-0.101-0.58-0.354-1.01H36.729z"/>
	<path d="M40.067,256.692c0,0.369-0.067,0.756-0.277,1.328l-0.412-0.067c0.109-0.454,0.168-0.832,0.168-1.202
		c0-0.791-0.655-1.32-2.304-1.337c0.261,0.454,0.403,0.808,0.403,1.261c0,0.883-0.562,1.371-1.521,1.371
		c-1.151,0-1.866-0.647-1.866-1.64c0-1.085,0.546-1.673,2.716-1.673C39.478,254.733,40.067,255.649,40.067,256.692z M36.729,255.422
		c-1.37,0-1.959,0.328-1.959,1.025c0,0.622,0.462,0.925,1.236,0.925c0.731,0,1.109-0.277,1.109-0.941
		c0-0.286-0.101-0.58-0.354-1.009H36.729z"/>
	<path d="M40.067,252.071c0,1.085-0.538,1.665-2.707,1.665c-2.472,0-3.103-0.874-3.103-1.909c0-0.378,0.075-0.756,0.269-1.261
		l0.412,0.075c-0.093,0.362-0.159,0.749-0.159,1.119c0,0.799,0.714,1.286,2.312,1.303c-0.261-0.453-0.403-0.815-0.403-1.261
		c0-0.883,0.563-1.379,1.521-1.379C39.361,250.423,40.067,251.079,40.067,252.071z M37.216,252.038c0,0.294,0.102,0.58,0.354,1.018
		h0.033c1.379,0,1.951-0.328,1.951-1.026c0-0.622-0.446-0.925-1.228-0.925C37.595,251.104,37.216,251.381,37.216,252.038z"/>
</g>
<rect x="50.462" y="249.59" fill="none" width="8.75" height="17.25"/>
<g enable-background="new    ">
	<path d="M51.646,266.227h-0.547v-1.278h-4.464l0.454,1.144l-0.412,0.168l-0.706-1.471v-0.556h5.128v-1.144h0.547V266.227z"/>
	<path d="M51.713,260.891c0,0.37-0.067,0.757-0.277,1.328l-0.412-0.066c0.109-0.454,0.168-0.832,0.168-1.203
		c0-0.79-0.655-1.319-2.304-1.336c0.261,0.453,0.403,0.807,0.403,1.261c0,0.883-0.562,1.37-1.521,1.37
		c-1.151,0-1.866-0.646-1.866-1.639c0-1.085,0.546-1.674,2.716-1.674C51.124,258.932,51.713,259.848,51.713,260.891z
		 M48.375,259.622c-1.37,0-1.959,0.328-1.959,1.025c0,0.623,0.462,0.926,1.236,0.926c0.731,0,1.109-0.277,1.109-0.941
		c0-0.287-0.101-0.58-0.354-1.01H48.375z"/>
	<path d="M51.713,256.692c0,0.369-0.067,0.756-0.277,1.328l-0.412-0.067c0.109-0.454,0.168-0.832,0.168-1.202
		c0-0.791-0.655-1.32-2.304-1.337c0.261,0.454,0.403,0.808,0.403,1.261c0,0.883-0.562,1.371-1.521,1.371
		c-1.151,0-1.866-0.647-1.866-1.64c0-1.085,0.546-1.673,2.716-1.673C51.124,254.733,51.713,255.649,51.713,256.692z M48.375,255.422
		c-1.37,0-1.959,0.328-1.959,1.025c0,0.622,0.462,0.925,1.236,0.925c0.731,0,1.109-0.277,1.109-0.941
		c0-0.286-0.101-0.58-0.354-1.009H48.375z"/>
	<path d="M49.048,251.567c0.874,0.403,1.934,0.975,2.665,1.404l-0.168,0.453l-4.986-2.262v2.707h-0.588v-3.514h0.513L49.048,251.567
		z"/>
</g>
<rect x="62.108" y="249.59" fill="none" width="8.75" height="17.25"/>
<g enable-background="new    ">
	<path d="M63.292,266.227h-0.547v-1.278h-4.464l0.454,1.144l-0.412,0.168l-0.706-1.471v-0.556h5.128v-1.144h0.547V266.227z"/>
	<path d="M63.359,260.891c0,0.37-0.067,0.757-0.277,1.328l-0.412-0.066c0.109-0.454,0.168-0.832,0.168-1.203
		c0-0.79-0.655-1.319-2.304-1.336c0.261,0.453,0.403,0.807,0.403,1.261c0,0.883-0.562,1.37-1.521,1.37
		c-1.151,0-1.866-0.646-1.866-1.639c0-1.085,0.546-1.674,2.716-1.674C62.77,258.932,63.359,259.848,63.359,260.891z M60.021,259.622
		c-1.37,0-1.959,0.328-1.959,1.025c0,0.623,0.462,0.926,1.236,0.926c0.731,0,1.109-0.277,1.109-0.941c0-0.287-0.101-0.58-0.354-1.01
		H60.021z"/>
	<path d="M63.359,256.692c0,0.369-0.067,0.756-0.277,1.328l-0.412-0.067c0.109-0.454,0.168-0.832,0.168-1.202
		c0-0.791-0.655-1.32-2.304-1.337c0.261,0.454,0.403,0.808,0.403,1.261c0,0.883-0.562,1.371-1.521,1.371
		c-1.151,0-1.866-0.647-1.866-1.64c0-1.085,0.546-1.673,2.716-1.673C62.77,254.733,63.359,255.649,63.359,256.692z M60.021,255.422
		c-1.37,0-1.959,0.328-1.959,1.025c0,0.622,0.462,0.925,1.236,0.925c0.731,0,1.109-0.277,1.109-0.941
		c0-0.286-0.101-0.58-0.354-1.009H60.021z"/>
	<path d="M63.359,252.206c0,1.16-0.563,1.664-1.379,1.664c-0.723,0-1.177-0.471-1.563-1.126c-0.37,0.655-0.833,1.009-1.463,1.009
		c-0.816,0-1.404-0.588-1.404-1.664c0-1.169,0.58-1.556,1.312-1.556c0.631,0,1.034,0.37,1.446,1.109
		c0.437-0.823,0.841-1.235,1.58-1.235C62.711,250.407,63.359,250.961,63.359,252.206z M58.037,252.18c0,0.555,0.337,0.9,0.832,0.9
		c0.505,0,0.841-0.277,1.186-0.926c-0.369-0.664-0.664-0.958-1.093-0.958C58.356,251.197,58.037,251.483,58.037,252.18z
		 M60.676,252.256c0.388,0.646,0.732,0.941,1.211,0.941c0.614,0,0.976-0.37,0.976-1.102c0-0.605-0.361-1.018-0.883-1.018
		C61.4,251.079,61.064,251.491,60.676,252.256z"/>
</g>
<rect x="73.754" y="249.59" fill="none" width="8.75" height="17.25"/>
<g enable-background="new    ">
	<path d="M74.938,266.227h-0.547v-1.278h-4.464l0.454,1.144l-0.412,0.168l-0.706-1.471v-0.556h5.128v-1.144h0.547V266.227z"/>
	<path d="M75.005,260.891c0,0.37-0.067,0.757-0.277,1.328l-0.412-0.066c0.109-0.454,0.168-0.832,0.168-1.203
		c0-0.79-0.655-1.319-2.304-1.336c0.261,0.453,0.403,0.807,0.403,1.261c0,0.883-0.562,1.37-1.521,1.37
		c-1.151,0-1.866-0.646-1.866-1.639c0-1.085,0.546-1.674,2.716-1.674C74.416,258.932,75.005,259.848,75.005,260.891z
		 M71.667,259.622c-1.37,0-1.959,0.328-1.959,1.025c0,0.623,0.462,0.926,1.236,0.926c0.731,0,1.109-0.277,1.109-0.941
		c0-0.287-0.101-0.58-0.354-1.01H71.667z"/>
	<path d="M75.005,256.692c0,0.369-0.067,0.756-0.277,1.328l-0.412-0.067c0.109-0.454,0.168-0.832,0.168-1.202
		c0-0.791-0.655-1.32-2.304-1.337c0.261,0.454,0.403,0.808,0.403,1.261c0,0.883-0.562,1.371-1.521,1.371
		c-1.151,0-1.866-0.647-1.866-1.64c0-1.085,0.546-1.673,2.716-1.673C74.416,254.733,75.005,255.649,75.005,256.692z M71.667,255.422
		c-1.37,0-1.959,0.328-1.959,1.025c0,0.622,0.462,0.925,1.236,0.925c0.731,0,1.109-0.277,1.109-0.941
		c0-0.286-0.101-0.58-0.354-1.009H71.667z"/>
	<path d="M75.005,252.492c0,0.37-0.067,0.757-0.277,1.328l-0.412-0.067c0.109-0.454,0.168-0.832,0.168-1.202
		c0-0.79-0.655-1.319-2.304-1.337c0.261,0.454,0.403,0.807,0.403,1.262c0,0.883-0.562,1.37-1.521,1.37
		c-1.151,0-1.866-0.647-1.866-1.64c0-1.084,0.546-1.673,2.716-1.673C74.416,250.533,75.005,251.449,75.005,252.492z M71.667,251.221
		c-1.37,0-1.959,0.328-1.959,1.026c0,0.622,0.462,0.925,1.236,0.925c0.731,0,1.109-0.277,1.109-0.941c0-0.286-0.101-0.58-0.354-1.01
		H71.667z"/>
</g>
<rect x="85.4" y="249.59" fill="none" width="8.75" height="17.25"/>
<g enable-background="new    ">
	<path d="M86.583,266.437h-0.547c-1.917-1.858-2.808-2.362-3.564-2.362c-0.832,0-1.06,0.462-1.06,0.992
		c0,0.361,0.102,0.705,0.261,1.16l-0.462,0.117c-0.228-0.529-0.37-0.916-0.37-1.564c0-0.756,0.378-1.487,1.53-1.487
		c0.958,0,1.866,0.563,3.615,2.346v-2.497h0.597V266.437z"/>
	<path d="M86.65,260.588c0,1.085-0.597,1.648-2.842,1.648c-2.262,0-2.968-0.58-2.968-1.74c0-1.068,0.58-1.64,2.816-1.64
		C85.961,258.857,86.65,259.461,86.65,260.588z M81.354,260.547c0,0.697,0.555,1,2.337,1c1.917,0,2.438-0.295,2.438-1
		c0-0.699-0.563-1.01-2.354-1.01C81.875,259.538,81.354,259.84,81.354,260.547z"/>
	<path d="M86.65,256.389c0,1.084-0.597,1.647-2.842,1.647c-2.262,0-2.968-0.58-2.968-1.74c0-1.067,0.58-1.64,2.816-1.64
		C85.961,254.657,86.65,255.262,86.65,256.389z M81.354,256.347c0,0.698,0.555,1.001,2.337,1.001c1.917,0,2.438-0.295,2.438-1.001
		c0-0.698-0.563-1.009-2.354-1.009C81.875,255.338,81.354,255.641,81.354,256.347z"/>
	<path d="M86.65,252.189c0,1.085-0.597,1.647-2.842,1.647c-2.262,0-2.968-0.58-2.968-1.74c0-1.068,0.58-1.639,2.816-1.639
		C85.961,250.458,86.65,251.062,86.65,252.189z M81.354,252.147c0,0.697,0.555,1,2.337,1c1.917,0,2.438-0.294,2.438-1
		c0-0.698-0.563-1.01-2.354-1.01C81.875,251.137,81.354,251.44,81.354,252.147z"/>
</g>
<rect x="97.046" y="249.59" fill="none" width="8.75" height="17.25"/>
<g enable-background="new    ">
	<path d="M98.229,266.437h-0.547c-1.917-1.858-2.808-2.362-3.564-2.362c-0.832,0-1.06,0.462-1.06,0.992
		c0,0.361,0.102,0.705,0.261,1.16l-0.462,0.117c-0.228-0.529-0.37-0.916-0.37-1.564c0-0.756,0.378-1.487,1.53-1.487
		c0.958,0,1.866,0.563,3.615,2.346v-2.497h0.597V266.437z"/>
	<path d="M98.296,260.588c0,1.085-0.597,1.648-2.842,1.648c-2.262,0-2.968-0.58-2.968-1.74c0-1.068,0.58-1.64,2.816-1.64
		C97.607,258.857,98.296,259.461,98.296,260.588z M93,260.547c0,0.697,0.555,1,2.337,1c1.917,0,2.438-0.295,2.438-1
		c0-0.699-0.563-1.01-2.354-1.01C93.521,259.538,93,259.84,93,260.547z"/>
	<path d="M98.296,256.389c0,1.084-0.597,1.647-2.842,1.647c-2.262,0-2.968-0.58-2.968-1.74c0-1.067,0.58-1.64,2.816-1.64
		C97.607,254.657,98.296,255.262,98.296,256.389z M93,256.347c0,0.698,0.555,1.001,2.337,1.001c1.917,0,2.438-0.295,2.438-1.001
		c0-0.698-0.563-1.009-2.354-1.009C93.521,255.338,93,255.641,93,256.347z"/>
	<path d="M98.229,253.626h-0.547v-1.278h-4.464l0.454,1.145l-0.412,0.168l-0.706-1.472v-0.556h5.128v-1.143h0.547V253.626z"/>
</g>
<rect x="108.692" y="249.59" fill="none" width="8.75" height="17.25"/>
<g enable-background="new    ">
	<path d="M109.875,266.437h-0.547c-1.917-1.858-2.808-2.362-3.564-2.362c-0.832,0-1.06,0.462-1.06,0.992
		c0,0.361,0.102,0.705,0.261,1.16l-0.462,0.117c-0.228-0.529-0.37-0.916-0.37-1.564c0-0.756,0.378-1.487,1.53-1.487
		c0.958,0,1.866,0.563,3.615,2.346v-2.497h0.597V266.437z"/>
	<path d="M109.942,260.588c0,1.085-0.597,1.648-2.842,1.648c-2.262,0-2.968-0.58-2.968-1.74c0-1.068,0.58-1.64,2.816-1.64
		C109.253,258.857,109.942,259.461,109.942,260.588z M104.646,260.547c0,0.697,0.555,1,2.337,1c1.917,0,2.438-0.295,2.438-1
		c0-0.699-0.563-1.01-2.354-1.01C105.167,259.538,104.646,259.84,104.646,260.547z"/>
	<path d="M109.942,256.389c0,1.084-0.597,1.647-2.842,1.647c-2.262,0-2.968-0.58-2.968-1.74c0-1.067,0.58-1.64,2.816-1.64
		C109.253,254.657,109.942,255.262,109.942,256.389z M104.646,256.347c0,0.698,0.555,1.001,2.337,1.001
		c1.917,0,2.438-0.295,2.438-1.001c0-0.698-0.563-1.009-2.354-1.009C105.167,255.338,104.646,255.641,104.646,256.347z"/>
	<path d="M109.875,253.836h-0.547c-1.917-1.857-2.808-2.362-3.564-2.362c-0.832,0-1.06,0.462-1.06,0.992
		c0,0.361,0.102,0.706,0.261,1.16l-0.462,0.118c-0.228-0.53-0.37-0.917-0.37-1.564c0-0.756,0.378-1.488,1.53-1.488
		c0.958,0,1.866,0.563,3.615,2.346v-2.496h0.597V253.836z"/>
</g>
<rect x="120.337" y="249.59" fill="none" width="8.75" height="17.25"/>
<g enable-background="new    ">
	<path d="M121.521,266.437h-0.547c-1.917-1.858-2.808-2.362-3.564-2.362c-0.832,0-1.06,0.462-1.06,0.992
		c0,0.361,0.102,0.705,0.261,1.16l-0.462,0.117c-0.228-0.529-0.37-0.916-0.37-1.564c0-0.756,0.378-1.487,1.53-1.487
		c0.958,0,1.866,0.563,3.615,2.346v-2.497h0.597V266.437z"/>
	<path d="M121.588,260.588c0,1.085-0.597,1.648-2.842,1.648c-2.262,0-2.968-0.58-2.968-1.74c0-1.068,0.58-1.64,2.816-1.64
		C120.899,258.857,121.588,259.461,121.588,260.588z M116.292,260.547c0,0.697,0.555,1,2.337,1c1.917,0,2.438-0.295,2.438-1
		c0-0.699-0.563-1.01-2.354-1.01C116.813,259.538,116.292,259.84,116.292,260.547z"/>
	<path d="M121.588,256.389c0,1.084-0.597,1.647-2.842,1.647c-2.262,0-2.968-0.58-2.968-1.74c0-1.067,0.58-1.64,2.816-1.64
		C120.899,254.657,121.588,255.262,121.588,256.389z M116.292,256.347c0,0.698,0.555,1.001,2.337,1.001
		c1.917,0,2.438-0.295,2.438-1.001c0-0.698-0.563-1.009-2.354-1.009C116.813,255.338,116.292,255.641,116.292,256.347z"/>
	<path d="M121.588,252.382c0,0.411-0.101,0.925-0.328,1.563l-0.412-0.066c0.126-0.581,0.193-1.035,0.193-1.396
		c0-0.865-0.378-1.152-1.144-1.152c-0.697,0-1.126,0.303-1.126,1.17v0.646h-0.521v-0.622c0-0.698-0.345-1.034-1.034-1.034
		c-0.555,0-0.892,0.236-0.892,0.976c0,0.337,0.085,0.866,0.202,1.186l-0.454,0.101c-0.143-0.345-0.294-0.883-0.294-1.53
		c0-1.017,0.605-1.472,1.354-1.472c0.757,0,1.193,0.379,1.32,0.875c0.042-0.697,0.706-1.06,1.37-1.06
		C121.034,250.566,121.588,251.171,121.588,252.382z"/>
</g>
<rect x="131.983" y="249.59" fill="none" width="8.75" height="17.25"/>
<g enable-background="new    ">
	<path d="M133.167,266.437h-0.547c-1.917-1.858-2.808-2.362-3.564-2.362c-0.832,0-1.06,0.462-1.06,0.992
		c0,0.361,0.102,0.705,0.261,1.16l-0.462,0.117c-0.228-0.529-0.37-0.916-0.37-1.564c0-0.756,0.378-1.487,1.53-1.487
		c0.958,0,1.866,0.563,3.615,2.346v-2.497h0.597V266.437z"/>
	<path d="M133.234,260.588c0,1.085-0.597,1.648-2.842,1.648c-2.262,0-2.968-0.58-2.968-1.74c0-1.068,0.58-1.64,2.816-1.64
		C132.545,258.857,133.234,259.461,133.234,260.588z M127.938,260.547c0,0.697,0.555,1,2.337,1c1.917,0,2.438-0.295,2.438-1
		c0-0.699-0.563-1.01-2.354-1.01C128.459,259.538,127.938,259.84,127.938,260.547z"/>
	<path d="M133.234,256.389c0,1.084-0.597,1.647-2.842,1.647c-2.262,0-2.968-0.58-2.968-1.74c0-1.067,0.58-1.64,2.816-1.64
		C132.545,254.657,133.234,255.262,133.234,256.389z M127.938,256.347c0,0.698,0.555,1.001,2.337,1.001
		c1.917,0,2.438-0.295,2.438-1.001c0-0.698-0.563-1.009-2.354-1.009C128.459,255.338,127.938,255.641,127.938,256.347z"/>
	<path d="M131.847,250.987h1.32v0.672h-1.32v2.354h-0.521c-1.312-0.64-2.725-1.403-3.834-2.085v-0.941h3.758v-0.682h0.597V250.987z
		 M128.063,251.659c0.866,0.514,2.035,1.194,3.187,1.749v-1.749H128.063z"/>
</g>
<rect x="143.63" y="244.879" fill="none" width="8.75" height="21.961"/>
<g enable-background="new    ">
	<path d="M144.814,266.437h-0.547c-1.918-1.858-2.809-2.362-3.564-2.362c-0.832,0-1.061,0.462-1.061,0.992
		c0,0.361,0.102,0.705,0.262,1.16l-0.463,0.117c-0.227-0.529-0.369-0.916-0.369-1.564c0-0.756,0.377-1.487,1.529-1.487
		c0.959,0,1.867,0.563,3.615,2.346v-2.497h0.598V266.437z"/>
	<path d="M144.88,260.588c0,1.085-0.596,1.648-2.842,1.648c-2.262,0-2.967-0.58-2.967-1.74c0-1.068,0.58-1.64,2.816-1.64
		C144.191,258.857,144.88,259.461,144.88,260.588z M139.583,260.547c0,0.697,0.555,1,2.338,1c1.916,0,2.438-0.295,2.438-1
		c0-0.699-0.562-1.01-2.354-1.01C140.105,259.538,139.583,259.84,139.583,260.547z"/>
	<path d="M144.88,256.389c0,1.084-0.596,1.647-2.842,1.647c-2.262,0-2.967-0.58-2.967-1.74c0-1.067,0.58-1.64,2.816-1.64
		C144.191,254.657,144.88,255.262,144.88,256.389z M139.583,256.347c0,0.698,0.555,1.001,2.338,1.001
		c1.916,0,2.438-0.295,2.438-1.001c0-0.698-0.562-1.009-2.354-1.009C140.105,255.338,139.583,255.641,139.583,256.347z"/>
	<path d="M144.88,252.407c0,0.404-0.092,0.917-0.311,1.539l-0.404-0.059c0.109-0.563,0.186-1.051,0.186-1.438
		c0-0.791-0.32-1.16-1.193-1.16c-0.766,0-1.244,0.353-1.244,1.235c0,0.378,0.041,0.731,0.125,1.161l-2.9-0.178v-2.556h0.588v2.01
		l1.699,0.109c-0.043-0.177-0.059-0.496-0.059-0.782c0-1.144,0.664-1.732,1.707-1.732
		C144.292,250.557,144.88,251.155,144.88,252.407z"/>
</g>
<rect x="155.276" y="244.879" fill="none" width="8.75" height="21.961"/>
<g enable-background="new    ">
	<path d="M156.459,266.437h-0.547c-1.917-1.858-2.808-2.362-3.564-2.362c-0.832,0-1.06,0.462-1.06,0.992
		c0,0.361,0.102,0.705,0.261,1.16l-0.462,0.117c-0.228-0.529-0.37-0.916-0.37-1.564c0-0.756,0.378-1.487,1.53-1.487
		c0.958,0,1.866,0.563,3.615,2.346v-2.497h0.597V266.437z"/>
	<path d="M156.527,260.588c0,1.085-0.597,1.648-2.842,1.648c-2.262,0-2.968-0.58-2.968-1.74c0-1.068,0.58-1.64,2.816-1.64
		C155.837,258.857,156.527,259.461,156.527,260.588z M151.23,260.547c0,0.697,0.555,1,2.337,1c1.917,0,2.438-0.295,2.438-1
		c0-0.699-0.563-1.01-2.354-1.01C151.751,259.538,151.23,259.84,151.23,260.547z"/>
	<path d="M156.527,256.389c0,1.084-0.597,1.647-2.842,1.647c-2.262,0-2.968-0.58-2.968-1.74c0-1.067,0.58-1.64,2.816-1.64
		C155.837,254.657,156.527,255.262,156.527,256.389z M151.23,256.347c0,0.698,0.555,1.001,2.337,1.001
		c1.917,0,2.438-0.295,2.438-1.001c0-0.698-0.563-1.009-2.354-1.009C151.751,255.338,151.23,255.641,151.23,256.347z"/>
	<path d="M156.527,252.071c0,1.085-0.538,1.665-2.707,1.665c-2.472,0-3.103-0.874-3.103-1.909c0-0.378,0.075-0.756,0.269-1.261
		l0.412,0.075c-0.093,0.362-0.159,0.749-0.159,1.119c0,0.799,0.714,1.286,2.312,1.303c-0.261-0.453-0.403-0.815-0.403-1.261
		c0-0.883,0.563-1.379,1.521-1.379C155.821,250.423,156.527,251.079,156.527,252.071z M153.676,252.038
		c0,0.294,0.102,0.58,0.354,1.018h0.033c1.379,0,1.951-0.328,1.951-1.026c0-0.622-0.446-0.925-1.228-0.925
		C154.055,251.104,153.676,251.381,153.676,252.038z"/>
</g>
<rect x="166.92" y="244.879" fill="none" width="8.75" height="21.961"/>
<g enable-background="new    ">
	<path d="M168.105,266.437h-0.547c-1.917-1.858-2.808-2.362-3.564-2.362c-0.832,0-1.06,0.462-1.06,0.992
		c0,0.361,0.102,0.705,0.261,1.16l-0.462,0.117c-0.228-0.529-0.37-0.916-0.37-1.564c0-0.756,0.378-1.487,1.53-1.487
		c0.958,0,1.866,0.563,3.615,2.346v-2.497h0.597V266.437z"/>
	<path d="M168.172,260.588c0,1.085-0.597,1.648-2.842,1.648c-2.262,0-2.968-0.58-2.968-1.74c0-1.068,0.58-1.64,2.816-1.64
		C167.483,258.857,168.172,259.461,168.172,260.588z M162.875,260.547c0,0.697,0.555,1,2.337,1c1.917,0,2.438-0.295,2.438-1
		c0-0.699-0.563-1.01-2.354-1.01C163.397,259.538,162.875,259.84,162.875,260.547z"/>
	<path d="M168.172,256.389c0,1.084-0.597,1.647-2.842,1.647c-2.262,0-2.968-0.58-2.968-1.74c0-1.067,0.58-1.64,2.816-1.64
		C167.483,254.657,168.172,255.262,168.172,256.389z M162.875,256.347c0,0.698,0.555,1.001,2.337,1.001
		c1.917,0,2.438-0.295,2.438-1.001c0-0.698-0.563-1.009-2.354-1.009C163.397,255.338,162.875,255.641,162.875,256.347z"/>
	<path d="M165.507,251.567c0.874,0.403,1.934,0.975,2.665,1.404l-0.168,0.453l-4.986-2.262v2.707h-0.588v-3.514h0.513
		L165.507,251.567z"/>
</g>
<rect x="178.566" y="237.84" fill="none" width="8.75" height="29"/>
<g enable-background="new    ">
	<path d="M179.75,266.437h-0.547c-1.917-1.858-2.808-2.362-3.564-2.362c-0.832,0-1.06,0.462-1.06,0.992
		c0,0.361,0.102,0.705,0.261,1.16l-0.462,0.117c-0.228-0.529-0.37-0.916-0.37-1.564c0-0.756,0.378-1.487,1.53-1.487
		c0.958,0,1.866,0.563,3.615,2.346v-2.497h0.597V266.437z"/>
	<path d="M179.817,260.588c0,1.085-0.597,1.648-2.842,1.648c-2.262,0-2.968-0.58-2.968-1.74c0-1.068,0.58-1.64,2.816-1.64
		C179.127,258.857,179.817,259.461,179.817,260.588z M174.52,260.547c0,0.697,0.555,1,2.337,1c1.917,0,2.438-0.295,2.438-1
		c0-0.699-0.563-1.01-2.354-1.01C175.042,259.538,174.52,259.84,174.52,260.547z"/>
	<path d="M179.817,256.389c0,1.084-0.597,1.647-2.842,1.647c-2.262,0-2.968-0.58-2.968-1.74c0-1.067,0.58-1.64,2.816-1.64
		C179.127,254.657,179.817,255.262,179.817,256.389z M174.52,256.347c0,0.698,0.555,1.001,2.337,1.001
		c1.917,0,2.438-0.295,2.438-1.001c0-0.698-0.563-1.009-2.354-1.009C175.042,255.338,174.52,255.641,174.52,256.347z"/>
	<path d="M179.817,252.206c0,1.16-0.563,1.664-1.379,1.664c-0.723,0-1.177-0.471-1.563-1.126c-0.37,0.655-0.833,1.009-1.463,1.009
		c-0.816,0-1.404-0.588-1.404-1.664c0-1.169,0.58-1.556,1.312-1.556c0.631,0,1.034,0.37,1.446,1.109
		c0.437-0.823,0.841-1.235,1.58-1.235C179.169,250.407,179.817,250.961,179.817,252.206z M174.495,252.18
		c0,0.555,0.337,0.9,0.832,0.9c0.505,0,0.841-0.277,1.186-0.926c-0.369-0.664-0.664-0.958-1.093-0.958
		C174.814,251.197,174.495,251.483,174.495,252.18z M177.134,252.256c0.388,0.646,0.732,0.941,1.211,0.941
		c0.614,0,0.976-0.37,0.976-1.102c0-0.605-0.361-1.018-0.883-1.018C177.858,251.079,177.522,251.491,177.134,252.256z"/>
</g>
<rect x="190.211" y="244.879" fill="none" width="8.75" height="21.961"/>
<g enable-background="new    ">
	<path d="M191.395,266.437h-0.547c-1.917-1.858-2.808-2.362-3.564-2.362c-0.832,0-1.06,0.462-1.06,0.992
		c0,0.361,0.102,0.705,0.261,1.16l-0.462,0.117c-0.228-0.529-0.37-0.916-0.37-1.564c0-0.756,0.378-1.487,1.53-1.487
		c0.958,0,1.866,0.563,3.615,2.346v-2.497h0.597V266.437z"/>
	<path d="M191.462,260.588c0,1.085-0.597,1.648-2.842,1.648c-2.262,0-2.968-0.58-2.968-1.74c0-1.068,0.58-1.64,2.816-1.64
		C190.773,258.857,191.462,259.461,191.462,260.588z M186.166,260.547c0,0.697,0.555,1,2.337,1c1.917,0,2.438-0.295,2.438-1
		c0-0.699-0.563-1.01-2.354-1.01C186.687,259.538,186.166,259.84,186.166,260.547z"/>
	<path d="M191.462,256.389c0,1.084-0.597,1.647-2.842,1.647c-2.262,0-2.968-0.58-2.968-1.74c0-1.067,0.58-1.64,2.816-1.64
		C190.773,254.657,191.462,255.262,191.462,256.389z M186.166,256.347c0,0.698,0.555,1.001,2.337,1.001
		c1.917,0,2.438-0.295,2.438-1.001c0-0.698-0.563-1.009-2.354-1.009C186.687,255.338,186.166,255.641,186.166,256.347z"/>
	<path d="M191.462,252.492c0,0.37-0.067,0.757-0.277,1.328l-0.412-0.067c0.109-0.454,0.168-0.832,0.168-1.202
		c0-0.79-0.655-1.319-2.304-1.337c0.261,0.454,0.403,0.807,0.403,1.262c0,0.883-0.562,1.37-1.521,1.37
		c-1.151,0-1.866-0.647-1.866-1.64c0-1.084,0.546-1.673,2.716-1.673C190.874,250.533,191.462,251.449,191.462,252.492z
		 M188.125,251.221c-1.37,0-1.959,0.328-1.959,1.026c0,0.622,0.462,0.925,1.236,0.925c0.731,0,1.109-0.277,1.109-0.941
		c0-0.286-0.101-0.58-0.354-1.01H188.125z"/>
</g>
<rect x="201.858" y="244.879" fill="none" width="8.75" height="21.961"/>
<g enable-background="new    ">
	<path d="M203.041,266.437h-0.547c-1.916-1.858-2.807-2.362-3.564-2.362c-0.832,0-1.059,0.462-1.059,0.992
		c0,0.361,0.102,0.705,0.26,1.16l-0.461,0.117c-0.229-0.529-0.371-0.916-0.371-1.564c0-0.756,0.379-1.487,1.531-1.487
		c0.957,0,1.865,0.563,3.615,2.346v-2.497h0.596V266.437z"/>
	<path d="M203.109,260.588c0,1.085-0.598,1.648-2.842,1.648c-2.262,0-2.969-0.58-2.969-1.74c0-1.068,0.58-1.64,2.816-1.64
		C202.419,258.857,203.109,259.461,203.109,260.588z M197.812,260.547c0,0.697,0.555,1,2.336,1c1.918,0,2.439-0.295,2.439-1
		c0-0.699-0.564-1.01-2.355-1.01C198.333,259.538,197.812,259.84,197.812,260.547z"/>
	<path d="M203.041,257.827h-0.547v-1.277h-4.463l0.453,1.143l-0.412,0.168l-0.705-1.471v-0.555h5.127v-1.145h0.547V257.827z"/>
	<path d="M203.109,252.189c0,1.085-0.598,1.647-2.842,1.647c-2.262,0-2.969-0.58-2.969-1.74c0-1.068,0.58-1.639,2.816-1.639
		C202.419,250.458,203.109,251.062,203.109,252.189z M197.812,252.147c0,0.697,0.555,1,2.336,1c1.918,0,2.439-0.294,2.439-1
		c0-0.698-0.564-1.01-2.355-1.01C198.333,251.137,197.812,251.44,197.812,252.147z"/>
</g>
<rect x="213.502" y="244.879" fill="none" width="8.75" height="21.961"/>
<g enable-background="new    ">
	<path d="M214.687,266.437h-0.547c-1.918-1.858-2.809-2.362-3.564-2.362c-0.832,0-1.061,0.462-1.061,0.992
		c0,0.361,0.102,0.705,0.262,1.16l-0.463,0.117c-0.227-0.529-0.369-0.916-0.369-1.564c0-0.756,0.377-1.487,1.529-1.487
		c0.959,0,1.867,0.563,3.615,2.346v-2.497h0.598V266.437z"/>
	<path d="M214.753,260.588c0,1.085-0.596,1.648-2.842,1.648c-2.262,0-2.967-0.58-2.967-1.74c0-1.068,0.58-1.64,2.816-1.64
		C214.064,258.857,214.753,259.461,214.753,260.588z M209.457,260.547c0,0.697,0.555,1,2.338,1c1.916,0,2.438-0.295,2.438-1
		c0-0.699-0.562-1.01-2.354-1.01C209.978,259.538,209.457,259.84,209.457,260.547z"/>
	<path d="M214.687,257.827h-0.547v-1.277h-4.465l0.455,1.143l-0.412,0.168l-0.707-1.471v-0.555h5.129v-1.145h0.547V257.827z"/>
	<path d="M214.687,253.626h-0.547v-1.278h-4.465l0.455,1.145l-0.412,0.168l-0.707-1.472v-0.556h5.129v-1.143h0.547V253.626z"/>
</g>
<rect x="225.15" y="244.879" fill="none" width="8.75" height="21.961"/>
<g enable-background="new    ">
	<path d="M226.333,266.437h-0.547c-1.917-1.858-2.808-2.362-3.564-2.362c-0.832,0-1.06,0.462-1.06,0.992
		c0,0.361,0.102,0.705,0.261,1.16l-0.462,0.117c-0.228-0.529-0.37-0.916-0.37-1.564c0-0.756,0.378-1.487,1.53-1.487
		c0.958,0,1.866,0.563,3.615,2.346v-2.497h0.597V266.437z"/>
	<path d="M226.4,260.588c0,1.085-0.597,1.648-2.842,1.648c-2.262,0-2.968-0.58-2.968-1.74c0-1.068,0.58-1.64,2.816-1.64
		C225.71,258.857,226.4,259.461,226.4,260.588z M221.103,260.547c0,0.697,0.555,1,2.337,1c1.917,0,2.438-0.295,2.438-1
		c0-0.699-0.563-1.01-2.354-1.01C221.625,259.538,221.103,259.84,221.103,260.547z"/>
	<path d="M226.333,257.827h-0.547v-1.277h-4.464l0.454,1.143l-0.412,0.168l-0.706-1.471v-0.555h5.128v-1.145h0.547V257.827z"/>
	<path d="M226.333,253.836h-0.547c-1.917-1.857-2.808-2.362-3.564-2.362c-0.832,0-1.06,0.462-1.06,0.992
		c0,0.361,0.102,0.706,0.261,1.16l-0.462,0.118c-0.228-0.53-0.37-0.917-0.37-1.564c0-0.756,0.378-1.488,1.53-1.488
		c0.958,0,1.866,0.563,3.615,2.346v-2.496h0.597V253.836z"/>
</g>
<rect x="236.795" y="244.879" fill="none" width="8.75" height="21.961"/>
<g enable-background="new    ">
	<path d="M237.979,266.437h-0.547c-1.917-1.858-2.808-2.362-3.564-2.362c-0.832,0-1.06,0.462-1.06,0.992
		c0,0.361,0.102,0.705,0.261,1.16l-0.462,0.117c-0.228-0.529-0.37-0.916-0.37-1.564c0-0.756,0.378-1.487,1.53-1.487
		c0.958,0,1.866,0.563,3.615,2.346v-2.497h0.597V266.437z"/>
	<path d="M238.046,260.588c0,1.085-0.597,1.648-2.842,1.648c-2.262,0-2.968-0.58-2.968-1.74c0-1.068,0.58-1.64,2.816-1.64
		C237.357,258.857,238.046,259.461,238.046,260.588z M232.75,260.547c0,0.697,0.555,1,2.337,1c1.917,0,2.438-0.295,2.438-1
		c0-0.699-0.563-1.01-2.354-1.01C233.271,259.538,232.75,259.84,232.75,260.547z"/>
	<path d="M237.979,257.827h-0.547v-1.277h-4.464l0.454,1.143l-0.412,0.168l-0.706-1.471v-0.555h5.128v-1.145h0.547V257.827z"/>
	<path d="M238.046,252.382c0,0.411-0.101,0.925-0.328,1.563l-0.412-0.066c0.126-0.581,0.193-1.035,0.193-1.396
		c0-0.865-0.378-1.152-1.144-1.152c-0.697,0-1.126,0.303-1.126,1.17v0.646h-0.521v-0.622c0-0.698-0.345-1.034-1.034-1.034
		c-0.555,0-0.892,0.236-0.892,0.976c0,0.337,0.085,0.866,0.202,1.186l-0.454,0.101c-0.143-0.345-0.294-0.883-0.294-1.53
		c0-1.017,0.605-1.472,1.354-1.472c0.757,0,1.193,0.379,1.32,0.875c0.042-0.697,0.706-1.06,1.37-1.06
		C237.492,250.566,238.046,251.171,238.046,252.382z"/>
</g>
<rect x="248.442" y="244.879" fill="none" width="8.75" height="21.961"/>
<g enable-background="new    ">
	<path d="M249.625,266.437h-0.547c-1.916-1.858-2.807-2.362-3.564-2.362c-0.832,0-1.059,0.462-1.059,0.992
		c0,0.361,0.102,0.705,0.26,1.16l-0.461,0.117c-0.229-0.529-0.371-0.916-0.371-1.564c0-0.756,0.379-1.487,1.531-1.487
		c0.957,0,1.865,0.563,3.615,2.346v-2.497h0.596V266.437z"/>
	<path d="M249.693,260.588c0,1.085-0.598,1.648-2.842,1.648c-2.262,0-2.969-0.58-2.969-1.74c0-1.068,0.58-1.64,2.816-1.64
		C249.003,258.857,249.693,259.461,249.693,260.588z M244.396,260.547c0,0.697,0.555,1,2.336,1c1.918,0,2.439-0.295,2.439-1
		c0-0.699-0.564-1.01-2.355-1.01C244.917,259.538,244.396,259.84,244.396,260.547z"/>
	<path d="M249.625,257.827h-0.547v-1.277h-4.463l0.453,1.143l-0.412,0.168l-0.705-1.471v-0.555h5.127v-1.145h0.547V257.827z"/>
	<path d="M248.304,250.987h1.32v0.672h-1.32v2.354h-0.52c-1.312-0.64-2.725-1.403-3.834-2.085v-0.941h3.758v-0.682h0.596V250.987z
		 M244.521,251.659c0.867,0.514,2.035,1.194,3.188,1.749v-1.749H244.521z"/>
</g>
<g enable-background="new    ">
	<path d="M261.271,266.437h-0.547c-1.916-1.858-2.807-2.362-3.564-2.362c-0.832,0-1.059,0.462-1.059,0.992
		c0,0.361,0.102,0.705,0.26,1.16l-0.461,0.117c-0.229-0.529-0.371-0.916-0.371-1.564c0-0.756,0.379-1.487,1.531-1.487
		c0.957,0,1.865,0.563,3.615,2.346v-2.497h0.596V266.437z"/>
	<path d="M261.339,260.588c0,1.085-0.598,1.648-2.842,1.648c-2.262,0-2.969-0.58-2.969-1.74c0-1.068,0.58-1.64,2.816-1.64
		C260.65,258.857,261.339,259.461,261.339,260.588z M256.042,260.547c0,0.697,0.555,1,2.336,1c1.918,0,2.439-0.295,2.439-1
		c0-0.699-0.564-1.01-2.355-1.01C256.564,259.538,256.042,259.84,256.042,260.547z"/>
	<path d="M261.271,257.827h-0.547v-1.277h-4.463l0.453,1.143l-0.412,0.168l-0.705-1.471v-0.555h5.127v-1.145h0.547V257.827z"/>
	<path d="M261.339,252.407c0,0.404-0.094,0.917-0.312,1.539l-0.402-0.059c0.109-0.563,0.184-1.051,0.184-1.438
		c0-0.791-0.318-1.16-1.193-1.16c-0.766,0-1.244,0.353-1.244,1.235c0,0.378,0.043,0.731,0.127,1.161l-2.9-0.178v-2.556h0.588v2.01
		l1.697,0.109c-0.041-0.177-0.059-0.496-0.059-0.782c0-1.144,0.664-1.732,1.707-1.732
		C260.75,250.557,261.339,251.155,261.339,252.407z"/>
</g>
<g enable-background="new    ">
	<path d="M13.875,109.324c-1.084,0-1.648-0.597-1.648-2.842c0-2.262,0.581-2.968,1.741-2.968c1.068,0,1.639,0.58,1.639,2.816
		C15.607,108.634,15.002,109.324,13.875,109.324z M13.917,104.027c-0.698,0-1,0.555-1,2.337c0,1.917,0.294,2.438,1,2.438
		c0.698,0,1.009-0.563,1.009-2.354C14.926,104.548,14.624,104.027,13.917,104.027z"/>
</g>
<g enable-background="new    ">
	<path d="M13.657,92.575c-0.404,0-0.917-0.093-1.539-0.312l0.059-0.403c0.563,0.109,1.051,0.185,1.438,0.185
		c0.79,0,1.16-0.319,1.16-1.193c0-0.766-0.353-1.244-1.236-1.244c-0.378,0-0.731,0.042-1.161,0.126l0.177-2.9h2.556v0.588h-2.01
		l-0.109,1.698c0.177-0.042,0.496-0.059,0.782-0.059c1.143,0,1.732,0.664,1.732,1.707C15.506,91.986,14.909,92.575,13.657,92.575z"
		/>
</g>
<g enable-background="new    ">
	<path d="M7.734,75.757V75.21h1.278v-4.464l-1.144,0.454L7.7,70.789l1.471-0.706h0.555v5.128h1.144v0.547H7.734z"/>
	<path d="M13.372,75.825c-1.084,0-1.648-0.597-1.648-2.842c0-2.262,0.581-2.968,1.741-2.968c1.068,0,1.639,0.58,1.639,2.816
		C15.104,75.135,14.499,75.825,13.372,75.825z M13.414,70.528c-0.698,0-1,0.555-1,2.337c0,1.917,0.294,2.438,1,2.438
		c0.698,0,1.009-0.563,1.009-2.354C14.423,71.049,14.12,70.528,13.414,70.528z"/>
</g>
<g enable-background="new    ">
	<path d="M7.734,59.008v-0.547h1.278v-4.464l-1.144,0.454L7.7,54.04l1.471-0.706h0.555v5.128h1.144v0.547H7.734z"/>
	<path d="M13.153,59.076c-0.404,0-0.917-0.093-1.539-0.312l0.059-0.403c0.563,0.109,1.051,0.185,1.438,0.185
		c0.79,0,1.16-0.319,1.16-1.193c0-0.766-0.353-1.244-1.236-1.244c-0.378,0-0.731,0.042-1.161,0.126l0.177-2.9h2.556v0.588h-2.01
		l-0.109,1.698c0.177-0.042,0.496-0.059,0.782-0.059c1.143,0,1.732,0.664,1.732,1.707C15.003,58.487,14.406,59.076,13.153,59.076z"
		/>
</g>
<g enable-background="new    ">
	<path d="M7.523,42.259v-0.547c1.858-1.917,2.363-2.808,2.363-3.564c0-0.832-0.462-1.06-0.992-1.06c-0.361,0-0.706,0.102-1.16,0.261
		l-0.118-0.462c0.53-0.228,0.917-0.37,1.564-0.37c0.756,0,1.488,0.378,1.488,1.53c0,0.958-0.563,1.866-2.346,3.615h2.497v0.597
		H7.523z"/>
	<path d="M13.372,42.327c-1.084,0-1.648-0.597-1.648-2.842c0-2.262,0.581-2.968,1.741-2.968c1.068,0,1.639,0.58,1.639,2.816
		C15.104,41.637,14.499,42.327,13.372,42.327z M13.414,37.03c-0.698,0-1,0.555-1,2.337c0,1.917,0.294,2.438,1,2.438
		c0.698,0,1.009-0.563,1.009-2.354C14.423,37.551,14.12,37.03,13.414,37.03z"/>
</g>
<g enable-background="new    ">
	<path d="M7.523,25.509v-0.547c1.858-1.917,2.363-2.808,2.363-3.564c0-0.832-0.462-1.06-0.992-1.06c-0.361,0-0.706,0.102-1.16,0.261
		l-0.118-0.462c0.53-0.228,0.917-0.37,1.564-0.37c0.756,0,1.488,0.378,1.488,1.53c0,0.958-0.563,1.866-2.346,3.615h2.497v0.597
		H7.523z"/>
	<path d="M13.153,25.577c-0.404,0-0.917-0.093-1.539-0.312l0.059-0.403c0.563,0.109,1.051,0.185,1.438,0.185
		c0.79,0,1.16-0.319,1.16-1.193c0-0.766-0.353-1.244-1.236-1.244c-0.378,0-0.731,0.042-1.161,0.126l0.177-2.9h2.556v0.588h-2.01
		l-0.109,1.698c0.177-0.042,0.496-0.059,0.782-0.059c1.143,0,1.732,0.664,1.732,1.707C15.003,24.988,14.406,25.577,13.153,25.577z"
		/>
</g>
<g enable-background="new    ">
	<path d="M8.978,8.828c-0.412,0-0.925-0.101-1.563-0.328l0.067-0.412c0.58,0.126,1.034,0.193,1.396,0.193
		c0.866,0,1.152-0.378,1.152-1.144c0-0.697-0.303-1.126-1.169-1.126H8.213V5.49h0.623c0.698,0,1.034-0.345,1.034-1.034
		c0-0.555-0.236-0.892-0.976-0.892c-0.336,0-0.866,0.085-1.186,0.202L7.608,3.312c0.345-0.143,0.883-0.294,1.53-0.294
		c1.018,0,1.472,0.605,1.472,1.354c0,0.757-0.378,1.193-0.875,1.32c0.698,0.042,1.06,0.706,1.06,1.37
		C10.794,8.273,10.189,8.828,8.978,8.828z"/>
	<path d="M13.372,8.828c-1.084,0-1.648-0.597-1.648-2.842c0-2.262,0.581-2.968,1.741-2.968c1.068,0,1.639,0.58,1.639,2.816
		C15.104,8.138,14.499,8.828,13.372,8.828z M13.414,3.531c-0.698,0-1,0.555-1,2.337c0,1.917,0.294,2.438,1,2.438
		c0.698,0,1.009-0.563,1.009-2.354C14.423,4.052,14.12,3.531,13.414,3.531z"/>
</g>
<rect x="80.556" y="61.55" fill="#243E8F" width="7.523" height="46.597"/>
<rect x="92.214" y="14.953" fill="#243E8F" width="7.524" height="93.194"/>
<rect x="103.875" y="101.491" fill="#243E8F" width="7.523" height="6.656"/>
<rect x="115.533" y="24.938" fill="#243E8F" width="7.523" height="83.209"/>
<rect x="127.191" y="88.177" fill="#243E8F" width="7.525" height="19.97"/>
<g>
	<rect x="138.852" y="94.833" fill="#243E8F" width="7.524" height="13.314"/>
	<rect x="138.853" y="89.154" fill="#243E8F" width="7.523" height="6.657"/>
</g>
<rect x="173.824" y="104.819" fill="#243E8F" width="7.52" height="3.328"/>
<rect x="185.479" y="104.819" fill="#243E8F" width="7.522" height="3.328"/>
<rect x="197.136" y="71.535" fill="#243E8F" width="7.523" height="36.612"/>
<rect x="220.451" y="104.819" fill="#243E8F" width="7.521" height="3.328"/>
<rect x="232.108" y="64.878" fill="#243E8F" width="7.521" height="43.269"/>
<rect x="243.763" y="31.595" fill="#243E8F" width="7.523" height="76.552"/>
<rect x="255.421" y="101.491" fill="#243E8F" width="7.523" height="6.656"/>
<rect x="22.315" y="230.874" fill="#243E8F" width="8.317" height="13.484"/>
<rect x="33.871" y="231.323" fill="#243E8F" width="8.317" height="13.035"/>
<rect x="45.42" y="192.871" fill="#243E8F" width="8.321" height="51.487"/>
<rect x="56.976" y="149.427" fill="#243E8F" width="8.321" height="94.931"/>
<rect x="68.529" y="157.416" fill="#243E8F" width="8.321" height="86.942"/>
<rect x="80.084" y="200.812" fill="#243E8F" width="8.316" height="43.546"/>
<rect x="91.638" y="218.84" fill="#243E8F" width="8.317" height="25.518"/>
<rect x="103.192" y="204.357" fill="#243E8F" width="8.317" height="40.001"/>
<rect x="114.744" y="205.856" fill="#243E8F" width="8.32" height="38.502"/>
<rect x="126.297" y="203.409" fill="#243E8F" width="8.321" height="40.949"/>
<rect x="137.853" y="234.87" fill="#243E8F" width="8.32" height="9.488"/>
<rect x="137.855" y="216.567" fill="#243E8F" width="8.316" height="18.527"/>
<rect x="149.96" y="214.344" fill="#243E8F" width="8.316" height="30.014"/>
<rect x="161.511" y="216.842" fill="#243E8F" width="8.322" height="27.516"/>
<rect x="173.064" y="223.883" fill="#243E8F" width="8.32" height="20.475"/>
<rect x="173.064" y="213.295" fill="#243E8F" width="8.32" height="11.486"/>
<rect x="186.175" y="212.847" fill="#243E8F" width="8.316" height="31.511"/>
<rect x="197.73" y="236.366" fill="#243E8F" width="8.316" height="7.992"/>
<rect x="209.281" y="220.336" fill="#243E8F" width="8.318" height="24.021"/>
<rect x="220.833" y="223.383" fill="#243E8F" width="8.32" height="20.975"/>
<rect x="232.388" y="209.301" fill="#243E8F" width="8.32" height="35.057"/>
<rect x="243.941" y="217.34" fill="#243E8F" width="8.32" height="27.018"/>
<rect x="255.498" y="236.766" fill="#243E8F" width="8.314" height="7.592"/>
</svg>
