<?xml version="1.0" encoding="utf-8"?>
<!-- Generator: Adobe Illustrator 16.0.4, SVG Export Plug-In . SVG Version: 6.00 Build 0)  -->
<!DOCTYPE svg PUBLIC "-//W3C//DTD SVG 1.1//EN" "http://www.w3.org/Graphics/SVG/1.1/DTD/svg11.dtd">
<svg version="1.1" id="Layer_1" xmlns="http://www.w3.org/2000/svg" xmlns:xlink="http://www.w3.org/1999/xlink" x="0px" y="0px"
	 width="267.667px" height="397.606px" viewBox="0 0 267.667 397.606" enable-background="new 0 0 267.667 397.606"
	 xml:space="preserve">
<g>
	<g>
		<g enable-background="new    ">
			<path d="M15.147,362.601c-1.084,0-1.648-0.597-1.648-2.842c0-2.262,0.581-2.968,1.741-2.968c1.068,0,1.639,0.58,1.639,2.816
				C16.879,361.912,16.274,362.601,15.147,362.601z M15.189,357.304c-0.698,0-1,0.555-1,2.337c0,1.917,0.294,2.438,1,2.438
				c0.698,0,1.009-0.563,1.009-2.354C16.198,357.826,15.896,357.304,15.189,357.304z"/>
		</g>
		<g enable-background="new    ">
			<path d="M10.225,329.311c-0.404,0-0.917-0.093-1.539-0.312l0.059-0.403c0.563,0.109,1.051,0.185,1.438,0.185
				c0.79,0,1.16-0.319,1.16-1.193c0-0.766-0.353-1.244-1.236-1.244c-0.378,0-0.731,0.042-1.161,0.126l0.177-2.9h2.556v0.588h-2.01
				l-0.109,1.698c0.177-0.042,0.496-0.059,0.782-0.059c1.143,0,1.732,0.664,1.732,1.707
				C12.074,328.722,11.477,329.311,10.225,329.311z"/>
			<path d="M14.643,329.311c-1.084,0-1.648-0.597-1.648-2.842c0-2.262,0.581-2.968,1.741-2.968c1.068,0,1.639,0.58,1.639,2.816
				C16.375,328.622,15.77,329.311,14.643,329.311z M14.685,324.014c-0.698,0-1,0.555-1,2.337c0,1.917,0.294,2.438,1,2.438
				c0.698,0,1.009-0.563,1.009-2.354C15.694,324.536,15.392,324.014,14.685,324.014z"/>
		</g>
		<g enable-background="new    ">
			<path d="M4.301,295.953v-0.547h1.278v-4.464l-1.144,0.454l-0.168-0.412l1.471-0.706h0.555v5.128h1.144v0.547H4.301z"/>
			<path d="M9.939,296.02c-1.084,0-1.648-0.597-1.648-2.842c0-2.262,0.581-2.968,1.741-2.968c1.068,0,1.639,0.58,1.639,2.816
				C11.671,295.331,11.066,296.02,9.939,296.02z M9.981,290.723c-0.698,0-1,0.555-1,2.337c0,1.917,0.294,2.438,1,2.438
				c0.698,0,1.009-0.563,1.009-2.354C10.99,291.245,10.688,290.723,9.981,290.723z"/>
			<path d="M14.139,296.02c-1.084,0-1.647-0.597-1.647-2.842c0-2.262,0.58-2.968,1.74-2.968c1.068,0,1.639,0.58,1.639,2.816
				C15.871,295.331,15.266,296.02,14.139,296.02z M14.181,290.723c-0.698,0-1,0.555-1,2.337c0,1.917,0.294,2.438,1,2.438
				c0.698,0,1.009-0.563,1.009-2.354C15.19,291.245,14.887,290.723,14.181,290.723z"/>
		</g>
		<g enable-background="new    ">
			<path d="M4.301,262.659v-0.547h1.278v-4.464l-1.144,0.454l-0.168-0.412l1.471-0.706h0.555v5.128h1.144v0.547H4.301z"/>
			<path d="M9.721,262.726c-0.404,0-0.917-0.093-1.539-0.312l0.059-0.403c0.563,0.109,1.051,0.185,1.438,0.185
				c0.79,0,1.16-0.319,1.16-1.193c0-0.766-0.353-1.244-1.236-1.244c-0.378,0-0.731,0.042-1.161,0.126l0.177-2.9h2.556v0.588h-2.01
				l-0.109,1.698c0.177-0.042,0.496-0.059,0.782-0.059c1.143,0,1.732,0.664,1.732,1.707C11.57,262.137,10.973,262.726,9.721,262.726
				z"/>
			<path d="M14.139,262.726c-1.084,0-1.647-0.597-1.647-2.842c0-2.262,0.58-2.968,1.74-2.968c1.068,0,1.639,0.58,1.639,2.816
				C15.871,262.037,15.266,262.726,14.139,262.726z M14.181,257.429c-0.698,0-1,0.555-1,2.337c0,1.917,0.294,2.438,1,2.438
				c0.698,0,1.009-0.563,1.009-2.354C15.19,257.951,14.887,257.429,14.181,257.429z"/>
		</g>
		<g enable-background="new    ">
			<path d="M4.091,229.368v-0.547c1.858-1.917,2.363-2.808,2.363-3.564c0-0.832-0.462-1.06-0.992-1.06
				c-0.361,0-0.706,0.102-1.16,0.261l-0.118-0.462c0.53-0.228,0.917-0.37,1.564-0.37c0.756,0,1.488,0.378,1.488,1.53
				c0,0.958-0.563,1.866-2.346,3.615h2.497v0.597H4.091z"/>
			<path d="M9.939,229.435c-1.084,0-1.648-0.597-1.648-2.842c0-2.262,0.581-2.968,1.741-2.968c1.068,0,1.639,0.58,1.639,2.816
				C11.671,228.746,11.066,229.435,9.939,229.435z M9.981,224.138c-0.698,0-1,0.555-1,2.337c0,1.917,0.294,2.438,1,2.438
				c0.698,0,1.009-0.563,1.009-2.354C10.99,224.66,10.688,224.138,9.981,224.138z"/>
			<path d="M14.139,229.435c-1.084,0-1.647-0.597-1.647-2.842c0-2.262,0.58-2.968,1.74-2.968c1.068,0,1.639,0.58,1.639,2.816
				C15.871,228.746,15.266,229.435,14.139,229.435z M14.181,224.138c-0.698,0-1,0.555-1,2.337c0,1.917,0.294,2.438,1,2.438
				c0.698,0,1.009-0.563,1.009-2.354C15.19,224.66,14.887,224.138,14.181,224.138z"/>
		</g>
	</g>
</g>
<rect x="22.148" y="344.249" fill="#243E8F" width="8.317" height="17.979"/>
<rect x="33.703" y="344.848" fill="#243E8F" width="8.317" height="17.379"/>
<rect x="45.253" y="293.579" fill="#243E8F" width="8.321" height="68.648"/>
<rect x="56.808" y="235.653" fill="#243E8F" width="8.321" height="126.574"/>
<rect x="68.362" y="246.305" fill="#243E8F" width="8.321" height="115.922"/>
<rect x="79.917" y="304.167" fill="#243E8F" width="8.316" height="58.062"/>
<rect x="91.47" y="328.204" fill="#243E8F" width="8.317" height="34.023"/>
<rect x="103.025" y="308.893" fill="#243E8F" width="8.317" height="53.334"/>
<rect x="114.576" y="310.891" fill="#243E8F" width="8.32" height="51.336"/>
<rect x="126.13" y="307.629" fill="#243E8F" width="8.321" height="54.598"/>
<rect x="137.685" y="349.577" fill="#243E8F" width="8.32" height="12.65"/>
<rect x="137.687" y="325.174" fill="#9A9BC7" width="8.316" height="24.701"/>
<rect x="149.792" y="322.209" fill="#243E8F" width="8.317" height="40.018"/>
<rect x="161.343" y="325.54" fill="#243E8F" width="8.322" height="36.688"/>
<rect x="172.897" y="334.928" fill="#243E8F" width="8.319" height="27.299"/>
<rect x="172.897" y="320.811" fill="#9A9BC7" width="8.319" height="13.982"/>
<rect x="186.007" y="320.213" fill="#243E8F" width="8.316" height="42.014"/>
<rect x="197.562" y="351.573" fill="#243E8F" width="8.316" height="10.654"/>
<rect x="209.114" y="330.2" fill="#243E8F" width="8.318" height="32.027"/>
<rect x="220.666" y="334.262" fill="#243E8F" width="8.321" height="27.965"/>
<rect x="232.22" y="315.485" fill="#243E8F" width="8.32" height="46.742"/>
<rect x="243.774" y="326.206" fill="#243E8F" width="8.319" height="36.021"/>
<rect x="255.33" y="352.106" fill="#243E8F" width="8.315" height="10.121"/>
<rect x="3.688" y="2.366" fill="none" width="158.886" height="6.75"/>
<g enable-background="new    ">
	<path d="M5.63,8.406c-0.647,0-1.228-0.235-1.69-0.563l0.286-0.588c0.454,0.21,0.899,0.319,1.202,0.319
		c0.589,0,0.958-0.27,0.958-0.731c0-1.11-2.371-0.892-2.371-2.674c0-0.976,0.756-1.605,1.816-1.605c0.53,0,1.042,0.143,1.521,0.462
		L7.084,3.614C6.723,3.47,6.353,3.386,6.017,3.386c-0.538,0-0.799,0.27-0.799,0.647c0,1.11,2.43,0.925,2.43,2.674
		C7.647,7.666,6.924,8.406,5.63,8.406z"/>
	<path d="M11.377,8.322c-0.067-0.319-0.16-0.79-0.244-1.118H9.258C9.183,7.523,9.09,7.935,9.022,8.322H7.938
		C8.358,6.43,8.914,4.471,9.51,2.647h1.488c0.656,1.941,1.152,3.767,1.606,5.675H11.377z M10.166,3.647
		c-0.235,0.808-0.521,1.85-0.731,2.707h1.514C10.712,5.48,10.443,4.522,10.166,3.647z"/>
	<path d="M15.441,8.322h-1.379c-0.673-1.917-1.177-3.733-1.572-5.675h1.244c0.244,1.396,0.656,2.951,1.102,4.531
		c0.429-1.446,0.748-2.977,0.975-4.531h1.11C16.584,4.572,16.122,6.439,15.441,8.322z"/>
	<path d="M17.631,8.322V2.647h2.943v0.865h-1.808v1.497h1.497v0.832h-1.497v1.606h1.841v0.874H17.631z"/>
	<path d="M22.908,8.406c-0.647,0-1.228-0.235-1.69-0.563l0.286-0.588c0.454,0.21,0.899,0.319,1.202,0.319
		c0.589,0,0.958-0.27,0.958-0.731c0-1.11-2.371-0.892-2.371-2.674c0-0.976,0.756-1.605,1.816-1.605c0.53,0,1.042,0.143,1.521,0.462
		l-0.269,0.589c-0.361-0.144-0.731-0.228-1.067-0.228c-0.538,0-0.799,0.27-0.799,0.647c0,1.11,2.43,0.925,2.43,2.674
		C24.926,7.666,24.203,8.406,22.908,8.406z"/>
	<path d="M29.3,8.338c-0.462,0-1-0.017-1.53-0.017V2.647h1.867c1.202,0,1.724,0.546,1.724,1.337c0,0.622-0.303,1.009-0.749,1.219
		c0.597,0.109,1.042,0.622,1.042,1.312C31.654,7.515,30.957,8.338,29.3,8.338z M29.426,3.437H28.88v1.521h0.429
		c0.673,0,0.908-0.395,0.908-0.807S29.981,3.437,29.426,3.437z M29.401,5.732H28.88v1.766c0.126,0.018,0.387,0.034,0.58,0.034
		c0.715,0,1-0.379,1-0.934C30.46,6.119,30.183,5.732,29.401,5.732z"/>
	<path d="M34.391,5.951v2.371h-1.135V5.951c-0.589-0.983-1.068-2.001-1.53-3.304h1.244c0.286,0.832,0.58,1.547,0.942,2.262
		c0.361-0.682,0.647-1.497,0.883-2.262h1.126C35.467,3.917,34.979,5.035,34.391,5.951z"/>
	<path d="M39.833,8.406c-0.647,0-1.228-0.235-1.69-0.563l0.286-0.588c0.454,0.21,0.899,0.319,1.202,0.319
		c0.589,0,0.958-0.27,0.958-0.731c0-1.11-2.371-0.892-2.371-2.674c0-0.976,0.756-1.605,1.816-1.605c0.53,0,1.042,0.143,1.521,0.462
		l-0.269,0.589c-0.361-0.144-0.731-0.228-1.067-0.228c-0.538,0-0.799,0.27-0.799,0.647c0,1.11,2.43,0.925,2.43,2.674
		C41.851,7.666,41.127,8.406,39.833,8.406z"/>
	<path d="M42.679,8.322V2.647h2.943v0.865h-1.808v1.497h1.497v0.832h-1.497v1.606h1.841v0.874H42.679z"/>
	<path d="M49.537,8.322c-0.067-0.319-0.16-0.79-0.244-1.118h-1.875c-0.076,0.319-0.168,0.731-0.236,1.118h-1.084
		c0.42-1.892,0.976-3.851,1.572-5.675h1.488c0.656,1.941,1.152,3.767,1.606,5.675H49.537z M48.326,3.647
		c-0.235,0.808-0.521,1.85-0.731,2.707h1.513C48.872,5.48,48.603,4.522,48.326,3.647z"/>
	<path d="M52.777,8.406c-0.647,0-1.228-0.235-1.69-0.563l0.286-0.588c0.454,0.21,0.899,0.319,1.202,0.319
		c0.589,0,0.958-0.27,0.958-0.731c0-1.11-2.371-0.892-2.371-2.674c0-0.976,0.756-1.605,1.816-1.605c0.53,0,1.042,0.143,1.521,0.462
		l-0.269,0.589C53.87,3.47,53.5,3.386,53.164,3.386c-0.538,0-0.799,0.27-0.799,0.647c0,1.11,2.43,0.925,2.43,2.674
		C54.795,7.666,54.072,8.406,52.777,8.406z"/>
	<path d="M57.608,8.415c-1.446,0-2.278-0.731-2.278-2.834c0-2.11,0.975-3.026,2.413-3.026c1.48,0,2.287,0.782,2.287,2.816
		C60.029,7.498,59.054,8.415,57.608,8.415z M57.65,3.42c-0.664,0-1.126,0.454-1.126,1.967c0,1.656,0.42,2.161,1.177,2.161
		c0.664,0,1.135-0.463,1.135-1.992C58.835,3.924,58.407,3.42,57.65,3.42z"/>
	<path d="M64.001,8.322l-2.093-4.044v4.044h-0.942V2.647h1.396l1.884,3.514V2.647h0.941v5.675H64.001z"/>
</g>
<rect x="27.442" y="165.816" fill="none" width="8.75" height="17.25"/>
<g enable-background="new    ">
	<path d="M28.598,182.451h-0.547v-1.278h-4.464l0.454,1.144l-0.412,0.168l-0.706-1.471v-0.555h5.128v-1.144h0.547V182.451z"/>
	<path d="M28.665,177.116c0,0.37-0.067,0.757-0.277,1.329l-0.412-0.067c0.109-0.454,0.168-0.832,0.168-1.202
		c0-0.791-0.655-1.32-2.304-1.337c0.261,0.454,0.403,0.807,0.403,1.261c0,0.883-0.562,1.371-1.521,1.371
		c-1.151,0-1.866-0.647-1.866-1.64c0-1.084,0.546-1.673,2.716-1.673C28.076,175.157,28.665,176.073,28.665,177.116z M25.327,175.846
		c-1.37,0-1.959,0.328-1.959,1.026c0,0.622,0.462,0.925,1.236,0.925c0.731,0,1.109-0.277,1.109-0.941
		c0-0.286-0.101-0.58-0.354-1.009H25.327z"/>
	<path d="M28.665,172.917c0,0.37-0.067,0.756-0.277,1.328l-0.412-0.067c0.109-0.454,0.168-0.832,0.168-1.202
		c0-0.791-0.655-1.32-2.304-1.337c0.261,0.454,0.403,0.807,0.403,1.261c0,0.883-0.562,1.371-1.521,1.371
		c-1.151,0-1.866-0.647-1.866-1.64c0-1.084,0.546-1.673,2.716-1.673C28.076,170.958,28.665,171.874,28.665,172.917z M25.327,171.646
		c-1.37,0-1.959,0.328-1.959,1.026c0,0.622,0.462,0.925,1.236,0.925c0.731,0,1.109-0.277,1.109-0.941
		c0-0.286-0.101-0.58-0.354-1.009H25.327z"/>
	<path d="M28.665,168.632c0,0.404-0.093,0.917-0.312,1.539l-0.403-0.059c0.109-0.563,0.185-1.051,0.185-1.438
		c0-0.79-0.319-1.16-1.193-1.16c-0.766,0-1.244,0.353-1.244,1.236c0,0.378,0.042,0.731,0.126,1.161l-2.9-0.177v-2.556h0.588v2.01
		l1.698,0.109c-0.042-0.177-0.059-0.496-0.059-0.782c0-1.144,0.664-1.732,1.707-1.732C28.076,166.782,28.665,167.379,28.665,168.632
		z"/>
</g>
<rect x="39.145" y="165.816" fill="none" width="8.75" height="17.25"/>
<g enable-background="new    ">
	<path d="M40.3,182.451h-0.547v-1.278H35.29l0.454,1.144l-0.412,0.168l-0.706-1.471v-0.555h5.128v-1.144H40.3V182.451z"/>
	<path d="M40.368,177.116c0,0.37-0.067,0.757-0.277,1.329l-0.412-0.067c0.109-0.454,0.168-0.832,0.168-1.202
		c0-0.791-0.655-1.32-2.304-1.337c0.261,0.454,0.403,0.807,0.403,1.261c0,0.883-0.562,1.371-1.521,1.371
		c-1.151,0-1.866-0.647-1.866-1.64c0-1.084,0.546-1.673,2.716-1.673C39.779,175.157,40.368,176.073,40.368,177.116z M37.03,175.846
		c-1.37,0-1.959,0.328-1.959,1.026c0,0.622,0.462,0.925,1.236,0.925c0.731,0,1.109-0.277,1.109-0.941
		c0-0.286-0.101-0.58-0.354-1.009H37.03z"/>
	<path d="M40.368,172.917c0,0.37-0.067,0.756-0.277,1.328l-0.412-0.067c0.109-0.454,0.168-0.832,0.168-1.202
		c0-0.791-0.655-1.32-2.304-1.337c0.261,0.454,0.403,0.807,0.403,1.261c0,0.883-0.562,1.371-1.521,1.371
		c-1.151,0-1.866-0.647-1.866-1.64c0-1.084,0.546-1.673,2.716-1.673C39.779,170.958,40.368,171.874,40.368,172.917z M37.03,171.646
		c-1.37,0-1.959,0.328-1.959,1.026c0,0.622,0.462,0.925,1.236,0.925c0.731,0,1.109-0.277,1.109-0.941
		c0-0.286-0.101-0.58-0.354-1.009H37.03z"/>
	<path d="M40.368,168.296c0,1.084-0.538,1.665-2.707,1.665c-2.472,0-3.103-0.875-3.103-1.909c0-0.378,0.075-0.756,0.269-1.261
		l0.412,0.076c-0.093,0.362-0.159,0.749-0.159,1.118c0,0.799,0.714,1.287,2.312,1.303c-0.261-0.454-0.403-0.815-0.403-1.261
		c0-0.883,0.563-1.379,1.521-1.379C39.662,166.648,40.368,167.304,40.368,168.296z M37.517,168.262c0,0.294,0.102,0.58,0.354,1.017
		h0.033c1.379,0,1.951-0.328,1.951-1.026c0-0.622-0.446-0.925-1.228-0.925C37.896,167.329,37.517,167.606,37.517,168.262z"/>
</g>
<rect x="50.848" y="165.816" fill="none" width="8.75" height="17.25"/>
<g enable-background="new    ">
	<path d="M52.002,182.451h-0.547v-1.278h-4.464l0.454,1.144l-0.412,0.168l-0.706-1.471v-0.555h5.128v-1.144h0.547V182.451z"/>
	<path d="M52.07,177.116c0,0.37-0.067,0.757-0.277,1.329l-0.412-0.067c0.109-0.454,0.168-0.832,0.168-1.202
		c0-0.791-0.655-1.32-2.304-1.337c0.261,0.454,0.403,0.807,0.403,1.261c0,0.883-0.562,1.371-1.521,1.371
		c-1.151,0-1.866-0.647-1.866-1.64c0-1.084,0.546-1.673,2.716-1.673C51.481,175.157,52.07,176.073,52.07,177.116z M48.732,175.846
		c-1.37,0-1.959,0.328-1.959,1.026c0,0.622,0.462,0.925,1.236,0.925c0.731,0,1.109-0.277,1.109-0.941
		c0-0.286-0.101-0.58-0.354-1.009H48.732z"/>
	<path d="M52.07,172.917c0,0.37-0.067,0.756-0.277,1.328l-0.412-0.067c0.109-0.454,0.168-0.832,0.168-1.202
		c0-0.791-0.655-1.32-2.304-1.337c0.261,0.454,0.403,0.807,0.403,1.261c0,0.883-0.562,1.371-1.521,1.371
		c-1.151,0-1.866-0.647-1.866-1.64c0-1.084,0.546-1.673,2.716-1.673C51.481,170.958,52.07,171.874,52.07,172.917z M48.732,171.646
		c-1.37,0-1.959,0.328-1.959,1.026c0,0.622,0.462,0.925,1.236,0.925c0.731,0,1.109-0.277,1.109-0.941
		c0-0.286-0.101-0.58-0.354-1.009H48.732z"/>
	<path d="M49.405,167.791c0.874,0.404,1.934,0.976,2.665,1.404l-0.168,0.454l-4.986-2.262v2.707h-0.588v-3.514h0.513L49.405,167.791
		z"/>
</g>
<rect x="62.55" y="165.816" fill="none" width="8.75" height="17.25"/>
<g enable-background="new    ">
	<path d="M63.705,182.451h-0.547v-1.278h-4.464l0.454,1.144l-0.412,0.168l-0.706-1.471v-0.555h5.128v-1.144h0.547V182.451z"/>
	<path d="M63.772,177.116c0,0.37-0.067,0.757-0.277,1.329l-0.412-0.067c0.109-0.454,0.168-0.832,0.168-1.202
		c0-0.791-0.655-1.32-2.304-1.337c0.261,0.454,0.403,0.807,0.403,1.261c0,0.883-0.562,1.371-1.521,1.371
		c-1.151,0-1.866-0.647-1.866-1.64c0-1.084,0.546-1.673,2.716-1.673C63.184,175.157,63.772,176.073,63.772,177.116z M60.435,175.846
		c-1.37,0-1.959,0.328-1.959,1.026c0,0.622,0.462,0.925,1.236,0.925c0.731,0,1.109-0.277,1.109-0.941
		c0-0.286-0.101-0.58-0.354-1.009H60.435z"/>
	<path d="M63.772,172.917c0,0.37-0.067,0.756-0.277,1.328l-0.412-0.067c0.109-0.454,0.168-0.832,0.168-1.202
		c0-0.791-0.655-1.32-2.304-1.337c0.261,0.454,0.403,0.807,0.403,1.261c0,0.883-0.562,1.371-1.521,1.371
		c-1.151,0-1.866-0.647-1.866-1.64c0-1.084,0.546-1.673,2.716-1.673C63.184,170.958,63.772,171.874,63.772,172.917z M60.435,171.646
		c-1.37,0-1.959,0.328-1.959,1.026c0,0.622,0.462,0.925,1.236,0.925c0.731,0,1.109-0.277,1.109-0.941
		c0-0.286-0.101-0.58-0.354-1.009H60.435z"/>
	<path d="M63.772,168.43c0,1.16-0.563,1.665-1.379,1.665c-0.723,0-1.177-0.471-1.563-1.126c-0.37,0.656-0.833,1.009-1.463,1.009
		c-0.816,0-1.404-0.588-1.404-1.665c0-1.168,0.58-1.555,1.312-1.555c0.631,0,1.034,0.37,1.446,1.109
		c0.437-0.824,0.841-1.236,1.58-1.236C63.125,166.631,63.772,167.186,63.772,168.43z M58.45,168.405c0,0.555,0.337,0.9,0.832,0.9
		c0.505,0,0.841-0.277,1.186-0.925c-0.369-0.665-0.664-0.958-1.093-0.958C58.77,167.421,58.45,167.707,58.45,168.405z M61.09,168.48
		c0.388,0.647,0.732,0.942,1.211,0.942c0.614,0,0.976-0.37,0.976-1.102c0-0.605-0.361-1.017-0.883-1.017
		C61.813,167.304,61.478,167.715,61.09,168.48z"/>
</g>
<rect x="74.252" y="165.816" fill="none" width="8.75" height="17.25"/>
<g enable-background="new    ">
	<path d="M75.408,182.451h-0.547v-1.278h-4.464l0.454,1.144l-0.412,0.168l-0.706-1.471v-0.555h5.128v-1.144h0.547V182.451z"/>
	<path d="M75.475,177.116c0,0.37-0.067,0.757-0.277,1.329l-0.412-0.067c0.109-0.454,0.168-0.832,0.168-1.202
		c0-0.791-0.655-1.32-2.304-1.337c0.261,0.454,0.403,0.807,0.403,1.261c0,0.883-0.562,1.371-1.521,1.371
		c-1.151,0-1.866-0.647-1.866-1.64c0-1.084,0.546-1.673,2.716-1.673C74.886,175.157,75.475,176.073,75.475,177.116z M72.137,175.846
		c-1.37,0-1.959,0.328-1.959,1.026c0,0.622,0.462,0.925,1.236,0.925c0.731,0,1.109-0.277,1.109-0.941
		c0-0.286-0.101-0.58-0.354-1.009H72.137z"/>
	<path d="M75.475,172.917c0,0.37-0.067,0.756-0.277,1.328l-0.412-0.067c0.109-0.454,0.168-0.832,0.168-1.202
		c0-0.791-0.655-1.32-2.304-1.337c0.261,0.454,0.403,0.807,0.403,1.261c0,0.883-0.562,1.371-1.521,1.371
		c-1.151,0-1.866-0.647-1.866-1.64c0-1.084,0.546-1.673,2.716-1.673C74.886,170.958,75.475,171.874,75.475,172.917z M72.137,171.646
		c-1.37,0-1.959,0.328-1.959,1.026c0,0.622,0.462,0.925,1.236,0.925c0.731,0,1.109-0.277,1.109-0.941
		c0-0.286-0.101-0.58-0.354-1.009H72.137z"/>
	<path d="M75.475,168.716c0,0.37-0.067,0.756-0.277,1.328l-0.412-0.067c0.109-0.454,0.168-0.832,0.168-1.202
		c0-0.791-0.655-1.32-2.304-1.337c0.261,0.454,0.403,0.807,0.403,1.261c0,0.883-0.562,1.371-1.521,1.371
		c-1.151,0-1.866-0.647-1.866-1.64c0-1.084,0.546-1.673,2.716-1.673C74.886,166.757,75.475,167.673,75.475,168.716z M72.137,167.446
		c-1.37,0-1.959,0.328-1.959,1.026c0,0.622,0.462,0.925,1.236,0.925c0.731,0,1.109-0.277,1.109-0.941
		c0-0.286-0.101-0.58-0.354-1.009H72.137z"/>
</g>
<rect x="85.955" y="165.816" fill="none" width="8.75" height="17.25"/>
<g enable-background="new    ">
	<path d="M87.11,182.662h-0.547c-1.917-1.858-2.808-2.363-3.564-2.363c-0.832,0-1.06,0.462-1.06,0.992
		c0,0.361,0.102,0.706,0.261,1.16l-0.462,0.118c-0.228-0.53-0.37-0.917-0.37-1.564c0-0.756,0.378-1.488,1.53-1.488
		c0.958,0,1.866,0.563,3.615,2.346v-2.497h0.597V182.662z"/>
	<path d="M87.177,176.813c0,1.084-0.597,1.648-2.842,1.648c-2.262,0-2.968-0.581-2.968-1.741c0-1.068,0.58-1.639,2.816-1.639
		C86.488,175.082,87.177,175.687,87.177,176.813z M81.88,176.771c0,0.698,0.555,1,2.337,1c1.917,0,2.438-0.294,2.438-1
		c0-0.698-0.563-1.009-2.354-1.009C82.402,175.762,81.88,176.065,81.88,176.771z"/>
	<path d="M87.177,172.614c0,1.084-0.597,1.647-2.842,1.647c-2.262,0-2.968-0.58-2.968-1.74c0-1.068,0.58-1.639,2.816-1.639
		C86.488,170.882,87.177,171.487,87.177,172.614z M81.88,172.572c0,0.698,0.555,1,2.337,1c1.917,0,2.438-0.294,2.438-1
		c0-0.698-0.563-1.009-2.354-1.009C82.402,171.562,81.88,171.865,81.88,172.572z"/>
	<path d="M87.177,168.414c0,1.084-0.597,1.647-2.842,1.647c-2.262,0-2.968-0.58-2.968-1.74c0-1.068,0.58-1.639,2.816-1.639
		C86.488,166.682,87.177,167.287,87.177,168.414z M81.88,168.372c0,0.698,0.555,1,2.337,1c1.917,0,2.438-0.294,2.438-1
		c0-0.698-0.563-1.009-2.354-1.009C82.402,167.362,81.88,167.665,81.88,168.372z"/>
</g>
<rect x="97.657" y="165.816" fill="none" width="8.75" height="17.25"/>
<g enable-background="new    ">
	<path d="M98.812,182.662h-0.547c-1.917-1.858-2.808-2.363-3.564-2.363c-0.832,0-1.06,0.462-1.06,0.992
		c0,0.361,0.102,0.706,0.261,1.16l-0.462,0.118c-0.228-0.53-0.37-0.917-0.37-1.564c0-0.756,0.378-1.488,1.53-1.488
		c0.958,0,1.866,0.563,3.615,2.346v-2.497h0.597V182.662z"/>
	<path d="M98.88,176.813c0,1.084-0.597,1.648-2.842,1.648c-2.262,0-2.968-0.581-2.968-1.741c0-1.068,0.58-1.639,2.816-1.639
		C98.19,175.082,98.88,175.687,98.88,176.813z M93.583,176.771c0,0.698,0.555,1,2.337,1c1.917,0,2.438-0.294,2.438-1
		c0-0.698-0.563-1.009-2.354-1.009C94.104,175.762,93.583,176.065,93.583,176.771z"/>
	<path d="M98.88,172.614c0,1.084-0.597,1.647-2.842,1.647c-2.262,0-2.968-0.58-2.968-1.74c0-1.068,0.58-1.639,2.816-1.639
		C98.19,170.882,98.88,171.487,98.88,172.614z M93.583,172.572c0,0.698,0.555,1,2.337,1c1.917,0,2.438-0.294,2.438-1
		c0-0.698-0.563-1.009-2.354-1.009C94.104,171.562,93.583,171.865,93.583,172.572z"/>
	<path d="M98.812,169.851h-0.547v-1.278h-4.464l0.454,1.144l-0.412,0.168l-0.706-1.471v-0.555h5.128v-1.144h0.547V169.851z"/>
</g>
<rect x="109.36" y="165.816" fill="none" width="8.75" height="17.25"/>
<g enable-background="new    ">
	<path d="M110.515,182.662h-0.547c-1.917-1.858-2.808-2.363-3.564-2.363c-0.832,0-1.06,0.462-1.06,0.992
		c0,0.361,0.102,0.706,0.261,1.16l-0.462,0.118c-0.228-0.53-0.37-0.917-0.37-1.564c0-0.756,0.378-1.488,1.53-1.488
		c0.958,0,1.866,0.563,3.615,2.346v-2.497h0.597V182.662z"/>
	<path d="M110.582,176.813c0,1.084-0.597,1.648-2.842,1.648c-2.262,0-2.968-0.581-2.968-1.741c0-1.068,0.58-1.639,2.816-1.639
		C109.893,175.082,110.582,175.687,110.582,176.813z M105.285,176.771c0,0.698,0.555,1,2.337,1c1.917,0,2.438-0.294,2.438-1
		c0-0.698-0.563-1.009-2.354-1.009C105.807,175.762,105.285,176.065,105.285,176.771z"/>
	<path d="M110.582,172.614c0,1.084-0.597,1.647-2.842,1.647c-2.262,0-2.968-0.58-2.968-1.74c0-1.068,0.58-1.639,2.816-1.639
		C109.893,170.882,110.582,171.487,110.582,172.614z M105.285,172.572c0,0.698,0.555,1,2.337,1c1.917,0,2.438-0.294,2.438-1
		c0-0.698-0.563-1.009-2.354-1.009C105.807,171.562,105.285,171.865,105.285,172.572z"/>
	<path d="M110.515,170.061h-0.547c-1.917-1.858-2.808-2.362-3.564-2.362c-0.832,0-1.06,0.462-1.06,0.992
		c0,0.361,0.102,0.706,0.261,1.16l-0.462,0.118c-0.228-0.53-0.37-0.917-0.37-1.564c0-0.756,0.378-1.488,1.53-1.488
		c0.958,0,1.866,0.563,3.615,2.346v-2.497h0.597V170.061z"/>
</g>
<rect x="121.062" y="165.816" fill="none" width="8.75" height="17.25"/>
<g enable-background="new    ">
	<path d="M122.217,182.662h-0.547c-1.917-1.858-2.808-2.363-3.564-2.363c-0.832,0-1.06,0.462-1.06,0.992
		c0,0.361,0.102,0.706,0.261,1.16l-0.462,0.118c-0.228-0.53-0.37-0.917-0.37-1.564c0-0.756,0.378-1.488,1.53-1.488
		c0.958,0,1.866,0.563,3.615,2.346v-2.497h0.597V182.662z"/>
	<path d="M122.285,176.813c0,1.084-0.597,1.648-2.842,1.648c-2.262,0-2.968-0.581-2.968-1.741c0-1.068,0.58-1.639,2.816-1.639
		C121.595,175.082,122.285,175.687,122.285,176.813z M116.988,176.771c0,0.698,0.555,1,2.337,1c1.917,0,2.438-0.294,2.438-1
		c0-0.698-0.563-1.009-2.354-1.009C117.509,175.762,116.988,176.065,116.988,176.771z"/>
	<path d="M122.285,172.614c0,1.084-0.597,1.647-2.842,1.647c-2.262,0-2.968-0.58-2.968-1.74c0-1.068,0.58-1.639,2.816-1.639
		C121.595,170.882,122.285,171.487,122.285,172.614z M116.988,172.572c0,0.698,0.555,1,2.337,1c1.917,0,2.438-0.294,2.438-1
		c0-0.698-0.563-1.009-2.354-1.009C117.509,171.562,116.988,171.865,116.988,172.572z"/>
	<path d="M122.285,168.607c0,0.412-0.101,0.925-0.328,1.563l-0.412-0.067c0.126-0.581,0.193-1.034,0.193-1.396
		c0-0.866-0.378-1.152-1.144-1.152c-0.697,0-1.126,0.303-1.126,1.169v0.647h-0.521v-0.623c0-0.698-0.345-1.034-1.034-1.034
		c-0.555,0-0.892,0.236-0.892,0.976c0,0.336,0.085,0.866,0.202,1.186l-0.454,0.101c-0.143-0.345-0.294-0.883-0.294-1.53
		c0-1.017,0.605-1.471,1.354-1.471c0.757,0,1.193,0.378,1.32,0.875c0.042-0.698,0.706-1.06,1.37-1.06
		C121.73,166.791,122.285,167.396,122.285,168.607z"/>
</g>
<rect x="132.765" y="165.816" fill="none" width="8.75" height="17.25"/>
<g enable-background="new    ">
	<path d="M133.92,182.662h-0.547c-1.917-1.858-2.808-2.363-3.564-2.363c-0.832,0-1.06,0.462-1.06,0.992
		c0,0.361,0.102,0.706,0.261,1.16l-0.462,0.118c-0.228-0.53-0.37-0.917-0.37-1.564c0-0.756,0.378-1.488,1.53-1.488
		c0.958,0,1.866,0.563,3.615,2.346v-2.497h0.597V182.662z"/>
	<path d="M133.987,176.813c0,1.084-0.597,1.648-2.842,1.648c-2.262,0-2.968-0.581-2.968-1.741c0-1.068,0.58-1.639,2.816-1.639
		C133.298,175.082,133.987,175.687,133.987,176.813z M128.69,176.771c0,0.698,0.555,1,2.337,1c1.917,0,2.438-0.294,2.438-1
		c0-0.698-0.563-1.009-2.354-1.009C129.212,175.762,128.69,176.065,128.69,176.771z"/>
	<path d="M133.987,172.614c0,1.084-0.597,1.647-2.842,1.647c-2.262,0-2.968-0.58-2.968-1.74c0-1.068,0.58-1.639,2.816-1.639
		C133.298,170.882,133.987,171.487,133.987,172.614z M128.69,172.572c0,0.698,0.555,1,2.337,1c1.917,0,2.438-0.294,2.438-1
		c0-0.698-0.563-1.009-2.354-1.009C129.212,171.562,128.69,171.865,128.69,172.572z"/>
	<path d="M132.6,167.211h1.32v0.673h-1.32v2.354h-0.521c-1.312-0.639-2.725-1.404-3.834-2.085v-0.942h3.758v-0.681h0.597V167.211z
		 M128.816,167.884c0.866,0.513,2.035,1.194,3.187,1.749v-1.749H128.816z"/>
</g>
<rect x="144.467" y="161.105" fill="none" width="8.75" height="21.961"/>
<g enable-background="new    ">
	<path d="M145.623,182.662h-0.547c-1.918-1.858-2.809-2.363-3.564-2.363c-0.832,0-1.061,0.462-1.061,0.992
		c0,0.361,0.102,0.706,0.262,1.16l-0.463,0.118c-0.227-0.53-0.369-0.917-0.369-1.564c0-0.756,0.377-1.488,1.529-1.488
		c0.959,0,1.867,0.563,3.615,2.346v-2.497h0.598V182.662z"/>
	<path d="M145.689,176.813c0,1.084-0.596,1.648-2.842,1.648c-2.262,0-2.967-0.581-2.967-1.741c0-1.068,0.58-1.639,2.816-1.639
		C145,175.082,145.689,175.687,145.689,176.813z M140.392,176.771c0,0.698,0.555,1,2.338,1c1.916,0,2.438-0.294,2.438-1
		c0-0.698-0.562-1.009-2.354-1.009C140.914,175.762,140.392,176.065,140.392,176.771z"/>
	<path d="M145.689,172.614c0,1.084-0.596,1.647-2.842,1.647c-2.262,0-2.967-0.58-2.967-1.74c0-1.068,0.58-1.639,2.816-1.639
		C145,170.882,145.689,171.487,145.689,172.614z M140.392,172.572c0,0.698,0.555,1,2.338,1c1.916,0,2.438-0.294,2.438-1
		c0-0.698-0.562-1.009-2.354-1.009C140.914,171.562,140.392,171.865,140.392,172.572z"/>
	<path d="M145.689,168.632c0,0.404-0.092,0.917-0.311,1.539l-0.404-0.059c0.109-0.563,0.186-1.051,0.186-1.438
		c0-0.79-0.32-1.16-1.193-1.16c-0.766,0-1.244,0.353-1.244,1.236c0,0.378,0.041,0.731,0.125,1.161l-2.9-0.177v-2.556h0.588v2.01
		l1.699,0.109c-0.043-0.177-0.059-0.496-0.059-0.782c0-1.144,0.664-1.732,1.707-1.732
		C145.101,166.782,145.689,167.379,145.689,168.632z"/>
	<path d="M142.275,162.894l-0.705,1.026l1.236-0.084v0.647l-1.236-0.084l0.705,1.026l-0.529,0.294l-0.537-1.11l-0.547,1.11
		l-0.529-0.294l0.705-1.026l-1.234,0.084v-0.647l1.234,0.076l-0.705-1.018l0.529-0.303l0.537,1.11l0.547-1.11L142.275,162.894z"/>
</g>
<rect x="156.169" y="161.105" fill="none" width="8.75" height="21.961"/>
<g enable-background="new    ">
	<path d="M157.325,182.662h-0.547c-1.917-1.858-2.808-2.363-3.564-2.363c-0.832,0-1.06,0.462-1.06,0.992
		c0,0.361,0.102,0.706,0.261,1.16l-0.462,0.118c-0.228-0.53-0.37-0.917-0.37-1.564c0-0.756,0.378-1.488,1.53-1.488
		c0.958,0,1.866,0.563,3.615,2.346v-2.497h0.597V182.662z"/>
	<path d="M157.392,176.813c0,1.084-0.597,1.648-2.842,1.648c-2.262,0-2.968-0.581-2.968-1.741c0-1.068,0.58-1.639,2.816-1.639
		C156.703,175.082,157.392,175.687,157.392,176.813z M152.095,176.771c0,0.698,0.555,1,2.337,1c1.917,0,2.438-0.294,2.438-1
		c0-0.698-0.563-1.009-2.354-1.009C152.617,175.762,152.095,176.065,152.095,176.771z"/>
	<path d="M157.392,172.614c0,1.084-0.597,1.647-2.842,1.647c-2.262,0-2.968-0.58-2.968-1.74c0-1.068,0.58-1.639,2.816-1.639
		C156.703,170.882,157.392,171.487,157.392,172.614z M152.095,172.572c0,0.698,0.555,1,2.337,1c1.917,0,2.438-0.294,2.438-1
		c0-0.698-0.563-1.009-2.354-1.009C152.617,171.562,152.095,171.865,152.095,172.572z"/>
	<path d="M157.392,168.296c0,1.084-0.538,1.665-2.707,1.665c-2.472,0-3.103-0.875-3.103-1.909c0-0.378,0.075-0.756,0.269-1.261
		l0.412,0.076c-0.093,0.362-0.159,0.749-0.159,1.118c0,0.799,0.714,1.287,2.312,1.303c-0.261-0.454-0.403-0.815-0.403-1.261
		c0-0.883,0.563-1.379,1.521-1.379C156.686,166.648,157.392,167.304,157.392,168.296z M154.542,168.262
		c0,0.294,0.102,0.58,0.354,1.017h0.033c1.379,0,1.951-0.328,1.951-1.026c0-0.622-0.446-0.925-1.228-0.925
		C154.92,167.329,154.542,167.606,154.542,168.262z"/>
</g>
<rect x="167.871" y="161.105" fill="none" width="8.75" height="21.961"/>
<g enable-background="new    ">
	<path d="M169.027,182.662h-0.547c-1.917-1.858-2.808-2.363-3.564-2.363c-0.832,0-1.06,0.462-1.06,0.992
		c0,0.361,0.102,0.706,0.261,1.16l-0.462,0.118c-0.228-0.53-0.37-0.917-0.37-1.564c0-0.756,0.378-1.488,1.53-1.488
		c0.958,0,1.866,0.563,3.615,2.346v-2.497h0.597V182.662z"/>
	<path d="M169.094,176.813c0,1.084-0.597,1.648-2.842,1.648c-2.262,0-2.968-0.581-2.968-1.741c0-1.068,0.58-1.639,2.816-1.639
		C168.405,175.082,169.094,175.687,169.094,176.813z M163.797,176.771c0,0.698,0.555,1,2.337,1c1.917,0,2.438-0.294,2.438-1
		c0-0.698-0.563-1.009-2.354-1.009C164.319,175.762,163.797,176.065,163.797,176.771z"/>
	<path d="M169.094,172.614c0,1.084-0.597,1.647-2.842,1.647c-2.262,0-2.968-0.58-2.968-1.74c0-1.068,0.58-1.639,2.816-1.639
		C168.405,170.882,169.094,171.487,169.094,172.614z M163.797,172.572c0,0.698,0.555,1,2.337,1c1.917,0,2.438-0.294,2.438-1
		c0-0.698-0.563-1.009-2.354-1.009C164.319,171.562,163.797,171.865,163.797,172.572z"/>
	<path d="M166.429,167.791c0.874,0.404,1.934,0.976,2.665,1.404l-0.168,0.454l-4.986-2.262v2.707h-0.588v-3.514h0.513
		L166.429,167.791z"/>
</g>
<rect x="179.573" y="154.066" fill="none" width="8.75" height="29"/>
<g enable-background="new    ">
	<path d="M180.728,182.662h-0.547c-1.917-1.858-2.808-2.363-3.564-2.363c-0.832,0-1.06,0.462-1.06,0.992
		c0,0.361,0.102,0.706,0.261,1.16l-0.462,0.118c-0.228-0.53-0.37-0.917-0.37-1.564c0-0.756,0.378-1.488,1.53-1.488
		c0.958,0,1.866,0.563,3.615,2.346v-2.497h0.597V182.662z"/>
	<path d="M180.795,176.813c0,1.084-0.597,1.648-2.842,1.648c-2.262,0-2.968-0.581-2.968-1.741c0-1.068,0.58-1.639,2.816-1.639
		C180.106,175.082,180.795,175.687,180.795,176.813z M175.499,176.771c0,0.698,0.555,1,2.337,1c1.917,0,2.438-0.294,2.438-1
		c0-0.698-0.563-1.009-2.354-1.009C176.02,175.762,175.499,176.065,175.499,176.771z"/>
	<path d="M180.795,172.614c0,1.084-0.597,1.647-2.842,1.647c-2.262,0-2.968-0.58-2.968-1.74c0-1.068,0.58-1.639,2.816-1.639
		C180.106,170.882,180.795,171.487,180.795,172.614z M175.499,172.572c0,0.698,0.555,1,2.337,1c1.917,0,2.438-0.294,2.438-1
		c0-0.698-0.563-1.009-2.354-1.009C176.02,171.562,175.499,171.865,175.499,172.572z"/>
	<path d="M180.795,168.43c0,1.16-0.563,1.665-1.379,1.665c-0.723,0-1.177-0.471-1.563-1.126c-0.37,0.656-0.833,1.009-1.463,1.009
		c-0.816,0-1.404-0.588-1.404-1.665c0-1.168,0.58-1.555,1.312-1.555c0.631,0,1.034,0.37,1.446,1.109
		c0.437-0.824,0.841-1.236,1.58-1.236C180.148,166.631,180.795,167.186,180.795,168.43z M175.473,168.405
		c0,0.555,0.337,0.9,0.832,0.9c0.505,0,0.841-0.277,1.186-0.925c-0.369-0.665-0.664-0.958-1.093-0.958
		C175.792,167.421,175.473,167.707,175.473,168.405z M178.113,168.48c0.388,0.647,0.732,0.942,1.211,0.942
		c0.614,0,0.976-0.37,0.976-1.102c0-0.605-0.361-1.017-0.883-1.017C178.836,167.304,178.5,167.715,178.113,168.48z"/>
	<path d="M177.381,162.894l-0.706,1.026l1.236-0.084v0.647l-1.236-0.084l0.706,1.026l-0.529,0.294l-0.538-1.11l-0.547,1.11
		l-0.529-0.294l0.706-1.026l-1.235,0.084v-0.647l1.235,0.076l-0.706-1.018l0.529-0.303l0.538,1.11l0.547-1.11L177.381,162.894z"/>
	<path d="M177.381,158.693l-0.706,1.026l1.236-0.084v0.647l-1.236-0.084l0.706,1.026l-0.529,0.294l-0.538-1.11l-0.547,1.11
		l-0.529-0.294l0.706-1.026l-1.235,0.084v-0.647l1.235,0.076l-0.706-1.018l0.529-0.303l0.538,1.11l0.547-1.11L177.381,158.693z"/>
</g>
<rect x="191.275" y="161.105" fill="none" width="8.75" height="21.961"/>
<g enable-background="new    ">
	<path d="M192.43,182.662h-0.547c-1.917-1.858-2.808-2.363-3.564-2.363c-0.832,0-1.06,0.462-1.06,0.992
		c0,0.361,0.102,0.706,0.261,1.16l-0.462,0.118c-0.228-0.53-0.37-0.917-0.37-1.564c0-0.756,0.378-1.488,1.53-1.488
		c0.958,0,1.866,0.563,3.615,2.346v-2.497h0.597V182.662z"/>
	<path d="M192.498,176.813c0,1.084-0.597,1.648-2.842,1.648c-2.262,0-2.968-0.581-2.968-1.741c0-1.068,0.58-1.639,2.816-1.639
		C191.808,175.082,192.498,175.687,192.498,176.813z M187.201,176.771c0,0.698,0.555,1,2.337,1c1.917,0,2.438-0.294,2.438-1
		c0-0.698-0.563-1.009-2.354-1.009C187.722,175.762,187.201,176.065,187.201,176.771z"/>
	<path d="M192.498,172.614c0,1.084-0.597,1.647-2.842,1.647c-2.262,0-2.968-0.58-2.968-1.74c0-1.068,0.58-1.639,2.816-1.639
		C191.808,170.882,192.498,171.487,192.498,172.614z M187.201,172.572c0,0.698,0.555,1,2.337,1c1.917,0,2.438-0.294,2.438-1
		c0-0.698-0.563-1.009-2.354-1.009C187.722,171.562,187.201,171.865,187.201,172.572z"/>
	<path d="M192.498,168.716c0,0.37-0.067,0.756-0.277,1.328l-0.412-0.067c0.109-0.454,0.168-0.832,0.168-1.202
		c0-0.791-0.655-1.32-2.304-1.337c0.261,0.454,0.403,0.807,0.403,1.261c0,0.883-0.562,1.371-1.521,1.371
		c-1.151,0-1.866-0.647-1.866-1.64c0-1.084,0.546-1.673,2.716-1.673C191.909,166.757,192.498,167.673,192.498,168.716z
		 M189.16,167.446c-1.37,0-1.959,0.328-1.959,1.026c0,0.622,0.462,0.925,1.236,0.925c0.731,0,1.109-0.277,1.109-0.941
		c0-0.286-0.101-0.58-0.354-1.009H189.16z"/>
</g>
<rect x="202.976" y="161.105" fill="none" width="8.75" height="21.961"/>
<g enable-background="new    ">
	<path d="M204.132,182.662h-0.547c-1.918-1.858-2.809-2.363-3.564-2.363c-0.832,0-1.061,0.462-1.061,0.992
		c0,0.361,0.102,0.706,0.262,1.16l-0.463,0.118c-0.227-0.53-0.369-0.917-0.369-1.564c0-0.756,0.377-1.488,1.529-1.488
		c0.959,0,1.867,0.563,3.615,2.346v-2.497h0.598V182.662z"/>
	<path d="M204.199,176.813c0,1.084-0.596,1.648-2.842,1.648c-2.262,0-2.967-0.581-2.967-1.741c0-1.068,0.58-1.639,2.816-1.639
		C203.509,175.082,204.199,175.687,204.199,176.813z M198.902,176.771c0,0.698,0.555,1,2.338,1c1.916,0,2.438-0.294,2.438-1
		c0-0.698-0.562-1.009-2.354-1.009C199.423,175.762,198.902,176.065,198.902,176.771z"/>
	<path d="M204.132,174.051h-0.547v-1.278h-4.465l0.455,1.144l-0.412,0.168l-0.707-1.471v-0.555h5.129v-1.144h0.547V174.051z"/>
	<path d="M204.199,168.414c0,1.084-0.596,1.647-2.842,1.647c-2.262,0-2.967-0.58-2.967-1.74c0-1.068,0.58-1.639,2.816-1.639
		C203.509,166.682,204.199,167.287,204.199,168.414z M198.902,168.372c0,0.698,0.555,1,2.338,1c1.916,0,2.438-0.294,2.438-1
		c0-0.698-0.562-1.009-2.354-1.009C199.423,167.362,198.902,167.665,198.902,168.372z"/>
</g>
<rect x="214.678" y="161.105" fill="none" width="8.75" height="21.961"/>
<g enable-background="new    ">
	<path d="M215.833,182.662h-0.547c-1.917-1.858-2.808-2.363-3.564-2.363c-0.832,0-1.06,0.462-1.06,0.992
		c0,0.361,0.102,0.706,0.261,1.16l-0.462,0.118c-0.228-0.53-0.37-0.917-0.37-1.564c0-0.756,0.378-1.488,1.53-1.488
		c0.958,0,1.866,0.563,3.615,2.346v-2.497h0.597V182.662z"/>
	<path d="M215.901,176.813c0,1.084-0.597,1.648-2.842,1.648c-2.262,0-2.968-0.581-2.968-1.741c0-1.068,0.58-1.639,2.816-1.639
		C215.211,175.082,215.901,175.687,215.901,176.813z M210.604,176.771c0,0.698,0.555,1,2.337,1c1.917,0,2.438-0.294,2.438-1
		c0-0.698-0.563-1.009-2.354-1.009C211.125,175.762,210.604,176.065,210.604,176.771z"/>
	<path d="M215.833,174.051h-0.547v-1.278h-4.464l0.454,1.144l-0.412,0.168l-0.706-1.471v-0.555h5.128v-1.144h0.547V174.051z"/>
	<path d="M215.833,169.851h-0.547v-1.278h-4.464l0.454,1.144l-0.412,0.168l-0.706-1.471v-0.555h5.128v-1.144h0.547V169.851z"/>
</g>
<rect x="226.38" y="161.105" fill="none" width="8.75" height="21.961"/>
<g enable-background="new    ">
	<path d="M227.536,182.662h-0.547c-1.917-1.858-2.808-2.363-3.564-2.363c-0.832,0-1.06,0.462-1.06,0.992
		c0,0.361,0.102,0.706,0.261,1.16l-0.462,0.118c-0.228-0.53-0.37-0.917-0.37-1.564c0-0.756,0.378-1.488,1.53-1.488
		c0.958,0,1.866,0.563,3.615,2.346v-2.497h0.597V182.662z"/>
	<path d="M227.603,176.813c0,1.084-0.597,1.648-2.842,1.648c-2.262,0-2.968-0.581-2.968-1.741c0-1.068,0.58-1.639,2.816-1.639
		C226.914,175.082,227.603,175.687,227.603,176.813z M222.306,176.771c0,0.698,0.555,1,2.337,1c1.917,0,2.438-0.294,2.438-1
		c0-0.698-0.563-1.009-2.354-1.009C222.828,175.762,222.306,176.065,222.306,176.771z"/>
	<path d="M227.536,174.051h-0.547v-1.278h-4.464l0.454,1.144l-0.412,0.168l-0.706-1.471v-0.555h5.128v-1.144h0.547V174.051z"/>
	<path d="M227.536,170.061h-0.547c-1.917-1.858-2.808-2.362-3.564-2.362c-0.832,0-1.06,0.462-1.06,0.992
		c0,0.361,0.102,0.706,0.261,1.16l-0.462,0.118c-0.228-0.53-0.37-0.917-0.37-1.564c0-0.756,0.378-1.488,1.53-1.488
		c0.958,0,1.866,0.563,3.615,2.346v-2.497h0.597V170.061z"/>
</g>
<rect x="238.083" y="161.105" fill="none" width="8.75" height="21.961"/>
<g enable-background="new    ">
	<path d="M239.238,182.662h-0.547c-1.916-1.858-2.807-2.363-3.564-2.363c-0.832,0-1.059,0.462-1.059,0.992
		c0,0.361,0.102,0.706,0.26,1.16l-0.461,0.118c-0.229-0.53-0.371-0.917-0.371-1.564c0-0.756,0.379-1.488,1.531-1.488
		c0.957,0,1.865,0.563,3.615,2.346v-2.497h0.596V182.662z"/>
	<path d="M239.306,176.813c0,1.084-0.598,1.648-2.842,1.648c-2.262,0-2.969-0.581-2.969-1.741c0-1.068,0.58-1.639,2.816-1.639
		C238.617,175.082,239.306,175.687,239.306,176.813z M234.009,176.771c0,0.698,0.555,1,2.336,1c1.918,0,2.439-0.294,2.439-1
		c0-0.698-0.564-1.009-2.355-1.009C234.531,175.762,234.009,176.065,234.009,176.771z"/>
	<path d="M239.238,174.051h-0.547v-1.278h-4.463l0.453,1.144l-0.412,0.168l-0.705-1.471v-0.555h5.127v-1.144h0.547V174.051z"/>
	<path d="M239.306,168.607c0,0.412-0.102,0.925-0.328,1.563l-0.412-0.067c0.125-0.581,0.193-1.034,0.193-1.396
		c0-0.866-0.379-1.152-1.145-1.152c-0.697,0-1.125,0.303-1.125,1.169v0.647h-0.521v-0.623c0-0.698-0.346-1.034-1.035-1.034
		c-0.555,0-0.891,0.236-0.891,0.976c0,0.336,0.084,0.866,0.201,1.186l-0.453,0.101c-0.143-0.345-0.295-0.883-0.295-1.53
		c0-1.017,0.605-1.471,1.354-1.471c0.758,0,1.193,0.378,1.32,0.875c0.043-0.698,0.707-1.06,1.371-1.06
		C238.751,166.791,239.306,167.396,239.306,168.607z"/>
</g>
<rect x="249.788" y="161.105" fill="none" width="8.75" height="21.961"/>
<g enable-background="new    ">
	<path d="M250.942,182.662h-0.547c-1.917-1.858-2.808-2.363-3.564-2.363c-0.832,0-1.06,0.462-1.06,0.992
		c0,0.361,0.102,0.706,0.261,1.16l-0.462,0.118c-0.228-0.53-0.37-0.917-0.37-1.564c0-0.756,0.378-1.488,1.53-1.488
		c0.958,0,1.866,0.563,3.615,2.346v-2.497h0.597V182.662z"/>
	<path d="M251.009,176.813c0,1.084-0.597,1.648-2.842,1.648c-2.262,0-2.968-0.581-2.968-1.741c0-1.068,0.58-1.639,2.816-1.639
		C250.32,175.082,251.009,175.687,251.009,176.813z M245.712,176.771c0,0.698,0.555,1,2.337,1c1.917,0,2.438-0.294,2.438-1
		c0-0.698-0.563-1.009-2.354-1.009C246.234,175.762,245.712,176.065,245.712,176.771z"/>
	<path d="M250.942,174.051h-0.547v-1.278h-4.464l0.454,1.144l-0.412,0.168l-0.706-1.471v-0.555h5.128v-1.144h0.547V174.051z"/>
	<path d="M249.622,167.211h1.32v0.673h-1.32v2.354h-0.521c-1.312-0.639-2.725-1.404-3.834-2.085v-0.942h3.758v-0.681h0.597V167.211z
		 M245.838,167.884c0.866,0.513,2.035,1.194,3.187,1.749v-1.749H245.838z"/>
</g>
<g enable-background="new    ">
	<path d="M262.645,182.662h-0.547c-1.917-1.858-2.808-2.363-3.564-2.363c-0.832,0-1.06,0.462-1.06,0.992
		c0,0.361,0.102,0.706,0.261,1.16l-0.462,0.118c-0.228-0.53-0.37-0.917-0.37-1.564c0-0.756,0.378-1.488,1.53-1.488
		c0.958,0,1.866,0.563,3.615,2.346v-2.497h0.597V182.662z"/>
	<path d="M262.712,176.813c0,1.084-0.597,1.648-2.842,1.648c-2.262,0-2.968-0.581-2.968-1.741c0-1.068,0.58-1.639,2.816-1.639
		C262.023,175.082,262.712,175.687,262.712,176.813z M257.416,176.771c0,0.698,0.555,1,2.337,1c1.917,0,2.438-0.294,2.438-1
		c0-0.698-0.563-1.009-2.354-1.009C257.937,175.762,257.416,176.065,257.416,176.771z"/>
	<path d="M262.645,174.051h-0.547v-1.278h-4.464l0.454,1.144l-0.412,0.168l-0.706-1.471v-0.555h5.128v-1.144h0.547V174.051z"/>
	<path d="M262.712,168.632c0,0.404-0.093,0.917-0.312,1.539l-0.403-0.059c0.109-0.563,0.185-1.051,0.185-1.438
		c0-0.79-0.319-1.16-1.193-1.16c-0.766,0-1.244,0.353-1.244,1.236c0,0.378,0.042,0.731,0.126,1.161l-2.9-0.177v-2.556h0.588v2.01
		l1.698,0.109c-0.042-0.177-0.059-0.496-0.059-0.782c0-1.144,0.664-1.732,1.707-1.732
		C262.124,166.782,262.712,167.379,262.712,168.632z"/>
</g>
<rect x="3.688" y="209.159" fill="none" width="158.884" height="6.75"/>
<g enable-background="new    ">
	<path d="M4.31,215.114v-5.675h1.135v5.675H4.31z"/>
	<path d="M9.722,215.114l-2.093-4.044v4.044H6.687v-5.675h1.396l1.884,3.514v-3.514h0.941v5.675H9.722z"/>
	<path d="M15.182,215.114l-2.093-4.044v4.044h-0.942v-5.675h1.396l1.884,3.514v-3.514h0.941v5.675H15.182z"/>
	<path d="M17.606,215.114v-5.675h1.135v5.675H17.606z"/>
	<path d="M23.019,215.114l-2.093-4.044v4.044h-0.942v-5.675h1.396l1.884,3.514v-3.514h0.941v5.675H23.019z"/>
	<path d="M27.201,215.207c-1.329,0-2.051-0.925-2.051-2.816c0-2.026,0.967-3.044,2.329-3.044c0.707,0,1.27,0.354,1.614,0.85
		l-0.496,0.471c-0.353-0.27-0.672-0.421-1.059-0.421c-0.749,0-1.211,0.605-1.211,1.959c0,1.539,0.412,2.094,1.06,2.094
		c0.286,0,0.504-0.093,0.63-0.186v-1.429h-0.672v-0.832h1.782v2.682C28.664,214.929,28.033,215.207,27.201,215.207z"/>
	<path d="M31.585,215.198c-0.647,0-1.228-0.235-1.69-0.563l0.286-0.588c0.454,0.21,0.899,0.319,1.202,0.319
		c0.589,0,0.958-0.27,0.958-0.731c0-1.11-2.371-0.892-2.371-2.674c0-0.976,0.756-1.605,1.816-1.605c0.53,0,1.042,0.143,1.521,0.462
		l-0.269,0.589c-0.361-0.144-0.731-0.228-1.067-0.228c-0.538,0-0.799,0.27-0.799,0.647c0,1.11,2.43,0.925,2.43,2.674
		C33.603,214.458,32.88,215.198,31.585,215.198z"/>
	<path d="M37.801,213.206h-0.218v1.908h-1.135v-5.675c0.53,0,1.068-0.018,1.648-0.018c1.539,0,2.102,0.698,2.102,1.783
		C40.197,212.339,39.575,213.206,37.801,213.206z M37.918,210.254h-0.336v2.118h0.345c0.748,0,1.084-0.395,1.084-1.067
		C39.012,210.625,38.709,210.254,37.918,210.254z"/>
	<path d="M40.992,215.114v-5.675h1.135v5.675H40.992z"/>
	<path d="M45.269,210.313v4.801h-1.135v-4.801h-1.27v-0.874h3.683v0.874H45.269z"/>
	<path d="M48.989,215.207c-1.429,0-2.144-0.934-2.144-2.825c0-1.984,0.824-3.035,2.245-3.035c0.555,0,1.152,0.244,1.513,0.925
		l-0.521,0.505c-0.235-0.345-0.521-0.521-0.866-0.521c-0.723,0-1.186,0.697-1.186,1.967c0,1.505,0.42,2.068,1.161,2.068
		c0.395,0,0.714-0.177,1.042-0.538l0.487,0.547C50.334,214.878,49.696,215.207,48.989,215.207z"/>
	<path d="M54.66,215.114v-2.522h-2.018v2.522h-1.135v-5.675h1.135v2.202h2.018v-2.202h1.135v5.675H54.66z"/>
	<path d="M57.035,215.114v-5.675h2.943v0.865H58.17v1.497h1.497v0.832H58.17v1.606h1.841v0.874H57.035z"/>
	<path d="M62.336,215.139c-0.445,0-0.917-0.017-1.345-0.025v-5.675c0.572,0,1.076-0.018,1.598-0.018
		c1.799,0,2.446,1.178,2.446,2.699C65.035,214.021,64.195,215.139,62.336,215.139z M62.513,210.271c-0.126,0-0.261,0-0.387,0.009
		v3.977c0.134,0.008,0.269,0.017,0.395,0.017c0.899,0,1.32-0.715,1.32-2.026C63.841,210.96,63.446,210.271,62.513,210.271z"/>
	<path d="M69.518,215.13c-0.462,0-1-0.017-1.53-0.017v-5.675h1.867c1.202,0,1.724,0.546,1.724,1.337
		c0,0.622-0.303,1.009-0.749,1.219c0.597,0.109,1.042,0.622,1.042,1.312C71.872,214.307,71.174,215.13,69.518,215.13z
		 M69.644,210.229h-0.546v1.521h0.429c0.673,0,0.908-0.395,0.908-0.807S70.199,210.229,69.644,210.229z M69.619,212.524h-0.521
		v1.766c0.126,0.018,0.387,0.034,0.58,0.034c0.715,0,1-0.379,1-0.934C70.678,212.911,70.401,212.524,69.619,212.524z"/>
	<path d="M74.608,212.743v2.371h-1.135v-2.371c-0.589-0.983-1.068-2.001-1.53-3.304h1.244c0.286,0.832,0.58,1.547,0.942,2.262
		c0.361-0.682,0.647-1.497,0.883-2.262h1.126C75.685,210.708,75.197,211.827,74.608,212.743z"/>
	<path d="M80.051,215.198c-0.647,0-1.228-0.235-1.69-0.563l0.286-0.588c0.454,0.21,0.899,0.319,1.202,0.319
		c0.589,0,0.958-0.27,0.958-0.731c0-1.11-2.371-0.892-2.371-2.674c0-0.976,0.756-1.605,1.816-1.605c0.53,0,1.042,0.143,1.521,0.462
		l-0.269,0.589c-0.361-0.144-0.731-0.228-1.067-0.228c-0.538,0-0.799,0.27-0.799,0.647c0,1.11,2.43,0.925,2.43,2.674
		C82.069,214.458,81.346,215.198,80.051,215.198z"/>
	<path d="M82.897,215.114v-5.675h2.943v0.865h-1.808v1.497h1.497v0.832h-1.497v1.606h1.841v0.874H82.897z"/>
	<path d="M89.754,215.114c-0.067-0.319-0.16-0.79-0.244-1.118h-1.875c-0.076,0.319-0.168,0.731-0.236,1.118h-1.084
		c0.42-1.892,0.976-3.851,1.572-5.675h1.488c0.656,1.941,1.152,3.767,1.606,5.675H89.754z M88.543,210.439
		c-0.235,0.808-0.521,1.85-0.731,2.707h1.513C89.09,212.272,88.821,211.314,88.543,210.439z"/>
	<path d="M92.996,215.198c-0.647,0-1.228-0.235-1.69-0.563l0.286-0.588c0.454,0.21,0.899,0.319,1.202,0.319
		c0.589,0,0.958-0.27,0.958-0.731c0-1.11-2.371-0.892-2.371-2.674c0-0.976,0.756-1.605,1.816-1.605c0.53,0,1.042,0.143,1.521,0.462
		l-0.269,0.589c-0.361-0.144-0.731-0.228-1.067-0.228c-0.538,0-0.799,0.27-0.799,0.647c0,1.11,2.43,0.925,2.43,2.674
		C95.013,214.458,94.29,215.198,92.996,215.198z"/>
	<path d="M97.826,215.207c-1.446,0-2.278-0.731-2.278-2.834c0-2.11,0.975-3.026,2.413-3.026c1.48,0,2.287,0.782,2.287,2.816
		C100.247,214.29,99.271,215.207,97.826,215.207z M97.868,210.212c-0.664,0-1.126,0.454-1.126,1.967c0,1.656,0.42,2.161,1.177,2.161
		c0.664,0,1.135-0.463,1.135-1.992C99.053,210.716,98.625,210.212,97.868,210.212z"/>
	<path d="M104.219,215.114l-2.093-4.044v4.044h-0.942v-5.675h1.396l1.884,3.514v-3.514h0.941v5.675H104.219z"/>
</g>
<rect x="27.17" y="374.985" fill="none" width="8.75" height="17.25"/>
<g enable-background="new    ">
	<path d="M28.354,391.622h-0.547v-1.278h-4.464l0.454,1.144l-0.412,0.168l-0.706-1.471v-0.556h5.128v-1.144h0.547V391.622z"/>
	<path d="M28.421,386.286c0,0.37-0.067,0.757-0.277,1.328l-0.412-0.066c0.109-0.454,0.168-0.832,0.168-1.203
		c0-0.79-0.655-1.319-2.304-1.336c0.261,0.453,0.403,0.807,0.403,1.261c0,0.883-0.562,1.37-1.521,1.37
		c-1.151,0-1.866-0.646-1.866-1.639c0-1.085,0.546-1.674,2.716-1.674C27.832,384.327,28.421,385.243,28.421,386.286z
		 M25.083,385.016c-1.37,0-1.959,0.328-1.959,1.025c0,0.623,0.462,0.926,1.236,0.926c0.731,0,1.109-0.277,1.109-0.941
		c0-0.287-0.101-0.58-0.354-1.01H25.083z"/>
	<path d="M28.421,382.086c0,0.369-0.067,0.756-0.277,1.328l-0.412-0.067c0.109-0.454,0.168-0.832,0.168-1.202
		c0-0.791-0.655-1.32-2.304-1.337c0.261,0.454,0.403,0.808,0.403,1.261c0,0.883-0.562,1.371-1.521,1.371
		c-1.151,0-1.866-0.647-1.866-1.64c0-1.085,0.546-1.673,2.716-1.673C27.832,380.127,28.421,381.043,28.421,382.086z M25.083,380.817
		c-1.37,0-1.959,0.328-1.959,1.025c0,0.622,0.462,0.925,1.236,0.925c0.731,0,1.109-0.277,1.109-0.941
		c0-0.286-0.101-0.58-0.354-1.009H25.083z"/>
	<path d="M28.421,377.801c0,0.404-0.093,0.917-0.312,1.539l-0.403-0.059c0.109-0.563,0.185-1.051,0.185-1.438
		c0-0.791-0.319-1.16-1.193-1.16c-0.766,0-1.244,0.353-1.244,1.235c0,0.378,0.042,0.731,0.126,1.161l-2.9-0.178v-2.556h0.588v2.01
		l1.698,0.109c-0.042-0.177-0.059-0.496-0.059-0.782c0-1.144,0.664-1.732,1.707-1.732C27.832,375.952,28.421,376.549,28.421,377.801
		z"/>
</g>
<rect x="38.816" y="374.985" fill="none" width="8.75" height="17.25"/>
<g enable-background="new    ">
	<path d="M40,391.622h-0.547v-1.278h-4.464l0.454,1.144l-0.412,0.168l-0.706-1.471v-0.556h5.128v-1.144H40V391.622z"/>
	<path d="M40.067,386.286c0,0.37-0.067,0.757-0.277,1.328l-0.412-0.066c0.109-0.454,0.168-0.832,0.168-1.203
		c0-0.79-0.655-1.319-2.304-1.336c0.261,0.453,0.403,0.807,0.403,1.261c0,0.883-0.562,1.37-1.521,1.37
		c-1.151,0-1.866-0.646-1.866-1.639c0-1.085,0.546-1.674,2.716-1.674C39.478,384.327,40.067,385.243,40.067,386.286z
		 M36.729,385.016c-1.37,0-1.959,0.328-1.959,1.025c0,0.623,0.462,0.926,1.236,0.926c0.731,0,1.109-0.277,1.109-0.941
		c0-0.287-0.101-0.58-0.354-1.01H36.729z"/>
	<path d="M40.067,382.086c0,0.369-0.067,0.756-0.277,1.328l-0.412-0.067c0.109-0.454,0.168-0.832,0.168-1.202
		c0-0.791-0.655-1.32-2.304-1.337c0.261,0.454,0.403,0.808,0.403,1.261c0,0.883-0.562,1.371-1.521,1.371
		c-1.151,0-1.866-0.647-1.866-1.64c0-1.085,0.546-1.673,2.716-1.673C39.478,380.127,40.067,381.043,40.067,382.086z M36.729,380.817
		c-1.37,0-1.959,0.328-1.959,1.025c0,0.622,0.462,0.925,1.236,0.925c0.731,0,1.109-0.277,1.109-0.941
		c0-0.286-0.101-0.58-0.354-1.009H36.729z"/>
	<path d="M40.067,377.465c0,1.085-0.538,1.665-2.707,1.665c-2.472,0-3.103-0.874-3.103-1.909c0-0.378,0.075-0.756,0.269-1.261
		l0.412,0.075c-0.093,0.362-0.159,0.749-0.159,1.119c0,0.799,0.714,1.286,2.312,1.303c-0.261-0.453-0.403-0.815-0.403-1.261
		c0-0.883,0.563-1.379,1.521-1.379C39.361,375.818,40.067,376.473,40.067,377.465z M37.216,377.432c0,0.294,0.102,0.58,0.354,1.018
		h0.033c1.379,0,1.951-0.328,1.951-1.026c0-0.622-0.446-0.925-1.228-0.925C37.595,376.499,37.216,376.776,37.216,377.432z"/>
</g>
<rect x="50.462" y="374.985" fill="none" width="8.75" height="17.25"/>
<g enable-background="new    ">
	<path d="M51.646,391.622h-0.547v-1.278h-4.464l0.454,1.144l-0.412,0.168l-0.706-1.471v-0.556h5.128v-1.144h0.547V391.622z"/>
	<path d="M51.713,386.286c0,0.37-0.067,0.757-0.277,1.328l-0.412-0.066c0.109-0.454,0.168-0.832,0.168-1.203
		c0-0.79-0.655-1.319-2.304-1.336c0.261,0.453,0.403,0.807,0.403,1.261c0,0.883-0.562,1.37-1.521,1.37
		c-1.151,0-1.866-0.646-1.866-1.639c0-1.085,0.546-1.674,2.716-1.674C51.124,384.327,51.713,385.243,51.713,386.286z
		 M48.375,385.016c-1.37,0-1.959,0.328-1.959,1.025c0,0.623,0.462,0.926,1.236,0.926c0.731,0,1.109-0.277,1.109-0.941
		c0-0.287-0.101-0.58-0.354-1.01H48.375z"/>
	<path d="M51.713,382.086c0,0.369-0.067,0.756-0.277,1.328l-0.412-0.067c0.109-0.454,0.168-0.832,0.168-1.202
		c0-0.791-0.655-1.32-2.304-1.337c0.261,0.454,0.403,0.808,0.403,1.261c0,0.883-0.562,1.371-1.521,1.371
		c-1.151,0-1.866-0.647-1.866-1.64c0-1.085,0.546-1.673,2.716-1.673C51.124,380.127,51.713,381.043,51.713,382.086z M48.375,380.817
		c-1.37,0-1.959,0.328-1.959,1.025c0,0.622,0.462,0.925,1.236,0.925c0.731,0,1.109-0.277,1.109-0.941
		c0-0.286-0.101-0.58-0.354-1.009H48.375z"/>
	<path d="M49.048,376.961c0.874,0.403,1.934,0.975,2.665,1.404l-0.168,0.453l-4.986-2.262v2.707h-0.588v-3.514h0.513L49.048,376.961
		z"/>
</g>
<rect x="62.108" y="374.985" fill="none" width="8.75" height="17.25"/>
<g enable-background="new    ">
	<path d="M63.292,391.622h-0.547v-1.278h-4.464l0.454,1.144l-0.412,0.168l-0.706-1.471v-0.556h5.128v-1.144h0.547V391.622z"/>
	<path d="M63.359,386.286c0,0.37-0.067,0.757-0.277,1.328l-0.412-0.066c0.109-0.454,0.168-0.832,0.168-1.203
		c0-0.79-0.655-1.319-2.304-1.336c0.261,0.453,0.403,0.807,0.403,1.261c0,0.883-0.562,1.37-1.521,1.37
		c-1.151,0-1.866-0.646-1.866-1.639c0-1.085,0.546-1.674,2.716-1.674C62.77,384.327,63.359,385.243,63.359,386.286z M60.021,385.016
		c-1.37,0-1.959,0.328-1.959,1.025c0,0.623,0.462,0.926,1.236,0.926c0.731,0,1.109-0.277,1.109-0.941c0-0.287-0.101-0.58-0.354-1.01
		H60.021z"/>
	<path d="M63.359,382.086c0,0.369-0.067,0.756-0.277,1.328l-0.412-0.067c0.109-0.454,0.168-0.832,0.168-1.202
		c0-0.791-0.655-1.32-2.304-1.337c0.261,0.454,0.403,0.808,0.403,1.261c0,0.883-0.562,1.371-1.521,1.371
		c-1.151,0-1.866-0.647-1.866-1.64c0-1.085,0.546-1.673,2.716-1.673C62.77,380.127,63.359,381.043,63.359,382.086z M60.021,380.817
		c-1.37,0-1.959,0.328-1.959,1.025c0,0.622,0.462,0.925,1.236,0.925c0.731,0,1.109-0.277,1.109-0.941
		c0-0.286-0.101-0.58-0.354-1.009H60.021z"/>
	<path d="M63.359,377.6c0,1.16-0.563,1.664-1.379,1.664c-0.723,0-1.177-0.471-1.563-1.126c-0.37,0.655-0.833,1.009-1.463,1.009
		c-0.816,0-1.404-0.588-1.404-1.664c0-1.169,0.58-1.556,1.312-1.556c0.631,0,1.034,0.37,1.446,1.109
		c0.437-0.823,0.841-1.235,1.58-1.235C62.711,375.801,63.359,376.356,63.359,377.6z M58.037,377.575c0,0.555,0.337,0.9,0.832,0.9
		c0.505,0,0.841-0.277,1.186-0.926c-0.369-0.664-0.664-0.958-1.093-0.958C58.356,376.591,58.037,376.877,58.037,377.575z
		 M60.676,377.651c0.388,0.646,0.732,0.941,1.211,0.941c0.614,0,0.976-0.37,0.976-1.102c0-0.605-0.361-1.018-0.883-1.018
		C61.4,376.473,61.064,376.885,60.676,377.651z"/>
</g>
<rect x="73.754" y="374.985" fill="none" width="8.75" height="17.25"/>
<g enable-background="new    ">
	<path d="M74.938,391.622h-0.547v-1.278h-4.464l0.454,1.144l-0.412,0.168l-0.706-1.471v-0.556h5.128v-1.144h0.547V391.622z"/>
	<path d="M75.005,386.286c0,0.37-0.067,0.757-0.277,1.328l-0.412-0.066c0.109-0.454,0.168-0.832,0.168-1.203
		c0-0.79-0.655-1.319-2.304-1.336c0.261,0.453,0.403,0.807,0.403,1.261c0,0.883-0.562,1.37-1.521,1.37
		c-1.151,0-1.866-0.646-1.866-1.639c0-1.085,0.546-1.674,2.716-1.674C74.416,384.327,75.005,385.243,75.005,386.286z
		 M71.667,385.016c-1.37,0-1.959,0.328-1.959,1.025c0,0.623,0.462,0.926,1.236,0.926c0.731,0,1.109-0.277,1.109-0.941
		c0-0.287-0.101-0.58-0.354-1.01H71.667z"/>
	<path d="M75.005,382.086c0,0.369-0.067,0.756-0.277,1.328l-0.412-0.067c0.109-0.454,0.168-0.832,0.168-1.202
		c0-0.791-0.655-1.32-2.304-1.337c0.261,0.454,0.403,0.808,0.403,1.261c0,0.883-0.562,1.371-1.521,1.371
		c-1.151,0-1.866-0.647-1.866-1.64c0-1.085,0.546-1.673,2.716-1.673C74.416,380.127,75.005,381.043,75.005,382.086z M71.667,380.817
		c-1.37,0-1.959,0.328-1.959,1.025c0,0.622,0.462,0.925,1.236,0.925c0.731,0,1.109-0.277,1.109-0.941
		c0-0.286-0.101-0.58-0.354-1.009H71.667z"/>
	<path d="M75.005,377.886c0,0.37-0.067,0.757-0.277,1.328l-0.412-0.067c0.109-0.454,0.168-0.832,0.168-1.202
		c0-0.79-0.655-1.319-2.304-1.337c0.261,0.454,0.403,0.807,0.403,1.262c0,0.883-0.562,1.37-1.521,1.37
		c-1.151,0-1.866-0.647-1.866-1.64c0-1.084,0.546-1.673,2.716-1.673C74.416,375.927,75.005,376.843,75.005,377.886z M71.667,376.616
		c-1.37,0-1.959,0.328-1.959,1.026c0,0.622,0.462,0.925,1.236,0.925c0.731,0,1.109-0.277,1.109-0.941c0-0.286-0.101-0.58-0.354-1.01
		H71.667z"/>
</g>
<rect x="85.4" y="374.985" fill="none" width="8.75" height="17.25"/>
<g enable-background="new    ">
	<path d="M86.583,391.832h-0.547c-1.917-1.858-2.808-2.362-3.564-2.362c-0.832,0-1.06,0.462-1.06,0.992
		c0,0.361,0.102,0.705,0.261,1.16l-0.462,0.117c-0.228-0.529-0.37-0.916-0.37-1.564c0-0.756,0.378-1.487,1.53-1.487
		c0.958,0,1.866,0.563,3.615,2.346v-2.497h0.597V391.832z"/>
	<path d="M86.65,385.983c0,1.085-0.597,1.648-2.842,1.648c-2.262,0-2.968-0.58-2.968-1.74c0-1.068,0.58-1.64,2.816-1.64
		C85.961,384.251,86.65,384.856,86.65,385.983z M81.354,385.942c0,0.697,0.555,1,2.337,1c1.917,0,2.438-0.295,2.438-1
		c0-0.699-0.563-1.01-2.354-1.01C81.875,384.932,81.354,385.235,81.354,385.942z"/>
	<path d="M86.65,381.784c0,1.084-0.597,1.647-2.842,1.647c-2.262,0-2.968-0.58-2.968-1.74c0-1.067,0.58-1.64,2.816-1.64
		C85.961,380.051,86.65,380.657,86.65,381.784z M81.354,381.742c0,0.698,0.555,1.001,2.337,1.001c1.917,0,2.438-0.295,2.438-1.001
		c0-0.698-0.563-1.009-2.354-1.009C81.875,380.733,81.354,381.036,81.354,381.742z"/>
	<path d="M86.65,377.583c0,1.085-0.597,1.647-2.842,1.647c-2.262,0-2.968-0.58-2.968-1.74c0-1.068,0.58-1.639,2.816-1.639
		C85.961,375.852,86.65,376.457,86.65,377.583z M81.354,377.542c0,0.697,0.555,1,2.337,1c1.917,0,2.438-0.294,2.438-1
		c0-0.698-0.563-1.01-2.354-1.01C81.875,376.532,81.354,376.834,81.354,377.542z"/>
</g>
<rect x="97.046" y="374.985" fill="none" width="8.75" height="17.25"/>
<g enable-background="new    ">
	<path d="M98.229,391.832h-0.547c-1.917-1.858-2.808-2.362-3.564-2.362c-0.832,0-1.06,0.462-1.06,0.992
		c0,0.361,0.102,0.705,0.261,1.16l-0.462,0.117c-0.228-0.529-0.37-0.916-0.37-1.564c0-0.756,0.378-1.487,1.53-1.487
		c0.958,0,1.866,0.563,3.615,2.346v-2.497h0.597V391.832z"/>
	<path d="M98.296,385.983c0,1.085-0.597,1.648-2.842,1.648c-2.262,0-2.968-0.58-2.968-1.74c0-1.068,0.58-1.64,2.816-1.64
		C97.607,384.251,98.296,384.856,98.296,385.983z M93,385.942c0,0.697,0.555,1,2.337,1c1.917,0,2.438-0.295,2.438-1
		c0-0.699-0.563-1.01-2.354-1.01C93.521,384.932,93,385.235,93,385.942z"/>
	<path d="M98.296,381.784c0,1.084-0.597,1.647-2.842,1.647c-2.262,0-2.968-0.58-2.968-1.74c0-1.067,0.58-1.64,2.816-1.64
		C97.607,380.051,98.296,380.657,98.296,381.784z M93,381.742c0,0.698,0.555,1.001,2.337,1.001c1.917,0,2.438-0.295,2.438-1.001
		c0-0.698-0.563-1.009-2.354-1.009C93.521,380.733,93,381.036,93,381.742z"/>
	<path d="M98.229,379.021h-0.547v-1.278h-4.464l0.454,1.145l-0.412,0.168l-0.706-1.472v-0.556h5.128v-1.143h0.547V379.021z"/>
</g>
<rect x="108.692" y="374.985" fill="none" width="8.75" height="17.25"/>
<g enable-background="new    ">
	<path d="M109.875,391.832h-0.547c-1.917-1.858-2.808-2.362-3.564-2.362c-0.832,0-1.06,0.462-1.06,0.992
		c0,0.361,0.102,0.705,0.261,1.16l-0.462,0.117c-0.228-0.529-0.37-0.916-0.37-1.564c0-0.756,0.378-1.487,1.53-1.487
		c0.958,0,1.866,0.563,3.615,2.346v-2.497h0.597V391.832z"/>
	<path d="M109.942,385.983c0,1.085-0.597,1.648-2.842,1.648c-2.262,0-2.968-0.58-2.968-1.74c0-1.068,0.58-1.64,2.816-1.64
		C109.253,384.251,109.942,384.856,109.942,385.983z M104.646,385.942c0,0.697,0.555,1,2.337,1c1.917,0,2.438-0.295,2.438-1
		c0-0.699-0.563-1.01-2.354-1.01C105.167,384.932,104.646,385.235,104.646,385.942z"/>
	<path d="M109.942,381.784c0,1.084-0.597,1.647-2.842,1.647c-2.262,0-2.968-0.58-2.968-1.74c0-1.067,0.58-1.64,2.816-1.64
		C109.253,380.051,109.942,380.657,109.942,381.784z M104.646,381.742c0,0.698,0.555,1.001,2.337,1.001
		c1.917,0,2.438-0.295,2.438-1.001c0-0.698-0.563-1.009-2.354-1.009C105.167,380.733,104.646,381.036,104.646,381.742z"/>
	<path d="M109.875,379.231h-0.547c-1.917-1.857-2.808-2.362-3.564-2.362c-0.832,0-1.06,0.462-1.06,0.992
		c0,0.361,0.102,0.706,0.261,1.16l-0.462,0.118c-0.228-0.53-0.37-0.917-0.37-1.564c0-0.756,0.378-1.488,1.53-1.488
		c0.958,0,1.866,0.563,3.615,2.346v-2.496h0.597V379.231z"/>
</g>
<rect x="120.337" y="374.985" fill="none" width="8.75" height="17.25"/>
<g enable-background="new    ">
	<path d="M121.521,391.832h-0.547c-1.917-1.858-2.808-2.362-3.564-2.362c-0.832,0-1.06,0.462-1.06,0.992
		c0,0.361,0.102,0.705,0.261,1.16l-0.462,0.117c-0.228-0.529-0.37-0.916-0.37-1.564c0-0.756,0.378-1.487,1.53-1.487
		c0.958,0,1.866,0.563,3.615,2.346v-2.497h0.597V391.832z"/>
	<path d="M121.588,385.983c0,1.085-0.597,1.648-2.842,1.648c-2.262,0-2.968-0.58-2.968-1.74c0-1.068,0.58-1.64,2.816-1.64
		C120.899,384.251,121.588,384.856,121.588,385.983z M116.292,385.942c0,0.697,0.555,1,2.337,1c1.917,0,2.438-0.295,2.438-1
		c0-0.699-0.563-1.01-2.354-1.01C116.813,384.932,116.292,385.235,116.292,385.942z"/>
	<path d="M121.588,381.784c0,1.084-0.597,1.647-2.842,1.647c-2.262,0-2.968-0.58-2.968-1.74c0-1.067,0.58-1.64,2.816-1.64
		C120.899,380.051,121.588,380.657,121.588,381.784z M116.292,381.742c0,0.698,0.555,1.001,2.337,1.001
		c1.917,0,2.438-0.295,2.438-1.001c0-0.698-0.563-1.009-2.354-1.009C116.813,380.733,116.292,381.036,116.292,381.742z"/>
	<path d="M121.588,377.777c0,0.411-0.101,0.925-0.328,1.563l-0.412-0.066c0.126-0.581,0.193-1.035,0.193-1.396
		c0-0.865-0.378-1.152-1.144-1.152c-0.697,0-1.126,0.303-1.126,1.17v0.646h-0.521v-0.622c0-0.698-0.345-1.034-1.034-1.034
		c-0.555,0-0.892,0.236-0.892,0.976c0,0.337,0.085,0.866,0.202,1.186l-0.454,0.101c-0.143-0.345-0.294-0.883-0.294-1.53
		c0-1.017,0.605-1.472,1.354-1.472c0.757,0,1.193,0.379,1.32,0.875c0.042-0.697,0.706-1.06,1.37-1.06
		C121.034,375.96,121.588,376.566,121.588,377.777z"/>
</g>
<rect x="131.983" y="374.985" fill="none" width="8.75" height="17.25"/>
<g enable-background="new    ">
	<path d="M133.167,391.832h-0.547c-1.917-1.858-2.808-2.362-3.564-2.362c-0.832,0-1.06,0.462-1.06,0.992
		c0,0.361,0.102,0.705,0.261,1.16l-0.462,0.117c-0.228-0.529-0.37-0.916-0.37-1.564c0-0.756,0.378-1.487,1.53-1.487
		c0.958,0,1.866,0.563,3.615,2.346v-2.497h0.597V391.832z"/>
	<path d="M133.234,385.983c0,1.085-0.597,1.648-2.842,1.648c-2.262,0-2.968-0.58-2.968-1.74c0-1.068,0.58-1.64,2.816-1.64
		C132.545,384.251,133.234,384.856,133.234,385.983z M127.938,385.942c0,0.697,0.555,1,2.337,1c1.917,0,2.438-0.295,2.438-1
		c0-0.699-0.563-1.01-2.354-1.01C128.459,384.932,127.938,385.235,127.938,385.942z"/>
	<path d="M133.234,381.784c0,1.084-0.597,1.647-2.842,1.647c-2.262,0-2.968-0.58-2.968-1.74c0-1.067,0.58-1.64,2.816-1.64
		C132.545,380.051,133.234,380.657,133.234,381.784z M127.938,381.742c0,0.698,0.555,1.001,2.337,1.001
		c1.917,0,2.438-0.295,2.438-1.001c0-0.698-0.563-1.009-2.354-1.009C128.459,380.733,127.938,381.036,127.938,381.742z"/>
	<path d="M131.847,376.381h1.32v0.672h-1.32v2.354h-0.521c-1.312-0.64-2.725-1.403-3.834-2.085v-0.941h3.758V375.7h0.597V376.381z
		 M128.063,377.053c0.866,0.514,2.035,1.194,3.187,1.749v-1.749H128.063z"/>
</g>
<rect x="143.63" y="370.274" fill="none" width="8.75" height="21.961"/>
<g enable-background="new    ">
	<path d="M144.814,391.832h-0.547c-1.918-1.858-2.809-2.362-3.564-2.362c-0.832,0-1.061,0.462-1.061,0.992
		c0,0.361,0.102,0.705,0.262,1.16l-0.463,0.117c-0.227-0.529-0.369-0.916-0.369-1.564c0-0.756,0.377-1.487,1.529-1.487
		c0.959,0,1.867,0.563,3.615,2.346v-2.497h0.598V391.832z"/>
	<path d="M144.88,385.983c0,1.085-0.596,1.648-2.842,1.648c-2.262,0-2.967-0.58-2.967-1.74c0-1.068,0.58-1.64,2.816-1.64
		C144.191,384.251,144.88,384.856,144.88,385.983z M139.583,385.942c0,0.697,0.555,1,2.338,1c1.916,0,2.438-0.295,2.438-1
		c0-0.699-0.562-1.01-2.354-1.01C140.105,384.932,139.583,385.235,139.583,385.942z"/>
	<path d="M144.88,381.784c0,1.084-0.596,1.647-2.842,1.647c-2.262,0-2.967-0.58-2.967-1.74c0-1.067,0.58-1.64,2.816-1.64
		C144.191,380.051,144.88,380.657,144.88,381.784z M139.583,381.742c0,0.698,0.555,1.001,2.338,1.001
		c1.916,0,2.438-0.295,2.438-1.001c0-0.698-0.562-1.009-2.354-1.009C140.105,380.733,139.583,381.036,139.583,381.742z"/>
	<path d="M144.88,377.801c0,0.404-0.092,0.917-0.311,1.539l-0.404-0.059c0.109-0.563,0.186-1.051,0.186-1.438
		c0-0.791-0.32-1.16-1.193-1.16c-0.766,0-1.244,0.353-1.244,1.235c0,0.378,0.041,0.731,0.125,1.161l-2.9-0.178v-2.556h0.588v2.01
		l1.699,0.109c-0.043-0.177-0.059-0.496-0.059-0.782c0-1.144,0.664-1.732,1.707-1.732
		C144.292,375.952,144.88,376.549,144.88,377.801z"/>
	<path d="M141.466,372.063l-0.705,1.026l1.236-0.084v0.647l-1.236-0.084l0.705,1.025l-0.529,0.295l-0.537-1.11l-0.547,1.11
		l-0.529-0.295l0.705-1.025l-1.234,0.084v-0.647l1.234,0.075l-0.705-1.018l0.529-0.303l0.537,1.11l0.547-1.11L141.466,372.063z"/>
</g>
<rect x="155.276" y="370.274" fill="none" width="8.75" height="21.961"/>
<g enable-background="new    ">
	<path d="M156.459,391.832h-0.547c-1.917-1.858-2.808-2.362-3.564-2.362c-0.832,0-1.06,0.462-1.06,0.992
		c0,0.361,0.102,0.705,0.261,1.16l-0.462,0.117c-0.228-0.529-0.37-0.916-0.37-1.564c0-0.756,0.378-1.487,1.53-1.487
		c0.958,0,1.866,0.563,3.615,2.346v-2.497h0.597V391.832z"/>
	<path d="M156.527,385.983c0,1.085-0.597,1.648-2.842,1.648c-2.262,0-2.968-0.58-2.968-1.74c0-1.068,0.58-1.64,2.816-1.64
		C155.837,384.251,156.527,384.856,156.527,385.983z M151.23,385.942c0,0.697,0.555,1,2.337,1c1.917,0,2.438-0.295,2.438-1
		c0-0.699-0.563-1.01-2.354-1.01C151.751,384.932,151.23,385.235,151.23,385.942z"/>
	<path d="M156.527,381.784c0,1.084-0.597,1.647-2.842,1.647c-2.262,0-2.968-0.58-2.968-1.74c0-1.067,0.58-1.64,2.816-1.64
		C155.837,380.051,156.527,380.657,156.527,381.784z M151.23,381.742c0,0.698,0.555,1.001,2.337,1.001
		c1.917,0,2.438-0.295,2.438-1.001c0-0.698-0.563-1.009-2.354-1.009C151.751,380.733,151.23,381.036,151.23,381.742z"/>
	<path d="M156.527,377.465c0,1.085-0.538,1.665-2.707,1.665c-2.472,0-3.103-0.874-3.103-1.909c0-0.378,0.075-0.756,0.269-1.261
		l0.412,0.075c-0.093,0.362-0.159,0.749-0.159,1.119c0,0.799,0.714,1.286,2.312,1.303c-0.261-0.453-0.403-0.815-0.403-1.261
		c0-0.883,0.563-1.379,1.521-1.379C155.821,375.818,156.527,376.473,156.527,377.465z M153.676,377.432
		c0,0.294,0.102,0.58,0.354,1.018h0.033c1.379,0,1.951-0.328,1.951-1.026c0-0.622-0.446-0.925-1.228-0.925
		C154.055,376.499,153.676,376.776,153.676,377.432z"/>
</g>
<rect x="166.92" y="370.274" fill="none" width="8.75" height="21.961"/>
<g enable-background="new    ">
	<path d="M168.105,391.832h-0.547c-1.917-1.858-2.808-2.362-3.564-2.362c-0.832,0-1.06,0.462-1.06,0.992
		c0,0.361,0.102,0.705,0.261,1.16l-0.462,0.117c-0.228-0.529-0.37-0.916-0.37-1.564c0-0.756,0.378-1.487,1.53-1.487
		c0.958,0,1.866,0.563,3.615,2.346v-2.497h0.597V391.832z"/>
	<path d="M168.172,385.983c0,1.085-0.597,1.648-2.842,1.648c-2.262,0-2.968-0.58-2.968-1.74c0-1.068,0.58-1.64,2.816-1.64
		C167.483,384.251,168.172,384.856,168.172,385.983z M162.875,385.942c0,0.697,0.555,1,2.337,1c1.917,0,2.438-0.295,2.438-1
		c0-0.699-0.563-1.01-2.354-1.01C163.397,384.932,162.875,385.235,162.875,385.942z"/>
	<path d="M168.172,381.784c0,1.084-0.597,1.647-2.842,1.647c-2.262,0-2.968-0.58-2.968-1.74c0-1.067,0.58-1.64,2.816-1.64
		C167.483,380.051,168.172,380.657,168.172,381.784z M162.875,381.742c0,0.698,0.555,1.001,2.337,1.001
		c1.917,0,2.438-0.295,2.438-1.001c0-0.698-0.563-1.009-2.354-1.009C163.397,380.733,162.875,381.036,162.875,381.742z"/>
	<path d="M165.507,376.961c0.874,0.403,1.934,0.975,2.665,1.404l-0.168,0.453l-4.986-2.262v2.707h-0.588v-3.514h0.513
		L165.507,376.961z"/>
</g>
<rect x="178.566" y="363.235" fill="none" width="8.75" height="29"/>
<g enable-background="new    ">
	<path d="M179.75,391.832h-0.547c-1.917-1.858-2.808-2.362-3.564-2.362c-0.832,0-1.06,0.462-1.06,0.992
		c0,0.361,0.102,0.705,0.261,1.16l-0.462,0.117c-0.228-0.529-0.37-0.916-0.37-1.564c0-0.756,0.378-1.487,1.53-1.487
		c0.958,0,1.866,0.563,3.615,2.346v-2.497h0.597V391.832z"/>
	<path d="M179.817,385.983c0,1.085-0.597,1.648-2.842,1.648c-2.262,0-2.968-0.58-2.968-1.74c0-1.068,0.58-1.64,2.816-1.64
		C179.127,384.251,179.817,384.856,179.817,385.983z M174.52,385.942c0,0.697,0.555,1,2.337,1c1.917,0,2.438-0.295,2.438-1
		c0-0.699-0.563-1.01-2.354-1.01C175.042,384.932,174.52,385.235,174.52,385.942z"/>
	<path d="M179.817,381.784c0,1.084-0.597,1.647-2.842,1.647c-2.262,0-2.968-0.58-2.968-1.74c0-1.067,0.58-1.64,2.816-1.64
		C179.127,380.051,179.817,380.657,179.817,381.784z M174.52,381.742c0,0.698,0.555,1.001,2.337,1.001
		c1.917,0,2.438-0.295,2.438-1.001c0-0.698-0.563-1.009-2.354-1.009C175.042,380.733,174.52,381.036,174.52,381.742z"/>
	<path d="M179.817,377.6c0,1.16-0.563,1.664-1.379,1.664c-0.723,0-1.177-0.471-1.563-1.126c-0.37,0.655-0.833,1.009-1.463,1.009
		c-0.816,0-1.404-0.588-1.404-1.664c0-1.169,0.58-1.556,1.312-1.556c0.631,0,1.034,0.37,1.446,1.109
		c0.437-0.823,0.841-1.235,1.58-1.235C179.169,375.801,179.817,376.356,179.817,377.6z M174.495,377.575
		c0,0.555,0.337,0.9,0.832,0.9c0.505,0,0.841-0.277,1.186-0.926c-0.369-0.664-0.664-0.958-1.093-0.958
		C174.814,376.591,174.495,376.877,174.495,377.575z M177.134,377.651c0.388,0.646,0.732,0.941,1.211,0.941
		c0.614,0,0.976-0.37,0.976-1.102c0-0.605-0.361-1.018-0.883-1.018C177.858,376.473,177.522,376.885,177.134,377.651z"/>
	<path d="M176.403,372.063l-0.706,1.026l1.236-0.084v0.647l-1.236-0.084l0.706,1.025l-0.529,0.295l-0.538-1.11l-0.547,1.11
		l-0.529-0.295l0.706-1.025l-1.235,0.084v-0.647l1.235,0.075l-0.706-1.018l0.529-0.303l0.538,1.11l0.547-1.11L176.403,372.063z"/>
	<path d="M176.403,367.864l-0.706,1.025l1.236-0.084v0.647l-1.236-0.085l0.706,1.026l-0.529,0.294l-0.538-1.109l-0.547,1.109
		l-0.529-0.294l0.706-1.026l-1.235,0.085v-0.647l1.235,0.076l-0.706-1.018l0.529-0.303l0.538,1.109l0.547-1.109L176.403,367.864z"/>
</g>
<rect x="190.211" y="370.274" fill="none" width="8.75" height="21.961"/>
<g enable-background="new    ">
	<path d="M191.395,391.832h-0.547c-1.917-1.858-2.808-2.362-3.564-2.362c-0.832,0-1.06,0.462-1.06,0.992
		c0,0.361,0.102,0.705,0.261,1.16l-0.462,0.117c-0.228-0.529-0.37-0.916-0.37-1.564c0-0.756,0.378-1.487,1.53-1.487
		c0.958,0,1.866,0.563,3.615,2.346v-2.497h0.597V391.832z"/>
	<path d="M191.462,385.983c0,1.085-0.597,1.648-2.842,1.648c-2.262,0-2.968-0.58-2.968-1.74c0-1.068,0.58-1.64,2.816-1.64
		C190.773,384.251,191.462,384.856,191.462,385.983z M186.166,385.942c0,0.697,0.555,1,2.337,1c1.917,0,2.438-0.295,2.438-1
		c0-0.699-0.563-1.01-2.354-1.01C186.687,384.932,186.166,385.235,186.166,385.942z"/>
	<path d="M191.462,381.784c0,1.084-0.597,1.647-2.842,1.647c-2.262,0-2.968-0.58-2.968-1.74c0-1.067,0.58-1.64,2.816-1.64
		C190.773,380.051,191.462,380.657,191.462,381.784z M186.166,381.742c0,0.698,0.555,1.001,2.337,1.001
		c1.917,0,2.438-0.295,2.438-1.001c0-0.698-0.563-1.009-2.354-1.009C186.687,380.733,186.166,381.036,186.166,381.742z"/>
	<path d="M191.462,377.886c0,0.37-0.067,0.757-0.277,1.328l-0.412-0.067c0.109-0.454,0.168-0.832,0.168-1.202
		c0-0.79-0.655-1.319-2.304-1.337c0.261,0.454,0.403,0.807,0.403,1.262c0,0.883-0.562,1.37-1.521,1.37
		c-1.151,0-1.866-0.647-1.866-1.64c0-1.084,0.546-1.673,2.716-1.673C190.874,375.927,191.462,376.843,191.462,377.886z
		 M188.125,376.616c-1.37,0-1.959,0.328-1.959,1.026c0,0.622,0.462,0.925,1.236,0.925c0.731,0,1.109-0.277,1.109-0.941
		c0-0.286-0.101-0.58-0.354-1.01H188.125z"/>
</g>
<rect x="201.858" y="370.274" fill="none" width="8.75" height="21.961"/>
<g enable-background="new    ">
	<path d="M203.041,391.832h-0.547c-1.916-1.858-2.807-2.362-3.564-2.362c-0.832,0-1.059,0.462-1.059,0.992
		c0,0.361,0.102,0.705,0.26,1.16l-0.461,0.117c-0.229-0.529-0.371-0.916-0.371-1.564c0-0.756,0.379-1.487,1.531-1.487
		c0.957,0,1.865,0.563,3.615,2.346v-2.497h0.596V391.832z"/>
	<path d="M203.109,385.983c0,1.085-0.598,1.648-2.842,1.648c-2.262,0-2.969-0.58-2.969-1.74c0-1.068,0.58-1.64,2.816-1.64
		C202.419,384.251,203.109,384.856,203.109,385.983z M197.812,385.942c0,0.697,0.555,1,2.336,1c1.918,0,2.439-0.295,2.439-1
		c0-0.699-0.564-1.01-2.355-1.01C198.333,384.932,197.812,385.235,197.812,385.942z"/>
	<path d="M203.041,383.221h-0.547v-1.277h-4.463l0.453,1.143l-0.412,0.168l-0.705-1.471v-0.555h5.127v-1.145h0.547V383.221z"/>
	<path d="M203.109,377.583c0,1.085-0.598,1.647-2.842,1.647c-2.262,0-2.969-0.58-2.969-1.74c0-1.068,0.58-1.639,2.816-1.639
		C202.419,375.852,203.109,376.457,203.109,377.583z M197.812,377.542c0,0.697,0.555,1,2.336,1c1.918,0,2.439-0.294,2.439-1
		c0-0.698-0.564-1.01-2.355-1.01C198.333,376.532,197.812,376.834,197.812,377.542z"/>
</g>
<rect x="213.502" y="370.274" fill="none" width="8.75" height="21.961"/>
<g enable-background="new    ">
	<path d="M214.687,391.832h-0.547c-1.918-1.858-2.809-2.362-3.564-2.362c-0.832,0-1.061,0.462-1.061,0.992
		c0,0.361,0.102,0.705,0.262,1.16l-0.463,0.117c-0.227-0.529-0.369-0.916-0.369-1.564c0-0.756,0.377-1.487,1.529-1.487
		c0.959,0,1.867,0.563,3.615,2.346v-2.497h0.598V391.832z"/>
	<path d="M214.753,385.983c0,1.085-0.596,1.648-2.842,1.648c-2.262,0-2.967-0.58-2.967-1.74c0-1.068,0.58-1.64,2.816-1.64
		C214.064,384.251,214.753,384.856,214.753,385.983z M209.457,385.942c0,0.697,0.555,1,2.338,1c1.916,0,2.438-0.295,2.438-1
		c0-0.699-0.562-1.01-2.354-1.01C209.978,384.932,209.457,385.235,209.457,385.942z"/>
	<path d="M214.687,383.221h-0.547v-1.277h-4.465l0.455,1.143l-0.412,0.168l-0.707-1.471v-0.555h5.129v-1.145h0.547V383.221z"/>
	<path d="M214.687,379.021h-0.547v-1.278h-4.465l0.455,1.145l-0.412,0.168l-0.707-1.472v-0.556h5.129v-1.143h0.547V379.021z"/>
</g>
<rect x="225.15" y="370.274" fill="none" width="8.75" height="21.961"/>
<g enable-background="new    ">
	<path d="M226.333,391.832h-0.547c-1.917-1.858-2.808-2.362-3.564-2.362c-0.832,0-1.06,0.462-1.06,0.992
		c0,0.361,0.102,0.705,0.261,1.16l-0.462,0.117c-0.228-0.529-0.37-0.916-0.37-1.564c0-0.756,0.378-1.487,1.53-1.487
		c0.958,0,1.866,0.563,3.615,2.346v-2.497h0.597V391.832z"/>
	<path d="M226.4,385.983c0,1.085-0.597,1.648-2.842,1.648c-2.262,0-2.968-0.58-2.968-1.74c0-1.068,0.58-1.64,2.816-1.64
		C225.71,384.251,226.4,384.856,226.4,385.983z M221.103,385.942c0,0.697,0.555,1,2.337,1c1.917,0,2.438-0.295,2.438-1
		c0-0.699-0.563-1.01-2.354-1.01C221.625,384.932,221.103,385.235,221.103,385.942z"/>
	<path d="M226.333,383.221h-0.547v-1.277h-4.464l0.454,1.143l-0.412,0.168l-0.706-1.471v-0.555h5.128v-1.145h0.547V383.221z"/>
	<path d="M226.333,379.231h-0.547c-1.917-1.857-2.808-2.362-3.564-2.362c-0.832,0-1.06,0.462-1.06,0.992
		c0,0.361,0.102,0.706,0.261,1.16l-0.462,0.118c-0.228-0.53-0.37-0.917-0.37-1.564c0-0.756,0.378-1.488,1.53-1.488
		c0.958,0,1.866,0.563,3.615,2.346v-2.496h0.597V379.231z"/>
</g>
<rect x="236.795" y="370.274" fill="none" width="8.75" height="21.961"/>
<g enable-background="new    ">
	<path d="M237.979,391.832h-0.547c-1.917-1.858-2.808-2.362-3.564-2.362c-0.832,0-1.06,0.462-1.06,0.992
		c0,0.361,0.102,0.705,0.261,1.16l-0.462,0.117c-0.228-0.529-0.37-0.916-0.37-1.564c0-0.756,0.378-1.487,1.53-1.487
		c0.958,0,1.866,0.563,3.615,2.346v-2.497h0.597V391.832z"/>
	<path d="M238.046,385.983c0,1.085-0.597,1.648-2.842,1.648c-2.262,0-2.968-0.58-2.968-1.74c0-1.068,0.58-1.64,2.816-1.64
		C237.357,384.251,238.046,384.856,238.046,385.983z M232.75,385.942c0,0.697,0.555,1,2.337,1c1.917,0,2.438-0.295,2.438-1
		c0-0.699-0.563-1.01-2.354-1.01C233.271,384.932,232.75,385.235,232.75,385.942z"/>
	<path d="M237.979,383.221h-0.547v-1.277h-4.464l0.454,1.143l-0.412,0.168l-0.706-1.471v-0.555h5.128v-1.145h0.547V383.221z"/>
	<path d="M238.046,377.777c0,0.411-0.101,0.925-0.328,1.563l-0.412-0.066c0.126-0.581,0.193-1.035,0.193-1.396
		c0-0.865-0.378-1.152-1.144-1.152c-0.697,0-1.126,0.303-1.126,1.17v0.646h-0.521v-0.622c0-0.698-0.345-1.034-1.034-1.034
		c-0.555,0-0.892,0.236-0.892,0.976c0,0.337,0.085,0.866,0.202,1.186l-0.454,0.101c-0.143-0.345-0.294-0.883-0.294-1.53
		c0-1.017,0.605-1.472,1.354-1.472c0.757,0,1.193,0.379,1.32,0.875c0.042-0.697,0.706-1.06,1.37-1.06
		C237.492,375.96,238.046,376.566,238.046,377.777z"/>
</g>
<rect x="248.442" y="370.274" fill="none" width="8.75" height="21.961"/>
<g enable-background="new    ">
	<path d="M249.625,391.832h-0.547c-1.916-1.858-2.807-2.362-3.564-2.362c-0.832,0-1.059,0.462-1.059,0.992
		c0,0.361,0.102,0.705,0.26,1.16l-0.461,0.117c-0.229-0.529-0.371-0.916-0.371-1.564c0-0.756,0.379-1.487,1.531-1.487
		c0.957,0,1.865,0.563,3.615,2.346v-2.497h0.596V391.832z"/>
	<path d="M249.693,385.983c0,1.085-0.598,1.648-2.842,1.648c-2.262,0-2.969-0.58-2.969-1.74c0-1.068,0.58-1.64,2.816-1.64
		C249.003,384.251,249.693,384.856,249.693,385.983z M244.396,385.942c0,0.697,0.555,1,2.336,1c1.918,0,2.439-0.295,2.439-1
		c0-0.699-0.564-1.01-2.355-1.01C244.917,384.932,244.396,385.235,244.396,385.942z"/>
	<path d="M249.625,383.221h-0.547v-1.277h-4.463l0.453,1.143l-0.412,0.168l-0.705-1.471v-0.555h5.127v-1.145h0.547V383.221z"/>
	<path d="M248.304,376.381h1.32v0.672h-1.32v2.354h-0.52c-1.312-0.64-2.725-1.403-3.834-2.085v-0.941h3.758V375.7h0.596V376.381z
		 M244.521,377.053c0.867,0.514,2.035,1.194,3.188,1.749v-1.749H244.521z"/>
</g>
<g enable-background="new    ">
	<path d="M261.271,391.832h-0.547c-1.916-1.858-2.807-2.362-3.564-2.362c-0.832,0-1.059,0.462-1.059,0.992
		c0,0.361,0.102,0.705,0.26,1.16l-0.461,0.117c-0.229-0.529-0.371-0.916-0.371-1.564c0-0.756,0.379-1.487,1.531-1.487
		c0.957,0,1.865,0.563,3.615,2.346v-2.497h0.596V391.832z"/>
	<path d="M261.339,385.983c0,1.085-0.598,1.648-2.842,1.648c-2.262,0-2.969-0.58-2.969-1.74c0-1.068,0.58-1.64,2.816-1.64
		C260.65,384.251,261.339,384.856,261.339,385.983z M256.042,385.942c0,0.697,0.555,1,2.336,1c1.918,0,2.439-0.295,2.439-1
		c0-0.699-0.564-1.01-2.355-1.01C256.564,384.932,256.042,385.235,256.042,385.942z"/>
	<path d="M261.271,383.221h-0.547v-1.277h-4.463l0.453,1.143l-0.412,0.168l-0.705-1.471v-0.555h5.127v-1.145h0.547V383.221z"/>
	<path d="M261.339,377.801c0,0.404-0.094,0.917-0.312,1.539l-0.402-0.059c0.109-0.563,0.184-1.051,0.184-1.438
		c0-0.791-0.318-1.16-1.193-1.16c-0.766,0-1.244,0.353-1.244,1.235c0,0.378,0.043,0.731,0.127,1.161l-2.9-0.178v-2.556h0.588v2.01
		l1.697,0.109c-0.041-0.177-0.059-0.496-0.059-0.782c0-1.144,0.664-1.732,1.707-1.732
		C260.75,375.952,261.339,376.549,261.339,377.801z"/>
</g>
<g>
	<g>
		<g enable-background="new    ">
			<path d="M13.875,156.961c-1.084,0-1.648-0.597-1.648-2.842c0-2.262,0.581-2.968,1.741-2.968c1.068,0,1.639,0.58,1.639,2.816
				C15.607,156.272,15.002,156.961,13.875,156.961z M13.917,151.665c-0.698,0-1,0.555-1,2.337c0,1.917,0.294,2.438,1,2.438
				c0.698,0,1.009-0.563,1.009-2.354C14.926,152.186,14.624,151.665,13.917,151.665z"/>
		</g>
		<g enable-background="new    ">
			<path d="M13.657,134.773c-0.404,0-0.917-0.093-1.539-0.312l0.059-0.403c0.563,0.109,1.051,0.185,1.438,0.185
				c0.79,0,1.16-0.319,1.16-1.193c0-0.766-0.353-1.244-1.236-1.244c-0.378,0-0.731,0.042-1.161,0.126l0.177-2.9h2.556v0.588h-2.01
				l-0.109,1.698c0.177-0.042,0.496-0.059,0.782-0.059c1.143,0,1.732,0.664,1.732,1.707
				C15.506,134.184,14.909,134.773,13.657,134.773z"/>
		</g>
		<g enable-background="new    ">
			<path d="M7.734,112.516v-0.547h1.278v-4.464l-1.144,0.454L7.7,107.547l1.471-0.706h0.555v5.128h1.144v0.547H7.734z"/>
			<path d="M13.372,112.583c-1.084,0-1.648-0.597-1.648-2.842c0-2.262,0.581-2.968,1.741-2.968c1.068,0,1.639,0.58,1.639,2.816
				C15.104,111.894,14.499,112.583,13.372,112.583z M13.414,107.287c-0.698,0-1,0.555-1,2.337c0,1.917,0.294,2.438,1,2.438
				c0.698,0,1.009-0.563,1.009-2.354C14.423,107.808,14.12,107.287,13.414,107.287z"/>
		</g>
		<g enable-background="new    ">
			<path d="M7.734,90.328v-0.547h1.278v-4.464l-1.144,0.454L7.7,85.359l1.471-0.706h0.555v5.128h1.144v0.547H7.734z"/>
			<path d="M13.153,90.395c-0.404,0-0.917-0.093-1.539-0.312l0.059-0.403c0.563,0.109,1.051,0.185,1.438,0.185
				c0.79,0,1.16-0.319,1.16-1.193c0-0.766-0.353-1.244-1.236-1.244c-0.378,0-0.731,0.042-1.161,0.126l0.177-2.9h2.556v0.588h-2.01
				l-0.109,1.698c0.177-0.042,0.496-0.059,0.782-0.059c1.143,0,1.732,0.664,1.732,1.707C15.003,89.806,14.406,90.395,13.153,90.395z
				"/>
		</g>
		<g enable-background="new    ">
			<path d="M7.523,68.138v-0.547c1.858-1.917,2.363-2.808,2.363-3.564c0-0.832-0.462-1.06-0.992-1.06
				c-0.361,0-0.706,0.102-1.16,0.261l-0.118-0.462c0.53-0.228,0.917-0.37,1.564-0.37c0.756,0,1.488,0.378,1.488,1.53
				c0,0.958-0.563,1.866-2.346,3.615h2.497v0.597H7.523z"/>
			<path d="M13.372,68.206c-1.084,0-1.648-0.597-1.648-2.842c0-2.262,0.581-2.968,1.741-2.968c1.068,0,1.639,0.58,1.639,2.816
				C15.104,67.516,14.499,68.206,13.372,68.206z M13.414,62.909c-0.698,0-1,0.555-1,2.337c0,1.917,0.294,2.438,1,2.438
				c0.698,0,1.009-0.563,1.009-2.354C14.423,63.43,14.12,62.909,13.414,62.909z"/>
		</g>
		<g enable-background="new    ">
			<path d="M7.523,45.949v-0.547c1.858-1.917,2.363-2.808,2.363-3.564c0-0.832-0.462-1.06-0.992-1.06
				c-0.361,0-0.706,0.102-1.16,0.261l-0.118-0.462c0.53-0.228,0.917-0.37,1.564-0.37c0.756,0,1.488,0.378,1.488,1.53
				c0,0.958-0.563,1.866-2.346,3.615h2.497v0.597H7.523z"/>
			<path d="M13.153,46.016c-0.404,0-0.917-0.093-1.539-0.312l0.059-0.403c0.563,0.109,1.051,0.185,1.438,0.185
				c0.79,0,1.16-0.319,1.16-1.193c0-0.766-0.353-1.244-1.236-1.244c-0.378,0-0.731,0.042-1.161,0.126l0.177-2.9h2.556v0.588h-2.01
				l-0.109,1.698c0.177-0.042,0.496-0.059,0.782-0.059c1.143,0,1.732,0.664,1.732,1.707C15.003,45.427,14.406,46.016,13.153,46.016z
				"/>
		</g>
		<g enable-background="new    ">
			<path d="M8.978,23.828c-0.412,0-0.925-0.101-1.563-0.328l0.067-0.412c0.58,0.126,1.034,0.193,1.396,0.193
				c0.866,0,1.152-0.378,1.152-1.144c0-0.697-0.303-1.126-1.169-1.126H8.213V20.49h0.623c0.698,0,1.034-0.345,1.034-1.034
				c0-0.555-0.236-0.892-0.976-0.892c-0.336,0-0.866,0.085-1.186,0.202l-0.101-0.454c0.345-0.143,0.883-0.294,1.53-0.294
				c1.018,0,1.472,0.605,1.472,1.354c0,0.757-0.378,1.193-0.875,1.32c0.698,0.042,1.06,0.706,1.06,1.37
				C10.794,23.273,10.189,23.828,8.978,23.828z"/>
			<path d="M13.372,23.828c-1.084,0-1.648-0.597-1.648-2.842c0-2.262,0.581-2.968,1.741-2.968c1.068,0,1.639,0.58,1.639,2.816
				C15.104,23.138,14.499,23.828,13.372,23.828z M13.414,18.531c-0.698,0-1,0.555-1,2.337c0,1.917,0.294,2.438,1,2.438
				c0.698,0,1.009-0.563,1.009-2.354C14.423,19.052,14.12,18.531,13.414,18.531z"/>
		</g>
	</g>
</g>
<rect x="80.781" y="94.465" fill="#243E8F" width="7.523" height="62.129"/>
<rect x="92.439" y="32.335" fill="#243E8F" width="7.524" height="124.259"/>
<rect x="104.099" y="147.719" fill="#243E8F" width="7.524" height="8.876"/>
<rect x="115.758" y="45.649" fill="#243E8F" width="7.523" height="110.946"/>
<rect x="127.416" y="129.968" fill="#243E8F" width="7.525" height="26.627"/>
<g>
	<rect x="139.077" y="138.843" fill="#243E8F" width="7.524" height="17.751"/>
	<rect x="139.078" y="131.27" fill="#9A9BC7" width="7.523" height="8.876"/>
</g>
<rect x="174.048" y="152.157" fill="#9A9BC7" width="7.52" height="4.438"/>
<rect x="185.704" y="152.157" fill="#243E8F" width="7.522" height="4.438"/>
<rect x="197.361" y="107.779" fill="#243E8F" width="7.523" height="48.816"/>
<rect x="220.675" y="152.157" fill="#243E8F" width="7.521" height="4.438"/>
<rect x="232.333" y="98.903" fill="#243E8F" width="7.521" height="57.692"/>
<rect x="243.988" y="54.525" fill="#243E8F" width="7.523" height="102.07"/>
<rect x="255.646" y="147.719" fill="#243E8F" width="7.523" height="8.876"/>
</svg>
