<?xml version="1.0" encoding="utf-8"?>
<!-- Generator: Adobe Illustrator 16.0.4, SVG Export Plug-In . SVG Version: 6.00 Build 0)  -->
<!DOCTYPE svg PUBLIC "-//W3C//DTD SVG 1.1//EN" "http://www.w3.org/Graphics/SVG/1.1/DTD/svg11.dtd">
<svg version="1.1" id="Layer_1" xmlns="http://www.w3.org/2000/svg" xmlns:xlink="http://www.w3.org/1999/xlink" x="0px" y="0px"
	 width="554.421px" height="27.21px" viewBox="0 0 554.421 27.21" enable-background="new 0 0 554.421 27.21" xml:space="preserve">
<g>
	<path d="M9.856,19.328h-0.28L9.534,19.16c-0.14-0.561-0.434-0.841-0.938-0.841c-0.602,0-0.911,0.399-0.911,0.834
		c0,0.371,0.147,0.609,0.729,0.931c0.904,0.483,1.212,0.806,1.212,1.429c0,0.848-0.687,1.443-1.737,1.443
		c-0.665,0-1.19-0.168-1.45-0.309l0.035-1.036h0.273l0.056,0.196c0.14,0.546,0.462,0.84,1.093,0.84c0.679,0,1.029-0.413,1.029-0.903
		c0-0.392-0.189-0.645-0.805-0.974c-0.854-0.455-1.128-0.798-1.128-1.4c0-0.764,0.638-1.358,1.632-1.358
		c0.581,0,1.036,0.182,1.268,0.329L9.856,19.328z"/>
	<path d="M11.717,22.969c-0.798,0-1.387-0.518-1.387-1.449c0-1.212,0.792-2.095,1.828-2.095c0.798,0,1.387,0.512,1.387,1.443
		C13.545,22.08,12.76,22.969,11.717,22.969z M12.116,19.699c-0.63,0-1.079,0.854-1.079,1.947c0,0.7,0.245,1.051,0.721,1.051
		c0.638,0,1.079-0.854,1.079-1.947C12.837,20.042,12.592,19.699,12.116,19.699z"/>
	<path d="M16.674,22.934c-0.357,0-0.512-0.266-0.456-0.679c-0.581,0.476-0.938,0.7-1.337,0.7c-0.406,0-0.638-0.217-0.638-0.645
		c0-0.112,0.021-0.245,0.049-0.385l0.273-1.45c0.063-0.309,0.007-0.448-0.259-0.546l-0.21-0.084l0.042-0.176l1.156-0.224
		l0.077,0.084l-0.435,2.276c-0.021,0.091-0.042,0.245-0.042,0.336c0,0.168,0.091,0.301,0.28,0.301c0.238,0,0.553-0.153,1.106-0.595
		l0.448-2.333h0.617l-0.491,2.585c-0.049,0.238,0.014,0.336,0.147,0.336c0.112,0,0.273-0.091,0.455-0.231l0.154,0.196
		C17.255,22.752,16.947,22.934,16.674,22.934z"/>
	<path d="M20.39,20.238c-0.217-0.014-0.378-0.035-0.588-0.077c-0.224,0.112-0.462,0.309-0.7,0.547l-0.413,2.171h-0.617l0.456-2.402
		c0.063-0.309,0.007-0.448-0.252-0.546l-0.21-0.084l0.042-0.176l1.135-0.224l0.077,0.084l-0.154,0.798
		c0.603-0.707,0.827-0.896,1.093-0.896c0.21,0,0.343,0.112,0.343,0.322C20.601,19.951,20.495,20.14,20.39,20.238z"/>
	<path d="M23.072,20.553c-0.196,0-0.273-0.133-0.42-0.806c-0.056-0.028-0.105-0.035-0.175-0.035c-0.637,0-1.079,0.715-1.079,1.583
		c0,0.834,0.385,1.226,0.89,1.226c0.294,0,0.483-0.084,0.805-0.308l0.154,0.203c-0.385,0.364-0.729,0.553-1.254,0.553
		c-0.693,0-1.282-0.483-1.282-1.422c0-1.169,0.82-2.122,1.849-2.122c0.616,0,0.974,0.351,0.974,0.729
		C23.534,20.378,23.296,20.553,23.072,20.553z"/>
	<path d="M24.569,21.436c0.035,0.735,0.357,1.1,0.854,1.1c0.315,0,0.561-0.119,0.904-0.386l0.175,0.189
		c-0.406,0.406-0.784,0.623-1.316,0.623c-0.756,0-1.296-0.546-1.296-1.407c0-1.107,0.854-2.13,1.856-2.13
		c0.68,0,1.03,0.294,1.03,0.771C26.776,20.882,26.033,21.302,24.569,21.436z M25.606,19.699c-0.546,0-0.987,0.722-1.037,1.492
		c1.135-0.112,1.513-0.448,1.513-0.988C26.083,19.88,25.942,19.699,25.606,19.699z"/>
	<path d="M27.67,22.934c-0.273,0-0.483-0.203-0.483-0.482c0-0.267,0.21-0.47,0.483-0.47c0.266,0,0.476,0.203,0.476,0.47
		C28.146,22.731,27.937,22.934,27.67,22.934z M28.062,20.42c-0.266,0-0.476-0.203-0.476-0.483c0-0.267,0.21-0.47,0.476-0.47
		c0.273,0,0.483,0.203,0.483,0.47C28.546,20.217,28.336,20.42,28.062,20.42z"/>
	<path d="M32.025,22.914c-0.435,0-0.757-0.112-0.995-0.238l-0.294,0.294h-0.189l0.785-4.265c0.063-0.322,0-0.448-0.259-0.547
		l-0.21-0.084l0.042-0.175l1.142-0.238l0.084,0.084l-0.427,2.29c0.385-0.378,0.693-0.595,1.092-0.595
		c0.609,0,1.037,0.546,1.037,1.295C33.832,22.031,32.929,22.914,32.025,22.914z M32.543,19.944c-0.301,0-0.54,0.154-0.911,0.512
		l-0.175,0.917c-0.021,0.126-0.042,0.322-0.042,0.455c0,0.455,0.238,0.75,0.714,0.75c0.623,0,1.043-0.603,1.043-1.667
		C33.174,20.315,32.908,19.944,32.543,19.944z"/>
	<path d="M37.024,22.934c-0.351,0-0.483-0.266-0.469-0.595c-0.393,0.392-0.714,0.616-1.128,0.616c-0.602,0-1.016-0.455-1.016-1.212
		c0-1.303,0.96-2.262,1.877-2.262c0.399,0,0.665,0.091,0.917,0.23l0.315-0.287h0.189l-0.511,2.676
		c-0.042,0.238,0.021,0.336,0.154,0.336c0.112,0,0.273-0.091,0.455-0.231l0.154,0.196C37.605,22.752,37.297,22.934,37.024,22.934z
		 M36.183,19.811c-0.637,0-1.113,0.7-1.113,1.729c0,0.603,0.245,0.903,0.609,0.903c0.315,0,0.56-0.153,0.938-0.511l0.182-0.938
		c0.021-0.126,0.035-0.322,0.035-0.455C36.834,20.098,36.597,19.811,36.183,19.811z"/>
	<path d="M40.439,20.35c-0.14,0-0.252-0.133-0.448-0.638c-0.035-0.014-0.077-0.021-0.14-0.021c-0.364,0-0.645,0.266-0.645,0.567
		c0,0.287,0.112,0.42,0.624,0.693c0.609,0.329,0.812,0.574,0.812,0.966c0,0.631-0.546,1.051-1.324,1.051
		c-0.742,0-1.148-0.294-1.148-0.588c0-0.176,0.252-0.364,0.427-0.364c0.154,0,0.252,0.14,0.455,0.638
		c0.063,0.027,0.168,0.049,0.273,0.049c0.413,0,0.714-0.252,0.714-0.574c0-0.267-0.105-0.414-0.624-0.693
		c-0.581-0.315-0.812-0.547-0.812-0.988c0-0.504,0.448-1.022,1.268-1.022c0.658,0,0.987,0.322,0.987,0.582
		C40.859,20.189,40.621,20.35,40.439,20.35z"/>
	<path d="M41.992,21.436c0.035,0.735,0.357,1.1,0.854,1.1c0.315,0,0.561-0.119,0.904-0.386l0.175,0.189
		c-0.406,0.406-0.784,0.623-1.316,0.623c-0.756,0-1.296-0.546-1.296-1.407c0-1.107,0.854-2.13,1.856-2.13
		c0.68,0,1.03,0.294,1.03,0.771C44.199,20.882,43.456,21.302,41.992,21.436z M43.029,19.699c-0.546,0-0.987,0.722-1.037,1.492
		c1.135-0.112,1.513-0.448,1.513-0.988C43.505,19.88,43.365,19.699,43.029,19.699z"/>
	<path d="M46.06,22.914c-0.435,0-0.757-0.112-0.995-0.238l-0.294,0.294h-0.189l0.784-4.265c0.063-0.322,0-0.448-0.259-0.547
		l-0.21-0.084l0.042-0.175l1.142-0.238l0.084,0.084l-0.427,2.29c0.385-0.378,0.693-0.595,1.092-0.595
		c0.609,0,1.037,0.546,1.037,1.295C47.867,22.031,46.963,22.914,46.06,22.914z M46.578,19.944c-0.301,0-0.539,0.154-0.911,0.512
		l-0.175,0.917c-0.021,0.126-0.042,0.322-0.042,0.455c0,0.455,0.238,0.75,0.714,0.75c0.623,0,1.043-0.603,1.043-1.667
		C47.208,20.315,46.942,19.944,46.578,19.944z"/>
	<path d="M51.059,22.934c-0.351,0-0.483-0.266-0.469-0.595c-0.393,0.392-0.714,0.616-1.128,0.616c-0.602,0-1.016-0.455-1.016-1.212
		c0-1.303,0.96-2.262,1.877-2.262c0.399,0,0.665,0.091,0.917,0.23l0.315-0.287h0.189l-0.511,2.676
		c-0.042,0.238,0.021,0.336,0.154,0.336c0.112,0,0.273-0.091,0.455-0.231l0.154,0.196C51.64,22.752,51.332,22.934,51.059,22.934z
		 M50.218,19.811c-0.637,0-1.113,0.7-1.113,1.729c0,0.603,0.245,0.903,0.609,0.903c0.315,0,0.56-0.153,0.938-0.511l0.182-0.938
		c0.021-0.126,0.035-0.322,0.035-0.455C50.869,20.098,50.631,19.811,50.218,19.811z"/>
	<path d="M53.206,22.101c-0.042,0.238,0.014,0.336,0.147,0.336c0.112,0,0.273-0.091,0.456-0.231l0.154,0.196
		c-0.357,0.351-0.665,0.532-0.931,0.532c-0.378,0-0.546-0.279-0.469-0.714l0.63-3.53c0.063-0.329-0.028-0.441-0.259-0.532
		l-0.21-0.084l0.042-0.175l1.134-0.238l0.084,0.084L53.206,22.101z"/>
	<path d="M55.243,22.101c-0.042,0.238,0.014,0.336,0.147,0.336c0.112,0,0.273-0.091,0.456-0.231L56,22.402
		c-0.357,0.351-0.666,0.532-0.932,0.532c-0.378,0-0.546-0.279-0.469-0.714l0.63-3.53c0.063-0.329-0.028-0.441-0.259-0.532
		l-0.21-0.084l0.042-0.175l1.134-0.238l0.084,0.084L55.243,22.101z"/>
	<path d="M58.436,21.205h-1.939l0.098-0.532h1.94L58.436,21.205z"/>
	<path d="M61.334,20.238c-0.218-0.014-0.379-0.035-0.589-0.077c-0.224,0.112-0.462,0.309-0.7,0.547l-0.413,2.171h-0.616l0.455-2.402
		c0.062-0.309,0.007-0.448-0.252-0.546l-0.21-0.084l0.042-0.176l1.134-0.224l0.077,0.084l-0.153,0.798
		c0.602-0.707,0.826-0.896,1.092-0.896c0.211,0,0.344,0.112,0.344,0.322C61.544,19.951,61.438,20.14,61.334,20.238z"/>
	<path d="M62.327,21.436c0.035,0.735,0.357,1.1,0.854,1.1c0.315,0,0.561-0.119,0.903-0.386l0.176,0.189
		c-0.406,0.406-0.785,0.623-1.317,0.623c-0.756,0-1.295-0.546-1.295-1.407c0-1.107,0.854-2.13,1.855-2.13
		c0.68,0,1.029,0.294,1.029,0.771C64.533,20.882,63.791,21.302,62.327,21.436z M63.364,19.699c-0.547,0-0.988,0.722-1.037,1.492
		c1.135-0.112,1.513-0.448,1.513-0.988C63.84,19.88,63.7,19.699,63.364,19.699z"/>
	<path d="M67.642,18.438c-0.146,0-0.294-0.112-0.672-0.435c-0.364,0.147-0.596,0.574-0.693,1.296l-0.035,0.252h0.749l-0.062,0.393
		h-0.75l-0.308,2.038c-0.217,1.429-0.945,2.438-1.653,2.438c-0.238,0-0.371-0.119-0.371-0.336c0-0.231,0.154-0.386,0.302-0.386
		c0.126,0,0.252,0.021,0.609,0.168c0.153-0.154,0.287-0.539,0.356-1.016l0.441-2.906h-0.519l0.042-0.245l0.533-0.119
		c0.203-1.17,0.973-1.954,1.813-1.954c0.406,0,0.596,0.154,0.596,0.406C68.021,18.221,67.81,18.438,67.642,18.438z"/>
	<path d="M67.773,21.436c0.035,0.735,0.357,1.1,0.854,1.1c0.315,0,0.561-0.119,0.903-0.386l0.176,0.189
		c-0.406,0.406-0.785,0.623-1.317,0.623c-0.756,0-1.295-0.546-1.295-1.407c0-1.107,0.854-2.13,1.855-2.13
		c0.68,0,1.029,0.294,1.029,0.771C69.979,20.882,69.237,21.302,67.773,21.436z M68.811,19.699c-0.547,0-0.988,0.722-1.037,1.492
		c1.135-0.112,1.513-0.448,1.513-0.988C69.286,19.88,69.146,19.699,68.811,19.699z"/>
	<path d="M72.773,20.238c-0.218-0.014-0.379-0.035-0.589-0.077c-0.224,0.112-0.462,0.309-0.7,0.547l-0.413,2.171h-0.616l0.455-2.402
		c0.062-0.309,0.007-0.448-0.252-0.546l-0.21-0.084l0.042-0.176l1.134-0.224l0.077,0.084l-0.153,0.798
		c0.602-0.707,0.826-0.896,1.092-0.896c0.211,0,0.344,0.112,0.344,0.322C72.983,19.951,72.878,20.14,72.773,20.238z"/>
	<path d="M73.767,21.436c0.035,0.735,0.357,1.1,0.854,1.1c0.315,0,0.561-0.119,0.903-0.386l0.176,0.189
		c-0.406,0.406-0.785,0.623-1.317,0.623c-0.756,0-1.295-0.546-1.295-1.407c0-1.107,0.854-2.13,1.855-2.13
		c0.68,0,1.029,0.294,1.029,0.771C75.973,20.882,75.23,21.302,73.767,21.436z M74.804,19.699c-0.547,0-0.988,0.722-1.037,1.492
		c1.135-0.112,1.513-0.448,1.513-0.988C75.279,19.88,75.14,19.699,74.804,19.699z"/>
	<path d="M78.996,22.934c-0.371,0-0.567-0.252-0.462-0.756l0.336-1.597c0.015-0.07,0.042-0.238,0.042-0.337
		c0-0.168-0.098-0.301-0.28-0.301c-0.245,0-0.567,0.161-1.12,0.603l-0.448,2.332h-0.616l0.455-2.402
		c0.062-0.309,0.007-0.448-0.252-0.546l-0.21-0.084l0.042-0.176l1.134-0.224l0.077,0.084l-0.119,0.609
		c0.582-0.477,0.946-0.7,1.345-0.7c0.406,0,0.638,0.21,0.638,0.637c0,0.112-0.014,0.252-0.042,0.393l-0.336,1.632
		c-0.049,0.231,0.014,0.336,0.146,0.336c0.112,0,0.273-0.091,0.456-0.231l0.153,0.196C79.578,22.752,79.27,22.934,78.996,22.934z"/>
	<path d="M82.686,20.553c-0.196,0-0.273-0.133-0.421-0.806c-0.056-0.028-0.104-0.035-0.175-0.035c-0.638,0-1.078,0.715-1.078,1.583
		c0,0.834,0.385,1.226,0.889,1.226c0.295,0,0.483-0.084,0.806-0.308l0.154,0.203c-0.386,0.364-0.729,0.553-1.254,0.553
		c-0.693,0-1.281-0.483-1.281-1.422c0-1.169,0.819-2.122,1.849-2.122c0.616,0,0.974,0.351,0.974,0.729
		C83.147,20.378,82.909,20.553,82.686,20.553z"/>
	<path d="M84.184,21.436c0.035,0.735,0.357,1.1,0.854,1.1c0.315,0,0.561-0.119,0.903-0.386l0.176,0.189
		c-0.406,0.406-0.785,0.623-1.317,0.623c-0.756,0-1.295-0.546-1.295-1.407c0-1.107,0.854-2.13,1.855-2.13
		c0.68,0,1.029,0.294,1.029,0.771C86.39,20.882,85.647,21.302,84.184,21.436z M85.221,19.699c-0.547,0-0.988,0.722-1.037,1.492
		c1.135-0.112,1.513-0.448,1.513-0.988C85.696,19.88,85.557,19.699,85.221,19.699z"/>
	<path d="M87.2,22.934c-0.267,0-0.477-0.203-0.477-0.482c0-0.267,0.21-0.47,0.477-0.47c0.266,0,0.476,0.203,0.476,0.47
		C87.676,22.731,87.466,22.934,87.2,22.934z"/>
	<path d="M90.681,20.553c-0.196,0-0.273-0.133-0.421-0.806c-0.056-0.028-0.104-0.035-0.175-0.035c-0.638,0-1.078,0.715-1.078,1.583
		c0,0.834,0.385,1.226,0.889,1.226c0.295,0,0.483-0.084,0.806-0.308l0.154,0.203c-0.386,0.364-0.729,0.553-1.254,0.553
		c-0.693,0-1.281-0.483-1.281-1.422c0-1.169,0.819-2.122,1.849-2.122c0.616,0,0.974,0.351,0.974,0.729
		C91.143,20.378,90.904,20.553,90.681,20.553z"/>
	<path d="M92.906,22.969c-0.799,0-1.387-0.518-1.387-1.449c0-1.212,0.791-2.095,1.828-2.095c0.799,0,1.387,0.512,1.387,1.443
		C94.734,22.08,93.95,22.969,92.906,22.969z M93.306,19.699c-0.631,0-1.079,0.854-1.079,1.947c0,0.7,0.245,1.051,0.722,1.051
		c0.638,0,1.079-0.854,1.079-1.947C94.027,20.042,93.782,19.699,93.306,19.699z"/>
	<path d="M99.754,22.934c-0.371,0-0.567-0.252-0.462-0.756l0.336-1.604c0.014-0.069,0.042-0.237,0.042-0.336
		c0-0.161-0.098-0.294-0.266-0.294c-0.196,0-0.519,0.161-1.051,0.574l-0.455,2.36h-0.616l0.44-2.305
		c0.015-0.076,0.042-0.237,0.042-0.336c0-0.161-0.098-0.294-0.266-0.294c-0.203,0-0.547,0.161-1.1,0.603l-0.448,2.332h-0.616
		l0.455-2.402c0.062-0.309,0.007-0.448-0.252-0.546l-0.21-0.084l0.042-0.176l1.134-0.224l0.077,0.084l-0.119,0.609
		c0.582-0.477,0.96-0.7,1.324-0.7c0.399,0,0.638,0.245,0.623,0.658c0.554-0.448,0.938-0.658,1.289-0.658
		c0.385,0,0.623,0.224,0.623,0.63c0,0.112-0.014,0.245-0.042,0.386l-0.343,1.646c-0.05,0.231,0.014,0.336,0.146,0.336
		c0.112,0,0.273-0.091,0.455-0.231l0.154,0.196C100.335,22.752,100.027,22.934,99.754,22.934z"/>
</g>
<g>
	<path d="M505.167,19.208h-0.253l-0.041-0.267c-0.07-0.434-0.231-0.532-0.896-0.532h-0.623l-0.582,3.278
		c-0.119,0.687-0.057,0.854,0.322,0.896l0.309,0.035l-0.049,0.266c-0.141,0-0.855-0.014-1.121-0.014s-1.016,0.014-1.156,0.014
		l0.049-0.266l0.316-0.035c0.406-0.042,0.518-0.21,0.637-0.896l0.582-3.278h-0.589c-0.665,0-0.876,0.099-1.142,0.54l-0.154,0.259
		h-0.26l0.379-1.268h0.203c0.161,0.14,0.26,0.161,1.947,0.161c1.736,0,1.869-0.021,2.102-0.161h0.203L505.167,19.208z"/>
	<path d="M507.791,22.934c-0.371,0-0.567-0.252-0.462-0.756l0.336-1.597c0.014-0.07,0.042-0.238,0.042-0.337
		c0-0.168-0.098-0.301-0.28-0.301c-0.244,0-0.574,0.161-1.127,0.603l-0.435,2.332h-0.616l0.771-4.174
		c0.063-0.309,0.007-0.448-0.259-0.547l-0.203-0.084l0.041-0.175l1.135-0.238l0.084,0.084l-0.441,2.389
		c0.574-0.477,0.939-0.693,1.338-0.693c0.406,0,0.638,0.21,0.638,0.637c0,0.112-0.015,0.252-0.042,0.393l-0.336,1.632
		c-0.049,0.231,0.014,0.336,0.146,0.336c0.112,0,0.273-0.091,0.455-0.231l0.154,0.196C508.372,22.752,508.064,22.934,507.791,22.934
		z"/>
	<path d="M509.792,21.436c0.035,0.735,0.357,1.1,0.854,1.1c0.315,0,0.561-0.119,0.903-0.386l0.176,0.189
		c-0.406,0.406-0.785,0.623-1.316,0.623c-0.757,0-1.297-0.546-1.297-1.407c0-1.107,0.855-2.13,1.856-2.13
		c0.68,0,1.03,0.294,1.03,0.771C511.999,20.882,511.255,21.302,509.792,21.436z M510.829,19.699c-0.547,0-0.988,0.722-1.037,1.492
		c1.135-0.112,1.514-0.448,1.514-0.988C511.305,19.88,511.165,19.699,510.829,19.699z"/>
	<path d="M516.106,22.892c-0.58,0-0.938-0.021-1.273-0.021c-0.267,0-0.883,0.014-1.037,0.014l0.049-0.266l0.26-0.035
		c0.35-0.049,0.455-0.196,0.581-0.896l0.42-2.409c0.119-0.693,0.077-0.854-0.252-0.896l-0.267-0.035l0.049-0.267
		c0.154,0,0.723,0.015,0.975,0.015c0.217,0,0.447-0.008,0.679-0.008c1.485,0,2.655,0.687,2.655,2.13
		C518.944,21.834,517.682,22.892,516.106,22.892z M516.275,18.375c-0.14,0-0.238,0.015-0.322,0.035l-0.574,3.257
		c-0.119,0.693,0.069,0.938,0.742,0.938c1.219,0,2.017-0.91,2.017-2.353C518.137,19.034,517.444,18.375,516.275,18.375z"/>
	<path d="M520.124,21.436c0.035,0.735,0.357,1.1,0.854,1.1c0.315,0,0.561-0.119,0.903-0.386l0.176,0.189
		c-0.406,0.406-0.785,0.623-1.316,0.623c-0.757,0-1.297-0.546-1.297-1.407c0-1.107,0.855-2.13,1.856-2.13
		c0.68,0,1.03,0.294,1.03,0.771C522.331,20.882,521.587,21.302,520.124,21.436z M521.161,19.699c-0.547,0-0.988,0.722-1.037,1.492
		c1.135-0.112,1.514-0.448,1.514-0.988C521.637,19.88,521.497,19.699,521.161,19.699z"/>
	<path d="M525.354,22.934c-0.371,0-0.567-0.252-0.463-0.756l0.336-1.597c0.015-0.07,0.043-0.238,0.043-0.337
		c0-0.168-0.098-0.301-0.28-0.301c-0.245,0-0.567,0.161-1.12,0.603l-0.449,2.332h-0.616l0.456-2.402
		c0.062-0.309,0.006-0.448-0.253-0.546l-0.21-0.084l0.042-0.176l1.135-0.224l0.077,0.084l-0.119,0.609
		c0.581-0.477,0.945-0.7,1.345-0.7c0.406,0,0.638,0.21,0.638,0.637c0,0.112-0.015,0.252-0.043,0.393l-0.336,1.632
		c-0.049,0.231,0.014,0.336,0.147,0.336c0.112,0,0.272-0.091,0.455-0.231l0.154,0.196C525.935,22.752,525.627,22.934,525.354,22.934
		z"/>
	<path d="M527.901,22.962h-0.26l-0.531-2.507c-0.063-0.322-0.162-0.428-0.421-0.533l-0.188-0.076l0.035-0.176l0.938-0.224
		l0.092,0.077l0.546,2.759c0.603-0.637,1.001-1.387,1.106-1.849c-0.357-0.435-0.428-0.554-0.428-0.658
		c0-0.168,0.203-0.344,0.441-0.344c0.295,0,0.49,0.253,0.49,0.582C529.721,20.721,528.972,21.926,527.901,22.962z"/>
	<path d="M530.89,21.436c0.035,0.735,0.357,1.1,0.854,1.1c0.315,0,0.561-0.119,0.904-0.386l0.174,0.189
		c-0.406,0.406-0.783,0.623-1.316,0.623c-0.756,0-1.295-0.546-1.295-1.407c0-1.107,0.854-2.13,1.855-2.13
		c0.68,0,1.029,0.294,1.029,0.771C533.096,20.882,532.354,21.302,530.89,21.436z M531.926,19.699c-0.546,0-0.986,0.722-1.036,1.492
		c1.135-0.112,1.513-0.448,1.513-0.988C532.403,19.88,532.263,19.699,531.926,19.699z"/>
	<path d="M535.889,20.238c-0.217-0.014-0.378-0.035-0.588-0.077c-0.225,0.112-0.463,0.309-0.701,0.547l-0.412,2.171h-0.617
		l0.455-2.402c0.063-0.309,0.008-0.448-0.252-0.546l-0.21-0.084l0.042-0.176l1.135-0.224l0.077,0.084l-0.154,0.798
		c0.603-0.707,0.827-0.896,1.093-0.896c0.21,0,0.344,0.112,0.344,0.322C536.1,19.951,535.995,20.14,535.889,20.238z"/>
	<path d="M540.11,20.988l-0.028-0.245c0.799-0.105,1.274-0.547,1.274-1.373c0-0.623-0.357-1.016-1.016-1.016
		c-0.188,0-0.308,0.014-0.434,0.049l-0.574,3.285c-0.119,0.679-0.057,0.854,0.322,0.896l0.329,0.035l-0.05,0.266
		c-0.14,0-0.882-0.014-1.148-0.014c-0.266,0-0.882,0.014-1.036,0.014l0.049-0.266l0.259-0.035c0.351-0.049,0.455-0.196,0.582-0.896
		l0.42-2.409c0.119-0.693,0.077-0.854-0.252-0.896l-0.266-0.035l0.049-0.267c0.154,0,0.77,0.015,1.036,0.015
		s0.511-0.015,0.771-0.015c0.974,0,1.736,0.435,1.736,1.233C542.133,20.357,541.342,20.869,540.11,20.988z"/>
	<path d="M543.686,22.969c-0.798,0-1.387-0.518-1.387-1.449c0-1.212,0.792-2.095,1.828-2.095c0.799,0,1.387,0.512,1.387,1.443
		C545.514,22.08,544.73,22.969,543.686,22.969z M544.086,19.699c-0.631,0-1.079,0.854-1.079,1.947c0,0.7,0.245,1.051,0.722,1.051
		c0.637,0,1.078-0.854,1.078-1.947C544.807,20.042,544.562,19.699,544.086,19.699z"/>
	<path d="M548.131,20.35c-0.14,0-0.252-0.133-0.448-0.638c-0.034-0.014-0.077-0.021-0.14-0.021c-0.364,0-0.645,0.266-0.645,0.567
		c0,0.287,0.111,0.42,0.623,0.693c0.609,0.329,0.812,0.574,0.812,0.966c0,0.631-0.546,1.051-1.324,1.051
		c-0.742,0-1.148-0.294-1.148-0.588c0-0.176,0.252-0.364,0.428-0.364c0.154,0,0.252,0.14,0.455,0.638
		c0.063,0.027,0.168,0.049,0.273,0.049c0.413,0,0.715-0.252,0.715-0.574c0-0.267-0.105-0.414-0.624-0.693
		c-0.581-0.315-0.812-0.547-0.812-0.988c0-0.504,0.448-1.022,1.269-1.022c0.658,0,0.986,0.322,0.986,0.582
		C548.551,20.189,548.313,20.35,548.131,20.35z"/>
	<path d="M551.121,19.916h-0.932l-0.378,2.011c-0.014,0.084-0.021,0.188-0.021,0.266c0,0.196,0.112,0.315,0.301,0.315
		c0.197,0,0.352-0.091,0.525-0.231l0.168,0.203c-0.237,0.245-0.56,0.47-0.931,0.47c-0.448,0-0.7-0.252-0.7-0.631
		c0-0.069,0.014-0.224,0.027-0.294l0.393-2.108h-0.455l0.035-0.238l0.518-0.161L550,18.62h0.427l-0.175,0.904h0.932L551.121,19.916z
		"/>
</g>
<rect x="130.977" y="3.789" fill="#243E8F" width="8.499" height="6.333"/>
<g>
	<path d="M5.47,6.739l0.777,0.777l-0.14,0.161L5.218,7.04L4.931,8.105L4.72,8.07l0.091-1.107L3.754,7.264l-0.07-0.196l0.995-0.469
		L3.908,5.814l0.133-0.161l0.89,0.638l0.287-1.064l0.21,0.042l-0.091,1.1l1.058-0.302l0.077,0.196L5.47,6.739z"/>
	<path d="M14.053,5.59l-0.259,0.035c-0.351,0.049-0.456,0.195-0.575,0.896l-0.427,2.409c-0.119,0.693-0.07,0.854,0.259,0.896
		l0.259,0.035l-0.049,0.266c-0.154,0-0.757-0.014-1.023-0.014s-0.973,0.014-1.121,0.014l0.049-0.266l0.287-0.035
		c0.406-0.049,0.525-0.218,0.644-0.896l0.182-1.044H9.928L9.739,8.931C9.62,9.61,9.676,9.779,10.061,9.828l0.288,0.035l-0.049,0.266
		c-0.14,0-0.826-0.014-1.093-0.014c-0.266,0-0.896,0.014-1.05,0.014l0.049-0.266l0.259-0.035c0.35-0.049,0.455-0.196,0.582-0.896
		l0.42-2.409c0.119-0.693,0.077-0.854-0.252-0.896L8.948,5.59l0.049-0.267c0.154,0,0.764,0.015,1.03,0.015S11,5.324,11.14,5.324
		L11.091,5.59l-0.287,0.035c-0.406,0.049-0.519,0.217-0.637,0.896L9.984,7.53h2.36l0.175-1.008c0.126-0.68,0.063-0.848-0.315-0.896
		L11.91,5.59l0.049-0.267c0.147,0,0.833,0.015,1.1,0.015c0.266,0,0.889-0.015,1.043-0.015L14.053,5.59z"/>
	<path d="M16.635,10.177c-0.351,0-0.483-0.266-0.469-0.595c-0.393,0.392-0.714,0.616-1.128,0.616c-0.602,0-1.016-0.455-1.016-1.212
		c0-1.303,0.96-2.262,1.877-2.262c0.399,0,0.665,0.091,0.917,0.23l0.315-0.287h0.189L16.81,9.344
		c-0.042,0.238,0.021,0.336,0.154,0.336c0.112,0,0.273-0.091,0.455-0.231l0.154,0.196C17.216,9.996,16.908,10.177,16.635,10.177z
		 M15.794,7.054c-0.637,0-1.113,0.7-1.113,1.729c0,0.603,0.245,0.903,0.609,0.903c0.315,0,0.56-0.153,0.938-0.511l0.182-0.938
		c0.021-0.126,0.035-0.322,0.035-0.455C16.445,7.341,16.208,7.054,15.794,7.054z"/>
	<path d="M21.158,10.206h-0.252l-0.427-2.15c-0.266,0.658-0.771,1.548-1.331,2.15h-0.252L18.455,7.67
		c-0.056-0.28-0.161-0.399-0.42-0.505l-0.189-0.076l0.035-0.176l0.938-0.224l0.091,0.077l0.448,2.696
		c0.462-0.574,1.009-1.786,1.022-2.689l0.364-0.084l0.091,0.077l0.539,2.752c0.567-0.616,0.875-1.352,0.988-1.828
		c-0.357-0.44-0.441-0.56-0.441-0.672c0-0.168,0.203-0.344,0.441-0.344c0.294,0,0.49,0.253,0.49,0.582
		C22.853,7.964,22.208,9.169,21.158,10.206z"/>
	<path d="M25.672,10.177c-0.245,0-0.378-0.126-0.525-0.427l-0.679-1.324c-0.126,0.134-0.238,0.253-0.329,0.357l-0.245,1.338h-0.616
		l0.77-4.174c0.063-0.309,0.007-0.448-0.259-0.547l-0.203-0.084l0.042-0.175l1.135-0.238l0.084,0.084l-0.617,3.327l1.009-1.121
		c0.315-0.35,0.511-0.511,0.84-0.511c0.266,0,0.427,0.146,0.427,0.35c0,0.218-0.105,0.357-0.238,0.357
		c-0.112,0-0.266-0.028-0.595-0.119c-0.147,0.105-0.448,0.385-0.756,0.7l0.777,1.527c0.07,0.126,0.14,0.182,0.231,0.182
		c0.091,0,0.245-0.084,0.448-0.231l0.154,0.196C26.177,9.996,25.875,10.177,25.672,10.177z"/>
	<path d="M27.589,10.177c-0.378,0-0.546-0.279-0.462-0.714l0.33-1.744c0.056-0.309,0.007-0.448-0.259-0.546l-0.21-0.084l0.042-0.176
		l1.148-0.224l0.077,0.084l-0.49,2.57c-0.049,0.238,0.014,0.336,0.147,0.336c0.112,0,0.273-0.091,0.455-0.231l0.154,0.196
		C28.164,9.996,27.855,10.177,27.589,10.177z M28.023,5.926c-0.259,0-0.469-0.196-0.469-0.462c0-0.26,0.21-0.455,0.469-0.455
		c0.252,0,0.456,0.195,0.456,0.455C28.479,5.73,28.276,5.926,28.023,5.926z"/>
	<path d="M31.581,10.177c-0.372,0-0.567-0.252-0.462-0.756l0.336-1.597c0.014-0.07,0.042-0.238,0.042-0.337
		c0-0.168-0.098-0.301-0.28-0.301c-0.245,0-0.567,0.161-1.121,0.603l-0.448,2.332h-0.617l0.456-2.402
		c0.063-0.309,0.007-0.448-0.252-0.546l-0.21-0.084l0.042-0.176l1.135-0.224l0.077,0.084l-0.119,0.609
		c0.581-0.477,0.945-0.7,1.345-0.7c0.406,0,0.637,0.21,0.637,0.637c0,0.112-0.014,0.252-0.042,0.393l-0.336,1.632
		C31.713,9.576,31.776,9.68,31.91,9.68c0.112,0,0.273-0.091,0.455-0.231l0.154,0.196C32.162,9.996,31.854,10.177,31.581,10.177z"/>
	<path d="M34.968,7.593c-0.14,0-0.252-0.133-0.448-0.638c-0.035-0.014-0.077-0.021-0.14-0.021c-0.364,0-0.645,0.266-0.645,0.567
		c0,0.287,0.112,0.42,0.624,0.693c0.609,0.329,0.812,0.574,0.812,0.966c0,0.631-0.546,1.051-1.324,1.051
		c-0.742,0-1.148-0.294-1.148-0.588c0-0.176,0.252-0.364,0.427-0.364c0.154,0,0.252,0.14,0.455,0.638
		c0.063,0.027,0.168,0.049,0.273,0.049c0.413,0,0.714-0.252,0.714-0.574c0-0.267-0.105-0.414-0.624-0.693
		c-0.581-0.315-0.812-0.547-0.812-0.988c0-0.504,0.448-1.022,1.268-1.022c0.658,0,0.987,0.322,0.987,0.582
		C35.388,7.432,35.15,7.593,34.968,7.593z"/>
	<path d="M39.587,7.593c-0.14,0-0.252-0.133-0.448-0.638C39.104,6.942,39.062,6.935,39,6.935c-0.364,0-0.645,0.266-0.645,0.567
		c0,0.287,0.112,0.42,0.624,0.693c0.609,0.329,0.812,0.574,0.812,0.966c0,0.631-0.546,1.051-1.324,1.051
		c-0.742,0-1.148-0.294-1.148-0.588c0-0.176,0.252-0.364,0.427-0.364c0.154,0,0.252,0.14,0.455,0.638
		c0.063,0.027,0.168,0.049,0.273,0.049c0.413,0,0.714-0.252,0.714-0.574c0-0.267-0.105-0.414-0.624-0.693
		c-0.581-0.315-0.812-0.547-0.812-0.988c0-0.504,0.448-1.022,1.268-1.022c0.658,0,0.987,0.322,0.987,0.582
		C40.008,7.432,39.77,7.593,39.587,7.593z"/>
	<path d="M41.982,10.157c-0.343,0-0.567-0.057-0.812-0.161l-0.105,0.623c-0.105,0.631-0.049,0.693,0.259,0.722l0.294,0.028
		l-0.035,0.252c-0.168,0-0.666-0.007-0.974-0.007c-0.315,0-0.749,0.007-0.924,0.007l0.035-0.245l0.252-0.028
		c0.308-0.035,0.371-0.126,0.476-0.729l0.511-2.899c0.063-0.322,0-0.448-0.259-0.546l-0.21-0.084l0.042-0.176l1.135-0.224
		l0.077,0.084l-0.098,0.519c0.385-0.393,0.708-0.609,1.106-0.609c0.609,0,1.037,0.546,1.037,1.295
		C43.789,9.274,42.885,10.157,41.982,10.157z M42.5,7.187c-0.301,0-0.546,0.154-0.917,0.512l-0.168,0.917
		c-0.021,0.126-0.035,0.322-0.035,0.455c0,0.455,0.231,0.75,0.708,0.75c0.623,0,1.043-0.603,1.043-1.667
		C43.13,7.558,42.864,7.187,42.5,7.187z"/>
	<path d="M45.138,9.344c-0.042,0.238,0.014,0.336,0.147,0.336c0.112,0,0.273-0.091,0.456-0.231l0.154,0.196
		c-0.357,0.351-0.665,0.532-0.931,0.532c-0.378,0-0.546-0.279-0.469-0.714l0.63-3.53c0.063-0.329-0.028-0.441-0.259-0.532
		l-0.21-0.084l0.042-0.175l1.134-0.238l0.084,0.084L45.138,9.344z"/>
	<path d="M47.07,10.177c-0.378,0-0.546-0.279-0.462-0.714l0.33-1.744c0.056-0.309,0.007-0.448-0.259-0.546l-0.21-0.084l0.042-0.176
		l1.148-0.224l0.077,0.084l-0.49,2.57c-0.049,0.238,0.014,0.336,0.147,0.336c0.112,0,0.273-0.091,0.455-0.231l0.154,0.196
		C47.644,9.996,47.336,10.177,47.07,10.177z M47.504,5.926c-0.259,0-0.469-0.196-0.469-0.462c0-0.26,0.21-0.455,0.469-0.455
		c0.252,0,0.456,0.195,0.456,0.455C47.959,5.73,47.756,5.926,47.504,5.926z"/>
	<path d="M50.578,7.159h-0.932l-0.378,2.011c-0.014,0.084-0.021,0.188-0.021,0.266c0,0.196,0.112,0.315,0.301,0.315
		c0.196,0,0.351-0.091,0.525-0.231l0.168,0.203c-0.238,0.245-0.56,0.47-0.931,0.47c-0.448,0-0.701-0.252-0.701-0.631
		c0-0.069,0.014-0.224,0.028-0.294l0.392-2.108h-0.455l0.035-0.238l0.519-0.161l0.329-0.896h0.427l-0.175,0.904h0.932L50.578,7.159z
		"/>
	<path d="M54.679,7.159h-0.931L53.37,9.169c-0.014,0.084-0.021,0.188-0.021,0.266c0,0.196,0.112,0.315,0.301,0.315
		c0.196,0,0.351-0.091,0.525-0.231l0.168,0.203c-0.238,0.245-0.561,0.47-0.932,0.47c-0.448,0-0.7-0.252-0.7-0.631
		c0-0.069,0.014-0.224,0.028-0.294l0.392-2.108h-0.455l0.035-0.238l0.519-0.161l0.329-0.896h0.427l-0.175,0.904h0.932L54.679,7.159z
		"/>
	<path d="M57.5,10.177c-0.371,0-0.567-0.252-0.462-0.756l0.336-1.597c0.014-0.07,0.042-0.238,0.042-0.337
		c0-0.168-0.098-0.301-0.28-0.301c-0.245,0-0.574,0.161-1.127,0.603l-0.435,2.332h-0.616l0.771-4.174
		c0.062-0.309,0.007-0.448-0.26-0.547l-0.203-0.084l0.042-0.175l1.135-0.238l0.084,0.084l-0.44,2.389
		c0.574-0.477,0.938-0.693,1.337-0.693c0.406,0,0.638,0.21,0.638,0.637c0,0.112-0.014,0.252-0.042,0.393l-0.336,1.632
		c-0.05,0.231,0.014,0.336,0.146,0.336c0.112,0,0.273-0.091,0.455-0.231l0.154,0.196C58.083,9.996,57.774,10.177,57.5,10.177z"/>
	<path d="M59.501,8.679c0.035,0.735,0.357,1.1,0.854,1.1c0.315,0,0.561-0.119,0.903-0.386l0.176,0.189
		c-0.406,0.406-0.785,0.623-1.317,0.623c-0.756,0-1.295-0.546-1.295-1.407c0-1.107,0.854-2.13,1.855-2.13
		c0.68,0,1.029,0.294,1.029,0.771C61.708,8.125,60.965,8.545,59.501,8.679z M60.539,6.942c-0.547,0-0.988,0.722-1.037,1.492
		c1.135-0.112,1.513-0.448,1.513-0.988C61.014,7.124,60.875,6.942,60.539,6.942z"/>
	<path d="M65.607,8.364l-1.443,1.239h1.177c0.63,0,0.841-0.133,1.142-0.581l0.161-0.252h0.238l-0.68,1.352h-2.661L63.45,9.947
		l1.877-1.835C66.055,7.397,66.3,6.984,66.3,6.458c0-0.413-0.28-0.687-0.687-0.687c-0.477,0-0.827,0.196-1.303,0.735l-0.203-0.153
		c0.567-0.778,1.064-1.114,1.694-1.114c0.764,0,1.205,0.399,1.205,1.044C67.007,7.033,66.524,7.58,65.607,8.364z"/>
	<path d="M68.958,10.212c-0.819,0-1.415-0.588-1.415-1.877c0-1.491,0.834-3.096,2.046-3.096c0.812,0,1.407,0.589,1.407,1.877
		C70.997,8.609,70.164,10.212,68.958,10.212z M69.568,5.534c-0.791,0-1.31,1.717-1.31,3.152c0,0.798,0.252,1.232,0.715,1.232
		c0.798,0,1.31-1.716,1.31-3.151C70.283,5.968,70.03,5.534,69.568,5.534z"/>
	<path d="M73.018,10.212c-0.819,0-1.415-0.588-1.415-1.877c0-1.491,0.834-3.096,2.046-3.096c0.812,0,1.407,0.589,1.407,1.877
		C75.056,8.609,74.223,10.212,73.018,10.212z M73.627,5.534c-0.791,0-1.31,1.717-1.31,3.152c0,0.798,0.252,1.232,0.715,1.232
		c0.798,0,1.31-1.716,1.31-3.151C74.342,5.968,74.09,5.534,73.627,5.534z"/>
	<path d="M78.465,5.898h-1.736l-0.414,0.827c1.233,0.195,1.793,0.658,1.793,1.498c0,1.205-1.127,1.969-2.156,1.969
		c-0.463,0-0.743-0.176-0.743-0.413c0-0.218,0.147-0.372,0.393-0.372c0.273,0,0.546,0.203,0.806,0.435
		c0.672-0.119,1.169-0.658,1.169-1.365c0-0.708-0.553-1.065-1.681-1.184l-0.098-0.238l0.861-1.724h1.162
		c0.448,0,0.554-0.056,0.666-0.195h0.245L78.465,5.898z"/>
	<path d="M82.413,7.593c-0.14,0-0.252-0.133-0.448-0.638c-0.035-0.014-0.077-0.021-0.14-0.021c-0.364,0-0.645,0.266-0.645,0.567
		c0,0.287,0.112,0.42,0.623,0.693c0.609,0.329,0.812,0.574,0.812,0.966c0,0.631-0.546,1.051-1.323,1.051
		c-0.742,0-1.148-0.294-1.148-0.588c0-0.176,0.252-0.364,0.427-0.364c0.154,0,0.252,0.14,0.455,0.638
		c0.063,0.027,0.168,0.049,0.273,0.049c0.413,0,0.714-0.252,0.714-0.574c0-0.267-0.104-0.414-0.623-0.693
		c-0.581-0.315-0.812-0.547-0.812-0.988c0-0.504,0.448-1.022,1.268-1.022c0.658,0,0.988,0.322,0.988,0.582
		C82.833,7.432,82.595,7.593,82.413,7.593z"/>
	<path d="M83.965,8.679c0.035,0.735,0.357,1.1,0.854,1.1c0.315,0,0.561-0.119,0.903-0.386l0.176,0.189
		c-0.406,0.406-0.785,0.623-1.317,0.623c-0.756,0-1.295-0.546-1.295-1.407c0-1.107,0.854-2.13,1.855-2.13
		c0.68,0,1.029,0.294,1.029,0.771C86.171,8.125,85.429,8.545,83.965,8.679z M85.002,6.942c-0.547,0-0.988,0.722-1.037,1.492
		c1.135-0.112,1.513-0.448,1.513-0.988C85.478,7.124,85.338,6.942,85.002,6.942z"/>
	<path d="M89.238,10.177c-0.35,0-0.483-0.266-0.469-0.595c-0.393,0.392-0.715,0.616-1.128,0.616c-0.603,0-1.016-0.455-1.016-1.212
		c0-1.303,0.96-2.262,1.877-2.262c0.399,0,0.666,0.091,0.918,0.23l0.315-0.287h0.188l-0.511,2.676
		c-0.042,0.238,0.021,0.336,0.153,0.336c0.112,0,0.273-0.091,0.456-0.231l0.153,0.196C89.82,9.996,89.511,10.177,89.238,10.177z
		 M88.398,7.054c-0.638,0-1.114,0.7-1.114,1.729c0,0.603,0.245,0.903,0.609,0.903c0.315,0,0.561-0.153,0.938-0.511l0.183-0.938
		c0.021-0.126,0.035-0.322,0.035-0.455C89.049,7.341,88.811,7.054,88.398,7.054z"/>
	<path d="M92.654,7.593c-0.14,0-0.252-0.133-0.448-0.638c-0.035-0.014-0.077-0.021-0.14-0.021c-0.364,0-0.645,0.266-0.645,0.567
		c0,0.287,0.112,0.42,0.623,0.693c0.609,0.329,0.812,0.574,0.812,0.966c0,0.631-0.546,1.051-1.323,1.051
		c-0.742,0-1.148-0.294-1.148-0.588c0-0.176,0.252-0.364,0.427-0.364c0.154,0,0.252,0.14,0.455,0.638
		c0.063,0.027,0.168,0.049,0.273,0.049c0.413,0,0.714-0.252,0.714-0.574c0-0.267-0.104-0.414-0.623-0.693
		c-0.581-0.315-0.812-0.547-0.812-0.988c0-0.504,0.448-1.022,1.268-1.022c0.658,0,0.988,0.322,0.988,0.582
		C93.075,7.432,92.836,7.593,92.654,7.593z"/>
	<path d="M94.935,10.212c-0.799,0-1.387-0.518-1.387-1.449c0-1.212,0.791-2.095,1.828-2.095c0.798,0,1.387,0.512,1.387,1.443
		C96.763,9.323,95.979,10.212,94.935,10.212z M95.334,6.942c-0.631,0-1.079,0.854-1.079,1.947c0,0.7,0.245,1.051,0.722,1.051
		c0.638,0,1.079-0.854,1.079-1.947C96.056,7.285,95.811,6.942,95.334,6.942z"/>
	<path d="M99.913,10.177c-0.371,0-0.567-0.252-0.462-0.756l0.336-1.597c0.015-0.07,0.042-0.238,0.042-0.337
		c0-0.168-0.098-0.301-0.28-0.301c-0.245,0-0.567,0.161-1.12,0.603l-0.448,2.332h-0.616l0.455-2.402
		c0.062-0.309,0.007-0.448-0.252-0.546l-0.21-0.084l0.042-0.176l1.134-0.224l0.077,0.084l-0.119,0.609
		c0.582-0.477,0.946-0.7,1.345-0.7c0.406,0,0.638,0.21,0.638,0.637c0,0.112-0.014,0.252-0.042,0.393l-0.336,1.632
		c-0.049,0.231,0.014,0.336,0.146,0.336c0.112,0,0.273-0.091,0.456-0.231l0.153,0.196C100.495,9.996,100.186,10.177,99.913,10.177z"
		/>
	<path d="M104.35,10.157c-0.435,0-0.757-0.112-0.995-0.238l-0.294,0.294h-0.189l0.785-4.265c0.062-0.322,0-0.448-0.26-0.547
		l-0.21-0.084l0.042-0.175l1.142-0.238l0.084,0.084l-0.427,2.29c0.385-0.378,0.693-0.595,1.093-0.595
		c0.609,0,1.036,0.546,1.036,1.295C106.157,9.274,105.253,10.157,104.35,10.157z M104.868,7.187c-0.301,0-0.539,0.154-0.91,0.512
		l-0.175,0.917c-0.021,0.126-0.042,0.322-0.042,0.455c0,0.455,0.238,0.75,0.714,0.75c0.624,0,1.044-0.603,1.044-1.667
		C105.499,7.558,105.232,7.187,104.868,7.187z"/>
	<path d="M107.387,8.679c0.035,0.735,0.357,1.1,0.854,1.1c0.315,0,0.561-0.119,0.903-0.386l0.176,0.189
		c-0.406,0.406-0.785,0.623-1.317,0.623c-0.756,0-1.295-0.546-1.295-1.407c0-1.107,0.854-2.13,1.855-2.13
		c0.68,0,1.029,0.294,1.029,0.771C109.593,8.125,108.851,8.545,107.387,8.679z M108.424,6.942c-0.547,0-0.988,0.722-1.037,1.492
		c1.135-0.112,1.513-0.448,1.513-0.988C108.9,7.124,108.76,6.942,108.424,6.942z"/>
	<path d="M112.134,7.159h-0.931l-0.379,2.011c-0.014,0.084-0.021,0.188-0.021,0.266c0,0.196,0.112,0.315,0.301,0.315
		c0.196,0,0.351-0.091,0.525-0.231l0.168,0.203c-0.238,0.245-0.561,0.47-0.932,0.47c-0.448,0-0.7-0.252-0.7-0.631
		c0-0.069,0.014-0.224,0.028-0.294l0.392-2.108h-0.455l0.035-0.238l0.519-0.161l0.329-0.896h0.427l-0.175,0.904h0.932L112.134,7.159
		z"/>
	<path d="M115.718,10.206h-0.252l-0.427-2.15c-0.267,0.658-0.771,1.548-1.331,2.15h-0.252l-0.441-2.535
		c-0.056-0.28-0.161-0.399-0.42-0.505l-0.189-0.076l0.035-0.176l0.938-0.224l0.091,0.077l0.448,2.696
		c0.462-0.574,1.009-1.786,1.022-2.689l0.364-0.084l0.091,0.077l0.54,2.752c0.566-0.616,0.875-1.352,0.987-1.828
		c-0.357-0.44-0.441-0.56-0.441-0.672c0-0.168,0.203-0.344,0.441-0.344c0.294,0,0.49,0.253,0.49,0.582
		C117.414,7.964,116.769,9.169,115.718,10.206z"/>
	<path d="M118.582,8.679c0.035,0.735,0.357,1.1,0.854,1.1c0.315,0,0.561-0.119,0.903-0.386l0.176,0.189
		c-0.406,0.406-0.785,0.623-1.317,0.623c-0.756,0-1.295-0.546-1.295-1.407c0-1.107,0.854-2.13,1.855-2.13
		c0.68,0,1.029,0.294,1.029,0.771C120.788,8.125,120.045,8.545,118.582,8.679z M119.619,6.942c-0.547,0-0.988,0.722-1.037,1.492
		c1.135-0.112,1.513-0.448,1.513-0.988C120.094,7.124,119.955,6.942,119.619,6.942z"/>
	<path d="M121.858,8.679c0.035,0.735,0.357,1.1,0.854,1.1c0.315,0,0.561-0.119,0.903-0.386l0.176,0.189
		c-0.406,0.406-0.785,0.623-1.317,0.623c-0.756,0-1.295-0.546-1.295-1.407c0-1.107,0.854-2.13,1.855-2.13
		c0.68,0,1.029,0.294,1.029,0.771C124.064,8.125,123.322,8.545,121.858,8.679z M122.895,6.942c-0.547,0-0.988,0.722-1.037,1.492
		c1.135-0.112,1.513-0.448,1.513-0.988C123.371,7.124,123.231,6.942,122.895,6.942z"/>
	<path d="M127.087,10.177c-0.371,0-0.567-0.252-0.462-0.756l0.336-1.597c0.015-0.07,0.042-0.238,0.042-0.337
		c0-0.168-0.098-0.301-0.28-0.301c-0.245,0-0.567,0.161-1.12,0.603l-0.448,2.332h-0.616l0.455-2.402
		c0.062-0.309,0.007-0.448-0.252-0.546l-0.21-0.084l0.042-0.176l1.134-0.224l0.077,0.084l-0.119,0.609
		c0.582-0.477,0.946-0.7,1.345-0.7c0.406,0,0.638,0.21,0.638,0.637c0,0.112-0.014,0.252-0.042,0.393l-0.336,1.632
		c-0.049,0.231,0.014,0.336,0.146,0.336c0.112,0,0.273-0.091,0.456-0.231l0.153,0.196C127.669,9.996,127.361,10.177,127.087,10.177z
		"/>
</g>
<g>
	<path d="M146.588,6.683L146.532,6.5c-0.21-0.63-0.497-0.945-1.253-0.945c-1.191,0-2.01,1.12-2.01,2.661
		c0,1.058,0.588,1.682,1.548,1.682c0.567,0,1.058-0.33,1.345-0.918l0.084-0.175h0.28l-0.259,1.071
		c-0.406,0.203-0.945,0.329-1.52,0.329c-1.093,0-2.276-0.7-2.276-2.199c0-1.652,1.324-2.76,2.914-2.76
		c0.658,0,1.135,0.183,1.492,0.406v1.03H146.588z"/>
	<path d="M149.8,10.177c-0.371,0-0.567-0.252-0.462-0.756l0.336-1.597c0.014-0.07,0.042-0.238,0.042-0.337
		c0-0.168-0.098-0.301-0.28-0.301c-0.245,0-0.575,0.161-1.128,0.603l-0.434,2.332h-0.616l0.77-4.174
		c0.063-0.309,0.007-0.448-0.259-0.547l-0.203-0.084l0.042-0.175l1.135-0.238l0.084,0.084l-0.441,2.389
		c0.574-0.477,0.938-0.693,1.338-0.693c0.406,0,0.637,0.21,0.637,0.637c0,0.112-0.014,0.252-0.042,0.393l-0.336,1.632
		c-0.049,0.231,0.014,0.336,0.147,0.336c0.112,0,0.273-0.091,0.455-0.231l0.154,0.196C150.381,9.996,150.073,10.177,149.8,10.177z"
		/>
	<path d="M151.815,10.177c-0.378,0-0.546-0.279-0.462-0.714l0.33-1.744c0.056-0.309,0.007-0.448-0.259-0.546l-0.21-0.084
		l0.042-0.176l1.148-0.224l0.077,0.084l-0.49,2.57c-0.049,0.238,0.014,0.336,0.147,0.336c0.112,0,0.273-0.091,0.455-0.231
		l0.154,0.196C152.389,9.996,152.081,10.177,151.815,10.177z M152.249,5.926c-0.259,0-0.469-0.196-0.469-0.462
		c0-0.26,0.21-0.455,0.469-0.455c0.252,0,0.456,0.195,0.456,0.455C152.705,5.73,152.501,5.926,152.249,5.926z"/>
	<path d="M155.575,7.796c-0.196,0-0.273-0.133-0.42-0.806c-0.056-0.028-0.105-0.035-0.175-0.035c-0.637,0-1.079,0.715-1.079,1.583
		c0,0.834,0.385,1.226,0.89,1.226c0.294,0,0.483-0.084,0.805-0.308l0.154,0.203c-0.385,0.364-0.729,0.553-1.254,0.553
		c-0.693,0-1.282-0.483-1.282-1.422c0-1.169,0.82-2.122,1.849-2.122c0.616,0,0.974,0.351,0.974,0.729
		C156.037,7.622,155.799,7.796,155.575,7.796z"/>
	<path d="M159.034,10.177c-0.351,0-0.483-0.266-0.469-0.595c-0.393,0.392-0.714,0.616-1.128,0.616c-0.602,0-1.016-0.455-1.016-1.212
		c0-1.303,0.96-2.262,1.877-2.262c0.399,0,0.665,0.091,0.917,0.23l0.315-0.287h0.189l-0.511,2.676
		c-0.042,0.238,0.021,0.336,0.154,0.336c0.112,0,0.273-0.091,0.455-0.231l0.154,0.196C159.615,9.996,159.307,10.177,159.034,10.177z
		 M158.193,7.054c-0.637,0-1.113,0.7-1.113,1.729c0,0.603,0.245,0.903,0.609,0.903c0.315,0,0.56-0.153,0.938-0.511l0.182-0.938
		c0.021-0.126,0.035-0.322,0.035-0.455C158.844,7.341,158.606,7.054,158.193,7.054z"/>
	<path d="M163.605,7.236l-0.637-0.14c0.168,0.168,0.266,0.385,0.266,0.63c0,0.651-0.672,1.106-1.408,1.106
		c-0.126,0-0.259-0.014-0.385-0.042c-0.168,0.119-0.245,0.218-0.245,0.322c0,0.119,0.126,0.196,0.434,0.309
		c0.21,0.077,0.329,0.112,0.553,0.196c0.672,0.237,0.938,0.462,0.938,0.882c0,0.708-0.777,1.156-1.66,1.156
		c-0.911,0-1.646-0.364-1.646-0.89c0-0.435,0.406-0.742,1.149-1.002c-0.231-0.112-0.372-0.266-0.372-0.455s0.168-0.357,0.575-0.596
		c-0.42-0.161-0.708-0.49-0.708-0.882c0-0.673,0.63-1.163,1.443-1.163c0.217,0,0.427,0.035,0.602,0.112h1.219L163.605,7.236z
		 M161.854,10.1c-0.203-0.076-0.357-0.126-0.574-0.21c-0.518,0.161-0.812,0.421-0.812,0.757c0,0.448,0.511,0.7,1.17,0.7
		c0.518,0,0.966-0.21,0.966-0.638C162.604,10.464,162.394,10.296,161.854,10.1z M161.903,6.9c-0.469,0-0.785,0.406-0.785,0.994
		c0,0.386,0.245,0.708,0.693,0.708c0.462,0,0.764-0.428,0.764-1.016C162.576,7.152,162.302,6.9,161.903,6.9z"/>
	<path d="M165.235,10.212c-0.798,0-1.387-0.518-1.387-1.449c0-1.212,0.792-2.095,1.828-2.095c0.798,0,1.387,0.512,1.387,1.443
		C167.063,9.323,166.279,10.212,165.235,10.212z M165.635,6.942c-0.63,0-1.079,0.854-1.079,1.947c0,0.7,0.245,1.051,0.721,1.051
		c0.637,0,1.079-0.854,1.079-1.947C166.356,7.285,166.111,6.942,165.635,6.942z"/>
	<path d="M173.595,6.683L173.539,6.5c-0.21-0.63-0.497-0.945-1.253-0.945c-1.191,0-2.01,1.12-2.01,2.661
		c0,1.058,0.588,1.682,1.548,1.682c0.567,0,1.058-0.33,1.345-0.918l0.084-0.175h0.28l-0.259,1.071
		c-0.406,0.203-0.945,0.329-1.52,0.329c-1.093,0-2.276-0.7-2.276-2.199c0-1.652,1.324-2.76,2.914-2.76
		c0.658,0,1.135,0.183,1.492,0.406v1.03H173.595z"/>
	<path d="M176.87,10.177c-0.357,0-0.512-0.266-0.456-0.679c-0.581,0.476-0.938,0.7-1.337,0.7c-0.406,0-0.638-0.217-0.638-0.645
		c0-0.112,0.021-0.245,0.049-0.385l0.273-1.45c0.063-0.309,0.007-0.448-0.259-0.546l-0.21-0.084l0.042-0.176l1.156-0.224
		l0.077,0.084l-0.435,2.276c-0.021,0.091-0.042,0.245-0.042,0.336c0,0.168,0.091,0.301,0.28,0.301c0.238,0,0.553-0.153,1.106-0.595
		l0.448-2.333h0.617l-0.49,2.585c-0.049,0.238,0.014,0.336,0.147,0.336c0.112,0,0.273-0.091,0.455-0.231l0.154,0.196
		C177.451,9.996,177.143,10.177,176.87,10.177z"/>
	<path d="M179.656,10.157c-0.435,0-0.757-0.112-0.995-0.238l-0.294,0.294h-0.189l0.785-4.265c0.063-0.322,0-0.448-0.259-0.547
		l-0.21-0.084l0.042-0.175l1.142-0.238l0.084,0.084l-0.427,2.29c0.385-0.378,0.693-0.595,1.092-0.595
		c0.609,0,1.037,0.546,1.037,1.295C181.462,9.274,180.559,10.157,179.656,10.157z M180.174,7.187c-0.301,0-0.54,0.154-0.911,0.512
		l-0.175,0.917c-0.021,0.126-0.042,0.322-0.042,0.455c0,0.455,0.238,0.75,0.714,0.75c0.623,0,1.043-0.603,1.043-1.667
		C180.804,7.558,180.538,7.187,180.174,7.187z"/>
	<path d="M184.045,7.593c-0.14,0-0.252-0.133-0.448-0.638c-0.035-0.014-0.077-0.021-0.14-0.021c-0.364,0-0.645,0.266-0.645,0.567
		c0,0.287,0.112,0.42,0.624,0.693c0.609,0.329,0.812,0.574,0.812,0.966c0,0.631-0.546,1.051-1.324,1.051
		c-0.742,0-1.148-0.294-1.148-0.588c0-0.176,0.252-0.364,0.427-0.364c0.154,0,0.252,0.14,0.455,0.638
		c0.063,0.027,0.168,0.049,0.273,0.049c0.413,0,0.714-0.252,0.714-0.574c0-0.267-0.105-0.414-0.624-0.693
		c-0.581-0.315-0.812-0.547-0.812-0.988c0-0.504,0.448-1.022,1.268-1.022c0.658,0,0.987,0.322,0.987,0.582
		C184.466,7.432,184.228,7.593,184.045,7.593z"/>
</g>
<rect x="188.822" y="3.789" fill="#9A9BC7" width="8.499" height="6.333"/>
<g>
	<path d="M205.185,6.571h-0.28l-0.042-0.168c-0.14-0.561-0.434-0.841-0.938-0.841c-0.602,0-0.911,0.399-0.911,0.834
		c0,0.371,0.147,0.609,0.729,0.931c0.904,0.483,1.212,0.806,1.212,1.429c0,0.848-0.687,1.443-1.737,1.443
		c-0.665,0-1.19-0.168-1.45-0.309l0.035-1.036h0.273l0.056,0.196c0.14,0.546,0.462,0.84,1.093,0.84c0.679,0,1.029-0.413,1.029-0.903
		c0-0.392-0.189-0.645-0.805-0.974c-0.854-0.455-1.128-0.798-1.128-1.4c0-0.764,0.638-1.358,1.632-1.358
		c0.581,0,1.036,0.182,1.268,0.329L205.185,6.571z"/>
	<path d="M208.279,10.177c-0.351,0-0.483-0.266-0.469-0.595c-0.393,0.392-0.714,0.616-1.128,0.616c-0.602,0-1.016-0.455-1.016-1.212
		c0-1.303,0.96-2.262,1.877-2.262c0.399,0,0.665,0.091,0.917,0.23l0.315-0.287h0.189l-0.511,2.676
		c-0.042,0.238,0.021,0.336,0.154,0.336c0.112,0,0.273-0.091,0.455-0.231l0.154,0.196C208.86,9.996,208.552,10.177,208.279,10.177z
		 M207.438,7.054c-0.637,0-1.113,0.7-1.113,1.729c0,0.603,0.245,0.903,0.609,0.903c0.315,0,0.56-0.153,0.938-0.511l0.182-0.938
		c0.021-0.126,0.035-0.322,0.035-0.455C208.089,7.341,207.852,7.054,207.438,7.054z"/>
	<path d="M212.227,10.177c-0.372,0-0.567-0.252-0.462-0.756l0.336-1.597c0.014-0.07,0.042-0.238,0.042-0.337
		c0-0.168-0.098-0.301-0.28-0.301c-0.245,0-0.567,0.161-1.121,0.603l-0.448,2.332h-0.617l0.456-2.402
		c0.063-0.309,0.007-0.448-0.252-0.546l-0.21-0.084l0.042-0.176l1.135-0.224l0.077,0.084l-0.119,0.609
		c0.581-0.477,0.945-0.7,1.345-0.7c0.406,0,0.637,0.21,0.637,0.637c0,0.112-0.014,0.252-0.042,0.393l-0.336,1.632
		c-0.049,0.231,0.014,0.336,0.147,0.336c0.112,0,0.273-0.091,0.455-0.231l0.154,0.196C212.808,9.996,212.5,10.177,212.227,10.177z"
		/>
	<path d="M218.849,6.368l-0.063-0.196c-0.161-0.455-0.336-0.532-0.925-0.532h-0.119c-0.287,0-0.539,0.042-0.672,0.091l-0.315,1.786
		h0.35c0.701,0,0.861-0.105,0.974-0.462l0.091-0.287h0.245c-0.028,0.14-0.126,0.637-0.175,0.91
		c-0.042,0.267-0.105,0.673-0.126,0.841h-0.252V8.273c0-0.351-0.126-0.414-0.798-0.414h-0.371l-0.189,1.072
		c-0.119,0.679-0.056,0.854,0.322,0.896l0.33,0.035l-0.049,0.266c-0.14,0-0.882-0.014-1.148-0.014s-0.882,0.014-1.037,0.014
		l0.049-0.266l0.259-0.035c0.35-0.049,0.455-0.196,0.582-0.896l0.42-2.409c0.119-0.693,0.077-0.854-0.252-0.896l-0.266-0.035
		l0.049-0.267c0.154,0,1.191,0.015,1.457,0.015s1.163-0.008,1.303-0.008h0.567v1.037H218.849z"/>
	<path d="M221.396,7.481c-0.217-0.014-0.378-0.035-0.588-0.077c-0.224,0.112-0.462,0.309-0.7,0.547l-0.413,2.171h-0.617l0.456-2.402
		c0.063-0.309,0.007-0.448-0.252-0.546l-0.21-0.084l0.042-0.176l1.135-0.224l0.077,0.084l-0.154,0.798
		c0.603-0.707,0.827-0.896,1.093-0.896c0.21,0,0.343,0.112,0.343,0.322C221.606,7.194,221.501,7.383,221.396,7.481z"/>
	<path d="M224.245,10.177c-0.351,0-0.483-0.266-0.469-0.595c-0.393,0.392-0.714,0.616-1.128,0.616c-0.602,0-1.016-0.455-1.016-1.212
		c0-1.303,0.96-2.262,1.877-2.262c0.399,0,0.665,0.091,0.917,0.23l0.315-0.287h0.189l-0.511,2.676
		c-0.042,0.238,0.021,0.336,0.154,0.336c0.112,0,0.273-0.091,0.455-0.231l0.154,0.196C224.826,9.996,224.518,10.177,224.245,10.177z
		 M223.404,7.054c-0.637,0-1.113,0.7-1.113,1.729c0,0.603,0.245,0.903,0.609,0.903c0.315,0,0.56-0.153,0.938-0.511l0.182-0.938
		c0.021-0.126,0.035-0.322,0.035-0.455C224.056,7.341,223.818,7.054,223.404,7.054z"/>
	<path d="M228.193,10.177c-0.372,0-0.567-0.252-0.462-0.756l0.336-1.597c0.014-0.07,0.042-0.238,0.042-0.337
		c0-0.168-0.098-0.301-0.28-0.301c-0.245,0-0.567,0.161-1.121,0.603l-0.448,2.332h-0.617l0.456-2.402
		c0.063-0.309,0.007-0.448-0.252-0.546l-0.21-0.084l0.042-0.176l1.135-0.224l0.077,0.084l-0.119,0.609
		c0.581-0.477,0.945-0.7,1.345-0.7c0.406,0,0.637,0.21,0.637,0.637c0,0.112-0.014,0.252-0.042,0.393l-0.336,1.632
		c-0.049,0.231,0.014,0.336,0.147,0.336c0.112,0,0.273-0.091,0.455-0.231l0.154,0.196C228.774,9.996,228.466,10.177,228.193,10.177z
		"/>
	<path d="M231.882,7.796c-0.196,0-0.273-0.133-0.42-0.806c-0.056-0.028-0.105-0.035-0.175-0.035c-0.637,0-1.079,0.715-1.079,1.583
		c0,0.834,0.385,1.226,0.89,1.226c0.294,0,0.483-0.084,0.805-0.308l0.154,0.203c-0.385,0.364-0.729,0.553-1.254,0.553
		c-0.693,0-1.282-0.483-1.282-1.422c0-1.169,0.82-2.122,1.849-2.122c0.616,0,0.974,0.351,0.974,0.729
		C232.344,7.622,232.106,7.796,231.882,7.796z"/>
	<path d="M233.428,10.177c-0.378,0-0.546-0.279-0.462-0.714l0.33-1.744c0.056-0.309,0.007-0.448-0.259-0.546l-0.21-0.084
		l0.042-0.176l1.148-0.224l0.077,0.084l-0.49,2.57c-0.049,0.238,0.014,0.336,0.147,0.336c0.112,0,0.273-0.091,0.455-0.231
		l0.154,0.196C234.002,9.996,233.694,10.177,233.428,10.177z M233.862,5.926c-0.259,0-0.469-0.196-0.469-0.462
		c0-0.26,0.21-0.455,0.469-0.455c0.252,0,0.456,0.195,0.456,0.455C234.317,5.73,234.114,5.926,233.862,5.926z"/>
	<path d="M236.886,7.593c-0.14,0-0.252-0.133-0.448-0.638c-0.035-0.014-0.077-0.021-0.14-0.021c-0.364,0-0.645,0.266-0.645,0.567
		c0,0.287,0.112,0.42,0.624,0.693c0.609,0.329,0.812,0.574,0.812,0.966c0,0.631-0.546,1.051-1.324,1.051
		c-0.742,0-1.148-0.294-1.148-0.588c0-0.176,0.252-0.364,0.427-0.364c0.154,0,0.252,0.14,0.455,0.638
		c0.063,0.027,0.168,0.049,0.273,0.049c0.413,0,0.714-0.252,0.714-0.574c0-0.267-0.105-0.414-0.624-0.693
		c-0.581-0.315-0.812-0.547-0.812-0.988c0-0.504,0.448-1.022,1.268-1.022c0.658,0,0.987,0.322,0.987,0.582
		C237.307,7.432,237.068,7.593,236.886,7.593z"/>
	<path d="M240.127,7.796c-0.196,0-0.273-0.133-0.42-0.806c-0.056-0.028-0.105-0.035-0.175-0.035c-0.637,0-1.079,0.715-1.079,1.583
		c0,0.834,0.385,1.226,0.89,1.226c0.294,0,0.483-0.084,0.805-0.308l0.154,0.203c-0.385,0.364-0.729,0.553-1.254,0.553
		c-0.693,0-1.282-0.483-1.282-1.422c0-1.169,0.82-2.122,1.849-2.122c0.616,0,0.974,0.351,0.974,0.729
		C240.59,7.622,240.352,7.796,240.127,7.796z"/>
	<path d="M242.354,10.212c-0.798,0-1.387-0.518-1.387-1.449c0-1.212,0.792-2.095,1.828-2.095c0.798,0,1.387,0.512,1.387,1.443
		C244.182,9.323,243.397,10.212,242.354,10.212z M242.753,6.942c-0.63,0-1.079,0.854-1.079,1.947c0,0.7,0.245,1.051,0.721,1.051
		c0.637,0,1.079-0.854,1.079-1.947C243.475,7.285,243.229,6.942,242.753,6.942z"/>
	<path d="M251.204,8.307l-0.231,0.035c-0.357,0.05-0.477,0.253-0.54,0.693l-0.007,0.07c-0.056,0.357,0.042,0.462,0.315,0.554
		l-0.021,0.182c-0.553,0.225-1.142,0.364-1.793,0.364c-1.163,0-2.332-0.7-2.332-2.192c0-1.659,1.331-2.767,2.914-2.767
		c0.658,0,1.156,0.183,1.506,0.386v1.029h-0.287l-0.056-0.182c-0.196-0.596-0.504-0.925-1.253-0.925
		c-1.205,0-2.024,1.113-2.024,2.661c0,1.058,0.588,1.682,1.569,1.682c0.483,0,0.75-0.176,0.827-0.638l0.021-0.147
		c0.098-0.567,0.042-0.729-0.329-0.771l-0.287-0.035l0.049-0.266c0.147,0,0.798,0.014,1.064,0.014s0.792-0.014,0.946-0.014
		L251.204,8.307z"/>
	<path d="M252.371,10.177c-0.379,0-0.547-0.279-0.463-0.714l0.329-1.744c0.057-0.309,0.007-0.448-0.259-0.546l-0.21-0.084
		l0.042-0.176l1.148-0.224l0.077,0.084l-0.49,2.57c-0.049,0.238,0.014,0.336,0.146,0.336c0.112,0,0.273-0.091,0.456-0.231
		l0.153,0.196C252.945,9.996,252.637,10.177,252.371,10.177z M252.805,5.926c-0.259,0-0.469-0.196-0.469-0.462
		c0-0.26,0.21-0.455,0.469-0.455c0.252,0,0.455,0.195,0.455,0.455C253.26,5.73,253.057,5.926,252.805,5.926z"/>
	<path d="M256.403,10.177c-0.35,0-0.483-0.266-0.469-0.595c-0.393,0.392-0.715,0.616-1.128,0.616c-0.603,0-1.016-0.455-1.016-1.212
		c0-1.303,0.96-2.262,1.877-2.262c0.399,0,0.666,0.091,0.918,0.23l0.315-0.287h0.188l-0.511,2.676
		c-0.042,0.238,0.021,0.336,0.153,0.336c0.112,0,0.273-0.091,0.456-0.231l0.153,0.196C256.985,9.996,256.677,10.177,256.403,10.177z
		 M255.563,7.054c-0.638,0-1.114,0.7-1.114,1.729c0,0.603,0.245,0.903,0.609,0.903c0.315,0,0.561-0.153,0.938-0.511l0.183-0.938
		c0.021-0.126,0.035-0.322,0.035-0.455C256.215,7.341,255.977,7.054,255.563,7.054z"/>
	<path d="M260.351,10.177c-0.371,0-0.567-0.252-0.462-0.756l0.336-1.597c0.015-0.07,0.042-0.238,0.042-0.337
		c0-0.168-0.098-0.301-0.28-0.301c-0.245,0-0.567,0.161-1.12,0.603l-0.448,2.332h-0.616l0.455-2.402
		c0.062-0.309,0.007-0.448-0.252-0.546l-0.21-0.084l0.042-0.176l1.134-0.224l0.077,0.084l-0.119,0.609
		c0.582-0.477,0.946-0.7,1.345-0.7c0.406,0,0.638,0.21,0.638,0.637c0,0.112-0.014,0.252-0.042,0.393l-0.336,1.632
		c-0.049,0.231,0.014,0.336,0.146,0.336c0.112,0,0.273-0.091,0.456-0.231l0.153,0.196C260.933,9.996,260.624,10.177,260.351,10.177z
		"/>
	<path d="M263.787,7.159h-0.931l-0.379,2.011c-0.014,0.084-0.021,0.188-0.021,0.266c0,0.196,0.112,0.315,0.301,0.315
		c0.196,0,0.351-0.091,0.525-0.231l0.168,0.203c-0.238,0.245-0.561,0.47-0.932,0.47c-0.448,0-0.7-0.252-0.7-0.631
		c0-0.069,0.014-0.224,0.028-0.294l0.392-2.108h-0.455l0.035-0.238l0.519-0.161l0.329-0.896h0.427l-0.175,0.904h0.932L263.787,7.159
		z"/>
	<path d="M266.16,7.593c-0.14,0-0.252-0.133-0.448-0.638c-0.035-0.014-0.077-0.021-0.14-0.021c-0.364,0-0.645,0.266-0.645,0.567
		c0,0.287,0.112,0.42,0.623,0.693c0.609,0.329,0.812,0.574,0.812,0.966c0,0.631-0.546,1.051-1.323,1.051
		c-0.742,0-1.148-0.294-1.148-0.588c0-0.176,0.252-0.364,0.427-0.364c0.154,0,0.252,0.14,0.455,0.638
		c0.063,0.027,0.168,0.049,0.273,0.049c0.413,0,0.714-0.252,0.714-0.574c0-0.267-0.104-0.414-0.623-0.693
		c-0.581-0.315-0.812-0.547-0.812-0.988c0-0.504,0.448-1.022,1.268-1.022c0.658,0,0.988,0.322,0.988,0.582
		C266.581,7.432,266.343,7.593,266.16,7.593z"/>
</g>
<rect x="412.627" y="3.789" fill="#243E8F" width="8.5" height="6.333"/>
<g>
	<path d="M280.12,6.739l0.777,0.777l-0.14,0.161l-0.89-0.638l-0.287,1.065l-0.21-0.035l0.091-1.107l-1.057,0.302l-0.07-0.196
		l0.995-0.469l-0.771-0.785l0.134-0.161l0.889,0.638l0.287-1.064l0.211,0.042l-0.092,1.1l1.058-0.302l0.077,0.196L280.12,6.739z"/>
	<path d="M283.411,6.739l0.777,0.777l-0.141,0.161l-0.889-0.638l-0.287,1.065l-0.211-0.035l0.092-1.107l-1.059,0.302l-0.07-0.196
		l0.995-0.469l-0.771-0.785l0.133-0.161l0.891,0.638l0.287-1.064l0.209,0.042l-0.091,1.1l1.058-0.302l0.077,0.196L283.411,6.739z"/>
	<path d="M291.994,5.59l-0.259,0.035c-0.351,0.049-0.455,0.195-0.574,0.896l-0.428,2.409c-0.119,0.693-0.07,0.854,0.26,0.896
		l0.259,0.035l-0.049,0.266c-0.154,0-0.757-0.014-1.022-0.014c-0.267,0-0.974,0.014-1.121,0.014l0.049-0.266l0.287-0.035
		c0.406-0.049,0.525-0.218,0.645-0.896l0.182-1.044h-2.353l-0.188,1.044c-0.119,0.679-0.063,0.848,0.321,0.896l0.288,0.035
		l-0.05,0.266c-0.14,0-0.826-0.014-1.093-0.014c-0.266,0-0.896,0.014-1.051,0.014l0.049-0.266l0.26-0.035
		c0.35-0.049,0.455-0.196,0.582-0.896l0.42-2.409c0.119-0.693,0.076-0.854-0.252-0.896l-0.267-0.035l0.049-0.267
		c0.154,0,0.764,0.015,1.03,0.015c0.266,0,0.973-0.015,1.113-0.015l-0.049,0.267l-0.287,0.035c-0.406,0.049-0.52,0.217-0.638,0.896
		l-0.183,1.008h2.36l0.175-1.008c0.127-0.68,0.063-0.848-0.314-0.896L289.85,5.59l0.05-0.267c0.147,0,0.833,0.015,1.1,0.015
		s0.89-0.015,1.044-0.015L291.994,5.59z"/>
	<path d="M294.575,10.177c-0.35,0-0.482-0.266-0.469-0.595c-0.393,0.392-0.715,0.616-1.128,0.616c-0.603,0-1.016-0.455-1.016-1.212
		c0-1.303,0.96-2.262,1.878-2.262c0.398,0,0.664,0.091,0.917,0.23l0.315-0.287h0.188l-0.511,2.676
		c-0.043,0.238,0.021,0.336,0.154,0.336c0.111,0,0.272-0.091,0.455-0.231l0.154,0.196C295.157,9.996,294.848,10.177,294.575,10.177z
		 M293.735,7.054c-0.638,0-1.113,0.7-1.113,1.729c0,0.603,0.244,0.903,0.609,0.903c0.314,0,0.56-0.153,0.938-0.511l0.183-0.938
		c0.021-0.126,0.034-0.322,0.034-0.455C294.385,7.341,294.148,7.054,293.735,7.054z"/>
	<path d="M299.098,10.206h-0.252l-0.428-2.15c-0.266,0.658-0.771,1.548-1.33,2.15h-0.253l-0.44-2.535
		c-0.057-0.28-0.162-0.399-0.421-0.505l-0.188-0.076l0.035-0.176l0.938-0.224l0.092,0.077l0.447,2.696
		c0.463-0.574,1.01-1.786,1.023-2.689l0.363-0.084l0.092,0.077l0.539,2.752c0.567-0.616,0.875-1.352,0.988-1.828
		c-0.357-0.44-0.441-0.56-0.441-0.672c0-0.168,0.203-0.344,0.441-0.344c0.293,0,0.49,0.253,0.49,0.582
		C300.793,7.964,300.149,9.169,299.098,10.206z"/>
	<path d="M303.612,10.177c-0.244,0-0.377-0.126-0.525-0.427l-0.679-1.324c-0.126,0.134-0.238,0.253-0.329,0.357l-0.245,1.338h-0.616
		l0.771-4.174c0.063-0.309,0.007-0.448-0.259-0.547l-0.203-0.084l0.041-0.175l1.135-0.238l0.084,0.084l-0.616,3.327l1.009-1.121
		c0.314-0.35,0.512-0.511,0.84-0.511c0.267,0,0.428,0.146,0.428,0.35c0,0.218-0.105,0.357-0.238,0.357
		c-0.111,0-0.266-0.028-0.596-0.119c-0.146,0.105-0.447,0.385-0.756,0.7l0.777,1.527c0.07,0.126,0.141,0.182,0.231,0.182
		s0.245-0.084,0.448-0.231l0.154,0.196C304.117,9.996,303.815,10.177,303.612,10.177z"/>
	<path d="M305.53,10.177c-0.379,0-0.547-0.279-0.463-0.714l0.33-1.744c0.055-0.309,0.006-0.448-0.26-0.546l-0.21-0.084l0.042-0.176
		l1.148-0.224l0.077,0.084l-0.49,2.57c-0.05,0.238,0.014,0.336,0.147,0.336c0.111,0,0.272-0.091,0.455-0.231l0.154,0.196
		C306.104,9.996,305.795,10.177,305.53,10.177z M305.963,5.926c-0.259,0-0.469-0.196-0.469-0.462c0-0.26,0.21-0.455,0.469-0.455
		c0.252,0,0.455,0.195,0.455,0.455C306.418,5.73,306.215,5.926,305.963,5.926z"/>
	<path d="M309.52,10.177c-0.371,0-0.566-0.252-0.462-0.756l0.336-1.597c0.015-0.07,0.042-0.238,0.042-0.337
		c0-0.168-0.098-0.301-0.279-0.301c-0.246,0-0.568,0.161-1.121,0.603l-0.448,2.332h-0.616l0.455-2.402
		c0.062-0.309,0.007-0.448-0.252-0.546l-0.211-0.084l0.043-0.176l1.135-0.224l0.076,0.084l-0.119,0.609
		c0.582-0.477,0.945-0.7,1.346-0.7c0.406,0,0.637,0.21,0.637,0.637c0,0.112-0.014,0.252-0.042,0.393l-0.336,1.632
		c-0.05,0.231,0.014,0.336,0.147,0.336c0.111,0,0.272-0.091,0.455-0.231l0.154,0.196C310.102,9.996,309.793,10.177,309.52,10.177z"
		/>
	<path d="M312.909,7.593c-0.141,0-0.252-0.133-0.449-0.638c-0.034-0.014-0.076-0.021-0.139-0.021c-0.365,0-0.645,0.266-0.645,0.567
		c0,0.287,0.111,0.42,0.623,0.693c0.609,0.329,0.812,0.574,0.812,0.966c0,0.631-0.547,1.051-1.324,1.051
		c-0.742,0-1.148-0.294-1.148-0.588c0-0.176,0.252-0.364,0.428-0.364c0.154,0,0.252,0.14,0.455,0.638
		c0.062,0.027,0.168,0.049,0.273,0.049c0.412,0,0.714-0.252,0.714-0.574c0-0.267-0.104-0.414-0.624-0.693
		c-0.58-0.315-0.812-0.547-0.812-0.988c0-0.504,0.449-1.022,1.269-1.022c0.658,0,0.987,0.322,0.987,0.582
		C313.329,7.432,313.09,7.593,312.909,7.593z"/>
	<path d="M317.528,7.593c-0.14,0-0.252-0.133-0.448-0.638c-0.034-0.014-0.077-0.021-0.14-0.021c-0.364,0-0.645,0.266-0.645,0.567
		c0,0.287,0.111,0.42,0.623,0.693c0.609,0.329,0.812,0.574,0.812,0.966c0,0.631-0.546,1.051-1.324,1.051
		c-0.742,0-1.148-0.294-1.148-0.588c0-0.176,0.252-0.364,0.428-0.364c0.154,0,0.252,0.14,0.455,0.638
		c0.063,0.027,0.168,0.049,0.273,0.049c0.413,0,0.715-0.252,0.715-0.574c0-0.267-0.105-0.414-0.624-0.693
		c-0.581-0.315-0.812-0.547-0.812-0.988c0-0.504,0.448-1.022,1.269-1.022c0.658,0,0.986,0.322,0.986,0.582
		C317.948,7.432,317.709,7.593,317.528,7.593z"/>
	<path d="M319.922,10.157c-0.344,0-0.568-0.057-0.812-0.161l-0.105,0.623c-0.105,0.631-0.049,0.693,0.259,0.722l0.294,0.028
		l-0.035,0.252c-0.168,0-0.665-0.007-0.973-0.007c-0.315,0-0.75,0.007-0.925,0.007l0.035-0.245l0.252-0.028
		c0.308-0.035,0.371-0.126,0.476-0.729l0.512-2.899c0.063-0.322,0-0.448-0.259-0.546l-0.21-0.084l0.042-0.176l1.134-0.224
		l0.078,0.084l-0.099,0.519c0.386-0.393,0.708-0.609,1.106-0.609c0.609,0,1.037,0.546,1.037,1.295
		C321.729,9.274,320.825,10.157,319.922,10.157z M320.44,7.187c-0.301,0-0.547,0.154-0.918,0.512l-0.168,0.917
		c-0.021,0.126-0.035,0.322-0.035,0.455c0,0.455,0.231,0.75,0.708,0.75c0.623,0,1.044-0.603,1.044-1.667
		C321.071,7.558,320.804,7.187,320.44,7.187z"/>
	<path d="M323.079,9.344c-0.043,0.238,0.014,0.336,0.146,0.336c0.112,0,0.273-0.091,0.455-0.231l0.154,0.196
		c-0.357,0.351-0.665,0.532-0.932,0.532c-0.378,0-0.546-0.279-0.469-0.714l0.631-3.53c0.062-0.329-0.029-0.441-0.26-0.532
		l-0.21-0.084l0.042-0.175l1.135-0.238l0.084,0.084L323.079,9.344z"/>
	<path d="M325.01,10.177c-0.378,0-0.547-0.279-0.463-0.714l0.33-1.744c0.056-0.309,0.007-0.448-0.26-0.546l-0.209-0.084l0.041-0.176
		l1.148-0.224l0.078,0.084l-0.49,2.57c-0.05,0.238,0.014,0.336,0.146,0.336c0.111,0,0.273-0.091,0.455-0.231l0.154,0.196
		C325.584,9.996,325.276,10.177,325.01,10.177z M325.444,5.926c-0.258,0-0.469-0.196-0.469-0.462c0-0.26,0.211-0.455,0.469-0.455
		c0.253,0,0.456,0.195,0.456,0.455C325.9,5.73,325.697,5.926,325.444,5.926z"/>
	<path d="M328.518,7.159h-0.932l-0.378,2.011c-0.015,0.084-0.021,0.188-0.021,0.266c0,0.196,0.111,0.315,0.301,0.315
		c0.195,0,0.35-0.091,0.525-0.231l0.168,0.203c-0.238,0.245-0.561,0.47-0.932,0.47c-0.448,0-0.701-0.252-0.701-0.631
		c0-0.069,0.015-0.224,0.029-0.294l0.392-2.108h-0.455l0.034-0.238l0.52-0.161l0.328-0.896h0.428l-0.175,0.904h0.931L328.518,7.159z
		"/>
	<path d="M332.62,7.159h-0.931l-0.379,2.011c-0.014,0.084-0.021,0.188-0.021,0.266c0,0.196,0.112,0.315,0.301,0.315
		c0.196,0,0.351-0.091,0.525-0.231l0.168,0.203c-0.238,0.245-0.561,0.47-0.932,0.47c-0.448,0-0.7-0.252-0.7-0.631
		c0-0.069,0.014-0.224,0.028-0.294l0.392-2.108h-0.455l0.035-0.238l0.519-0.161l0.329-0.896h0.427l-0.175,0.904h0.932L332.62,7.159z
		"/>
	<path d="M335.441,10.177c-0.371,0-0.567-0.252-0.462-0.756l0.336-1.597c0.014-0.07,0.042-0.238,0.042-0.337
		c0-0.168-0.098-0.301-0.28-0.301c-0.245,0-0.574,0.161-1.127,0.603l-0.435,2.332h-0.616l0.771-4.174
		c0.062-0.309,0.007-0.448-0.26-0.547l-0.203-0.084l0.042-0.175l1.135-0.238l0.084,0.084l-0.44,2.389
		c0.574-0.477,0.938-0.693,1.337-0.693c0.406,0,0.638,0.21,0.638,0.637c0,0.112-0.014,0.252-0.042,0.393l-0.336,1.632
		c-0.049,0.231,0.014,0.336,0.146,0.336c0.112,0,0.273-0.091,0.455-0.231l0.154,0.196C336.022,9.996,335.714,10.177,335.441,10.177z
		"/>
	<path d="M337.442,8.679c0.035,0.735,0.357,1.1,0.854,1.1c0.315,0,0.561-0.119,0.903-0.386l0.176,0.189
		c-0.406,0.406-0.785,0.623-1.317,0.623c-0.756,0-1.295-0.546-1.295-1.407c0-1.107,0.854-2.13,1.855-2.13
		c0.68,0,1.029,0.294,1.029,0.771C339.648,8.125,338.906,8.545,337.442,8.679z M338.479,6.942c-0.547,0-0.988,0.722-1.037,1.492
		c1.135-0.112,1.513-0.448,1.513-0.988C338.955,7.124,338.815,6.942,338.479,6.942z"/>
	<path d="M343.546,8.364l-1.443,1.239h1.177c0.63,0,0.841-0.133,1.142-0.581l0.161-0.252h0.238l-0.68,1.352h-2.661l-0.091-0.175
		l1.877-1.835c0.729-0.715,0.974-1.128,0.974-1.653c0-0.413-0.28-0.687-0.687-0.687c-0.477,0-0.827,0.196-1.303,0.735l-0.203-0.153
		c0.567-0.778,1.064-1.114,1.694-1.114c0.764,0,1.205,0.399,1.205,1.044C344.947,7.033,344.463,7.58,343.546,8.364z"/>
	<path d="M346.899,10.212c-0.819,0-1.415-0.588-1.415-1.877c0-1.491,0.834-3.096,2.046-3.096c0.812,0,1.407,0.589,1.407,1.877
		C348.937,8.609,348.104,10.212,346.899,10.212z M347.508,5.534c-0.791,0-1.31,1.717-1.31,3.152c0,0.798,0.252,1.232,0.715,1.232
		c0.798,0,1.31-1.716,1.31-3.151C348.223,5.968,347.971,5.534,347.508,5.534z"/>
	<path d="M350.958,10.212c-0.819,0-1.415-0.588-1.415-1.877c0-1.491,0.834-3.096,2.046-3.096c0.812,0,1.407,0.589,1.407,1.877
		C352.997,8.609,352.164,10.212,350.958,10.212z M351.568,5.534c-0.791,0-1.31,1.717-1.31,3.152c0,0.798,0.252,1.232,0.715,1.232
		c0.798,0,1.31-1.716,1.31-3.151C352.283,5.968,352.03,5.534,351.568,5.534z"/>
	<path d="M355.719,7.58c0.525,0.35,0.841,0.771,0.841,1.239c0,0.883-0.707,1.394-1.568,1.394c-0.827,0-1.569-0.462-1.569-1.19
		c0-0.742,0.561-1.163,1.296-1.429c-0.512-0.343-0.735-0.742-0.735-1.148c0-0.666,0.574-1.205,1.464-1.205
		c0.805,0,1.4,0.448,1.4,1.106C356.847,7.005,356.336,7.348,355.719,7.58z M354.963,7.733c-0.512,0.225-0.861,0.693-0.861,1.311
		c0,0.553,0.413,0.896,0.903,0.896c0.574,0,0.896-0.435,0.896-0.981C355.902,8.399,355.467,8.042,354.963,7.733z M355.425,5.513
		c-0.539,0-0.806,0.385-0.806,0.848c0,0.329,0.218,0.679,0.848,1.058c0.428-0.218,0.722-0.567,0.722-1.1
		C356.189,5.835,355.888,5.513,355.425,5.513z"/>
	<path d="M360.913,7.593c-0.14,0-0.252-0.133-0.448-0.638c-0.035-0.014-0.077-0.021-0.14-0.021c-0.364,0-0.645,0.266-0.645,0.567
		c0,0.287,0.112,0.42,0.623,0.693c0.609,0.329,0.812,0.574,0.812,0.966c0,0.631-0.546,1.051-1.323,1.051
		c-0.742,0-1.148-0.294-1.148-0.588c0-0.176,0.252-0.364,0.427-0.364c0.154,0,0.252,0.14,0.455,0.638
		c0.063,0.027,0.168,0.049,0.273,0.049c0.413,0,0.714-0.252,0.714-0.574c0-0.267-0.104-0.414-0.623-0.693
		c-0.581-0.315-0.812-0.547-0.812-0.988c0-0.504,0.448-1.022,1.268-1.022c0.658,0,0.988,0.322,0.988,0.582
		C361.333,7.432,361.095,7.593,360.913,7.593z"/>
	<path d="M362.466,8.679c0.035,0.735,0.357,1.1,0.854,1.1c0.315,0,0.561-0.119,0.903-0.386l0.176,0.189
		c-0.406,0.406-0.785,0.623-1.317,0.623c-0.756,0-1.295-0.546-1.295-1.407c0-1.107,0.854-2.13,1.855-2.13
		c0.68,0,1.029,0.294,1.029,0.771C364.672,8.125,363.93,8.545,362.466,8.679z M363.503,6.942c-0.547,0-0.988,0.722-1.037,1.492
		c1.135-0.112,1.513-0.448,1.513-0.988C363.979,7.124,363.839,6.942,363.503,6.942z"/>
	<path d="M367.738,10.177c-0.35,0-0.483-0.266-0.469-0.595c-0.393,0.392-0.715,0.616-1.128,0.616c-0.603,0-1.016-0.455-1.016-1.212
		c0-1.303,0.96-2.262,1.877-2.262c0.399,0,0.666,0.091,0.918,0.23l0.315-0.287h0.188l-0.511,2.676
		c-0.042,0.238,0.021,0.336,0.153,0.336c0.112,0,0.273-0.091,0.456-0.231l0.153,0.196C368.32,9.996,368.011,10.177,367.738,10.177z
		 M366.898,7.054c-0.638,0-1.114,0.7-1.114,1.729c0,0.603,0.245,0.903,0.609,0.903c0.315,0,0.561-0.153,0.938-0.511l0.183-0.938
		c0.021-0.126,0.035-0.322,0.035-0.455C367.549,7.341,367.311,7.054,366.898,7.054z"/>
	<path d="M371.154,7.593c-0.14,0-0.252-0.133-0.448-0.638c-0.035-0.014-0.077-0.021-0.14-0.021c-0.364,0-0.645,0.266-0.645,0.567
		c0,0.287,0.112,0.42,0.623,0.693c0.609,0.329,0.812,0.574,0.812,0.966c0,0.631-0.546,1.051-1.323,1.051
		c-0.742,0-1.148-0.294-1.148-0.588c0-0.176,0.252-0.364,0.427-0.364c0.154,0,0.252,0.14,0.455,0.638
		c0.063,0.027,0.168,0.049,0.273,0.049c0.413,0,0.714-0.252,0.714-0.574c0-0.267-0.104-0.414-0.623-0.693
		c-0.581-0.315-0.812-0.547-0.812-0.988c0-0.504,0.448-1.022,1.268-1.022c0.658,0,0.988,0.322,0.988,0.582
		C371.575,7.432,371.336,7.593,371.154,7.593z"/>
	<path d="M373.435,10.212c-0.799,0-1.387-0.518-1.387-1.449c0-1.212,0.791-2.095,1.828-2.095c0.798,0,1.387,0.512,1.387,1.443
		C375.263,9.323,374.479,10.212,373.435,10.212z M373.834,6.942c-0.631,0-1.079,0.854-1.079,1.947c0,0.7,0.245,1.051,0.722,1.051
		c0.638,0,1.079-0.854,1.079-1.947C374.556,7.285,374.311,6.942,373.834,6.942z"/>
	<path d="M378.413,10.177c-0.371,0-0.567-0.252-0.462-0.756l0.336-1.597c0.015-0.07,0.042-0.238,0.042-0.337
		c0-0.168-0.098-0.301-0.28-0.301c-0.245,0-0.567,0.161-1.12,0.603l-0.448,2.332h-0.616l0.455-2.402
		c0.062-0.309,0.007-0.448-0.252-0.546l-0.21-0.084l0.042-0.176l1.134-0.224l0.077,0.084l-0.119,0.609
		c0.582-0.477,0.946-0.7,1.345-0.7c0.406,0,0.638,0.21,0.638,0.637c0,0.112-0.014,0.252-0.042,0.393l-0.336,1.632
		c-0.049,0.231,0.014,0.336,0.146,0.336c0.112,0,0.273-0.091,0.456-0.231l0.153,0.196C378.995,9.996,378.686,10.177,378.413,10.177z
		"/>
	<path d="M382.851,10.157c-0.435,0-0.757-0.112-0.995-0.238l-0.294,0.294h-0.188l0.784-4.265c0.062-0.322,0-0.448-0.26-0.547
		l-0.21-0.084l0.042-0.175l1.142-0.238l0.084,0.084l-0.427,2.29c0.385-0.378,0.693-0.595,1.093-0.595
		c0.609,0,1.036,0.546,1.036,1.295C384.658,9.274,383.754,10.157,382.851,10.157z M383.369,7.187c-0.301,0-0.539,0.154-0.91,0.512
		l-0.175,0.917c-0.021,0.126-0.042,0.322-0.042,0.455c0,0.455,0.238,0.75,0.714,0.75c0.624,0,1.044-0.603,1.044-1.667
		C384,7.558,383.733,7.187,383.369,7.187z"/>
	<path d="M385.888,8.679c0.035,0.735,0.357,1.1,0.854,1.1c0.315,0,0.561-0.119,0.903-0.386l0.176,0.189
		c-0.406,0.406-0.785,0.623-1.317,0.623c-0.756,0-1.295-0.546-1.295-1.407c0-1.107,0.854-2.13,1.855-2.13
		c0.68,0,1.029,0.294,1.029,0.771C388.094,8.125,387.352,8.545,385.888,8.679z M386.925,6.942c-0.547,0-0.988,0.722-1.037,1.492
		c1.135-0.112,1.513-0.448,1.513-0.988C387.401,7.124,387.261,6.942,386.925,6.942z"/>
	<path d="M390.634,7.159h-0.931l-0.379,2.011c-0.014,0.084-0.021,0.188-0.021,0.266c0,0.196,0.112,0.315,0.301,0.315
		c0.196,0,0.351-0.091,0.525-0.231l0.168,0.203c-0.238,0.245-0.561,0.47-0.932,0.47c-0.448,0-0.7-0.252-0.7-0.631
		c0-0.069,0.014-0.224,0.028-0.294l0.392-2.108h-0.455l0.035-0.238l0.519-0.161l0.329-0.896h0.427l-0.175,0.904h0.932L390.634,7.159
		z"/>
	<path d="M394.219,10.206h-0.252l-0.427-2.15c-0.267,0.658-0.771,1.548-1.331,2.15h-0.252l-0.441-2.535
		c-0.056-0.28-0.161-0.399-0.42-0.505l-0.189-0.076l0.035-0.176l0.938-0.224l0.091,0.077l0.448,2.696
		c0.462-0.574,1.009-1.786,1.022-2.689l0.364-0.084l0.091,0.077l0.54,2.752c0.567-0.616,0.875-1.352,0.987-1.828
		c-0.357-0.44-0.441-0.56-0.441-0.672c0-0.168,0.203-0.344,0.441-0.344c0.294,0,0.49,0.253,0.49,0.582
		C395.915,7.964,395.27,9.169,394.219,10.206z"/>
	<path d="M397.082,8.679c0.035,0.735,0.357,1.1,0.854,1.1c0.315,0,0.561-0.119,0.903-0.386l0.176,0.189
		c-0.406,0.406-0.785,0.623-1.317,0.623c-0.756,0-1.295-0.546-1.295-1.407c0-1.107,0.854-2.13,1.855-2.13
		c0.68,0,1.029,0.294,1.029,0.771C399.288,8.125,398.545,8.545,397.082,8.679z M398.119,6.942c-0.547,0-0.988,0.722-1.037,1.492
		c1.135-0.112,1.513-0.448,1.513-0.988C398.594,7.124,398.455,6.942,398.119,6.942z"/>
	<path d="M400.358,8.679c0.035,0.735,0.357,1.1,0.854,1.1c0.315,0,0.561-0.119,0.903-0.386l0.176,0.189
		c-0.406,0.406-0.785,0.623-1.317,0.623c-0.756,0-1.295-0.546-1.295-1.407c0-1.107,0.854-2.13,1.855-2.13
		c0.68,0,1.029,0.294,1.029,0.771C402.564,8.125,401.822,8.545,400.358,8.679z M401.395,6.942c-0.547,0-0.988,0.722-1.037,1.492
		c1.135-0.112,1.513-0.448,1.513-0.988C401.871,7.124,401.731,6.942,401.395,6.942z"/>
	<path d="M405.588,10.177c-0.371,0-0.567-0.252-0.462-0.756l0.336-1.597c0.015-0.07,0.042-0.238,0.042-0.337
		c0-0.168-0.098-0.301-0.28-0.301c-0.245,0-0.567,0.161-1.12,0.603l-0.448,2.332h-0.616l0.455-2.402
		c0.062-0.309,0.007-0.448-0.252-0.546l-0.21-0.084l0.042-0.176l1.134-0.224l0.077,0.084l-0.119,0.609
		c0.582-0.477,0.946-0.7,1.345-0.7c0.406,0,0.638,0.21,0.638,0.637c0,0.112-0.014,0.252-0.042,0.393l-0.336,1.632
		c-0.049,0.231,0.014,0.336,0.146,0.336c0.112,0,0.273-0.091,0.456-0.231l0.153,0.196C406.17,9.996,405.862,10.177,405.588,10.177z"
		/>
</g>
<g>
	<path d="M431.612,5.597l-0.267,0.035c-0.343,0.049-0.44,0.182-0.574,0.903l-0.651,3.656h-0.238l-2.443-3.804l-0.449,2.543
		c-0.119,0.679-0.049,0.854,0.315,0.896l0.287,0.035l-0.049,0.266c-0.14,0-0.638-0.014-0.903-0.014
		c-0.267,0-0.812,0.014-0.967,0.014l0.049-0.266l0.266-0.035c0.344-0.049,0.449-0.183,0.575-0.903l0.448-2.563
		c0.07-0.379-0.105-0.673-0.561-0.75l-0.111-0.021l0.049-0.267c0.154,0.007,0.363,0.015,0.623,0.015
		c0.217,0,0.393-0.008,0.596-0.021l2.311,3.6l0.428-2.388c0.119-0.68,0.049-0.854-0.315-0.896l-0.287-0.035l0.049-0.267
		c0.14,0,0.638,0.015,0.903,0.015c0.267,0,0.812-0.015,0.967-0.015L431.612,5.597z"/>
	<path d="M432.147,8.679c0.035,0.735,0.357,1.1,0.855,1.1c0.314,0,0.561-0.119,0.903-0.386l0.175,0.189
		c-0.406,0.406-0.784,0.623-1.316,0.623c-0.756,0-1.296-0.546-1.296-1.407c0-1.107,0.854-2.13,1.856-2.13
		c0.68,0,1.029,0.294,1.029,0.771C434.354,8.125,433.612,8.545,432.147,8.679z M433.184,6.942c-0.547,0-0.987,0.722-1.037,1.492
		c1.135-0.112,1.514-0.448,1.514-0.988C433.661,7.124,433.52,6.942,433.184,6.942z"/>
	<path d="M437.987,10.206h-0.252l-0.428-2.15c-0.266,0.658-0.77,1.548-1.33,2.15h-0.252l-0.441-2.535
		c-0.057-0.28-0.161-0.399-0.42-0.505l-0.189-0.076l0.035-0.176l0.938-0.224l0.091,0.077l0.448,2.696
		c0.462-0.574,1.009-1.786,1.022-2.689l0.364-0.084l0.091,0.077l0.539,2.752c0.568-0.616,0.876-1.352,0.988-1.828
		c-0.357-0.44-0.441-0.56-0.441-0.672c0-0.168,0.203-0.344,0.441-0.344c0.294,0,0.49,0.253,0.49,0.582
		C439.682,7.964,439.038,9.169,437.987,10.206z"/>
	<path d="M447.186,5.59l-0.146,0.014c-0.315,0.042-0.525,0.203-0.848,0.589l-1.604,1.926l-0.141,0.812
		c-0.119,0.687-0.062,0.854,0.322,0.896l0.309,0.035l-0.05,0.266c-0.14,0-0.854-0.014-1.12-0.014c-0.267,0-1.009,0.014-1.148,0.014
		l0.041-0.266l0.316-0.035c0.406-0.042,0.518-0.21,0.637-0.896l0.141-0.806l-0.953-1.87c-0.245-0.477-0.42-0.588-0.687-0.638
		l-0.126-0.021l0.049-0.273c0.141,0,0.645,0.015,0.91,0.015c0.267,0,1.016-0.015,1.156-0.015l-0.042,0.267l-0.28,0.035
		c-0.225,0.027-0.301,0.133-0.301,0.272c0,0.092,0.021,0.189,0.084,0.322l0.749,1.541l1.058-1.303
		c0.189-0.245,0.329-0.448,0.329-0.588c0-0.141-0.084-0.225-0.272-0.253l-0.26-0.027l0.049-0.267c0.141,0,0.722,0.015,0.988,0.015
		c0.266,0,0.749-0.015,0.889-0.015L447.186,5.59z"/>
	<path d="M447.631,10.212c-0.799,0-1.387-0.518-1.387-1.449c0-1.212,0.791-2.095,1.828-2.095c0.798,0,1.387,0.512,1.387,1.443
		C449.459,9.323,448.674,10.212,447.631,10.212z M448.03,6.942c-0.63,0-1.078,0.854-1.078,1.947c0,0.7,0.245,1.051,0.721,1.051
		c0.639,0,1.079-0.854,1.079-1.947C448.751,7.285,448.506,6.942,448.03,6.942z"/>
	<path d="M452.377,7.481c-0.217-0.014-0.378-0.035-0.588-0.077c-0.225,0.112-0.463,0.309-0.701,0.547l-0.412,2.171h-0.617
		l0.455-2.402c0.063-0.309,0.008-0.448-0.252-0.546l-0.21-0.084l0.042-0.176l1.135-0.224l0.077,0.084l-0.154,0.798
		c0.603-0.707,0.827-0.896,1.093-0.896c0.21,0,0.344,0.112,0.344,0.322C452.588,7.194,452.483,7.383,452.377,7.481z"/>
	<path d="M455.233,10.177c-0.244,0-0.377-0.126-0.525-0.427l-0.679-1.324c-0.126,0.134-0.238,0.253-0.329,0.357l-0.245,1.338h-0.616
		l0.77-4.174c0.064-0.309,0.008-0.448-0.258-0.547l-0.203-0.084l0.041-0.175l1.135-0.238l0.084,0.084l-0.616,3.327l1.009-1.121
		c0.314-0.35,0.512-0.511,0.84-0.511c0.267,0,0.428,0.146,0.428,0.35c0,0.218-0.105,0.357-0.238,0.357
		c-0.111,0-0.266-0.028-0.596-0.119c-0.146,0.105-0.447,0.385-0.756,0.7l0.777,1.527c0.07,0.126,0.141,0.182,0.231,0.182
		s0.245-0.084,0.448-0.231l0.154,0.196C455.738,9.996,455.436,10.177,455.233,10.177z"/>
	<path d="M463.439,5.59l-0.147,0.014c-0.314,0.042-0.525,0.203-0.848,0.589l-1.604,1.926l-0.14,0.812
		c-0.119,0.687-0.063,0.854,0.322,0.896l0.308,0.035l-0.049,0.266c-0.14,0-0.854-0.014-1.121-0.014
		c-0.266,0-1.008,0.014-1.148,0.014l0.043-0.266l0.314-0.035c0.406-0.042,0.519-0.21,0.638-0.896l0.14-0.806l-0.952-1.87
		c-0.245-0.477-0.421-0.588-0.687-0.638l-0.126-0.021l0.05-0.273c0.139,0,0.644,0.015,0.91,0.015c0.266,0,1.016-0.015,1.155-0.015
		l-0.042,0.267l-0.28,0.035c-0.224,0.027-0.302,0.133-0.302,0.272c0,0.092,0.021,0.189,0.084,0.322l0.75,1.541l1.058-1.303
		c0.188-0.245,0.329-0.448,0.329-0.588c0-0.141-0.084-0.225-0.273-0.253l-0.259-0.027l0.05-0.267c0.139,0,0.721,0.015,0.986,0.015
		c0.267,0,0.75-0.015,0.891-0.015L463.439,5.59z"/>
	<path d="M465.047,10.177c-0.352,0-0.484-0.266-0.47-0.595c-0.393,0.392-0.714,0.616-1.128,0.616c-0.602,0-1.016-0.455-1.016-1.212
		c0-1.303,0.96-2.262,1.877-2.262c0.399,0,0.666,0.091,0.918,0.23l0.314-0.287h0.189l-0.512,2.676
		c-0.041,0.238,0.021,0.336,0.154,0.336c0.112,0,0.273-0.091,0.455-0.231l0.154,0.196C465.627,9.996,465.32,10.177,465.047,10.177z
		 M464.206,7.054c-0.637,0-1.113,0.7-1.113,1.729c0,0.603,0.246,0.903,0.609,0.903c0.315,0,0.561-0.153,0.939-0.511l0.182-0.938
		c0.021-0.126,0.035-0.322,0.035-0.455C464.858,7.341,464.62,7.054,464.206,7.054z"/>
	<path d="M468.995,10.177c-0.371,0-0.567-0.252-0.463-0.756l0.336-1.597c0.015-0.07,0.043-0.238,0.043-0.337
		c0-0.168-0.098-0.301-0.28-0.301c-0.245,0-0.567,0.161-1.12,0.603l-0.449,2.332h-0.616l0.456-2.402
		c0.062-0.309,0.006-0.448-0.253-0.546l-0.21-0.084l0.042-0.176l1.135-0.224l0.077,0.084l-0.119,0.609
		c0.581-0.477,0.945-0.7,1.345-0.7c0.406,0,0.638,0.21,0.638,0.637c0,0.112-0.015,0.252-0.043,0.393l-0.336,1.632
		c-0.049,0.231,0.014,0.336,0.147,0.336c0.112,0,0.272-0.091,0.455-0.231l0.154,0.196C469.576,9.996,469.268,10.177,468.995,10.177z
		"/>
	<path d="M472.683,10.177c-0.245,0-0.378-0.126-0.525-0.427l-0.679-1.324c-0.127,0.134-0.238,0.253-0.33,0.357l-0.244,1.338h-0.617
		l0.771-4.174c0.062-0.309,0.006-0.448-0.26-0.547l-0.203-0.084l0.042-0.175l1.135-0.238l0.084,0.084l-0.616,3.327l1.008-1.121
		c0.315-0.35,0.512-0.511,0.841-0.511c0.267,0,0.427,0.146,0.427,0.35c0,0.218-0.104,0.357-0.238,0.357
		c-0.111,0-0.266-0.028-0.595-0.119c-0.147,0.105-0.448,0.385-0.757,0.7l0.777,1.527c0.07,0.126,0.141,0.182,0.232,0.182
		c0.09,0,0.244-0.084,0.447-0.231l0.154,0.196C473.188,9.996,472.886,10.177,472.683,10.177z"/>
	<path d="M474.552,8.679c0.035,0.735,0.357,1.1,0.854,1.1c0.314,0,0.561-0.119,0.904-0.386l0.174,0.189
		c-0.406,0.406-0.783,0.623-1.316,0.623c-0.756,0-1.295-0.546-1.295-1.407c0-1.107,0.854-2.13,1.855-2.13
		c0.68,0,1.029,0.294,1.029,0.771C476.758,8.125,476.016,8.545,474.552,8.679z M475.588,6.942c-0.546,0-0.986,0.722-1.036,1.492
		c1.136-0.112,1.513-0.448,1.513-0.988C476.065,7.124,475.924,6.942,475.588,6.942z"/>
	<path d="M477.829,8.679c0.035,0.735,0.357,1.1,0.855,1.1c0.314,0,0.561-0.119,0.902-0.386l0.176,0.189
		c-0.406,0.406-0.785,0.623-1.316,0.623c-0.756,0-1.295-0.546-1.295-1.407c0-1.107,0.854-2.13,1.855-2.13
		c0.68,0,1.029,0.294,1.029,0.771C480.036,8.125,479.293,8.545,477.829,8.679z M478.866,6.942c-0.547,0-0.988,0.722-1.037,1.492
		c1.135-0.112,1.514-0.448,1.514-0.988C479.342,7.124,479.202,6.942,478.866,6.942z"/>
	<path d="M482.526,7.593c-0.139,0-0.252-0.133-0.447-0.638c-0.035-0.014-0.078-0.021-0.141-0.021c-0.363,0-0.645,0.266-0.645,0.567
		c0,0.287,0.113,0.42,0.623,0.693c0.609,0.329,0.812,0.574,0.812,0.966c0,0.631-0.545,1.051-1.322,1.051
		c-0.742,0-1.148-0.294-1.148-0.588c0-0.176,0.252-0.364,0.426-0.364c0.154,0,0.252,0.14,0.455,0.638
		c0.064,0.027,0.168,0.049,0.273,0.049c0.414,0,0.715-0.252,0.715-0.574c0-0.267-0.105-0.414-0.623-0.693
		c-0.582-0.315-0.812-0.547-0.812-0.988c0-0.504,0.447-1.022,1.268-1.022c0.658,0,0.988,0.322,0.988,0.582
		C482.948,7.432,482.709,7.593,482.526,7.593z"/>
</g>
<rect x="490.473" y="3.789" fill="#9A9BC7" width="8.498" height="6.333"/>
<g>
	<path d="M509.063,5.59l-0.259,0.035c-0.351,0.049-0.456,0.195-0.575,0.896l-0.427,2.409c-0.118,0.693-0.069,0.854,0.259,0.896
		l0.26,0.035l-0.049,0.266c-0.154,0-0.757-0.014-1.023-0.014c-0.266,0-0.973,0.014-1.12,0.014l0.05-0.266l0.287-0.035
		c0.406-0.049,0.525-0.218,0.644-0.896l0.183-1.044h-2.354l-0.189,1.044c-0.119,0.679-0.062,0.848,0.322,0.896l0.287,0.035
		l-0.049,0.266c-0.141,0-0.826-0.014-1.093-0.014s-0.896,0.014-1.05,0.014l0.049-0.266l0.259-0.035
		c0.351-0.049,0.455-0.196,0.581-0.896l0.42-2.409c0.119-0.693,0.078-0.854-0.252-0.896l-0.266-0.035l0.049-0.267
		c0.154,0,0.764,0.015,1.029,0.015c0.267,0,0.974-0.015,1.113-0.015L506.1,5.59l-0.287,0.035c-0.406,0.049-0.518,0.217-0.637,0.896
		l-0.182,1.008h2.359l0.176-1.008c0.125-0.68,0.062-0.848-0.315-0.896L506.92,5.59l0.049-0.267c0.146,0,0.833,0.015,1.1,0.015
		c0.266,0,0.889-0.015,1.043-0.015L509.063,5.59z"/>
	<path d="M510.412,10.212c-0.798,0-1.387-0.518-1.387-1.449c0-1.212,0.792-2.095,1.828-2.095c0.798,0,1.387,0.512,1.387,1.443
		C512.24,9.323,511.456,10.212,510.412,10.212z M510.811,6.942c-0.631,0-1.078,0.854-1.078,1.947c0,0.7,0.244,1.051,0.721,1.051
		c0.638,0,1.078-0.854,1.078-1.947C511.532,7.285,511.288,6.942,510.811,6.942z"/>
	<path d="M515.369,10.177c-0.357,0-0.512-0.266-0.456-0.679c-0.58,0.476-0.938,0.7-1.337,0.7c-0.406,0-0.638-0.217-0.638-0.645
		c0-0.112,0.021-0.245,0.049-0.385l0.273-1.45c0.062-0.309,0.007-0.448-0.26-0.546l-0.209-0.084l0.041-0.176l1.156-0.224
		l0.077,0.084l-0.435,2.276c-0.021,0.091-0.042,0.245-0.042,0.336c0,0.168,0.091,0.301,0.28,0.301c0.238,0,0.553-0.153,1.106-0.595
		l0.448-2.333h0.617l-0.491,2.585c-0.049,0.238,0.015,0.336,0.147,0.336c0.111,0,0.273-0.091,0.455-0.231l0.154,0.196
		C515.95,9.996,515.641,10.177,515.369,10.177z"/>
	<path d="M518.784,7.593c-0.14,0-0.252-0.133-0.448-0.638c-0.034-0.014-0.077-0.021-0.14-0.021c-0.364,0-0.645,0.266-0.645,0.567
		c0,0.287,0.111,0.42,0.623,0.693c0.609,0.329,0.812,0.574,0.812,0.966c0,0.631-0.546,1.051-1.324,1.051
		c-0.742,0-1.148-0.294-1.148-0.588c0-0.176,0.252-0.364,0.428-0.364c0.154,0,0.252,0.14,0.455,0.638
		c0.063,0.027,0.168,0.049,0.273,0.049c0.413,0,0.715-0.252,0.715-0.574c0-0.267-0.105-0.414-0.624-0.693
		c-0.581-0.315-0.812-0.547-0.812-0.988c0-0.504,0.448-1.022,1.269-1.022c0.658,0,0.986,0.322,0.986,0.582
		C519.204,7.432,518.965,7.593,518.784,7.593z"/>
	<path d="M521.773,7.159h-0.932l-0.378,2.011c-0.014,0.084-0.021,0.188-0.021,0.266c0,0.196,0.112,0.315,0.301,0.315
		c0.197,0,0.352-0.091,0.525-0.231l0.168,0.203c-0.237,0.245-0.56,0.47-0.931,0.47c-0.448,0-0.7-0.252-0.7-0.631
		c0-0.069,0.014-0.224,0.027-0.294l0.393-2.108h-0.455l0.035-0.238l0.518-0.161l0.33-0.896h0.427l-0.175,0.904h0.932L521.773,7.159z
		"/>
	<path d="M523.417,10.212c-0.798,0-1.387-0.518-1.387-1.449c0-1.212,0.792-2.095,1.828-2.095c0.798,0,1.387,0.512,1.387,1.443
		C525.246,9.323,524.461,10.212,523.417,10.212z M523.817,6.942c-0.631,0-1.078,0.854-1.078,1.947c0,0.7,0.244,1.051,0.721,1.051
		c0.638,0,1.078-0.854,1.078-1.947C524.538,7.285,524.293,6.942,523.817,6.942z"/>
	<path d="M528.395,10.177c-0.371,0-0.567-0.252-0.463-0.756l0.336-1.597c0.015-0.07,0.043-0.238,0.043-0.337
		c0-0.168-0.098-0.301-0.28-0.301c-0.245,0-0.567,0.161-1.12,0.603l-0.449,2.332h-0.616l0.456-2.402
		c0.062-0.309,0.006-0.448-0.253-0.546l-0.21-0.084l0.042-0.176l1.135-0.224l0.077,0.084l-0.119,0.609
		c0.581-0.477,0.945-0.7,1.345-0.7c0.406,0,0.638,0.21,0.638,0.637c0,0.112-0.015,0.252-0.043,0.393l-0.336,1.632
		c-0.049,0.231,0.014,0.336,0.147,0.336c0.112,0,0.272-0.091,0.455-0.231l0.154,0.196C528.976,9.996,528.668,10.177,528.395,10.177z
		"/>
	<path d="M535.928,10.128c-0.141,0-0.617-0.014-0.883-0.014s-0.918,0.014-1.058,0.014l0.05-0.266l0.266-0.035
		c0.266-0.035,0.364-0.141,0.364-0.357c0-0.077-0.007-0.168-0.05-0.343l-0.146-0.722h-1.744l-0.287,0.525
		c-0.154,0.272-0.225,0.476-0.225,0.637c0,0.154,0.07,0.238,0.273,0.267l0.231,0.028l-0.049,0.266c-0.14,0-0.624-0.014-0.89-0.014
		s-0.721,0.014-0.861,0.014l0.049-0.266l0.168-0.021c0.287-0.042,0.455-0.175,0.75-0.7l1.975-3.509l0.512-0.428h0.125l0.799,3.979
		c0.098,0.49,0.196,0.603,0.504,0.651l0.176,0.021L535.928,10.128z M534.002,6.129l-1.079,1.933h1.478L534.002,6.129z"/>
	<path d="M538.642,7.593c-0.14,0-0.252-0.133-0.448-0.638c-0.035-0.014-0.076-0.021-0.14-0.021c-0.364,0-0.645,0.266-0.645,0.567
		c0,0.287,0.112,0.42,0.624,0.693c0.608,0.329,0.812,0.574,0.812,0.966c0,0.631-0.546,1.051-1.323,1.051
		c-0.742,0-1.148-0.294-1.148-0.588c0-0.176,0.252-0.364,0.427-0.364c0.154,0,0.252,0.14,0.455,0.638
		c0.063,0.027,0.169,0.049,0.273,0.049c0.413,0,0.714-0.252,0.714-0.574c0-0.267-0.104-0.414-0.623-0.693
		c-0.581-0.315-0.812-0.547-0.812-0.988c0-0.504,0.448-1.022,1.268-1.022c0.658,0,0.988,0.322,0.988,0.582
		C539.063,7.432,538.825,7.593,538.642,7.593z"/>
	<path d="M541.631,7.159H540.7l-0.377,2.011c-0.015,0.084-0.021,0.188-0.021,0.266c0,0.196,0.111,0.315,0.301,0.315
		c0.196,0,0.351-0.091,0.525-0.231l0.168,0.203c-0.238,0.245-0.561,0.47-0.932,0.47c-0.447,0-0.7-0.252-0.7-0.631
		c0-0.069,0.015-0.224,0.028-0.294l0.393-2.108h-0.455l0.034-0.238l0.519-0.161l0.329-0.896h0.427l-0.175,0.904h0.932L541.631,7.159
		z"/>
	<path d="M544.305,7.481c-0.217-0.014-0.377-0.035-0.588-0.077c-0.225,0.112-0.462,0.309-0.7,0.547l-0.413,2.171h-0.617l0.456-2.402
		c0.063-0.309,0.007-0.448-0.253-0.546l-0.209-0.084l0.041-0.176l1.135-0.224l0.078,0.084l-0.154,0.798
		c0.602-0.707,0.826-0.896,1.092-0.896c0.211,0,0.344,0.112,0.344,0.322C544.516,7.194,544.411,7.383,544.305,7.481z"/>
	<path d="M546.028,10.212c-0.799,0-1.387-0.518-1.387-1.449c0-1.212,0.791-2.095,1.828-2.095c0.799,0,1.387,0.512,1.387,1.443
		C547.856,9.323,547.071,10.212,546.028,10.212z M546.427,6.942c-0.63,0-1.079,0.854-1.079,1.947c0,0.7,0.246,1.051,0.722,1.051
		c0.638,0,1.079-0.854,1.079-1.947C547.149,7.285,546.903,6.942,546.427,6.942z"/>
	<path d="M550.473,7.593c-0.141,0-0.252-0.133-0.449-0.638c-0.034-0.014-0.076-0.021-0.139-0.021c-0.365,0-0.645,0.266-0.645,0.567
		c0,0.287,0.111,0.42,0.623,0.693c0.609,0.329,0.812,0.574,0.812,0.966c0,0.631-0.547,1.051-1.324,1.051
		c-0.742,0-1.148-0.294-1.148-0.588c0-0.176,0.252-0.364,0.428-0.364c0.154,0,0.252,0.14,0.455,0.638
		c0.062,0.027,0.168,0.049,0.273,0.049c0.412,0,0.714-0.252,0.714-0.574c0-0.267-0.104-0.414-0.624-0.693
		c-0.58-0.315-0.812-0.547-0.812-0.988c0-0.504,0.449-1.022,1.269-1.022c0.658,0,0.987,0.322,0.987,0.582
		C550.893,7.432,550.655,7.593,550.473,7.593z"/>
</g>
</svg>
