<?xml version="1.0" encoding="utf-8"?>
<!-- Generator: Adobe Illustrator 16.0.4, SVG Export Plug-In . SVG Version: 6.00 Build 0)  -->
<!DOCTYPE svg PUBLIC "-//W3C//DTD SVG 1.1//EN" "http://www.w3.org/Graphics/SVG/1.1/DTD/svg11.dtd">
<svg version="1.1" id="Layer_1" xmlns="http://www.w3.org/2000/svg" xmlns:xlink="http://www.w3.org/1999/xlink" x="0px" y="0px"
	 width="267.667px" height="397.606px" viewBox="0 0 267.667 397.606" enable-background="new 0 0 267.667 397.606"
	 xml:space="preserve">
<rect x="4" y="1.933" fill="none" width="105" height="6.75"/>
<g enable-background="new    ">
	<path d="M9.784,8.968H8.54L7.783,5.917L7.607,5.025H7.599l-0.16,0.892L6.741,8.968H5.497c-0.563-1.892-0.958-3.59-1.362-5.675
		h1.219C5.589,4.68,5.892,5.933,6.22,7.539h0.008l0.134-0.756L7.17,3.293h1.102l0.841,3.472l0.151,0.773h0.008
		c0.303-1.479,0.572-2.824,0.799-4.245h1.06C10.735,5.344,10.314,7.135,9.784,8.968z"/>
	<path d="M11.88,8.968V3.293h1.135v5.675H11.88z"/>
	<path d="M17.292,8.968l-2.093-4.044v4.044h-0.942V3.293h1.396l1.884,3.514V3.293h0.941v5.675H17.292z"/>
	<path d="M21.037,9.052c-0.647,0-1.228-0.235-1.69-0.563l0.286-0.588c0.454,0.21,0.899,0.319,1.202,0.319
		c0.589,0,0.958-0.27,0.958-0.731c0-1.11-2.371-0.892-2.371-2.674c0-0.976,0.756-1.605,1.816-1.605c0.53,0,1.042,0.143,1.521,0.462
		L22.491,4.26c-0.361-0.144-0.731-0.228-1.067-0.228c-0.538,0-0.799,0.27-0.799,0.647c0,1.11,2.43,0.925,2.43,2.674
		C23.055,8.312,22.332,9.052,21.037,9.052z"/>
	<path d="M27.429,8.985c-0.462,0-1-0.017-1.53-0.017V3.293h1.867c1.202,0,1.724,0.546,1.724,1.337c0,0.622-0.303,1.009-0.749,1.219
		c0.597,0.109,1.042,0.622,1.042,1.312C29.783,8.162,29.086,8.985,27.429,8.985z M27.555,4.083h-0.546v1.521h0.429
		c0.673,0,0.908-0.395,0.908-0.807S28.111,4.083,27.555,4.083z M27.531,6.378h-0.521v1.766c0.126,0.018,0.387,0.034,0.58,0.034
		c0.715,0,1-0.379,1-0.934C28.59,6.765,28.312,6.378,27.531,6.378z"/>
	<path d="M32.52,6.597v2.371h-1.135V6.597c-0.589-0.983-1.068-2.001-1.53-3.304h1.244c0.286,0.832,0.58,1.547,0.942,2.262
		c0.361-0.682,0.647-1.497,0.883-2.262h1.126C33.596,4.563,33.109,5.681,32.52,6.597z"/>
	<path d="M37.963,9.052c-0.647,0-1.228-0.235-1.69-0.563l0.286-0.588c0.454,0.21,0.899,0.319,1.202,0.319
		c0.589,0,0.958-0.27,0.958-0.731c0-1.11-2.371-0.892-2.371-2.674c0-0.976,0.756-1.605,1.816-1.605c0.53,0,1.042,0.143,1.521,0.462
		L39.417,4.26c-0.361-0.144-0.731-0.228-1.067-0.228c-0.538,0-0.799,0.27-0.799,0.647c0,1.11,2.43,0.925,2.43,2.674
		C39.98,8.312,39.257,9.052,37.963,9.052z"/>
	<path d="M40.808,8.968V3.293h2.943v0.865h-1.808v1.497h1.497v0.832h-1.497v1.606h1.841v0.874H40.808z"/>
	<path d="M47.666,8.968c-0.067-0.319-0.16-0.79-0.244-1.118h-1.875c-0.076,0.319-0.168,0.731-0.236,1.118h-1.084
		c0.42-1.892,0.976-3.851,1.572-5.675h1.488c0.656,1.941,1.152,3.767,1.606,5.675H47.666z M46.455,4.293
		C46.219,5.101,45.934,6.143,45.723,7h1.513C47.001,6.126,46.732,5.168,46.455,4.293z"/>
	<path d="M50.906,9.052c-0.647,0-1.228-0.235-1.69-0.563l0.286-0.588c0.454,0.21,0.899,0.319,1.202,0.319
		c0.589,0,0.958-0.27,0.958-0.731c0-1.11-2.371-0.892-2.371-2.674c0-0.976,0.756-1.605,1.816-1.605c0.53,0,1.042,0.143,1.521,0.462
		L52.361,4.26c-0.361-0.144-0.731-0.228-1.067-0.228c-0.538,0-0.799,0.27-0.799,0.647c0,1.11,2.43,0.925,2.43,2.674
		C52.924,8.312,52.201,9.052,50.906,9.052z"/>
	<path d="M55.737,9.061c-1.446,0-2.278-0.731-2.278-2.834c0-2.11,0.975-3.026,2.413-3.026c1.48,0,2.287,0.782,2.287,2.816
		C58.158,8.144,57.183,9.061,55.737,9.061z M55.779,4.067c-0.664,0-1.126,0.454-1.126,1.967c0,1.656,0.42,2.161,1.177,2.161
		c0.664,0,1.135-0.463,1.135-1.992C56.965,4.571,56.536,4.067,55.779,4.067z"/>
	<path d="M62.13,8.968l-2.093-4.044v4.044h-0.942V3.293h1.396l1.884,3.514V3.293h0.941v5.675H62.13z"/>
</g>
<rect x="10.256" y="163.316" fill="none" width="8.75" height="17.25"/>
<g enable-background="new    ">
	<path d="M11.04,179.953h-0.547v-1.278H6.03l0.454,1.144l-0.412,0.168l-0.706-1.471v-0.555h5.128v-1.144h0.547V179.953z"/>
	<path d="M11.108,174.618c0,0.37-0.067,0.757-0.277,1.329l-0.412-0.067c0.109-0.454,0.168-0.832,0.168-1.202
		c0-0.791-0.655-1.32-2.304-1.337c0.261,0.454,0.403,0.807,0.403,1.261c0,0.883-0.562,1.371-1.521,1.371
		c-1.151,0-1.866-0.647-1.866-1.64c0-1.084,0.546-1.673,2.716-1.673C10.519,172.659,11.108,173.575,11.108,174.618z M7.77,173.348
		c-1.37,0-1.959,0.328-1.959,1.026c0,0.622,0.462,0.925,1.236,0.925c0.731,0,1.109-0.277,1.109-0.941
		c0-0.286-0.101-0.58-0.354-1.009H7.77z"/>
	<path d="M11.108,170.418c0,0.37-0.067,0.756-0.277,1.328l-0.412-0.067c0.109-0.454,0.168-0.832,0.168-1.202
		c0-0.791-0.655-1.32-2.304-1.337c0.261,0.454,0.403,0.807,0.403,1.261c0,0.883-0.562,1.371-1.521,1.371
		c-1.151,0-1.866-0.647-1.866-1.64c0-1.084,0.546-1.673,2.716-1.673C10.519,168.459,11.108,169.375,11.108,170.418z M7.77,169.148
		c-1.37,0-1.959,0.328-1.959,1.026c0,0.622,0.462,0.925,1.236,0.925c0.731,0,1.109-0.277,1.109-0.941
		c0-0.286-0.101-0.58-0.354-1.009H7.77z"/>
	<path d="M11.108,166.134c0,0.404-0.093,0.917-0.312,1.539l-0.403-0.059c0.109-0.563,0.185-1.051,0.185-1.438
		c0-0.79-0.319-1.16-1.193-1.16c-0.766,0-1.244,0.353-1.244,1.236c0,0.378,0.042,0.731,0.126,1.161l-2.9-0.177v-2.556h0.588v2.01
		l1.698,0.109c-0.042-0.177-0.059-0.496-0.059-0.782c0-1.144,0.664-1.732,1.707-1.732C10.519,164.284,11.108,164.881,11.108,166.134
		z"/>
</g>
<circle fill="#243E8F" cx="8.459" cy="148.191" r="4"/>
<circle fill="#243E8F" cx="8.459" cy="134.305" r="4"/>
<circle fill="#243E8F" cx="8.459" cy="203.984" r="4"/>
<circle fill="#243E8F" cx="8.459" cy="189.686" r="4"/>
<circle fill="#243E8F" cx="8.459" cy="218.282" r="4"/>
<rect x="22.7" y="163.316" fill="none" width="8.75" height="17.25"/>
<g enable-background="new    ">
	<path d="M23.485,179.953h-0.547v-1.278h-4.464l0.454,1.144l-0.412,0.168l-0.706-1.471v-0.555h5.128v-1.144h0.547V179.953z"/>
	<path d="M23.552,174.618c0,0.37-0.067,0.757-0.277,1.329l-0.412-0.067c0.109-0.454,0.168-0.832,0.168-1.202
		c0-0.791-0.655-1.32-2.304-1.337c0.261,0.454,0.403,0.807,0.403,1.261c0,0.883-0.562,1.371-1.521,1.371
		c-1.151,0-1.866-0.647-1.866-1.64c0-1.084,0.546-1.673,2.716-1.673C22.963,172.659,23.552,173.575,23.552,174.618z M20.214,173.348
		c-1.37,0-1.959,0.328-1.959,1.026c0,0.622,0.462,0.925,1.236,0.925c0.731,0,1.109-0.277,1.109-0.941
		c0-0.286-0.101-0.58-0.354-1.009H20.214z"/>
	<path d="M23.552,170.418c0,0.37-0.067,0.756-0.277,1.328l-0.412-0.067c0.109-0.454,0.168-0.832,0.168-1.202
		c0-0.791-0.655-1.32-2.304-1.337c0.261,0.454,0.403,0.807,0.403,1.261c0,0.883-0.562,1.371-1.521,1.371
		c-1.151,0-1.866-0.647-1.866-1.64c0-1.084,0.546-1.673,2.716-1.673C22.963,168.459,23.552,169.375,23.552,170.418z M20.214,169.148
		c-1.37,0-1.959,0.328-1.959,1.026c0,0.622,0.462,0.925,1.236,0.925c0.731,0,1.109-0.277,1.109-0.941
		c0-0.286-0.101-0.58-0.354-1.009H20.214z"/>
	<path d="M23.552,165.798c0,1.084-0.538,1.665-2.707,1.665c-2.472,0-3.103-0.875-3.103-1.909c0-0.378,0.075-0.756,0.269-1.261
		l0.412,0.076c-0.093,0.362-0.159,0.749-0.159,1.118c0,0.799,0.714,1.287,2.312,1.303c-0.261-0.454-0.403-0.815-0.403-1.261
		c0-0.883,0.563-1.379,1.521-1.379C22.846,164.15,23.552,164.806,23.552,165.798z M20.701,165.764c0,0.294,0.102,0.58,0.354,1.017
		h0.033c1.379,0,1.951-0.328,1.951-1.026c0-0.622-0.446-0.925-1.228-0.925C21.08,164.831,20.701,165.108,20.701,165.764z"/>
</g>
<circle fill="#243E8F" cx="19.649" cy="148.191" r="4"/>
<circle fill="#243E8F" cx="19.335" cy="189.686" r="4"/>
<rect x="35.144" y="163.316" fill="none" width="8.75" height="17.25"/>
<g enable-background="new    ">
	<path d="M35.928,179.953h-0.547v-1.278h-4.464l0.454,1.144l-0.412,0.168l-0.706-1.471v-0.555h5.128v-1.144h0.547V179.953z"/>
	<path d="M35.996,174.618c0,0.37-0.067,0.757-0.277,1.329l-0.412-0.067c0.109-0.454,0.168-0.832,0.168-1.202
		c0-0.791-0.655-1.32-2.304-1.337c0.261,0.454,0.403,0.807,0.403,1.261c0,0.883-0.562,1.371-1.521,1.371
		c-1.151,0-1.866-0.647-1.866-1.64c0-1.084,0.546-1.673,2.716-1.673C35.407,172.659,35.996,173.575,35.996,174.618z M32.658,173.348
		c-1.37,0-1.959,0.328-1.959,1.026c0,0.622,0.462,0.925,1.236,0.925c0.731,0,1.109-0.277,1.109-0.941
		c0-0.286-0.101-0.58-0.354-1.009H32.658z"/>
	<path d="M35.996,170.418c0,0.37-0.067,0.756-0.277,1.328l-0.412-0.067c0.109-0.454,0.168-0.832,0.168-1.202
		c0-0.791-0.655-1.32-2.304-1.337c0.261,0.454,0.403,0.807,0.403,1.261c0,0.883-0.562,1.371-1.521,1.371
		c-1.151,0-1.866-0.647-1.866-1.64c0-1.084,0.546-1.673,2.716-1.673C35.407,168.459,35.996,169.375,35.996,170.418z M32.658,169.148
		c-1.37,0-1.959,0.328-1.959,1.026c0,0.622,0.462,0.925,1.236,0.925c0.731,0,1.109-0.277,1.109-0.941
		c0-0.286-0.101-0.58-0.354-1.009H32.658z"/>
	<path d="M33.331,165.293c0.874,0.404,1.934,0.976,2.665,1.404l-0.168,0.454l-4.986-2.262v2.707h-0.588v-3.514h0.513L33.331,165.293
		z"/>
</g>
<circle fill="#243E8F" cx="32.211" cy="148.191" r="4"/>
<circle fill="#243E8F" cx="32.211" cy="134.305" r="4"/>
<circle fill="#243E8F" cx="32.211" cy="120.146" r="4"/>
<circle fill="#243E8F" cx="32.211" cy="105.897" r="4"/>
<circle fill="#243E8F" cx="32.211" cy="91.767" r="4"/>
<circle fill="#243E8F" cx="32.211" cy="77.95" r="4"/>
<circle fill="#243E8F" cx="32.211" cy="261.029" r="4"/>
<circle fill="#243E8F" cx="32.211" cy="246.133" r="4"/>
<circle fill="#243E8F" cx="32.211" cy="231.838" r="4"/>
<circle fill="#243E8F" cx="32.211" cy="218.282" r="4"/>
<circle fill="#243E8F" cx="32.211" cy="203.984" r="4"/>
<circle fill="#243E8F" cx="32.211" cy="189.686" r="4"/>
<circle fill="#243E8F" cx="32.211" cy="346.844" r="4"/>
<circle fill="#243E8F" cx="32.211" cy="332.547" r="4"/>
<circle fill="#243E8F" cx="32.211" cy="318.25" r="4"/>
<circle fill="#243E8F" cx="32.211" cy="303.952" r="4"/>
<circle fill="#243E8F" cx="32.211" cy="289.657" r="4"/>
<circle fill="#243E8F" cx="32.211" cy="275.358" r="4"/>
<rect x="47.589" y="163.316" fill="none" width="8.75" height="17.25"/>
<g enable-background="new    ">
	<path d="M48.373,179.953h-0.547v-1.278h-4.464l0.454,1.144l-0.412,0.168l-0.706-1.471v-0.555h5.128v-1.144h0.547V179.953z"/>
	<path d="M48.44,174.618c0,0.37-0.067,0.757-0.277,1.329l-0.412-0.067c0.109-0.454,0.168-0.832,0.168-1.202
		c0-0.791-0.655-1.32-2.304-1.337c0.261,0.454,0.403,0.807,0.403,1.261c0,0.883-0.562,1.371-1.521,1.371
		c-1.151,0-1.866-0.647-1.866-1.64c0-1.084,0.546-1.673,2.716-1.673C47.851,172.659,48.44,173.575,48.44,174.618z M45.102,173.348
		c-1.37,0-1.959,0.328-1.959,1.026c0,0.622,0.462,0.925,1.236,0.925c0.731,0,1.109-0.277,1.109-0.941
		c0-0.286-0.101-0.58-0.354-1.009H45.102z"/>
	<path d="M48.44,170.418c0,0.37-0.067,0.756-0.277,1.328l-0.412-0.067c0.109-0.454,0.168-0.832,0.168-1.202
		c0-0.791-0.655-1.32-2.304-1.337c0.261,0.454,0.403,0.807,0.403,1.261c0,0.883-0.562,1.371-1.521,1.371
		c-1.151,0-1.866-0.647-1.866-1.64c0-1.084,0.546-1.673,2.716-1.673C47.851,168.459,48.44,169.375,48.44,170.418z M45.102,169.148
		c-1.37,0-1.959,0.328-1.959,1.026c0,0.622,0.462,0.925,1.236,0.925c0.731,0,1.109-0.277,1.109-0.941
		c0-0.286-0.101-0.58-0.354-1.009H45.102z"/>
	<path d="M48.44,165.932c0,1.16-0.563,1.665-1.379,1.665c-0.723,0-1.177-0.471-1.563-1.126c-0.37,0.656-0.833,1.009-1.463,1.009
		c-0.816,0-1.404-0.588-1.404-1.665c0-1.168,0.58-1.555,1.312-1.555c0.631,0,1.034,0.37,1.446,1.109
		c0.437-0.824,0.841-1.236,1.58-1.236C47.793,164.133,48.44,164.688,48.44,165.932z M43.118,165.907c0,0.555,0.337,0.9,0.832,0.9
		c0.505,0,0.841-0.277,1.186-0.925c-0.369-0.665-0.664-0.958-1.093-0.958C43.437,164.923,43.118,165.209,43.118,165.907z
		 M45.758,165.982c0.388,0.647,0.732,0.942,1.211,0.942c0.614,0,0.976-0.37,0.976-1.102c0-0.605-0.361-1.017-0.883-1.017
		C46.481,164.806,46.145,165.217,45.758,165.982z"/>
</g>
<circle fill="#243E8F" cx="45.087" cy="148.191" r="4"/>
<circle fill="#243E8F" cx="45.087" cy="134.305" r="4"/>
<circle fill="#243E8F" cx="45.087" cy="120.146" r="4"/>
<circle fill="#243E8F" cx="45.087" cy="105.897" r="4"/>
<circle fill="#243E8F" cx="45.087" cy="91.767" r="4"/>
<circle fill="#243E8F" cx="45.087" cy="77.951" r="4"/>
<circle fill="#243E8F" cx="45.087" cy="63.313" r="4"/>
<circle fill="#243E8F" cx="45.087" cy="261.029" r="4"/>
<circle fill="#243E8F" cx="45.087" cy="246.133" r="4"/>
<circle fill="#243E8F" cx="45.087" cy="231.838" r="4"/>
<circle fill="#243E8F" cx="45.087" cy="218.282" r="4"/>
<circle fill="#243E8F" cx="45.087" cy="203.984" r="4"/>
<circle fill="#243E8F" cx="45.087" cy="189.686" r="4"/>
<circle fill="#243E8F" cx="45.087" cy="346.844" r="4"/>
<circle fill="#243E8F" cx="45.087" cy="332.547" r="4"/>
<circle fill="#243E8F" cx="45.087" cy="318.25" r="4"/>
<circle fill="#243E8F" cx="45.087" cy="303.952" r="4"/>
<circle fill="#243E8F" cx="45.087" cy="289.657" r="4"/>
<circle fill="#243E8F" cx="45.087" cy="275.358" r="4"/>
<circle fill="#243E8F" cx="45.087" cy="375.439" r="4"/>
<circle fill="#243E8F" cx="45.087" cy="361.143" r="4"/>
<rect x="60.033" y="163.316" fill="none" width="8.75" height="17.25"/>
<g enable-background="new    ">
	<path d="M60.817,179.953H60.27v-1.278h-4.464l0.454,1.144l-0.412,0.168l-0.706-1.471v-0.555h5.128v-1.144h0.547V179.953z"/>
	<path d="M60.885,174.618c0,0.37-0.067,0.757-0.277,1.329l-0.412-0.067c0.109-0.454,0.168-0.832,0.168-1.202
		c0-0.791-0.655-1.32-2.304-1.337c0.261,0.454,0.403,0.807,0.403,1.261c0,0.883-0.562,1.371-1.521,1.371
		c-1.151,0-1.866-0.647-1.866-1.64c0-1.084,0.546-1.673,2.716-1.673C60.296,172.659,60.885,173.575,60.885,174.618z M57.547,173.348
		c-1.37,0-1.959,0.328-1.959,1.026c0,0.622,0.462,0.925,1.236,0.925c0.731,0,1.109-0.277,1.109-0.941
		c0-0.286-0.101-0.58-0.354-1.009H57.547z"/>
	<path d="M60.885,170.418c0,0.37-0.067,0.756-0.277,1.328l-0.412-0.067c0.109-0.454,0.168-0.832,0.168-1.202
		c0-0.791-0.655-1.32-2.304-1.337c0.261,0.454,0.403,0.807,0.403,1.261c0,0.883-0.562,1.371-1.521,1.371
		c-1.151,0-1.866-0.647-1.866-1.64c0-1.084,0.546-1.673,2.716-1.673C60.296,168.459,60.885,169.375,60.885,170.418z M57.547,169.148
		c-1.37,0-1.959,0.328-1.959,1.026c0,0.622,0.462,0.925,1.236,0.925c0.731,0,1.109-0.277,1.109-0.941
		c0-0.286-0.101-0.58-0.354-1.009H57.547z"/>
	<path d="M60.885,166.218c0,0.37-0.067,0.756-0.277,1.328l-0.412-0.067c0.109-0.454,0.168-0.832,0.168-1.202
		c0-0.791-0.655-1.32-2.304-1.337c0.261,0.454,0.403,0.807,0.403,1.261c0,0.883-0.562,1.371-1.521,1.371
		c-1.151,0-1.866-0.647-1.866-1.64c0-1.084,0.546-1.673,2.716-1.673C60.296,164.259,60.885,165.175,60.885,166.218z M57.547,164.948
		c-1.37,0-1.959,0.328-1.959,1.026c0,0.622,0.462,0.925,1.236,0.925c0.731,0,1.109-0.277,1.109-0.941
		c0-0.286-0.101-0.58-0.354-1.009H57.547z"/>
</g>
<circle fill="#243E8F" cx="58.415" cy="91.767" r="4"/>
<circle fill="#243E8F" cx="58.415" cy="77.951" r="4"/>
<circle fill="#243E8F" cx="58.415" cy="63.313" r="4"/>
<circle fill="#243E8F" cx="58.415" cy="50.576" r="4"/>
<circle fill="#243E8F" cx="58.415" cy="36.18" r="4"/>
<circle fill="#243E8F" cx="58.415" cy="21.46" r="4"/>
<circle fill="#243E8F" cx="58.415" cy="148.191" r="4"/>
<circle fill="#243E8F" cx="58.415" cy="134.305" r="4"/>
<circle fill="#243E8F" cx="58.415" cy="120.146" r="4"/>
<circle fill="#243E8F" cx="58.415" cy="105.897" r="4"/>
<circle fill="#243E8F" cx="58.415" cy="261.029" r="4"/>
<circle fill="#243E8F" cx="58.415" cy="246.133" r="4"/>
<circle fill="#243E8F" cx="58.415" cy="231.838" r="4"/>
<circle fill="#243E8F" cx="58.415" cy="218.282" r="4"/>
<circle fill="#243E8F" cx="58.415" cy="203.984" r="4"/>
<circle fill="#243E8F" cx="58.415" cy="189.686" r="4"/>
<circle fill="#243E8F" cx="58.415" cy="346.844" r="4"/>
<circle fill="#243E8F" cx="58.415" cy="332.547" r="4"/>
<circle fill="#243E8F" cx="58.415" cy="318.25" r="4"/>
<circle fill="#243E8F" cx="58.415" cy="303.952" r="4"/>
<circle fill="#243E8F" cx="58.415" cy="289.657" r="4"/>
<circle fill="#243E8F" cx="58.415" cy="275.358" r="4"/>
<circle fill="#243E8F" cx="58.415" cy="375.439" r="4"/>
<circle fill="#243E8F" cx="58.415" cy="361.143" r="4"/>
<rect x="72.477" y="163.316" fill="none" width="8.75" height="17.25"/>
<g enable-background="new    ">
	<path d="M73.261,180.164h-0.547c-1.917-1.858-2.808-2.363-3.564-2.363c-0.832,0-1.06,0.462-1.06,0.992
		c0,0.361,0.102,0.706,0.261,1.16l-0.462,0.118c-0.228-0.53-0.37-0.917-0.37-1.564c0-0.756,0.378-1.488,1.53-1.488
		c0.958,0,1.866,0.563,3.615,2.346v-2.497h0.597V180.164z"/>
	<path d="M73.329,174.315c0,1.084-0.597,1.648-2.842,1.648c-2.262,0-2.968-0.581-2.968-1.741c0-1.068,0.58-1.639,2.816-1.639
		C72.639,172.583,73.329,173.188,73.329,174.315z M68.032,174.273c0,0.698,0.555,1,2.337,1c1.917,0,2.438-0.294,2.438-1
		c0-0.698-0.563-1.009-2.354-1.009C68.553,173.264,68.032,173.567,68.032,174.273z"/>
	<path d="M73.329,170.116c0,1.084-0.597,1.647-2.842,1.647c-2.262,0-2.968-0.58-2.968-1.74c0-1.068,0.58-1.639,2.816-1.639
		C72.639,168.384,73.329,168.989,73.329,170.116z M68.032,170.074c0,0.698,0.555,1,2.337,1c1.917,0,2.438-0.294,2.438-1
		c0-0.698-0.563-1.009-2.354-1.009C68.553,169.064,68.032,169.367,68.032,170.074z"/>
	<path d="M73.329,165.916c0,1.084-0.597,1.647-2.842,1.647c-2.262,0-2.968-0.58-2.968-1.74c0-1.068,0.58-1.639,2.816-1.639
		C72.639,164.184,73.329,164.789,73.329,165.916z M68.032,165.874c0,0.698,0.555,1,2.337,1c1.917,0,2.438-0.294,2.438-1
		c0-0.698-0.563-1.009-2.354-1.009C68.553,164.864,68.032,165.167,68.032,165.874z"/>
</g>
<circle fill="#243E8F" cx="70.744" cy="148.191" r="4"/>
<circle fill="#243E8F" cx="70.744" cy="134.305" r="4"/>
<circle fill="#243E8F" cx="70.744" cy="246.133" r="4"/>
<circle fill="#243E8F" cx="70.744" cy="231.838" r="4"/>
<circle fill="#243E8F" cx="70.744" cy="218.282" r="4"/>
<circle fill="#243E8F" cx="70.744" cy="203.984" r="4"/>
<circle fill="#243E8F" cx="70.744" cy="189.686" r="4"/>
<rect x="84.921" y="163.316" fill="none" width="8.75" height="17.25"/>
<g enable-background="new    ">
	<path d="M85.706,180.164h-0.547c-1.917-1.858-2.808-2.363-3.564-2.363c-0.832,0-1.06,0.462-1.06,0.992
		c0,0.361,0.102,0.706,0.261,1.16l-0.462,0.118c-0.228-0.53-0.37-0.917-0.37-1.564c0-0.756,0.378-1.488,1.53-1.488
		c0.958,0,1.866,0.563,3.615,2.346v-2.497h0.597V180.164z"/>
	<path d="M85.773,174.315c0,1.084-0.597,1.648-2.842,1.648c-2.262,0-2.968-0.581-2.968-1.741c0-1.068,0.58-1.639,2.816-1.639
		C85.084,172.583,85.773,173.188,85.773,174.315z M80.476,174.273c0,0.698,0.555,1,2.337,1c1.917,0,2.438-0.294,2.438-1
		c0-0.698-0.563-1.009-2.354-1.009C80.998,173.264,80.476,173.567,80.476,174.273z"/>
	<path d="M85.773,170.116c0,1.084-0.597,1.647-2.842,1.647c-2.262,0-2.968-0.58-2.968-1.74c0-1.068,0.58-1.639,2.816-1.639
		C85.084,168.384,85.773,168.989,85.773,170.116z M80.476,170.074c0,0.698,0.555,1,2.337,1c1.917,0,2.438-0.294,2.438-1
		c0-0.698-0.563-1.009-2.354-1.009C80.998,169.064,80.476,169.367,80.476,170.074z"/>
	<path d="M85.706,167.353h-0.547v-1.278h-4.464l0.454,1.144l-0.412,0.168l-0.706-1.471v-0.555h5.128v-1.144h0.547V167.353z"/>
</g>
<circle fill="#243E8F" cx="83.075" cy="148.191" r="4"/>
<circle fill="#243E8F" cx="83.075" cy="246.133" r="4"/>
<circle fill="#243E8F" cx="83.075" cy="231.838" r="4"/>
<circle fill="#243E8F" cx="83.075" cy="218.282" r="4"/>
<circle fill="#243E8F" cx="83.075" cy="203.984" r="4"/>
<circle fill="#243E8F" cx="83.075" cy="189.686" r="4"/>
<rect x="97.365" y="163.316" fill="none" width="8.75" height="17.25"/>
<g enable-background="new    ">
	<path d="M98.15,180.164h-0.547c-1.917-1.858-2.808-2.363-3.564-2.363c-0.832,0-1.06,0.462-1.06,0.992
		c0,0.361,0.102,0.706,0.261,1.16l-0.462,0.118c-0.228-0.53-0.37-0.917-0.37-1.564c0-0.756,0.378-1.488,1.53-1.488
		c0.958,0,1.866,0.563,3.615,2.346v-2.497h0.597V180.164z"/>
	<path d="M98.217,174.315c0,1.084-0.597,1.648-2.842,1.648c-2.262,0-2.968-0.581-2.968-1.741c0-1.068,0.58-1.639,2.816-1.639
		C97.528,172.583,98.217,173.188,98.217,174.315z M92.92,174.273c0,0.698,0.555,1,2.337,1c1.917,0,2.438-0.294,2.438-1
		c0-0.698-0.563-1.009-2.354-1.009C93.442,173.264,92.92,173.567,92.92,174.273z"/>
	<path d="M98.217,170.116c0,1.084-0.597,1.647-2.842,1.647c-2.262,0-2.968-0.58-2.968-1.74c0-1.068,0.58-1.639,2.816-1.639
		C97.528,168.384,98.217,168.989,98.217,170.116z M92.92,170.074c0,0.698,0.555,1,2.337,1c1.917,0,2.438-0.294,2.438-1
		c0-0.698-0.563-1.009-2.354-1.009C93.442,169.064,92.92,169.367,92.92,170.074z"/>
	<path d="M98.15,167.563h-0.547c-1.917-1.858-2.808-2.362-3.564-2.362c-0.832,0-1.06,0.462-1.06,0.992
		c0,0.361,0.102,0.706,0.261,1.16l-0.462,0.118c-0.228-0.53-0.37-0.917-0.37-1.564c0-0.756,0.378-1.488,1.53-1.488
		c0.958,0,1.866,0.563,3.615,2.346v-2.497h0.597V167.563z"/>
</g>
<circle fill="#243E8F" cx="96.405" cy="91.767" r="4"/>
<circle fill="#243E8F" cx="96.405" cy="77.951" r="4"/>
<circle fill="#243E8F" cx="96.405" cy="148.191" r="4"/>
<circle fill="#243E8F" cx="96.405" cy="134.305" r="4"/>
<circle fill="#243E8F" cx="96.405" cy="120.146" r="4"/>
<circle fill="#243E8F" cx="96.405" cy="105.897" r="4"/>
<rect x="109.81" y="163.316" fill="none" width="8.75" height="17.25"/>
<g enable-background="new    ">
	<path d="M110.594,180.164h-0.547c-1.917-1.858-2.808-2.363-3.564-2.363c-0.832,0-1.06,0.462-1.06,0.992
		c0,0.361,0.102,0.706,0.261,1.16l-0.462,0.118c-0.228-0.53-0.37-0.917-0.37-1.564c0-0.756,0.378-1.488,1.53-1.488
		c0.958,0,1.866,0.563,3.615,2.346v-2.497h0.597V180.164z"/>
	<path d="M110.661,174.315c0,1.084-0.597,1.648-2.842,1.648c-2.262,0-2.968-0.581-2.968-1.741c0-1.068,0.58-1.639,2.816-1.639
		C109.972,172.583,110.661,173.188,110.661,174.315z M105.365,174.273c0,0.698,0.555,1,2.337,1c1.917,0,2.438-0.294,2.438-1
		c0-0.698-0.563-1.009-2.354-1.009C105.886,173.264,105.365,173.567,105.365,174.273z"/>
	<path d="M110.661,170.116c0,1.084-0.597,1.647-2.842,1.647c-2.262,0-2.968-0.58-2.968-1.74c0-1.068,0.58-1.639,2.816-1.639
		C109.972,168.384,110.661,168.989,110.661,170.116z M105.365,170.074c0,0.698,0.555,1,2.337,1c1.917,0,2.438-0.294,2.438-1
		c0-0.698-0.563-1.009-2.354-1.009C105.886,169.064,105.365,169.367,105.365,170.074z"/>
	<path d="M110.661,166.109c0,0.412-0.101,0.925-0.328,1.563l-0.412-0.067c0.126-0.581,0.193-1.034,0.193-1.396
		c0-0.866-0.378-1.152-1.144-1.152c-0.697,0-1.126,0.303-1.126,1.169v0.647h-0.521v-0.623c0-0.698-0.345-1.034-1.034-1.034
		c-0.555,0-0.892,0.236-0.892,0.976c0,0.336,0.085,0.866,0.202,1.186l-0.454,0.101c-0.143-0.345-0.294-0.883-0.294-1.53
		c0-1.017,0.605-1.471,1.354-1.471c0.757,0,1.193,0.378,1.32,0.875c0.042-0.698,0.706-1.06,1.37-1.06
		C110.107,164.292,110.661,164.898,110.661,166.109z"/>
</g>
<circle fill="#243E8F" cx="108.734" cy="91.767" r="4"/>
<circle fill="#243E8F" cx="108.734" cy="77.951" r="4"/>
<circle fill="#243E8F" cx="108.734" cy="63.313" r="4"/>
<circle fill="#243E8F" cx="108.734" cy="50.576" r="4"/>
<circle fill="#243E8F" cx="108.734" cy="36.18" r="4"/>
<circle fill="#243E8F" cx="108.734" cy="148.191" r="4"/>
<circle fill="#243E8F" cx="108.734" cy="134.305" r="4"/>
<circle fill="#243E8F" cx="108.734" cy="120.146" r="4"/>
<circle fill="#243E8F" cx="108.734" cy="105.897" r="4"/>
<circle fill="#243E8F" cx="108.734" cy="218.282" r="4"/>
<circle fill="#243E8F" cx="108.734" cy="203.984" r="4"/>
<circle fill="#243E8F" cx="108.734" cy="189.686" r="4"/>
<rect x="122.254" y="163.316" fill="none" width="8.75" height="17.25"/>
<g enable-background="new    ">
	<path d="M123.038,180.164h-0.547c-1.917-1.858-2.808-2.363-3.564-2.363c-0.832,0-1.06,0.462-1.06,0.992
		c0,0.361,0.102,0.706,0.261,1.16l-0.462,0.118c-0.228-0.53-0.37-0.917-0.37-1.564c0-0.756,0.378-1.488,1.53-1.488
		c0.958,0,1.866,0.563,3.615,2.346v-2.497h0.597V180.164z"/>
	<path d="M123.106,174.315c0,1.084-0.597,1.648-2.842,1.648c-2.262,0-2.968-0.581-2.968-1.741c0-1.068,0.58-1.639,2.816-1.639
		C122.416,172.583,123.106,173.188,123.106,174.315z M117.809,174.273c0,0.698,0.555,1,2.337,1c1.917,0,2.438-0.294,2.438-1
		c0-0.698-0.563-1.009-2.354-1.009C118.33,173.264,117.809,173.567,117.809,174.273z"/>
	<path d="M123.106,170.116c0,1.084-0.597,1.647-2.842,1.647c-2.262,0-2.968-0.58-2.968-1.74c0-1.068,0.58-1.639,2.816-1.639
		C122.416,168.384,123.106,168.989,123.106,170.116z M117.809,170.074c0,0.698,0.555,1,2.337,1c1.917,0,2.438-0.294,2.438-1
		c0-0.698-0.563-1.009-2.354-1.009C118.33,169.064,117.809,169.367,117.809,170.074z"/>
	<path d="M121.718,164.713h1.32v0.673h-1.32v2.354h-0.521c-1.312-0.639-2.725-1.404-3.834-2.085v-0.942h3.758v-0.681h0.597V164.713z
		 M117.935,165.386c0.866,0.513,2.035,1.194,3.187,1.749v-1.749H117.935z"/>
</g>
<circle fill="#243E8F" cx="121.064" cy="91.767" r="4"/>
<circle fill="#243E8F" cx="121.064" cy="148.191" r="4"/>
<circle fill="#243E8F" cx="121.064" cy="134.305" r="4"/>
<circle fill="#243E8F" cx="121.064" cy="120.146" r="4"/>
<circle fill="#243E8F" cx="121.064" cy="105.897" r="4"/>
<circle fill="#243E8F" cx="121.064" cy="231.838" r="4"/>
<circle fill="#243E8F" cx="121.064" cy="218.282" r="4"/>
<circle fill="#243E8F" cx="121.064" cy="203.984" r="4"/>
<circle fill="#243E8F" cx="121.064" cy="189.686" r="4"/>
<rect x="134.698" y="158.605" fill="none" width="8.75" height="21.961"/>
<g enable-background="new    ">
	<path d="M135.482,180.164h-0.547c-1.916-1.858-2.807-2.363-3.564-2.363c-0.832,0-1.059,0.462-1.059,0.992
		c0,0.361,0.102,0.706,0.26,1.16l-0.461,0.118c-0.228-0.53-0.37-0.917-0.37-1.564c0-0.756,0.378-1.488,1.531-1.488
		c0.957,0,1.865,0.563,3.615,2.346v-2.497h0.596V180.164z"/>
	<path d="M135.55,174.315c0,1.084-0.598,1.648-2.842,1.648c-2.262,0-2.968-0.581-2.968-1.741c0-1.068,0.58-1.639,2.816-1.639
		C134.861,172.583,135.55,173.188,135.55,174.315z M130.253,174.273c0,0.698,0.555,1,2.336,1c1.918,0,2.439-0.294,2.439-1
		c0-0.698-0.564-1.009-2.355-1.009C130.775,173.264,130.253,173.567,130.253,174.273z"/>
	<path d="M135.55,170.116c0,1.084-0.598,1.647-2.842,1.647c-2.262,0-2.968-0.58-2.968-1.74c0-1.068,0.58-1.639,2.816-1.639
		C134.861,168.384,135.55,168.989,135.55,170.116z M130.253,170.074c0,0.698,0.555,1,2.336,1c1.918,0,2.439-0.294,2.439-1
		c0-0.698-0.564-1.009-2.355-1.009C130.775,169.064,130.253,169.367,130.253,170.074z"/>
	<path d="M135.55,166.134c0,0.404-0.094,0.917-0.312,1.539l-0.402-0.059c0.109-0.563,0.184-1.051,0.184-1.438
		c0-0.79-0.318-1.16-1.193-1.16c-0.766,0-1.244,0.353-1.244,1.236c0,0.378,0.043,0.731,0.127,1.161l-2.901-0.177v-2.556h0.588v2.01
		l1.697,0.109c-0.041-0.177-0.059-0.496-0.059-0.782c0-1.144,0.664-1.732,1.707-1.732C134.96,164.284,135.55,164.881,135.55,166.134
		z"/>
	<path d="M132.136,160.396l-0.707,1.026l1.236-0.084v0.647l-1.236-0.084l0.707,1.026l-0.529,0.294l-0.539-1.11l-0.547,1.11
		l-0.529-0.294l0.707-1.026l-1.236,0.084v-0.647l1.236,0.076l-0.707-1.018l0.529-0.303l0.539,1.11l0.547-1.11L132.136,160.396z"/>
</g>
<circle fill="#243E8F" cx="133.394" cy="148.19" r="4"/>
<circle fill="#243E8F" cx="133.394" cy="231.838" r="4"/>
<circle fill="#243E8F" cx="133.394" cy="218.282" r="4"/>
<circle fill="#243E8F" cx="133.394" cy="203.984" r="4"/>
<circle fill="#243E8F" cx="133.394" cy="189.686" r="4"/>
<circle fill="#9A9BC7" cx="133.394" cy="289.657" r="4"/>
<circle fill="#9A9BC7" cx="133.394" cy="275.358" r="4"/>
<circle fill="#9A9BC7" cx="133.394" cy="261.029" r="4"/>
<circle fill="#9A9BC7" cx="133.394" cy="246.133" r="4"/>
<circle fill="#9A9BC7" cx="133.394" cy="134.305" r="4"/>
<rect x="147.143" y="158.605" fill="none" width="8.75" height="21.961"/>
<g enable-background="new    ">
	<path d="M147.927,180.164h-0.547c-1.917-1.858-2.808-2.363-3.564-2.363c-0.832,0-1.06,0.462-1.06,0.992
		c0,0.361,0.102,0.706,0.261,1.16l-0.462,0.118c-0.228-0.53-0.37-0.917-0.37-1.564c0-0.756,0.378-1.488,1.53-1.488
		c0.958,0,1.866,0.563,3.615,2.346v-2.497h0.597V180.164z"/>
	<path d="M147.994,174.315c0,1.084-0.597,1.648-2.842,1.648c-2.262,0-2.968-0.581-2.968-1.741c0-1.068,0.58-1.639,2.816-1.639
		C147.305,172.583,147.994,173.188,147.994,174.315z M142.698,174.273c0,0.698,0.555,1,2.337,1c1.917,0,2.438-0.294,2.438-1
		c0-0.698-0.563-1.009-2.354-1.009C143.219,173.264,142.698,173.567,142.698,174.273z"/>
	<path d="M147.994,170.116c0,1.084-0.597,1.647-2.842,1.647c-2.262,0-2.968-0.58-2.968-1.74c0-1.068,0.58-1.639,2.816-1.639
		C147.305,168.384,147.994,168.989,147.994,170.116z M142.698,170.074c0,0.698,0.555,1,2.337,1c1.917,0,2.438-0.294,2.438-1
		c0-0.698-0.563-1.009-2.354-1.009C143.219,169.064,142.698,169.367,142.698,170.074z"/>
	<path d="M147.994,165.798c0,1.084-0.538,1.665-2.707,1.665c-2.472,0-3.103-0.875-3.103-1.909c0-0.378,0.075-0.756,0.269-1.261
		l0.412,0.076c-0.093,0.362-0.159,0.749-0.159,1.118c0,0.799,0.714,1.287,2.312,1.303c-0.261-0.454-0.403-0.815-0.403-1.261
		c0-0.883,0.563-1.379,1.521-1.379C147.288,164.15,147.994,164.806,147.994,165.798z M145.144,165.764
		c0,0.294,0.102,0.58,0.354,1.017h0.033c1.379,0,1.951-0.328,1.951-1.026c0-0.622-0.446-0.925-1.228-0.925
		C145.523,164.831,145.144,165.108,145.144,165.764z"/>
</g>
<circle fill="#243E8F" cx="145.725" cy="148.191" r="4"/>
<circle fill="#243E8F" cx="145.725" cy="134.306" r="4"/>
<circle fill="#243E8F" cx="145.725" cy="120.147" r="4"/>
<circle fill="#243E8F" cx="146.725" cy="203.984" r="4"/>
<circle fill="#243E8F" cx="146.725" cy="189.686" r="4"/>
<rect x="159.586" y="158.605" fill="none" width="8.75" height="21.961"/>
<g enable-background="new    ">
	<path d="M160.37,180.164h-0.547c-1.916-1.858-2.807-2.363-3.564-2.363c-0.832,0-1.059,0.462-1.059,0.992
		c0,0.361,0.102,0.706,0.26,1.16l-0.461,0.118c-0.229-0.53-0.371-0.917-0.371-1.564c0-0.756,0.379-1.488,1.531-1.488
		c0.957,0,1.865,0.563,3.615,2.346v-2.497h0.596V180.164z"/>
	<path d="M160.439,174.315c0,1.084-0.598,1.648-2.842,1.648c-2.262,0-2.969-0.581-2.969-1.741c0-1.068,0.58-1.639,2.816-1.639
		C159.749,172.583,160.439,173.188,160.439,174.315z M155.142,174.273c0,0.698,0.555,1,2.336,1c1.918,0,2.439-0.294,2.439-1
		c0-0.698-0.564-1.009-2.355-1.009C155.663,173.264,155.142,173.567,155.142,174.273z"/>
	<path d="M160.439,170.116c0,1.084-0.598,1.647-2.842,1.647c-2.262,0-2.969-0.58-2.969-1.74c0-1.068,0.58-1.639,2.816-1.639
		C159.749,168.384,160.439,168.989,160.439,170.116z M155.142,170.074c0,0.698,0.555,1,2.336,1c1.918,0,2.439-0.294,2.439-1
		c0-0.698-0.564-1.009-2.355-1.009C155.663,169.064,155.142,169.367,155.142,170.074z"/>
	<path d="M157.773,165.293c0.875,0.404,1.934,0.976,2.666,1.404l-0.168,0.454l-4.986-2.262v2.707h-0.588v-3.514h0.512
		L157.773,165.293z"/>
</g>
<circle fill="#243E8F" cx="158.679" cy="148.191" r="4"/>
<circle fill="#243E8F" cx="158.679" cy="134.306" r="4"/>
<circle fill="#243E8F" cx="159.679" cy="246.133" r="4"/>
<circle fill="#243E8F" cx="159.679" cy="231.838" r="4"/>
<circle fill="#243E8F" cx="159.679" cy="218.282" r="4"/>
<circle fill="#243E8F" cx="159.679" cy="203.984" r="4"/>
<circle fill="#243E8F" cx="159.679" cy="189.686" r="4"/>
<rect x="172.031" y="151.566" fill="none" width="8.75" height="29"/>
<g enable-background="new    ">
	<path d="M172.816,180.164h-0.547c-1.918-1.858-2.809-2.363-3.564-2.363c-0.832,0-1.061,0.462-1.061,0.992
		c0,0.361,0.102,0.706,0.262,1.16l-0.463,0.118c-0.227-0.53-0.369-0.917-0.369-1.564c0-0.756,0.377-1.488,1.529-1.488
		c0.959,0,1.867,0.563,3.615,2.346v-2.497h0.598V180.164z"/>
	<path d="M172.882,174.315c0,1.084-0.596,1.648-2.842,1.648c-2.262,0-2.967-0.581-2.967-1.741c0-1.068,0.58-1.639,2.816-1.639
		C172.193,172.583,172.882,173.188,172.882,174.315z M167.585,174.273c0,0.698,0.555,1,2.338,1c1.916,0,2.438-0.294,2.438-1
		c0-0.698-0.562-1.009-2.354-1.009C168.107,173.264,167.585,173.567,167.585,174.273z"/>
	<path d="M172.882,170.116c0,1.084-0.596,1.647-2.842,1.647c-2.262,0-2.967-0.58-2.967-1.74c0-1.068,0.58-1.639,2.816-1.639
		C172.193,168.384,172.882,168.989,172.882,170.116z M167.585,170.074c0,0.698,0.555,1,2.338,1c1.916,0,2.438-0.294,2.438-1
		c0-0.698-0.562-1.009-2.354-1.009C168.107,169.064,167.585,169.367,167.585,170.074z"/>
	<path d="M172.882,165.932c0,1.16-0.562,1.665-1.379,1.665c-0.723,0-1.176-0.471-1.562-1.126c-0.371,0.656-0.834,1.009-1.463,1.009
		c-0.816,0-1.404-0.588-1.404-1.665c0-1.168,0.58-1.555,1.311-1.555c0.631,0,1.035,0.37,1.447,1.109
		c0.436-0.824,0.84-1.236,1.58-1.236C172.236,164.133,172.882,164.688,172.882,165.932z M167.56,165.907
		c0,0.555,0.338,0.9,0.832,0.9c0.506,0,0.842-0.277,1.186-0.925c-0.369-0.665-0.664-0.958-1.092-0.958
		C167.88,164.923,167.56,165.209,167.56,165.907z M170.2,165.982c0.387,0.647,0.732,0.942,1.211,0.942
		c0.613,0,0.975-0.37,0.975-1.102c0-0.605-0.361-1.017-0.883-1.017C170.923,164.806,170.587,165.217,170.2,165.982z"/>
	<path d="M169.468,160.396l-0.705,1.026l1.236-0.084v0.647l-1.236-0.084l0.705,1.026l-0.529,0.294l-0.537-1.11l-0.547,1.11
		l-0.529-0.294l0.705-1.026l-1.234,0.084v-0.647l1.234,0.076l-0.705-1.018l0.529-0.303l0.537,1.11l0.547-1.11L169.468,160.396z"/>
	<path d="M169.468,156.195l-0.705,1.026l1.236-0.084v0.647l-1.236-0.084l0.705,1.026l-0.529,0.294l-0.537-1.11l-0.547,1.11
		l-0.529-0.294l0.705-1.026l-1.234,0.084v-0.647l1.234,0.076l-0.705-1.018l0.529-0.303l0.537,1.11l0.547-1.11L169.468,156.195z"/>
</g>
<circle fill="#243E8F" cx="170.633" cy="148.191" r="4"/>
<circle fill="#9A9BC7" cx="170.633" cy="134.305" r="4"/>
<circle fill="#9A9BC7" cx="170.633" cy="120.146" r="4"/>
<circle fill="#243E8F" cx="170.633" cy="189.686" r="4"/>
<rect x="184.477" y="158.605" fill="none" width="8.75" height="21.961"/>
<g enable-background="new    ">
	<path d="M185.261,180.164h-0.547c-1.918-1.858-2.809-2.363-3.564-2.363c-0.832,0-1.061,0.462-1.061,0.992
		c0,0.361,0.102,0.706,0.262,1.16l-0.463,0.118c-0.227-0.53-0.369-0.917-0.369-1.564c0-0.756,0.377-1.488,1.529-1.488
		c0.959,0,1.867,0.563,3.615,2.346v-2.497h0.598V180.164z"/>
	<path d="M185.327,174.315c0,1.084-0.596,1.648-2.842,1.648c-2.262,0-2.967-0.581-2.967-1.741c0-1.068,0.58-1.639,2.816-1.639
		C184.638,172.583,185.327,173.188,185.327,174.315z M180.031,174.273c0,0.698,0.555,1,2.338,1c1.916,0,2.438-0.294,2.438-1
		c0-0.698-0.562-1.009-2.354-1.009C180.552,173.264,180.031,173.567,180.031,174.273z"/>
	<path d="M185.327,170.116c0,1.084-0.596,1.647-2.842,1.647c-2.262,0-2.967-0.58-2.967-1.74c0-1.068,0.58-1.639,2.816-1.639
		C184.638,168.384,185.327,168.989,185.327,170.116z M180.031,170.074c0,0.698,0.555,1,2.338,1c1.916,0,2.438-0.294,2.438-1
		c0-0.698-0.562-1.009-2.354-1.009C180.552,169.064,180.031,169.367,180.031,170.074z"/>
	<path d="M185.327,166.218c0,0.37-0.066,0.756-0.277,1.328l-0.412-0.067c0.109-0.454,0.168-0.832,0.168-1.202
		c0-0.791-0.654-1.32-2.303-1.337c0.26,0.454,0.402,0.807,0.402,1.261c0,0.883-0.562,1.371-1.521,1.371
		c-1.15,0-1.865-0.647-1.865-1.64c0-1.084,0.545-1.673,2.715-1.673C184.74,164.259,185.327,165.175,185.327,166.218z
		 M181.99,164.948c-1.369,0-1.959,0.328-1.959,1.026c0,0.622,0.463,0.925,1.236,0.925c0.732,0,1.109-0.277,1.109-0.941
		c0-0.286-0.1-0.58-0.354-1.009H181.99z"/>
</g>
<circle fill="#243E8F" cx="183.963" cy="148.191" r="4"/>
<circle fill="#243E8F" cx="183.963" cy="231.838" r="4"/>
<circle fill="#243E8F" cx="183.963" cy="218.282" r="4"/>
<circle fill="#243E8F" cx="183.963" cy="203.984" r="4"/>
<circle fill="#243E8F" cx="183.963" cy="189.686" r="4"/>
<rect x="196.922" y="158.605" fill="none" width="8.75" height="21.961"/>
<g enable-background="new    ">
	<path d="M197.705,180.164h-0.547c-1.917-1.858-2.808-2.363-3.564-2.363c-0.832,0-1.06,0.462-1.06,0.992
		c0,0.361,0.102,0.706,0.261,1.16l-0.462,0.118c-0.228-0.53-0.37-0.917-0.37-1.564c0-0.756,0.378-1.488,1.53-1.488
		c0.958,0,1.866,0.563,3.615,2.346v-2.497h0.597V180.164z"/>
	<path d="M197.773,174.315c0,1.084-0.597,1.648-2.842,1.648c-2.262,0-2.968-0.581-2.968-1.741c0-1.068,0.58-1.639,2.816-1.639
		C197.083,172.583,197.773,173.188,197.773,174.315z M192.476,174.273c0,0.698,0.555,1,2.337,1c1.917,0,2.438-0.294,2.438-1
		c0-0.698-0.563-1.009-2.354-1.009C192.997,173.264,192.476,173.567,192.476,174.273z"/>
	<path d="M197.705,171.553h-0.547v-1.278h-4.464l0.454,1.144l-0.412,0.168l-0.706-1.471v-0.555h5.128v-1.144h0.547V171.553z"/>
	<path d="M197.773,165.916c0,1.084-0.597,1.647-2.842,1.647c-2.262,0-2.968-0.58-2.968-1.74c0-1.068,0.58-1.639,2.816-1.639
		C197.083,164.184,197.773,164.789,197.773,165.916z M192.476,165.874c0,0.698,0.555,1,2.337,1c1.917,0,2.438-0.294,2.438-1
		c0-0.698-0.563-1.009-2.354-1.009C192.997,164.864,192.476,165.167,192.476,165.874z"/>
</g>
<circle fill="#243E8F" cx="196.087" cy="218.282" r="4"/>
<circle fill="#243E8F" cx="196.087" cy="203.984" r="4"/>
<circle fill="#243E8F" cx="196.087" cy="189.686" r="4"/>
<rect x="209.365" y="158.605" fill="none" width="8.75" height="21.961"/>
<g enable-background="new    ">
	<path d="M210.15,180.164h-0.547c-1.916-1.858-2.807-2.363-3.564-2.363c-0.832,0-1.059,0.462-1.059,0.992
		c0,0.361,0.102,0.706,0.26,1.16l-0.461,0.118c-0.229-0.53-0.371-0.917-0.371-1.564c0-0.756,0.379-1.488,1.531-1.488
		c0.957,0,1.865,0.563,3.615,2.346v-2.497h0.596V180.164z"/>
	<path d="M210.218,174.315c0,1.084-0.598,1.648-2.842,1.648c-2.262,0-2.969-0.581-2.969-1.741c0-1.068,0.58-1.639,2.816-1.639
		C209.529,172.583,210.218,173.188,210.218,174.315z M204.921,174.273c0,0.698,0.555,1,2.336,1c1.918,0,2.439-0.294,2.439-1
		c0-0.698-0.564-1.009-2.355-1.009C205.443,173.264,204.921,173.567,204.921,174.273z"/>
	<path d="M210.15,171.553h-0.547v-1.278h-4.463l0.453,1.144l-0.412,0.168l-0.705-1.471v-0.555h5.127v-1.144h0.547V171.553z"/>
	<path d="M210.15,167.353h-0.547v-1.278h-4.463l0.453,1.144l-0.412,0.168l-0.705-1.471v-0.555h5.127v-1.144h0.547V167.353z"/>
</g>
<circle fill="#243E8F" cx="206.725" cy="148.191" r="4"/>
<circle fill="#243E8F" cx="206.725" cy="134.306" r="4"/>
<circle fill="#243E8F" cx="206.725" cy="120.147" r="4"/>
<circle fill="#243E8F" cx="208.1" cy="189.686" r="4"/>
<rect x="221.811" y="158.605" fill="none" width="8.75" height="21.961"/>
<g enable-background="new    ">
	<path d="M222.595,180.164h-0.547c-1.917-1.858-2.808-2.363-3.564-2.363c-0.832,0-1.06,0.462-1.06,0.992
		c0,0.361,0.102,0.706,0.261,1.16l-0.462,0.118c-0.228-0.53-0.37-0.917-0.37-1.564c0-0.756,0.378-1.488,1.53-1.488
		c0.958,0,1.866,0.563,3.615,2.346v-2.497h0.597V180.164z"/>
	<path d="M222.662,174.315c0,1.084-0.597,1.648-2.842,1.648c-2.262,0-2.968-0.581-2.968-1.741c0-1.068,0.58-1.639,2.816-1.639
		C221.973,172.583,222.662,173.188,222.662,174.315z M217.365,174.273c0,0.698,0.555,1,2.337,1c1.917,0,2.438-0.294,2.438-1
		c0-0.698-0.563-1.009-2.354-1.009C217.887,173.264,217.365,173.567,217.365,174.273z"/>
	<path d="M222.595,171.553h-0.547v-1.278h-4.464l0.454,1.144l-0.412,0.168l-0.706-1.471v-0.555h5.128v-1.144h0.547V171.553z"/>
	<path d="M222.595,167.563h-0.547c-1.917-1.858-2.808-2.362-3.564-2.362c-0.832,0-1.06,0.462-1.06,0.992
		c0,0.361,0.102,0.706,0.261,1.16l-0.462,0.118c-0.228-0.53-0.37-0.917-0.37-1.564c0-0.756,0.378-1.488,1.53-1.488
		c0.958,0,1.866,0.563,3.615,2.346v-2.497h0.597V167.563z"/>
</g>
<circle fill="#243E8F" cx="219.429" cy="148.191" r="4"/>
<circle fill="#243E8F" cx="219.429" cy="134.305" r="4"/>
<circle fill="#243E8F" cx="219.429" cy="218.282" r="4"/>
<circle fill="#243E8F" cx="219.429" cy="203.984" r="4"/>
<circle fill="#243E8F" cx="219.429" cy="189.686" r="4"/>
<rect x="234.255" y="158.605" fill="none" width="8.75" height="21.961"/>
<g enable-background="new    ">
	<path d="M235.039,180.164h-0.547c-1.917-1.858-2.808-2.363-3.564-2.363c-0.832,0-1.06,0.462-1.06,0.992
		c0,0.361,0.102,0.706,0.261,1.16l-0.462,0.118c-0.228-0.53-0.37-0.917-0.37-1.564c0-0.756,0.378-1.488,1.53-1.488
		c0.958,0,1.866,0.563,3.615,2.346v-2.497h0.597V180.164z"/>
	<path d="M235.107,174.315c0,1.084-0.597,1.648-2.842,1.648c-2.262,0-2.968-0.581-2.968-1.741c0-1.068,0.58-1.639,2.816-1.639
		C234.417,172.583,235.107,173.188,235.107,174.315z M229.81,174.273c0,0.698,0.555,1,2.337,1c1.917,0,2.438-0.294,2.438-1
		c0-0.698-0.563-1.009-2.354-1.009C230.331,173.264,229.81,173.567,229.81,174.273z"/>
	<path d="M235.039,171.553h-0.547v-1.278h-4.464l0.454,1.144l-0.412,0.168l-0.706-1.471v-0.555h5.128v-1.144h0.547V171.553z"/>
	<path d="M235.107,166.109c0,0.412-0.101,0.925-0.328,1.563l-0.412-0.067c0.126-0.581,0.193-1.034,0.193-1.396
		c0-0.866-0.378-1.152-1.144-1.152c-0.697,0-1.126,0.303-1.126,1.169v0.647h-0.521v-0.623c0-0.698-0.345-1.034-1.034-1.034
		c-0.555,0-0.892,0.236-0.892,0.976c0,0.336,0.085,0.866,0.202,1.186l-0.454,0.101c-0.143-0.345-0.294-0.883-0.294-1.53
		c0-1.017,0.605-1.471,1.354-1.471c0.757,0,1.193,0.378,1.32,0.875c0.042-0.698,0.706-1.06,1.37-1.06
		C234.552,164.292,235.107,164.898,235.107,166.109z"/>
</g>
<circle fill="#243E8F" cx="231.758" cy="148.191" r="4"/>
<circle fill="#243E8F" cx="231.758" cy="134.306" r="4"/>
<circle fill="#243E8F" cx="231.758" cy="120.147" r="4"/>
<circle fill="#243E8F" cx="231.758" cy="203.984" r="4"/>
<circle fill="#243E8F" cx="231.758" cy="189.686" r="4"/>
<rect x="246.698" y="158.605" fill="none" width="8.75" height="21.961"/>
<g enable-background="new    ">
	<path d="M247.484,180.164h-0.547c-1.918-1.858-2.809-2.363-3.564-2.363c-0.832,0-1.061,0.462-1.061,0.992
		c0,0.361,0.102,0.706,0.262,1.16l-0.463,0.118c-0.227-0.53-0.369-0.917-0.369-1.564c0-0.756,0.377-1.488,1.529-1.488
		c0.959,0,1.867,0.563,3.615,2.346v-2.497h0.598V180.164z"/>
	<path d="M247.55,174.315c0,1.084-0.596,1.648-2.842,1.648c-2.262,0-2.967-0.581-2.967-1.741c0-1.068,0.58-1.639,2.816-1.639
		C246.861,172.583,247.55,173.188,247.55,174.315z M242.253,174.273c0,0.698,0.555,1,2.338,1c1.916,0,2.438-0.294,2.438-1
		c0-0.698-0.562-1.009-2.354-1.009C242.775,173.264,242.253,173.567,242.253,174.273z"/>
	<path d="M247.484,171.553h-0.547v-1.278h-4.465l0.455,1.144l-0.412,0.168l-0.707-1.471v-0.555h5.129v-1.144h0.547V171.553z"/>
	<path d="M246.163,164.713h1.32v0.673h-1.32v2.354h-0.521c-1.312-0.639-2.725-1.404-3.834-2.085v-0.942h3.758v-0.681h0.598V164.713z
		 M242.38,165.386c0.865,0.513,2.035,1.194,3.186,1.749v-1.749H242.38z"/>
</g>
<circle fill="#243E8F" cx="245.088" cy="148.191" r="4"/>
<circle fill="#243E8F" cx="245.088" cy="134.306" r="4"/>
<circle fill="#243E8F" cx="245.088" cy="120.147" r="4"/>
<circle fill="#243E8F" cx="245.088" cy="105.897" r="4"/>
<circle fill="#243E8F" cx="245.088" cy="218.282" r="4"/>
<circle fill="#243E8F" cx="245.088" cy="203.984" r="4"/>
<circle fill="#243E8F" cx="245.088" cy="189.686" r="4"/>
<g enable-background="new    ">
	<path d="M259.927,180.163h-0.547c-1.917-1.858-2.808-2.363-3.564-2.363c-0.832,0-1.06,0.462-1.06,0.992
		c0,0.361,0.102,0.706,0.261,1.16l-0.462,0.118c-0.228-0.53-0.37-0.917-0.37-1.564c0-0.756,0.378-1.488,1.53-1.488
		c0.958,0,1.866,0.563,3.615,2.346v-2.497h0.597V180.163z"/>
	<path d="M259.994,174.314c0,1.084-0.597,1.648-2.842,1.648c-2.262,0-2.968-0.581-2.968-1.741c0-1.068,0.58-1.639,2.816-1.639
		C259.305,172.583,259.994,173.188,259.994,174.314z M254.698,174.272c0,0.698,0.555,1,2.337,1c1.917,0,2.438-0.294,2.438-1
		c0-0.698-0.563-1.009-2.354-1.009C255.219,173.263,254.698,173.566,254.698,174.272z"/>
	<path d="M259.927,171.552h-0.547v-1.278h-4.464l0.454,1.144l-0.412,0.168l-0.706-1.471v-0.555h5.128v-1.144h0.547V171.552z"/>
	<path d="M259.994,166.133c0,0.404-0.093,0.917-0.312,1.539l-0.403-0.059c0.109-0.563,0.185-1.051,0.185-1.438
		c0-0.79-0.319-1.16-1.193-1.16c-0.766,0-1.244,0.353-1.244,1.236c0,0.378,0.042,0.731,0.126,1.161l-2.9-0.177v-2.556h0.588v2.01
		l1.698,0.109c-0.042-0.177-0.059-0.496-0.059-0.782c0-1.144,0.664-1.732,1.707-1.732
		C259.406,164.283,259.994,164.88,259.994,166.133z"/>
</g>
<circle fill="#243E8F" cx="257.417" cy="148.191" r="4"/>
<circle fill="#243E8F" cx="257.417" cy="189.686" r="4"/>
<rect x="4" y="388.452" fill="none" width="105" height="6.75"/>
<g enable-background="new    ">
	<path d="M4.622,394.407v-5.675h1.135v4.817h1.648v0.857H4.622z"/>
	<path d="M10.043,394.5c-1.446,0-2.278-0.731-2.278-2.834c0-2.11,0.975-3.026,2.413-3.026c1.48,0,2.287,0.782,2.287,2.816
		C12.464,393.583,11.489,394.5,10.043,394.5z M10.085,389.505c-0.664,0-1.126,0.454-1.126,1.967c0,1.656,0.42,2.161,1.177,2.161
		c0.664,0,1.135-0.463,1.135-1.992C11.27,390.009,10.842,389.505,10.085,389.505z"/>
	<path d="M14.721,394.491c-0.647,0-1.228-0.235-1.69-0.563l0.286-0.588c0.454,0.21,0.899,0.319,1.202,0.319
		c0.589,0,0.958-0.27,0.958-0.731c0-1.11-2.371-0.892-2.371-2.674c0-0.976,0.756-1.605,1.816-1.605c0.53,0,1.042,0.143,1.521,0.462
		l-0.269,0.589c-0.361-0.144-0.731-0.228-1.067-0.228c-0.538,0-0.799,0.27-0.799,0.647c0,1.11,2.43,0.925,2.43,2.674
		C16.739,393.75,16.015,394.491,14.721,394.491z"/>
	<path d="M18.887,394.491c-0.647,0-1.228-0.235-1.69-0.563l0.286-0.588c0.454,0.21,0.899,0.319,1.202,0.319
		c0.589,0,0.958-0.27,0.958-0.731c0-1.11-2.371-0.892-2.371-2.674c0-0.976,0.756-1.605,1.816-1.605c0.53,0,1.042,0.143,1.521,0.462
		l-0.269,0.589c-0.361-0.144-0.731-0.228-1.067-0.228c-0.538,0-0.799,0.27-0.799,0.647c0,1.11,2.43,0.925,2.43,2.674
		C20.905,393.75,20.181,394.491,18.887,394.491z"/>
	<path d="M21.733,394.407v-5.675h2.943v0.865h-1.808v1.497h1.497v0.832h-1.497v1.606h1.841v0.874H21.733z"/>
	<path d="M27.01,394.491c-0.647,0-1.228-0.235-1.69-0.563l0.286-0.588c0.454,0.21,0.899,0.319,1.202,0.319
		c0.589,0,0.958-0.27,0.958-0.731c0-1.11-2.371-0.892-2.371-2.674c0-0.976,0.756-1.605,1.816-1.605c0.53,0,1.042,0.143,1.521,0.462
		l-0.269,0.589c-0.361-0.144-0.731-0.228-1.067-0.228c-0.538,0-0.799,0.27-0.799,0.647c0,1.11,2.43,0.925,2.43,2.674
		C29.027,393.75,28.304,394.491,27.01,394.491z"/>
	<path d="M33.402,394.423c-0.462,0-1-0.017-1.53-0.017v-5.675h1.867c1.202,0,1.724,0.546,1.724,1.337
		c0,0.622-0.303,1.009-0.749,1.219c0.597,0.109,1.042,0.622,1.042,1.312C35.756,393.6,35.058,394.423,33.402,394.423z
		 M33.528,389.522h-0.546v1.521h0.429c0.673,0,0.908-0.395,0.908-0.807S34.083,389.522,33.528,389.522z M33.503,391.817h-0.521
		v1.766c0.126,0.018,0.387,0.034,0.58,0.034c0.715,0,1-0.379,1-0.934C34.562,392.204,34.284,391.817,33.503,391.817z"/>
	<path d="M38.492,392.036v2.371h-1.135v-2.371c-0.589-0.983-1.068-2.001-1.53-3.304h1.244c0.286,0.832,0.58,1.547,0.942,2.262
		c0.361-0.682,0.647-1.497,0.883-2.262h1.126C39.568,390.001,39.081,391.12,38.492,392.036z"/>
	<path d="M43.935,394.491c-0.647,0-1.228-0.235-1.69-0.563l0.286-0.588c0.454,0.21,0.899,0.319,1.202,0.319
		c0.589,0,0.958-0.27,0.958-0.731c0-1.11-2.371-0.892-2.371-2.674c0-0.976,0.756-1.605,1.816-1.605c0.53,0,1.042,0.143,1.521,0.462
		l-0.269,0.589c-0.361-0.144-0.731-0.228-1.067-0.228c-0.538,0-0.799,0.27-0.799,0.647c0,1.11,2.43,0.925,2.43,2.674
		C45.952,393.75,45.229,394.491,43.935,394.491z"/>
	<path d="M46.781,394.407v-5.675h2.943v0.865h-1.808v1.497h1.497v0.832h-1.497v1.606h1.841v0.874H46.781z"/>
	<path d="M53.638,394.407c-0.067-0.319-0.16-0.79-0.244-1.118h-1.875c-0.076,0.319-0.168,0.731-0.236,1.118h-1.084
		c0.42-1.892,0.976-3.851,1.572-5.675h1.488c0.656,1.941,1.152,3.767,1.606,5.675H53.638z M52.427,389.732
		c-0.235,0.808-0.521,1.85-0.731,2.707h1.514C52.973,391.565,52.704,390.607,52.427,389.732z"/>
	<path d="M56.879,394.491c-0.647,0-1.228-0.235-1.69-0.563l0.286-0.588c0.454,0.21,0.899,0.319,1.202,0.319
		c0.589,0,0.958-0.27,0.958-0.731c0-1.11-2.371-0.892-2.371-2.674c0-0.976,0.756-1.605,1.816-1.605c0.53,0,1.042,0.143,1.521,0.462
		l-0.269,0.589c-0.361-0.144-0.731-0.228-1.067-0.228c-0.538,0-0.799,0.27-0.799,0.647c0,1.11,2.43,0.925,2.43,2.674
		C58.896,393.75,58.173,394.491,56.879,394.491z"/>
	<path d="M61.709,394.5c-1.446,0-2.278-0.731-2.278-2.834c0-2.11,0.975-3.026,2.413-3.026c1.48,0,2.287,0.782,2.287,2.816
		C64.131,393.583,63.155,394.5,61.709,394.5z M61.751,389.505c-0.664,0-1.126,0.454-1.126,1.967c0,1.656,0.42,2.161,1.177,2.161
		c0.665,0,1.135-0.463,1.135-1.992C62.937,390.009,62.508,389.505,61.751,389.505z"/>
	<path d="M68.102,394.407l-2.093-4.044v4.044h-0.942v-5.675h1.396l1.883,3.514v-3.514h0.942v5.675H68.102z"/>
</g>
</svg>
